ISO-10303-21;
HEADER;
/* Generated by software containing ST-Developer
 * from STEP Tools, Inc. (www.steptools.com) 
 */

FILE_DESCRIPTION(
/* description */ (''),
/* implementation_level */ '2;1');

FILE_NAME(
/* name */ 'HullFront_Hull_HullFront_selection.step',
/* time_stamp */ '2026-08-17T11:24:59+02:00',
/* author */ (''),
/* organization */ (''),
/* preprocessor_version */ 'ST-DEVELOPER v20.1',
/* originating_system */ 'Autodesk Translation Framework v15.8.0.0',
/* authorisation */ '');

FILE_SCHEMA (('AUTOMOTIVE_DESIGN { 1 0 10303 214 3 1 1 }'));
ENDSEC;

DATA;
#10=MECHANICAL_DESIGN_GEOMETRIC_PRESENTATION_REPRESENTATION('',(#13),#1293);
#11=SHAPE_REPRESENTATION_RELATIONSHIP('SRR','None',#1300,#12);
#12=ADVANCED_BREP_SHAPE_REPRESENTATION('',(#14),#1292);
#13=STYLED_ITEM('',(#1309),#14);
#14=MANIFOLD_SOLID_BREP('Hull',#689);
#15=ELLIPSE('',#735,10.4631603692907,5.00000000000004);
#16=ELLIPSE('',#744,10.4631603692907,5.);
#17=B_SPLINE_SURFACE_WITH_KNOTS('',3,3,((#1081,#1082,#1083,#1084),(#1085,
#1086,#1087,#1088),(#1089,#1090,#1091,#1092),(#1093,#1094,#1095,#1096)),
 .UNSPECIFIED.,.F.,.F.,.F.,(4,4),(4,4),(0.,1.),(-5.55111512312578E-17,0.231625457364315),
 .UNSPECIFIED.);
#18=B_SPLINE_SURFACE_WITH_KNOTS('',3,3,((#1169,#1170,#1171,#1172),(#1173,
#1174,#1175,#1176),(#1177,#1178,#1179,#1180),(#1181,#1182,#1183,#1184)),
 .UNSPECIFIED.,.F.,.F.,.F.,(4,4),(4,4),(0.,1.),(1.33916985709528,1.57079632987596),
 .UNSPECIFIED.);
#19=B_SPLINE_CURVE_WITH_KNOTS('',3,(#1053,#1054,#1055,#1056,#1057,#1058,
#1059,#1060,#1061,#1062,#1063,#1064),.UNSPECIFIED.,.F.,.F.,(4,2,2,2,2,4),
(1.79038756702085,1.92732512336825,2.06426267971564,2.27748709275926,2.49071150580287,
2.87967258699644),.UNSPECIFIED.);
#20=B_SPLINE_CURVE_WITH_KNOTS('',3,(#1071,#1072,#1073,#1074,#1075,#1076,
#1077,#1078,#1079,#1080),.UNSPECIFIED.,.F.,.F.,(4,2,2,2,4),(0.391138886593432,
0.585179277451298,0.713716627048186,0.77798530184663,0.822605003241767),
 .UNSPECIFIED.);
#21=B_SPLINE_CURVE_WITH_KNOTS('',3,(#1098,#1099,#1100,#1101,#1102,#1103,
#1104,#1105,#1106,#1107),.UNSPECIFIED.,.F.,.F.,(4,2,2,2,4),(0.694449281148113,
0.924441743103458,1.18721503211817,1.33444131688492,1.44777466984455),
 .UNSPECIFIED.);
#22=B_SPLINE_CURVE_WITH_KNOTS('',3,(#1109,#1110,#1111,#1112),
 .UNSPECIFIED.,.F.,.F.,(4,4),(-0.231625457364315,5.55111512312578E-17),
 .UNSPECIFIED.);
#23=B_SPLINE_CURVE_WITH_KNOTS('',3,(#1115,#1116,#1117,#1118,#1119,#1120),
 .UNSPECIFIED.,.F.,.F.,(4,2,4),(0.463496322945691,0.505373613900272,0.692783096489567),
 .UNSPECIFIED.);
#24=B_SPLINE_CURVE_WITH_KNOTS('',3,(#1141,#1142,#1143,#1144,#1145,#1146,
#1147,#1148,#1149,#1150),.UNSPECIFIED.,.F.,.F.,(4,2,2,2,4),(0.861902950047851,
0.906522651443455,0.970791326241895,1.09932867583877,1.29336906669653),
 .UNSPECIFIED.);
#25=B_SPLINE_CURVE_WITH_KNOTS('',3,(#1157,#1158,#1159,#1160,#1161,#1162,
#1163,#1164,#1165,#1166,#1167,#1168),.UNSPECIFIED.,.F.,.F.,(4,2,2,2,2,4),
(0.701102547048163,1.09006362823917,1.30328804128285,1.51651245432653,1.65345001067397,
1.79038756702141),.UNSPECIFIED.);
#26=B_SPLINE_CURVE_WITH_KNOTS('',3,(#1187,#1188,#1189,#1190,#1191,#1192),
 .UNSPECIFIED.,.F.,.F.,(4,2,4),(0.452800986963141,0.718023781045644,0.76347486838129),
 .UNSPECIFIED.);
#27=B_SPLINE_CURVE_WITH_KNOTS('',3,(#1195,#1196,#1197,#1198),
 .UNSPECIFIED.,.F.,.F.,(4,4),(-1.57079632987596,-1.33916985709528),
 .UNSPECIFIED.);
#28=B_SPLINE_CURVE_WITH_KNOTS('',3,(#1199,#1200,#1201,#1202,#1203,#1204,
#1205,#1206,#1207,#1208),.UNSPECIFIED.,.F.,.F.,(4,2,2,2,4),(0.,0.0648588247763918,
0.153826896264829,0.318730430552718,0.472397982777564),.UNSPECIFIED.);
#29=CONICAL_SURFACE('',#731,17.28,0.498225017158994);
#30=CONICAL_SURFACE('',#740,17.28,0.498225017158994);
#31=FACE_BOUND('',#97,.T.);
#32=FACE_BOUND('',#128,.T.);
#33=FACE_BOUND('',#137,.T.);
#34=FACE_BOUND('',#138,.T.);
#35=PLANE('',#706);
#36=PLANE('',#708);
#37=PLANE('',#713);
#38=PLANE('',#714);
#39=PLANE('',#719);
#40=PLANE('',#722);
#41=PLANE('',#726);
#42=PLANE('',#730);
#43=PLANE('',#734);
#44=PLANE('',#743);
#45=PLANE('',#745);
#46=PLANE('',#746);
#47=PLANE('',#755);
#48=PLANE('',#766);
#49=PLANE('',#767);
#50=PLANE('',#768);
#51=PLANE('',#771);
#52=PLANE('',#772);
#53=PLANE('',#775);
#54=PLANE('',#778);
#55=FACE_OUTER_BOUND('',#95,.T.);
#56=FACE_OUTER_BOUND('',#96,.T.);
#57=FACE_OUTER_BOUND('',#98,.T.);
#58=FACE_OUTER_BOUND('',#99,.T.);
#59=FACE_OUTER_BOUND('',#100,.T.);
#60=FACE_OUTER_BOUND('',#101,.T.);
#61=FACE_OUTER_BOUND('',#102,.T.);
#62=FACE_OUTER_BOUND('',#103,.T.);
#63=FACE_OUTER_BOUND('',#104,.T.);
#64=FACE_OUTER_BOUND('',#105,.T.);
#65=FACE_OUTER_BOUND('',#106,.T.);
#66=FACE_OUTER_BOUND('',#107,.T.);
#67=FACE_OUTER_BOUND('',#108,.T.);
#68=FACE_OUTER_BOUND('',#109,.T.);
#69=FACE_OUTER_BOUND('',#110,.T.);
#70=FACE_OUTER_BOUND('',#111,.T.);
#71=FACE_OUTER_BOUND('',#112,.T.);
#72=FACE_OUTER_BOUND('',#113,.T.);
#73=FACE_OUTER_BOUND('',#114,.T.);
#74=FACE_OUTER_BOUND('',#115,.T.);
#75=FACE_OUTER_BOUND('',#116,.T.);
#76=FACE_OUTER_BOUND('',#117,.T.);
#77=FACE_OUTER_BOUND('',#118,.T.);
#78=FACE_OUTER_BOUND('',#119,.T.);
#79=FACE_OUTER_BOUND('',#120,.T.);
#80=FACE_OUTER_BOUND('',#121,.T.);
#81=FACE_OUTER_BOUND('',#122,.T.);
#82=FACE_OUTER_BOUND('',#123,.T.);
#83=FACE_OUTER_BOUND('',#124,.T.);
#84=FACE_OUTER_BOUND('',#125,.T.);
#85=FACE_OUTER_BOUND('',#126,.T.);
#86=FACE_OUTER_BOUND('',#127,.T.);
#87=FACE_OUTER_BOUND('',#129,.T.);
#88=FACE_OUTER_BOUND('',#130,.T.);
#89=FACE_OUTER_BOUND('',#131,.T.);
#90=FACE_OUTER_BOUND('',#132,.T.);
#91=FACE_OUTER_BOUND('',#133,.T.);
#92=FACE_OUTER_BOUND('',#134,.T.);
#93=FACE_OUTER_BOUND('',#135,.T.);
#94=FACE_OUTER_BOUND('',#136,.T.);
#95=EDGE_LOOP('',(#437,#438,#439,#440));
#96=EDGE_LOOP('',(#441,#442,#443,#444));
#97=EDGE_LOOP('',(#445));
#98=EDGE_LOOP('',(#446,#447,#448,#449));
#99=EDGE_LOOP('',(#450,#451,#452,#453));
#100=EDGE_LOOP('',(#454,#455,#456,#457));
#101=EDGE_LOOP('',(#458,#459,#460,#461));
#102=EDGE_LOOP('',(#462,#463,#464,#465));
#103=EDGE_LOOP('',(#466));
#104=EDGE_LOOP('',(#467,#468,#469,#470));
#105=EDGE_LOOP('',(#471));
#106=EDGE_LOOP('',(#472,#473,#474,#475));
#107=EDGE_LOOP('',(#476));
#108=EDGE_LOOP('',(#477,#478,#479,#480));
#109=EDGE_LOOP('',(#481));
#110=EDGE_LOOP('',(#482,#483,#484,#485,#486));
#111=EDGE_LOOP('',(#487,#488,#489,#490,#491));
#112=EDGE_LOOP('',(#492,#493,#494));
#113=EDGE_LOOP('',(#495,#496,#497,#498,#499,#500,#501,#502,#503,#504,#505));
#114=EDGE_LOOP('',(#506,#507,#508,#509,#510));
#115=EDGE_LOOP('',(#511,#512,#513,#514,#515));
#116=EDGE_LOOP('',(#516,#517,#518));
#117=EDGE_LOOP('',(#519,#520,#521,#522,#523,#524,#525,#526));
#118=EDGE_LOOP('',(#527,#528));
#119=EDGE_LOOP('',(#529,#530,#531,#532));
#120=EDGE_LOOP('',(#533,#534,#535,#536,#537,#538));
#121=EDGE_LOOP('',(#539,#540,#541,#542,#543));
#122=EDGE_LOOP('',(#544,#545));
#123=EDGE_LOOP('',(#546,#547,#548,#549,#550));
#124=EDGE_LOOP('',(#551,#552,#553,#554,#555,#556));
#125=EDGE_LOOP('',(#557,#558,#559,#560));
#126=EDGE_LOOP('',(#561,#562,#563,#564,#565,#566,#567,#568,#569,#570,#571));
#127=EDGE_LOOP('',(#572,#573,#574,#575));
#128=EDGE_LOOP('',(#576));
#129=EDGE_LOOP('',(#577,#578,#579,#580));
#130=EDGE_LOOP('',(#581,#582,#583,#584,#585,#586,#587,#588,#589,#590,#591,
#592,#593,#594,#595,#596));
#131=EDGE_LOOP('',(#597,#598,#599,#600));
#132=EDGE_LOOP('',(#601,#602,#603,#604));
#133=EDGE_LOOP('',(#605,#606,#607,#608));
#134=EDGE_LOOP('',(#609,#610,#611,#612));
#135=EDGE_LOOP('',(#613,#614,#615,#616));
#136=EDGE_LOOP('',(#617,#618,#619,#620,#621,#622,#623,#624,#625,#626,#627,
#628,#629,#630));
#137=EDGE_LOOP('',(#631));
#138=EDGE_LOOP('',(#632));
#139=LINE('',#989,#189);
#140=LINE('',#992,#190);
#141=LINE('',#995,#191);
#142=LINE('',#997,#192);
#143=LINE('',#998,#193);
#144=LINE('',#1003,#194);
#145=LINE('',#1010,#195);
#146=LINE('',#1013,#196);
#147=LINE('',#1016,#197);
#148=LINE('',#1018,#198);
#149=LINE('',#1019,#199);
#150=LINE('',#1022,#200);
#151=LINE('',#1028,#201);
#152=LINE('',#1033,#202);
#153=LINE('',#1040,#203);
#154=LINE('',#1047,#204);
#155=LINE('',#1068,#205);
#156=LINE('',#1114,#206);
#157=LINE('',#1124,#207);
#158=LINE('',#1127,#208);
#159=LINE('',#1131,#209);
#160=LINE('',#1134,#210);
#161=LINE('',#1137,#211);
#162=LINE('',#1154,#212);
#163=LINE('',#1194,#213);
#164=LINE('',#1212,#214);
#165=LINE('',#1215,#215);
#166=LINE('',#1216,#216);
#167=LINE('',#1218,#217);
#168=LINE('',#1220,#218);
#169=LINE('',#1221,#219);
#170=LINE('',#1227,#220);
#171=LINE('',#1232,#221);
#172=LINE('',#1239,#222);
#173=LINE('',#1243,#223);
#174=LINE('',#1247,#224);
#175=LINE('',#1251,#225);
#176=LINE('',#1255,#226);
#177=LINE('',#1258,#227);
#178=LINE('',#1260,#228);
#179=LINE('',#1263,#229);
#180=LINE('',#1267,#230);
#181=LINE('',#1270,#231);
#182=LINE('',#1273,#232);
#183=LINE('',#1274,#233);
#184=LINE('',#1277,#234);
#185=LINE('',#1278,#235);
#186=LINE('',#1282,#236);
#187=LINE('',#1285,#237);
#188=LINE('',#1286,#238);
#189=VECTOR('',#785,10.);
#190=VECTOR('',#788,10.);
#191=VECTOR('',#791,10.);
#192=VECTOR('',#792,10.);
#193=VECTOR('',#793,10.);
#194=VECTOR('',#798,10.);
#195=VECTOR('',#805,10.);
#196=VECTOR('',#808,10.);
#197=VECTOR('',#811,10.);
#198=VECTOR('',#812,10.);
#199=VECTOR('',#813,10.);
#200=VECTOR('',#816,10.);
#201=VECTOR('',#823,2.7);
#202=VECTOR('',#830,2.7);
#203=VECTOR('',#839,2.625);
#204=VECTOR('',#848,2.625);
#205=VECTOR('',#857,10.);
#206=VECTOR('',#860,10.);
#207=VECTOR('',#865,10.);
#208=VECTOR('',#868,10.);
#209=VECTOR('',#871,10.);
#210=VECTOR('',#874,10.);
#211=VECTOR('',#877,10.);
#212=VECTOR('',#882,10.);
#213=VECTOR('',#885,10.);
#214=VECTOR('',#890,10.);
#215=VECTOR('',#893,10.);
#216=VECTOR('',#894,10.);
#217=VECTOR('',#895,10.);
#218=VECTOR('',#896,10.);
#219=VECTOR('',#897,10.);
#220=VECTOR('',#906,10.);
#221=VECTOR('',#913,10.);
#222=VECTOR('',#924,10.);
#223=VECTOR('',#929,10.);
#224=VECTOR('',#934,10.);
#225=VECTOR('',#939,10.);
#226=VECTOR('',#942,10.);
#227=VECTOR('',#947,10.);
#228=VECTOR('',#950,10.);
#229=VECTOR('',#953,10.);
#230=VECTOR('',#956,10.);
#231=VECTOR('',#959,10.);
#232=VECTOR('',#962,10.);
#233=VECTOR('',#963,10.);
#234=VECTOR('',#966,10.);
#235=VECTOR('',#967,10.);
#236=VECTOR('',#972,10.);
#237=VECTOR('',#975,10.);
#238=VECTOR('',#976,10.);
#239=CIRCLE('',#704,3.);
#240=CIRCLE('',#705,3.);
#241=CIRCLE('',#707,2.7);
#242=CIRCLE('',#709,20.);
#243=CIRCLE('',#711,3.);
#244=CIRCLE('',#712,3.);
#245=CIRCLE('',#715,20.);
#246=CIRCLE('',#717,2.7);
#247=CIRCLE('',#718,2.7);
#248=CIRCLE('',#721,2.7);
#249=CIRCLE('',#724,2.625);
#250=CIRCLE('',#725,2.625);
#251=CIRCLE('',#728,2.625);
#252=CIRCLE('',#729,2.625);
#253=CIRCLE('',#732,20.);
#254=CIRCLE('',#733,14.56);
#255=CIRCLE('',#737,20.);
#256=CIRCLE('',#738,20.);
#257=CIRCLE('',#739,20.);
#258=CIRCLE('',#741,14.56);
#259=CIRCLE('',#742,20.);
#260=CIRCLE('',#747,4.);
#261=CIRCLE('',#749,6.00000000000052);
#262=CIRCLE('',#751,4.00000000000032);
#263=CIRCLE('',#752,4.00000000000032);
#264=CIRCLE('',#754,5.00000000000004);
#265=CIRCLE('',#757,5.);
#266=CIRCLE('',#759,4.);
#267=CIRCLE('',#761,6.00000000000191);
#268=CIRCLE('',#763,20.);
#269=CIRCLE('',#764,20.);
#270=CIRCLE('',#765,20.);
#271=CIRCLE('',#769,22.);
#272=CIRCLE('',#770,21.9999999999999);
#273=CIRCLE('',#774,22.);
#274=CIRCLE('',#777,21.9999999999999);
#275=VERTEX_POINT('',#985);
#276=VERTEX_POINT('',#986);
#277=VERTEX_POINT('',#988);
#278=VERTEX_POINT('',#990);
#279=VERTEX_POINT('',#994);
#280=VERTEX_POINT('',#996);
#281=VERTEX_POINT('',#999);
#282=VERTEX_POINT('',#1002);
#283=VERTEX_POINT('',#1006);
#284=VERTEX_POINT('',#1007);
#285=VERTEX_POINT('',#1009);
#286=VERTEX_POINT('',#1011);
#287=VERTEX_POINT('',#1015);
#288=VERTEX_POINT('',#1017);
#289=VERTEX_POINT('',#1021);
#290=VERTEX_POINT('',#1025);
#291=VERTEX_POINT('',#1027);
#292=VERTEX_POINT('',#1032);
#293=VERTEX_POINT('',#1037);
#294=VERTEX_POINT('',#1039);
#295=VERTEX_POINT('',#1044);
#296=VERTEX_POINT('',#1046);
#297=VERTEX_POINT('',#1051);
#298=VERTEX_POINT('',#1052);
#299=VERTEX_POINT('',#1065);
#300=VERTEX_POINT('',#1067);
#301=VERTEX_POINT('',#1069);
#302=VERTEX_POINT('',#1097);
#303=VERTEX_POINT('',#1108);
#304=VERTEX_POINT('',#1113);
#305=VERTEX_POINT('',#1122);
#306=VERTEX_POINT('',#1126);
#307=VERTEX_POINT('',#1128);
#308=VERTEX_POINT('',#1130);
#309=VERTEX_POINT('',#1133);
#310=VERTEX_POINT('',#1135);
#311=VERTEX_POINT('',#1139);
#312=VERTEX_POINT('',#1140);
#313=VERTEX_POINT('',#1151);
#314=VERTEX_POINT('',#1153);
#315=VERTEX_POINT('',#1155);
#316=VERTEX_POINT('',#1185);
#317=VERTEX_POINT('',#1186);
#318=VERTEX_POINT('',#1193);
#319=VERTEX_POINT('',#1210);
#320=VERTEX_POINT('',#1214);
#321=VERTEX_POINT('',#1217);
#322=VERTEX_POINT('',#1219);
#323=VERTEX_POINT('',#1225);
#324=VERTEX_POINT('',#1229);
#325=VERTEX_POINT('',#1237);
#326=VERTEX_POINT('',#1241);
#327=VERTEX_POINT('',#1245);
#328=VERTEX_POINT('',#1250);
#329=VERTEX_POINT('',#1252);
#330=VERTEX_POINT('',#1254);
#331=VERTEX_POINT('',#1262);
#332=VERTEX_POINT('',#1264);
#333=VERTEX_POINT('',#1266);
#334=VERTEX_POINT('',#1268);
#335=VERTEX_POINT('',#1272);
#336=VERTEX_POINT('',#1276);
#337=VERTEX_POINT('',#1280);
#338=VERTEX_POINT('',#1284);
#339=EDGE_CURVE('',#275,#276,#239,.T.);
#340=EDGE_CURVE('',#276,#277,#139,.T.);
#341=EDGE_CURVE('',#277,#278,#240,.T.);
#342=EDGE_CURVE('',#278,#275,#140,.T.);
#343=EDGE_CURVE('',#278,#279,#141,.T.);
#344=EDGE_CURVE('',#279,#280,#142,.T.);
#345=EDGE_CURVE('',#275,#280,#143,.T.);
#346=EDGE_CURVE('',#281,#281,#241,.T.);
#347=EDGE_CURVE('',#277,#282,#144,.T.);
#348=EDGE_CURVE('',#282,#279,#242,.T.);
#349=EDGE_CURVE('',#283,#284,#243,.T.);
#350=EDGE_CURVE('',#284,#285,#145,.T.);
#351=EDGE_CURVE('',#285,#286,#244,.T.);
#352=EDGE_CURVE('',#286,#283,#146,.T.);
#353=EDGE_CURVE('',#286,#287,#147,.T.);
#354=EDGE_CURVE('',#287,#288,#148,.T.);
#355=EDGE_CURVE('',#283,#288,#149,.T.);
#356=EDGE_CURVE('',#285,#289,#150,.T.);
#357=EDGE_CURVE('',#289,#287,#245,.T.);
#358=EDGE_CURVE('',#290,#290,#246,.T.);
#359=EDGE_CURVE('',#290,#291,#151,.T.);
#360=EDGE_CURVE('',#291,#291,#247,.T.);
#361=EDGE_CURVE('',#281,#292,#152,.T.);
#362=EDGE_CURVE('',#292,#292,#248,.T.);
#363=EDGE_CURVE('',#293,#293,#249,.T.);
#364=EDGE_CURVE('',#293,#294,#153,.T.);
#365=EDGE_CURVE('',#294,#294,#250,.T.);
#366=EDGE_CURVE('',#295,#295,#251,.T.);
#367=EDGE_CURVE('',#295,#296,#154,.T.);
#368=EDGE_CURVE('',#296,#296,#252,.T.);
#369=EDGE_CURVE('',#297,#298,#19,.T.);
#370=EDGE_CURVE('',#297,#299,#253,.T.);
#371=EDGE_CURVE('',#299,#300,#155,.T.);
#372=EDGE_CURVE('',#300,#301,#254,.T.);
#373=EDGE_CURVE('',#298,#301,#20,.T.);
#374=EDGE_CURVE('',#302,#300,#21,.T.);
#375=EDGE_CURVE('',#299,#303,#22,.T.);
#376=EDGE_CURVE('',#303,#304,#156,.T.);
#377=EDGE_CURVE('',#304,#302,#23,.T.);
#378=EDGE_CURVE('',#305,#304,#15,.T.);
#379=EDGE_CURVE('',#303,#305,#157,.T.);
#380=EDGE_CURVE('',#306,#297,#158,.T.);
#381=EDGE_CURVE('',#307,#306,#255,.T.);
#382=EDGE_CURVE('',#308,#307,#159,.T.);
#383=EDGE_CURVE('',#288,#308,#256,.T.);
#384=EDGE_CURVE('',#289,#309,#160,.T.);
#385=EDGE_CURVE('',#310,#309,#257,.T.);
#386=EDGE_CURVE('',#310,#303,#161,.T.);
#387=EDGE_CURVE('',#311,#312,#24,.F.);
#388=EDGE_CURVE('',#312,#313,#258,.T.);
#389=EDGE_CURVE('',#313,#314,#162,.T.);
#390=EDGE_CURVE('',#314,#315,#259,.T.);
#391=EDGE_CURVE('',#315,#311,#25,.F.);
#392=EDGE_CURVE('',#316,#317,#26,.F.);
#393=EDGE_CURVE('',#316,#318,#163,.T.);
#394=EDGE_CURVE('',#318,#314,#27,.T.);
#395=EDGE_CURVE('',#317,#313,#28,.F.);
#396=EDGE_CURVE('',#319,#316,#16,.F.);
#397=EDGE_CURVE('',#319,#318,#164,.T.);
#398=EDGE_CURVE('',#320,#310,#165,.T.);
#399=EDGE_CURVE('',#320,#318,#166,.T.);
#400=EDGE_CURVE('',#319,#321,#167,.T.);
#401=EDGE_CURVE('',#322,#321,#168,.T.);
#402=EDGE_CURVE('',#305,#322,#169,.T.);
#403=EDGE_CURVE('',#312,#313,#260,.T.);
#404=EDGE_CURVE('',#323,#306,#261,.T.);
#405=EDGE_CURVE('',#323,#298,#170,.T.);
#406=EDGE_CURVE('',#324,#323,#262,.T.);
#407=EDGE_CURVE('',#300,#301,#263,.T.);
#408=EDGE_CURVE('',#324,#302,#171,.T.);
#409=EDGE_CURVE('',#322,#324,#264,.T.);
#410=EDGE_CURVE('',#325,#321,#265,.T.);
#411=EDGE_CURVE('',#325,#317,#172,.T.);
#412=EDGE_CURVE('',#326,#325,#266,.T.);
#413=EDGE_CURVE('',#326,#311,#173,.T.);
#414=EDGE_CURVE('',#327,#326,#267,.T.);
#415=EDGE_CURVE('',#327,#315,#174,.T.);
#416=EDGE_CURVE('',#280,#320,#268,.T.);
#417=EDGE_CURVE('',#282,#328,#175,.T.);
#418=EDGE_CURVE('',#329,#328,#269,.T.);
#419=EDGE_CURVE('',#329,#330,#176,.T.);
#420=EDGE_CURVE('',#327,#330,#270,.T.);
#421=EDGE_CURVE('',#309,#284,#177,.T.);
#422=EDGE_CURVE('',#328,#276,#178,.T.);
#423=EDGE_CURVE('',#308,#331,#179,.T.);
#424=EDGE_CURVE('',#331,#332,#271,.T.);
#425=EDGE_CURVE('',#332,#333,#180,.T.);
#426=EDGE_CURVE('',#333,#334,#272,.T.);
#427=EDGE_CURVE('',#334,#329,#181,.T.);
#428=EDGE_CURVE('',#335,#334,#182,.T.);
#429=EDGE_CURVE('',#330,#335,#183,.T.);
#430=EDGE_CURVE('',#336,#307,#184,.T.);
#431=EDGE_CURVE('',#331,#336,#185,.T.);
#432=EDGE_CURVE('',#337,#336,#273,.T.);
#433=EDGE_CURVE('',#332,#337,#186,.T.);
#434=EDGE_CURVE('',#338,#337,#187,.T.);
#435=EDGE_CURVE('',#333,#338,#188,.T.);
#436=EDGE_CURVE('',#335,#338,#274,.T.);
#437=ORIENTED_EDGE('',*,*,#339,.T.);
#438=ORIENTED_EDGE('',*,*,#340,.T.);
#439=ORIENTED_EDGE('',*,*,#341,.T.);
#440=ORIENTED_EDGE('',*,*,#342,.T.);
#441=ORIENTED_EDGE('',*,*,#342,.F.);
#442=ORIENTED_EDGE('',*,*,#343,.T.);
#443=ORIENTED_EDGE('',*,*,#344,.T.);
#444=ORIENTED_EDGE('',*,*,#345,.F.);
#445=ORIENTED_EDGE('',*,*,#346,.T.);
#446=ORIENTED_EDGE('',*,*,#341,.F.);
#447=ORIENTED_EDGE('',*,*,#347,.T.);
#448=ORIENTED_EDGE('',*,*,#348,.T.);
#449=ORIENTED_EDGE('',*,*,#343,.F.);
#450=ORIENTED_EDGE('',*,*,#349,.T.);
#451=ORIENTED_EDGE('',*,*,#350,.T.);
#452=ORIENTED_EDGE('',*,*,#351,.T.);
#453=ORIENTED_EDGE('',*,*,#352,.T.);
#454=ORIENTED_EDGE('',*,*,#352,.F.);
#455=ORIENTED_EDGE('',*,*,#353,.T.);
#456=ORIENTED_EDGE('',*,*,#354,.T.);
#457=ORIENTED_EDGE('',*,*,#355,.F.);
#458=ORIENTED_EDGE('',*,*,#351,.F.);
#459=ORIENTED_EDGE('',*,*,#356,.T.);
#460=ORIENTED_EDGE('',*,*,#357,.T.);
#461=ORIENTED_EDGE('',*,*,#353,.F.);
#462=ORIENTED_EDGE('',*,*,#358,.F.);
#463=ORIENTED_EDGE('',*,*,#359,.T.);
#464=ORIENTED_EDGE('',*,*,#360,.F.);
#465=ORIENTED_EDGE('',*,*,#359,.F.);
#466=ORIENTED_EDGE('',*,*,#360,.T.);
#467=ORIENTED_EDGE('',*,*,#346,.F.);
#468=ORIENTED_EDGE('',*,*,#361,.T.);
#469=ORIENTED_EDGE('',*,*,#362,.T.);
#470=ORIENTED_EDGE('',*,*,#361,.F.);
#471=ORIENTED_EDGE('',*,*,#362,.F.);
#472=ORIENTED_EDGE('',*,*,#363,.F.);
#473=ORIENTED_EDGE('',*,*,#364,.T.);
#474=ORIENTED_EDGE('',*,*,#365,.T.);
#475=ORIENTED_EDGE('',*,*,#364,.F.);
#476=ORIENTED_EDGE('',*,*,#365,.F.);
#477=ORIENTED_EDGE('',*,*,#366,.F.);
#478=ORIENTED_EDGE('',*,*,#367,.T.);
#479=ORIENTED_EDGE('',*,*,#368,.T.);
#480=ORIENTED_EDGE('',*,*,#367,.F.);
#481=ORIENTED_EDGE('',*,*,#368,.F.);
#482=ORIENTED_EDGE('',*,*,#369,.F.);
#483=ORIENTED_EDGE('',*,*,#370,.T.);
#484=ORIENTED_EDGE('',*,*,#371,.T.);
#485=ORIENTED_EDGE('',*,*,#372,.T.);
#486=ORIENTED_EDGE('',*,*,#373,.F.);
#487=ORIENTED_EDGE('',*,*,#374,.T.);
#488=ORIENTED_EDGE('',*,*,#371,.F.);
#489=ORIENTED_EDGE('',*,*,#375,.T.);
#490=ORIENTED_EDGE('',*,*,#376,.T.);
#491=ORIENTED_EDGE('',*,*,#377,.T.);
#492=ORIENTED_EDGE('',*,*,#378,.T.);
#493=ORIENTED_EDGE('',*,*,#376,.F.);
#494=ORIENTED_EDGE('',*,*,#379,.T.);
#495=ORIENTED_EDGE('',*,*,#375,.F.);
#496=ORIENTED_EDGE('',*,*,#370,.F.);
#497=ORIENTED_EDGE('',*,*,#380,.F.);
#498=ORIENTED_EDGE('',*,*,#381,.F.);
#499=ORIENTED_EDGE('',*,*,#382,.F.);
#500=ORIENTED_EDGE('',*,*,#383,.F.);
#501=ORIENTED_EDGE('',*,*,#354,.F.);
#502=ORIENTED_EDGE('',*,*,#357,.F.);
#503=ORIENTED_EDGE('',*,*,#384,.T.);
#504=ORIENTED_EDGE('',*,*,#385,.F.);
#505=ORIENTED_EDGE('',*,*,#386,.T.);
#506=ORIENTED_EDGE('',*,*,#387,.T.);
#507=ORIENTED_EDGE('',*,*,#388,.T.);
#508=ORIENTED_EDGE('',*,*,#389,.T.);
#509=ORIENTED_EDGE('',*,*,#390,.T.);
#510=ORIENTED_EDGE('',*,*,#391,.T.);
#511=ORIENTED_EDGE('',*,*,#392,.F.);
#512=ORIENTED_EDGE('',*,*,#393,.T.);
#513=ORIENTED_EDGE('',*,*,#394,.T.);
#514=ORIENTED_EDGE('',*,*,#389,.F.);
#515=ORIENTED_EDGE('',*,*,#395,.F.);
#516=ORIENTED_EDGE('',*,*,#396,.F.);
#517=ORIENTED_EDGE('',*,*,#397,.T.);
#518=ORIENTED_EDGE('',*,*,#393,.F.);
#519=ORIENTED_EDGE('',*,*,#379,.F.);
#520=ORIENTED_EDGE('',*,*,#386,.F.);
#521=ORIENTED_EDGE('',*,*,#398,.F.);
#522=ORIENTED_EDGE('',*,*,#399,.T.);
#523=ORIENTED_EDGE('',*,*,#397,.F.);
#524=ORIENTED_EDGE('',*,*,#400,.T.);
#525=ORIENTED_EDGE('',*,*,#401,.F.);
#526=ORIENTED_EDGE('',*,*,#402,.F.);
#527=ORIENTED_EDGE('',*,*,#388,.F.);
#528=ORIENTED_EDGE('',*,*,#403,.T.);
#529=ORIENTED_EDGE('',*,*,#404,.T.);
#530=ORIENTED_EDGE('',*,*,#380,.T.);
#531=ORIENTED_EDGE('',*,*,#369,.T.);
#532=ORIENTED_EDGE('',*,*,#405,.F.);
#533=ORIENTED_EDGE('',*,*,#406,.T.);
#534=ORIENTED_EDGE('',*,*,#405,.T.);
#535=ORIENTED_EDGE('',*,*,#373,.T.);
#536=ORIENTED_EDGE('',*,*,#407,.F.);
#537=ORIENTED_EDGE('',*,*,#374,.F.);
#538=ORIENTED_EDGE('',*,*,#408,.F.);
#539=ORIENTED_EDGE('',*,*,#409,.T.);
#540=ORIENTED_EDGE('',*,*,#408,.T.);
#541=ORIENTED_EDGE('',*,*,#377,.F.);
#542=ORIENTED_EDGE('',*,*,#378,.F.);
#543=ORIENTED_EDGE('',*,*,#402,.T.);
#544=ORIENTED_EDGE('',*,*,#372,.F.);
#545=ORIENTED_EDGE('',*,*,#407,.T.);
#546=ORIENTED_EDGE('',*,*,#410,.T.);
#547=ORIENTED_EDGE('',*,*,#400,.F.);
#548=ORIENTED_EDGE('',*,*,#396,.T.);
#549=ORIENTED_EDGE('',*,*,#392,.T.);
#550=ORIENTED_EDGE('',*,*,#411,.F.);
#551=ORIENTED_EDGE('',*,*,#412,.T.);
#552=ORIENTED_EDGE('',*,*,#411,.T.);
#553=ORIENTED_EDGE('',*,*,#395,.T.);
#554=ORIENTED_EDGE('',*,*,#403,.F.);
#555=ORIENTED_EDGE('',*,*,#387,.F.);
#556=ORIENTED_EDGE('',*,*,#413,.F.);
#557=ORIENTED_EDGE('',*,*,#414,.T.);
#558=ORIENTED_EDGE('',*,*,#413,.T.);
#559=ORIENTED_EDGE('',*,*,#391,.F.);
#560=ORIENTED_EDGE('',*,*,#415,.F.);
#561=ORIENTED_EDGE('',*,*,#394,.F.);
#562=ORIENTED_EDGE('',*,*,#399,.F.);
#563=ORIENTED_EDGE('',*,*,#416,.F.);
#564=ORIENTED_EDGE('',*,*,#344,.F.);
#565=ORIENTED_EDGE('',*,*,#348,.F.);
#566=ORIENTED_EDGE('',*,*,#417,.T.);
#567=ORIENTED_EDGE('',*,*,#418,.F.);
#568=ORIENTED_EDGE('',*,*,#419,.T.);
#569=ORIENTED_EDGE('',*,*,#420,.F.);
#570=ORIENTED_EDGE('',*,*,#415,.T.);
#571=ORIENTED_EDGE('',*,*,#390,.F.);
#572=ORIENTED_EDGE('',*,*,#350,.F.);
#573=ORIENTED_EDGE('',*,*,#421,.F.);
#574=ORIENTED_EDGE('',*,*,#384,.F.);
#575=ORIENTED_EDGE('',*,*,#356,.F.);
#576=ORIENTED_EDGE('',*,*,#358,.T.);
#577=ORIENTED_EDGE('',*,*,#340,.F.);
#578=ORIENTED_EDGE('',*,*,#422,.F.);
#579=ORIENTED_EDGE('',*,*,#417,.F.);
#580=ORIENTED_EDGE('',*,*,#347,.F.);
#581=ORIENTED_EDGE('',*,*,#339,.F.);
#582=ORIENTED_EDGE('',*,*,#345,.T.);
#583=ORIENTED_EDGE('',*,*,#416,.T.);
#584=ORIENTED_EDGE('',*,*,#398,.T.);
#585=ORIENTED_EDGE('',*,*,#385,.T.);
#586=ORIENTED_EDGE('',*,*,#421,.T.);
#587=ORIENTED_EDGE('',*,*,#349,.F.);
#588=ORIENTED_EDGE('',*,*,#355,.T.);
#589=ORIENTED_EDGE('',*,*,#383,.T.);
#590=ORIENTED_EDGE('',*,*,#423,.T.);
#591=ORIENTED_EDGE('',*,*,#424,.T.);
#592=ORIENTED_EDGE('',*,*,#425,.T.);
#593=ORIENTED_EDGE('',*,*,#426,.T.);
#594=ORIENTED_EDGE('',*,*,#427,.T.);
#595=ORIENTED_EDGE('',*,*,#418,.T.);
#596=ORIENTED_EDGE('',*,*,#422,.T.);
#597=ORIENTED_EDGE('',*,*,#428,.F.);
#598=ORIENTED_EDGE('',*,*,#429,.F.);
#599=ORIENTED_EDGE('',*,*,#419,.F.);
#600=ORIENTED_EDGE('',*,*,#427,.F.);
#601=ORIENTED_EDGE('',*,*,#382,.T.);
#602=ORIENTED_EDGE('',*,*,#430,.F.);
#603=ORIENTED_EDGE('',*,*,#431,.F.);
#604=ORIENTED_EDGE('',*,*,#423,.F.);
#605=ORIENTED_EDGE('',*,*,#431,.T.);
#606=ORIENTED_EDGE('',*,*,#432,.F.);
#607=ORIENTED_EDGE('',*,*,#433,.F.);
#608=ORIENTED_EDGE('',*,*,#424,.F.);
#609=ORIENTED_EDGE('',*,*,#433,.T.);
#610=ORIENTED_EDGE('',*,*,#434,.F.);
#611=ORIENTED_EDGE('',*,*,#435,.F.);
#612=ORIENTED_EDGE('',*,*,#425,.F.);
#613=ORIENTED_EDGE('',*,*,#435,.T.);
#614=ORIENTED_EDGE('',*,*,#436,.F.);
#615=ORIENTED_EDGE('',*,*,#428,.T.);
#616=ORIENTED_EDGE('',*,*,#426,.F.);
#617=ORIENTED_EDGE('',*,*,#436,.T.);
#618=ORIENTED_EDGE('',*,*,#434,.T.);
#619=ORIENTED_EDGE('',*,*,#432,.T.);
#620=ORIENTED_EDGE('',*,*,#430,.T.);
#621=ORIENTED_EDGE('',*,*,#381,.T.);
#622=ORIENTED_EDGE('',*,*,#404,.F.);
#623=ORIENTED_EDGE('',*,*,#406,.F.);
#624=ORIENTED_EDGE('',*,*,#409,.F.);
#625=ORIENTED_EDGE('',*,*,#401,.T.);
#626=ORIENTED_EDGE('',*,*,#410,.F.);
#627=ORIENTED_EDGE('',*,*,#412,.F.);
#628=ORIENTED_EDGE('',*,*,#414,.F.);
#629=ORIENTED_EDGE('',*,*,#420,.T.);
#630=ORIENTED_EDGE('',*,*,#429,.T.);
#631=ORIENTED_EDGE('',*,*,#363,.T.);
#632=ORIENTED_EDGE('',*,*,#366,.T.);
#633=CYLINDRICAL_SURFACE('',#703,3.);
#634=CYLINDRICAL_SURFACE('',#710,3.);
#635=CYLINDRICAL_SURFACE('',#716,2.7);
#636=CYLINDRICAL_SURFACE('',#720,2.7);
#637=CYLINDRICAL_SURFACE('',#723,2.625);
#638=CYLINDRICAL_SURFACE('',#727,2.625);
#639=CYLINDRICAL_SURFACE('',#736,20.);
#640=CYLINDRICAL_SURFACE('',#748,6.00000000000052);
#641=CYLINDRICAL_SURFACE('',#750,4.00000000000032);
#642=CYLINDRICAL_SURFACE('',#753,5.00000000000004);
#643=CYLINDRICAL_SURFACE('',#756,5.);
#644=CYLINDRICAL_SURFACE('',#758,4.);
#645=CYLINDRICAL_SURFACE('',#760,6.00000000000191);
#646=CYLINDRICAL_SURFACE('',#762,20.);
#647=CYLINDRICAL_SURFACE('',#773,22.);
#648=CYLINDRICAL_SURFACE('',#776,21.9999999999999);
#649=ADVANCED_FACE('',(#55),#633,.T.);
#650=ADVANCED_FACE('',(#56,#31),#35,.T.);
#651=ADVANCED_FACE('',(#57),#36,.T.);
#652=ADVANCED_FACE('',(#58),#634,.T.);
#653=ADVANCED_FACE('',(#59),#37,.T.);
#654=ADVANCED_FACE('',(#60),#38,.T.);
#655=ADVANCED_FACE('',(#61),#635,.F.);
#656=ADVANCED_FACE('',(#62),#39,.F.);
#657=ADVANCED_FACE('',(#63),#636,.F.);
#658=ADVANCED_FACE('',(#64),#40,.T.);
#659=ADVANCED_FACE('',(#65),#637,.F.);
#660=ADVANCED_FACE('',(#66),#41,.T.);
#661=ADVANCED_FACE('',(#67),#638,.F.);
#662=ADVANCED_FACE('',(#68),#42,.T.);
#663=ADVANCED_FACE('',(#69),#29,.F.);
#664=ADVANCED_FACE('',(#70),#17,.T.);
#665=ADVANCED_FACE('',(#71),#43,.T.);
#666=ADVANCED_FACE('',(#72),#639,.F.);
#667=ADVANCED_FACE('',(#73),#30,.F.);
#668=ADVANCED_FACE('',(#74),#18,.T.);
#669=ADVANCED_FACE('',(#75),#44,.T.);
#670=ADVANCED_FACE('',(#76),#45,.T.);
#671=ADVANCED_FACE('',(#77),#46,.F.);
#672=ADVANCED_FACE('',(#78),#640,.F.);
#673=ADVANCED_FACE('',(#79),#641,.T.);
#674=ADVANCED_FACE('',(#80),#642,.F.);
#675=ADVANCED_FACE('',(#81),#47,.F.);
#676=ADVANCED_FACE('',(#82),#643,.F.);
#677=ADVANCED_FACE('',(#83),#644,.T.);
#678=ADVANCED_FACE('',(#84),#645,.F.);
#679=ADVANCED_FACE('',(#85),#646,.F.);
#680=ADVANCED_FACE('',(#86,#32),#48,.T.);
#681=ADVANCED_FACE('',(#87),#49,.T.);
#682=ADVANCED_FACE('',(#88),#50,.F.);
#683=ADVANCED_FACE('',(#89),#51,.T.);
#684=ADVANCED_FACE('',(#90),#52,.T.);
#685=ADVANCED_FACE('',(#91),#647,.T.);
#686=ADVANCED_FACE('',(#92),#53,.T.);
#687=ADVANCED_FACE('',(#93),#648,.T.);
#688=ADVANCED_FACE('',(#94,#33,#34),#54,.T.);
#689=CLOSED_SHELL('',(#649,#650,#651,#652,#653,#654,#655,#656,#657,#658,
#659,#660,#661,#662,#663,#664,#665,#666,#667,#668,#669,#670,#671,#672,#673,
#674,#675,#676,#677,#678,#679,#680,#681,#682,#683,#684,#685,#686,#687,#688));
#690=DERIVED_UNIT_ELEMENT(#692,1.);
#691=DERIVED_UNIT_ELEMENT(#1295,-3.);
#692=(
MASS_UNIT()
NAMED_UNIT(*)
SI_UNIT(.KILO.,.GRAM.)
);
#693=DERIVED_UNIT((#690,#691));
#694=MEASURE_REPRESENTATION_ITEM('density measure',
POSITIVE_RATIO_MEASURE(7850.),#693);
#695=PROPERTY_DEFINITION_REPRESENTATION(#700,#697);
#696=PROPERTY_DEFINITION_REPRESENTATION(#701,#698);
#697=REPRESENTATION('material name',(#699),#1292);
#698=REPRESENTATION('density',(#694),#1292);
#699=DESCRIPTIVE_REPRESENTATION_ITEM('Steel','Steel');
#700=PROPERTY_DEFINITION('material property','material name',#1302);
#701=PROPERTY_DEFINITION('material property','density of part',#1302);
#702=AXIS2_PLACEMENT_3D('',#983,#779,#780);
#703=AXIS2_PLACEMENT_3D('',#984,#781,#782);
#704=AXIS2_PLACEMENT_3D('',#987,#783,#784);
#705=AXIS2_PLACEMENT_3D('',#991,#786,#787);
#706=AXIS2_PLACEMENT_3D('',#993,#789,#790);
#707=AXIS2_PLACEMENT_3D('',#1000,#794,#795);
#708=AXIS2_PLACEMENT_3D('',#1001,#796,#797);
#709=AXIS2_PLACEMENT_3D('',#1004,#799,#800);
#710=AXIS2_PLACEMENT_3D('',#1005,#801,#802);
#711=AXIS2_PLACEMENT_3D('',#1008,#803,#804);
#712=AXIS2_PLACEMENT_3D('',#1012,#806,#807);
#713=AXIS2_PLACEMENT_3D('',#1014,#809,#810);
#714=AXIS2_PLACEMENT_3D('',#1020,#814,#815);
#715=AXIS2_PLACEMENT_3D('',#1023,#817,#818);
#716=AXIS2_PLACEMENT_3D('',#1024,#819,#820);
#717=AXIS2_PLACEMENT_3D('',#1026,#821,#822);
#718=AXIS2_PLACEMENT_3D('',#1029,#824,#825);
#719=AXIS2_PLACEMENT_3D('',#1030,#826,#827);
#720=AXIS2_PLACEMENT_3D('',#1031,#828,#829);
#721=AXIS2_PLACEMENT_3D('',#1034,#831,#832);
#722=AXIS2_PLACEMENT_3D('',#1035,#833,#834);
#723=AXIS2_PLACEMENT_3D('',#1036,#835,#836);
#724=AXIS2_PLACEMENT_3D('',#1038,#837,#838);
#725=AXIS2_PLACEMENT_3D('',#1041,#840,#841);
#726=AXIS2_PLACEMENT_3D('',#1042,#842,#843);
#727=AXIS2_PLACEMENT_3D('',#1043,#844,#845);
#728=AXIS2_PLACEMENT_3D('',#1045,#846,#847);
#729=AXIS2_PLACEMENT_3D('',#1048,#849,#850);
#730=AXIS2_PLACEMENT_3D('',#1049,#851,#852);
#731=AXIS2_PLACEMENT_3D('',#1050,#853,#854);
#732=AXIS2_PLACEMENT_3D('',#1066,#855,#856);
#733=AXIS2_PLACEMENT_3D('',#1070,#858,#859);
#734=AXIS2_PLACEMENT_3D('',#1121,#861,#862);
#735=AXIS2_PLACEMENT_3D('',#1123,#863,#864);
#736=AXIS2_PLACEMENT_3D('',#1125,#866,#867);
#737=AXIS2_PLACEMENT_3D('',#1129,#869,#870);
#738=AXIS2_PLACEMENT_3D('',#1132,#872,#873);
#739=AXIS2_PLACEMENT_3D('',#1136,#875,#876);
#740=AXIS2_PLACEMENT_3D('',#1138,#878,#879);
#741=AXIS2_PLACEMENT_3D('',#1152,#880,#881);
#742=AXIS2_PLACEMENT_3D('',#1156,#883,#884);
#743=AXIS2_PLACEMENT_3D('',#1209,#886,#887);
#744=AXIS2_PLACEMENT_3D('',#1211,#888,#889);
#745=AXIS2_PLACEMENT_3D('',#1213,#891,#892);
#746=AXIS2_PLACEMENT_3D('',#1222,#898,#899);
#747=AXIS2_PLACEMENT_3D('',#1223,#900,#901);
#748=AXIS2_PLACEMENT_3D('',#1224,#902,#903);
#749=AXIS2_PLACEMENT_3D('',#1226,#904,#905);
#750=AXIS2_PLACEMENT_3D('',#1228,#907,#908);
#751=AXIS2_PLACEMENT_3D('',#1230,#909,#910);
#752=AXIS2_PLACEMENT_3D('',#1231,#911,#912);
#753=AXIS2_PLACEMENT_3D('',#1233,#914,#915);
#754=AXIS2_PLACEMENT_3D('',#1234,#916,#917);
#755=AXIS2_PLACEMENT_3D('',#1235,#918,#919);
#756=AXIS2_PLACEMENT_3D('',#1236,#920,#921);
#757=AXIS2_PLACEMENT_3D('',#1238,#922,#923);
#758=AXIS2_PLACEMENT_3D('',#1240,#925,#926);
#759=AXIS2_PLACEMENT_3D('',#1242,#927,#928);
#760=AXIS2_PLACEMENT_3D('',#1244,#930,#931);
#761=AXIS2_PLACEMENT_3D('',#1246,#932,#933);
#762=AXIS2_PLACEMENT_3D('',#1248,#935,#936);
#763=AXIS2_PLACEMENT_3D('',#1249,#937,#938);
#764=AXIS2_PLACEMENT_3D('',#1253,#940,#941);
#765=AXIS2_PLACEMENT_3D('',#1256,#943,#944);
#766=AXIS2_PLACEMENT_3D('',#1257,#945,#946);
#767=AXIS2_PLACEMENT_3D('',#1259,#948,#949);
#768=AXIS2_PLACEMENT_3D('',#1261,#951,#952);
#769=AXIS2_PLACEMENT_3D('',#1265,#954,#955);
#770=AXIS2_PLACEMENT_3D('',#1269,#957,#958);
#771=AXIS2_PLACEMENT_3D('',#1271,#960,#961);
#772=AXIS2_PLACEMENT_3D('',#1275,#964,#965);
#773=AXIS2_PLACEMENT_3D('',#1279,#968,#969);
#774=AXIS2_PLACEMENT_3D('',#1281,#970,#971);
#775=AXIS2_PLACEMENT_3D('',#1283,#973,#974);
#776=AXIS2_PLACEMENT_3D('',#1287,#977,#978);
#777=AXIS2_PLACEMENT_3D('',#1288,#979,#980);
#778=AXIS2_PLACEMENT_3D('',#1289,#981,#982);
#779=DIRECTION('axis',(0.,0.,1.));
#780=DIRECTION('refdir',(1.,0.,0.));
#781=DIRECTION('center_axis',(0.,0.,-1.));
#782=DIRECTION('ref_axis',(0.707106781186545,-0.70710678118655,0.));
#783=DIRECTION('center_axis',(0.,0.,1.));
#784=DIRECTION('ref_axis',(0.707106781186545,-0.70710678118655,0.));
#785=DIRECTION('',(0.,0.,1.));
#786=DIRECTION('center_axis',(0.,0.,-1.));
#787=DIRECTION('ref_axis',(0.707106781186545,-0.70710678118655,0.));
#788=DIRECTION('',(0.,0.,-1.));
#789=DIRECTION('center_axis',(2.12924478708746E-16,-1.,0.));
#790=DIRECTION('ref_axis',(-1.,-2.12924478708746E-16,0.));
#791=DIRECTION('',(-1.,-2.12924478708746E-16,0.));
#792=DIRECTION('',(0.,0.,-1.));
#793=DIRECTION('',(-1.,-2.12924478708746E-16,0.));
#794=DIRECTION('center_axis',(-2.12924478708746E-16,1.,0.));
#795=DIRECTION('ref_axis',(1.,0.,0.));
#796=DIRECTION('center_axis',(0.,0.,1.));
#797=DIRECTION('ref_axis',(1.,0.,0.));
#798=DIRECTION('',(-6.40976129159627E-16,1.,0.));
#799=DIRECTION('center_axis',(0.,0.,1.));
#800=DIRECTION('ref_axis',(1.33226762955019E-15,1.,0.));
#801=DIRECTION('center_axis',(0.,0.,-1.));
#802=DIRECTION('ref_axis',(0.707106781186549,0.707106781186546,0.));
#803=DIRECTION('center_axis',(0.,0.,1.));
#804=DIRECTION('ref_axis',(0.707106781186549,0.707106781186546,0.));
#805=DIRECTION('',(0.,0.,1.));
#806=DIRECTION('center_axis',(0.,0.,-1.));
#807=DIRECTION('ref_axis',(0.707106781186549,0.707106781186546,0.));
#808=DIRECTION('',(0.,0.,-1.));
#809=DIRECTION('center_axis',(1.,-6.40976129159585E-16,0.));
#810=DIRECTION('ref_axis',(-6.40976129159585E-16,-1.,0.));
#811=DIRECTION('',(-6.40976129159585E-16,-1.,0.));
#812=DIRECTION('',(0.,0.,-1.));
#813=DIRECTION('',(-6.40976129159585E-16,-1.,0.));
#814=DIRECTION('center_axis',(0.,0.,1.));
#815=DIRECTION('ref_axis',(1.,0.,0.));
#816=DIRECTION('',(-1.,4.25848957417472E-16,0.));
#817=DIRECTION('center_axis',(0.,0.,1.));
#818=DIRECTION('ref_axis',(-0.999999999999488,-1.01233498250863E-6,0.));
#819=DIRECTION('center_axis',(0.,1.,0.));
#820=DIRECTION('ref_axis',(1.,0.,0.));
#821=DIRECTION('center_axis',(-4.25848957417472E-16,-1.,0.));
#822=DIRECTION('ref_axis',(1.,0.,0.));
#823=DIRECTION('',(0.,-1.,0.));
#824=DIRECTION('center_axis',(2.12924478708746E-16,1.,0.));
#825=DIRECTION('ref_axis',(1.,0.,0.));
#826=DIRECTION('center_axis',(-2.12924478708746E-16,-1.,0.));
#827=DIRECTION('ref_axis',(0.,0.,-1.));
#828=DIRECTION('center_axis',(0.,1.,0.));
#829=DIRECTION('ref_axis',(1.,0.,0.));
#830=DIRECTION('',(0.,1.,0.));
#831=DIRECTION('center_axis',(-2.12924478708746E-16,1.,0.));
#832=DIRECTION('ref_axis',(1.,0.,0.));
#833=DIRECTION('center_axis',(2.12924478708746E-16,-1.,0.));
#834=DIRECTION('ref_axis',(0.,0.,-1.));
#835=DIRECTION('center_axis',(0.,0.,-1.));
#836=DIRECTION('ref_axis',(1.,0.,0.));
#837=DIRECTION('center_axis',(0.,0.,-1.));
#838=DIRECTION('ref_axis',(1.,0.,0.));
#839=DIRECTION('',(0.,0.,-1.));
#840=DIRECTION('center_axis',(0.,0.,-1.));
#841=DIRECTION('ref_axis',(1.,0.,0.));
#842=DIRECTION('center_axis',(0.,0.,1.));
#843=DIRECTION('ref_axis',(1.,0.,0.));
#844=DIRECTION('center_axis',(0.,0.,-1.));
#845=DIRECTION('ref_axis',(1.,0.,0.));
#846=DIRECTION('center_axis',(0.,0.,-1.));
#847=DIRECTION('ref_axis',(1.,0.,0.));
#848=DIRECTION('',(0.,0.,-1.));
#849=DIRECTION('center_axis',(0.,0.,-1.));
#850=DIRECTION('ref_axis',(1.,0.,0.));
#851=DIRECTION('center_axis',(0.,0.,1.));
#852=DIRECTION('ref_axis',(1.,0.,0.));
#853=DIRECTION('center_axis',(0.,0.,-1.));
#854=DIRECTION('ref_axis',(-0.999999999999488,-1.01233498250863E-6,0.));
#855=DIRECTION('center_axis',(0.,0.,-1.));
#856=DIRECTION('ref_axis',(-0.999999999999488,-1.01233498250863E-6,0.));
#857=DIRECTION('',(0.465105319240483,0.10969958027844,0.878432151108407));
#858=DIRECTION('center_axis',(0.,0.,1.));
#859=DIRECTION('ref_axis',(-0.999999999999488,-1.01233498250863E-6,0.));
#860=DIRECTION('',(0.477867090202729,4.8376157263614E-7,0.878432151108407));
#861=DIRECTION('center_axis',(0.878432151108407,1.85656744628404E-13,-0.477867090202974));
#862=DIRECTION('ref_axis',(-0.477867090202974,0.,-0.878432151108407));
#863=DIRECTION('center_axis',(-0.878432151108407,-1.85656744628404E-13,
0.477867090202974));
#864=DIRECTION('ref_axis',(-0.477867090202974,0.,-0.878432151108407));
#865=DIRECTION('',(-2.11350124644393E-13,1.,0.));
#866=DIRECTION('center_axis',(0.,0.,1.));
#867=DIRECTION('ref_axis',(-0.999999999999488,-1.01233498250863E-6,0.));
#868=DIRECTION('',(0.,0.,-1.));
#869=DIRECTION('center_axis',(0.,0.,-1.));
#870=DIRECTION('ref_axis',(-0.999999999999488,-1.01233498250863E-6,0.));
#871=DIRECTION('',(0.,0.,1.));
#872=DIRECTION('center_axis',(0.,0.,1.));
#873=DIRECTION('ref_axis',(-0.999999999999488,-1.01233498250863E-6,0.));
#874=DIRECTION('',(0.,0.,-1.));
#875=DIRECTION('center_axis',(0.,0.,1.));
#876=DIRECTION('ref_axis',(-0.999999999999488,-1.01233498250863E-6,0.));
#877=DIRECTION('',(0.,0.,1.));
#878=DIRECTION('center_axis',(0.,0.,-1.));
#879=DIRECTION('ref_axis',(1.33226762955019E-15,1.,0.));
#880=DIRECTION('center_axis',(0.,0.,1.));
#881=DIRECTION('ref_axis',(1.33226762955019E-15,1.,0.));
#882=DIRECTION('',(-0.465105319240448,0.109699580278585,-0.878432151108407));
#883=DIRECTION('center_axis',(0.,0.,-1.));
#884=DIRECTION('ref_axis',(1.33226762955019E-15,1.,0.));
#885=DIRECTION('',(-0.477867090202973,-1.47128074041327E-9,-0.878432151108408));
#886=DIRECTION('center_axis',(0.878432151108407,1.85656744628404E-13,-0.477867090202974));
#887=DIRECTION('ref_axis',(-0.477867090202974,0.,-0.878432151108407));
#888=DIRECTION('center_axis',(-0.878432151108407,-1.85656744628404E-13,
0.477867090202974));
#889=DIRECTION('ref_axis',(-0.477867090202974,-1.0096158050213E-13,-0.878432151108407));
#890=DIRECTION('',(-2.11350124644393E-13,1.,0.));
#891=DIRECTION('center_axis',(1.,2.11350124644393E-13,0.));
#892=DIRECTION('ref_axis',(-2.11350124644393E-13,1.,0.));
#893=DIRECTION('',(2.11350124644393E-13,-1.,0.));
#894=DIRECTION('',(0.,0.,1.));
#895=DIRECTION('',(0.,0.,1.));
#896=DIRECTION('',(-2.11350124644393E-13,1.,0.));
#897=DIRECTION('',(0.,0.,1.));
#898=DIRECTION('center_axis',(0.,0.,1.));
#899=DIRECTION('ref_axis',(1.,0.,0.));
#900=DIRECTION('center_axis',(0.,0.,-1.));
#901=DIRECTION('ref_axis',(0.33333333333333,-0.942809041582065,0.));
#902=DIRECTION('center_axis',(0.,0.,-1.));
#903=DIRECTION('ref_axis',(-0.829288507549719,0.558820696866141,0.));
#904=DIRECTION('center_axis',(0.,0.,1.));
#905=DIRECTION('ref_axis',(-0.829288507549719,0.558820696866141,0.));
#906=DIRECTION('',(0.,0.,-1.));
#907=DIRECTION('center_axis',(0.,0.,-1.));
#908=DIRECTION('ref_axis',(0.829288507549831,-0.558820696865975,0.));
#909=DIRECTION('center_axis',(0.,0.,-1.));
#910=DIRECTION('ref_axis',(0.829288507549831,-0.558820696865975,0.));
#911=DIRECTION('center_axis',(0.,0.,-1.));
#912=DIRECTION('ref_axis',(0.829288507549831,-0.558820696865975,0.));
#913=DIRECTION('',(0.,0.,-1.));
#914=DIRECTION('center_axis',(0.,0.,-1.));
#915=DIRECTION('ref_axis',(-1.,0.,0.));
#916=DIRECTION('center_axis',(0.,0.,1.));
#917=DIRECTION('ref_axis',(-1.,0.,0.));
#918=DIRECTION('center_axis',(0.,0.,1.));
#919=DIRECTION('ref_axis',(1.,0.,0.));
#920=DIRECTION('center_axis',(0.,0.,-1.));
#921=DIRECTION('ref_axis',(-0.333333333333329,0.942809041582065,0.));
#922=DIRECTION('center_axis',(0.,0.,1.));
#923=DIRECTION('ref_axis',(-0.333333333333329,0.942809041582065,0.));
#924=DIRECTION('',(0.,0.,-1.));
#925=DIRECTION('center_axis',(0.,0.,-1.));
#926=DIRECTION('ref_axis',(0.33333333333333,-0.942809041582065,0.));
#927=DIRECTION('center_axis',(0.,0.,-1.));
#928=DIRECTION('ref_axis',(0.33333333333333,-0.942809041582065,0.));
#929=DIRECTION('',(0.,0.,-1.));
#930=DIRECTION('center_axis',(0.,0.,-1.));
#931=DIRECTION('ref_axis',(-0.693365351749932,0.720586212047311,0.));
#932=DIRECTION('center_axis',(0.,0.,1.));
#933=DIRECTION('ref_axis',(-0.693365351749932,0.720586212047311,0.));
#934=DIRECTION('',(0.,0.,-1.));
#935=DIRECTION('center_axis',(0.,0.,1.));
#936=DIRECTION('ref_axis',(1.33226762955019E-15,1.,0.));
#937=DIRECTION('center_axis',(0.,0.,1.));
#938=DIRECTION('ref_axis',(1.33226762955019E-15,1.,0.));
#939=DIRECTION('',(0.,0.,-1.));
#940=DIRECTION('center_axis',(0.,0.,1.));
#941=DIRECTION('ref_axis',(1.33226762955019E-15,1.,0.));
#942=DIRECTION('',(0.,0.,1.));
#943=DIRECTION('center_axis',(0.,0.,-1.));
#944=DIRECTION('ref_axis',(1.33226762955019E-15,1.,0.));
#945=DIRECTION('center_axis',(4.25848957417472E-16,1.,0.));
#946=DIRECTION('ref_axis',(1.,-4.25848957417472E-16,0.));
#947=DIRECTION('',(1.,-4.25848957417472E-16,0.));
#948=DIRECTION('center_axis',(1.,6.40976129159627E-16,0.));
#949=DIRECTION('ref_axis',(6.40976129159627E-16,-1.,0.));
#950=DIRECTION('',(6.40976129159627E-16,-1.,0.));
#951=DIRECTION('center_axis',(0.,0.,1.));
#952=DIRECTION('ref_axis',(1.,0.,0.));
#953=DIRECTION('',(0.,-1.,0.));
#954=DIRECTION('center_axis',(0.,0.,-1.));
#955=DIRECTION('ref_axis',(-1.,-2.01858731750028E-16,0.));
#956=DIRECTION('',(-1.0875654118777E-15,1.,0.));
#957=DIRECTION('center_axis',(0.,0.,-1.));
#958=DIRECTION('ref_axis',(2.01858731750029E-16,1.,0.));
#959=DIRECTION('',(0.,-1.,0.));
#960=DIRECTION('center_axis',(1.,0.,0.));
#961=DIRECTION('ref_axis',(0.,1.,0.));
#962=DIRECTION('',(0.,0.,-1.));
#963=DIRECTION('',(0.,1.,0.));
#964=DIRECTION('center_axis',(1.,0.,0.));
#965=DIRECTION('ref_axis',(0.,1.,0.));
#966=DIRECTION('',(0.,1.,0.));
#967=DIRECTION('',(0.,0.,1.));
#968=DIRECTION('center_axis',(0.,0.,1.));
#969=DIRECTION('ref_axis',(-1.,-2.01858731750028E-16,0.));
#970=DIRECTION('center_axis',(0.,0.,1.));
#971=DIRECTION('ref_axis',(-1.,-2.01858731750028E-16,0.));
#972=DIRECTION('',(0.,0.,1.));
#973=DIRECTION('center_axis',(-1.,-1.0875654118777E-15,0.));
#974=DIRECTION('ref_axis',(1.0875654118777E-15,-1.,0.));
#975=DIRECTION('',(1.0875654118777E-15,-1.,0.));
#976=DIRECTION('',(0.,0.,1.));
#977=DIRECTION('center_axis',(0.,0.,1.));
#978=DIRECTION('ref_axis',(2.01858731750029E-16,1.,0.));
#979=DIRECTION('center_axis',(0.,0.,1.));
#980=DIRECTION('ref_axis',(2.01858731750029E-16,1.,0.));
#981=DIRECTION('center_axis',(0.,0.,1.));
#982=DIRECTION('ref_axis',(1.,0.,0.));
#983=CARTESIAN_POINT('',(0.,0.,0.));
#984=CARTESIAN_POINT('Origin',(-36.,34.5,0.));
#985=CARTESIAN_POINT('',(-36.,31.5,-7.8));
#986=CARTESIAN_POINT('',(-33.,34.5,-7.8));
#987=CARTESIAN_POINT('Origin',(-36.,34.5,-7.8));
#988=CARTESIAN_POINT('',(-33.,34.5,0.));
#989=CARTESIAN_POINT('',(-33.,34.5,0.));
#990=CARTESIAN_POINT('',(-36.,31.5,0.));
#991=CARTESIAN_POINT('Origin',(-36.,34.5,0.));
#992=CARTESIAN_POINT('',(-36.,31.5,0.));
#993=CARTESIAN_POINT('Origin',(-33.,31.5,0.));
#994=CARTESIAN_POINT('',(-44.7349939951952,31.5,0.));
#995=CARTESIAN_POINT('',(-26.,31.5,0.));
#996=CARTESIAN_POINT('',(-44.7349939951952,31.5,-7.8));
#997=CARTESIAN_POINT('',(-44.7349939951952,31.5,0.));
#998=CARTESIAN_POINT('',(-26.,31.5,-7.8));
#999=CARTESIAN_POINT('',(-42.7,31.5,-4.));
#1000=CARTESIAN_POINT('Origin',(-40.,31.5,-4.));
#1001=CARTESIAN_POINT('Origin',(-37.,0.,0.));
#1002=CARTESIAN_POINT('',(-33.,43.2349939951952,0.));
#1003=CARTESIAN_POINT('',(-33.,31.5,0.));
#1004=CARTESIAN_POINT('Origin',(-26.,24.5000000000001,0.));
#1005=CARTESIAN_POINT('Origin',(-36.,-34.5,0.));
#1006=CARTESIAN_POINT('',(-33.,-34.5,-7.8));
#1007=CARTESIAN_POINT('',(-36.,-31.5,-7.8));
#1008=CARTESIAN_POINT('Origin',(-36.,-34.5,-7.8));
#1009=CARTESIAN_POINT('',(-36.,-31.5,0.));
#1010=CARTESIAN_POINT('',(-36.,-31.5,0.));
#1011=CARTESIAN_POINT('',(-33.,-34.5,0.));
#1012=CARTESIAN_POINT('Origin',(-36.,-34.5,0.));
#1013=CARTESIAN_POINT('',(-33.,-34.5,0.));
#1014=CARTESIAN_POINT('Origin',(-33.,-31.5,0.));
#1015=CARTESIAN_POINT('',(-33.,-43.2349939951952,0.));
#1016=CARTESIAN_POINT('',(-33.,-31.5,0.));
#1017=CARTESIAN_POINT('',(-33.,-43.2349939951952,-7.8));
#1018=CARTESIAN_POINT('',(-33.,-43.2349939951952,0.));
#1019=CARTESIAN_POINT('',(-33.,-31.5,-7.8));
#1020=CARTESIAN_POINT('Origin',(-37.,0.,0.));
#1021=CARTESIAN_POINT('',(-44.7349939951952,-31.5,0.));
#1022=CARTESIAN_POINT('',(-26.,-31.5,0.));
#1023=CARTESIAN_POINT('Origin',(-26.,-24.5,0.));
#1024=CARTESIAN_POINT('Origin',(-40.,-31.5,-4.));
#1025=CARTESIAN_POINT('',(-42.7,-31.5,-4.));
#1026=CARTESIAN_POINT('Origin',(-40.,-31.5,-4.));
#1027=CARTESIAN_POINT('',(-42.7,-34.6,-4.));
#1028=CARTESIAN_POINT('',(-42.7,-31.5,-4.));
#1029=CARTESIAN_POINT('Origin',(-40.,-34.6,-4.));
#1030=CARTESIAN_POINT('Origin',(-40.,-34.6,-4.));
#1031=CARTESIAN_POINT('Origin',(-40.,31.5,-4.));
#1032=CARTESIAN_POINT('',(-42.7,34.6,-4.));
#1033=CARTESIAN_POINT('',(-42.7,31.5,-4.));
#1034=CARTESIAN_POINT('Origin',(-40.,34.6,-4.));
#1035=CARTESIAN_POINT('Origin',(-40.,34.6,-4.));
#1036=CARTESIAN_POINT('Origin',(-44.,29.,102.3));
#1037=CARTESIAN_POINT('',(-46.625,29.,102.3));
#1038=CARTESIAN_POINT('Origin',(-44.,29.,102.3));
#1039=CARTESIAN_POINT('',(-46.625,29.,99.25));
#1040=CARTESIAN_POINT('',(-46.625,29.,102.3));
#1041=CARTESIAN_POINT('Origin',(-44.,29.,99.25));
#1042=CARTESIAN_POINT('Origin',(-44.,0.,99.25));
#1043=CARTESIAN_POINT('Origin',(-44.,-29.,102.3));
#1044=CARTESIAN_POINT('',(-46.625,-29.,102.3));
#1045=CARTESIAN_POINT('Origin',(-44.,-29.,102.3));
#1046=CARTESIAN_POINT('',(-46.625,-29.,99.25));
#1047=CARTESIAN_POINT('',(-46.625,-29.,102.3));
#1048=CARTESIAN_POINT('Origin',(-44.,-29.,99.25));
#1049=CARTESIAN_POINT('Origin',(-44.,0.,99.25));
#1050=CARTESIAN_POINT('Origin',(-26.,-24.5,94.8));
#1051=CARTESIAN_POINT('',(-39.8673070350014,-38.9117242409436,89.8));
#1052=CARTESIAN_POINT('',(-40.6828459697984,-31.2352827874611,96.8699505769677));
#1053=CARTESIAN_POINT('Ctrl Pts',(-39.8673070350024,-38.9117242409447,89.7999999999972));
#1054=CARTESIAN_POINT('Ctrl Pts',(-40.1962247517203,-38.5952317178626,89.7999999999972));
#1055=CARTESIAN_POINT('Ctrl Pts',(-40.5078941964211,-38.2174748442788,89.8719942128883));
#1056=CARTESIAN_POINT('Ctrl Pts',(-41.0126166142715,-37.4291079566377,90.1543120610574));
#1057=CARTESIAN_POINT('Ctrl Pts',(-41.206938316251,-37.0188946110215,90.3634724128869));
#1058=CARTESIAN_POINT('Ctrl Pts',(-41.5539193877482,-36.069365978902,90.9468853689814));
#1059=CARTESIAN_POINT('Ctrl Pts',(-41.6684974445154,-35.4697957463444,91.4162206753298));
#1060=CARTESIAN_POINT('Ctrl Pts',(-41.7285579347867,-34.3484065598679,92.4633606609988));
#1061=CARTESIAN_POINT('Ctrl Pts',(-41.6756919779834,-33.8262360448861,93.0406933864199));
#1062=CARTESIAN_POINT('Ctrl Pts',(-41.4191942394328,-32.5750764164468,94.5892415737197));
#1063=CARTESIAN_POINT('Ctrl Pts',(-41.0985231249717,-31.8521466394392,95.7026347674426));
#1064=CARTESIAN_POINT('Ctrl Pts',(-40.6828459697904,-31.2352827874493,96.8699505769901));
#1065=CARTESIAN_POINT('',(-45.4658861752932,-29.0912172035887,89.8));
#1066=CARTESIAN_POINT('Origin',(-26.,-24.5,89.8));
#1067=CARTESIAN_POINT('',(-40.1711651356134,-27.8424061242126,99.8));
#1068=CARTESIAN_POINT('',(-45.4658861752932,-29.0912172035887,89.8));
#1069=CARTESIAN_POINT('',(-40.0768662369354,-28.2196017189246,99.8));
#1070=CARTESIAN_POINT('Origin',(-26.,-24.5,99.8));
#1071=CARTESIAN_POINT('Ctrl Pts',(-40.6828459697984,-31.2352827874611,96.8699505769677));
#1072=CARTESIAN_POINT('Ctrl Pts',(-40.4753673534798,-30.9273850430851,97.4525976287814));
#1073=CARTESIAN_POINT('Ctrl Pts',(-40.300360006115,-30.5786484545847,98.0074090334553));
#1074=CARTESIAN_POINT('Ctrl Pts',(-40.093718956046,-29.9053838678857,98.8199337898781));
#1075=CARTESIAN_POINT('Ctrl Pts',(-40.0253358658649,-29.5792226810311,99.1513658730617));
#1076=CARTESIAN_POINT('Ctrl Pts',(-39.9959598806346,-29.0320395939523,99.523429709462));
#1077=CARTESIAN_POINT('Ctrl Pts',(-39.99822613834,-28.8399392913921,99.6267418076619));
#1078=CARTESIAN_POINT('Ctrl Pts',(-40.028527986727,-28.5034779320562,99.7485729334867));
#1079=CARTESIAN_POINT('Ctrl Pts',(-40.0484443228946,-28.3624812886117,99.7834150256979));
#1080=CARTESIAN_POINT('Ctrl Pts',(-40.0768662369354,-28.2196017189246,99.8));
#1081=CARTESIAN_POINT('Ctrl Pts',(-45.9999999999897,-24.5000202466996,89.8));
#1082=CARTESIAN_POINT('Ctrl Pts',(-45.9999984367727,-26.0441899624609,89.8));
#1083=CARTESIAN_POINT('Ctrl Pts',(-45.8203671035066,-27.5882856074707,89.8));
#1084=CARTESIAN_POINT('Ctrl Pts',(-45.4658861752932,-29.0912172035887,89.8));
#1085=CARTESIAN_POINT('Ctrl Pts',(-44.1866666666573,-24.5000184109989,93.1333333333333));
#1086=CARTESIAN_POINT('Ctrl Pts',(-44.186665245172,-25.9041834058645,93.1333333333333));
#1087=CARTESIAN_POINT('Ctrl Pts',(-44.023320486122,-27.3082810457267,93.1333333333333));
#1088=CARTESIAN_POINT('Ctrl Pts',(-43.7009791620666,-28.6749468437967,93.1333333333333));
#1089=CARTESIAN_POINT('Ctrl Pts',(-42.3733333333249,-24.5000165752981,96.4666666666667));
#1090=CARTESIAN_POINT('Ctrl Pts',(-42.3733320535713,-25.764176849268,96.4666666666667));
#1091=CARTESIAN_POINT('Ctrl Pts',(-42.2262738687374,-27.0282764839827,96.4666666666667));
#1092=CARTESIAN_POINT('Ctrl Pts',(-41.93607214884,-28.2586764840046,96.4666666666667));
#1093=CARTESIAN_POINT('Ctrl Pts',(-40.5599999999925,-24.5000147395973,99.8));
#1094=CARTESIAN_POINT('Ctrl Pts',(-40.5599988619705,-25.6241702926716,99.8));
#1095=CARTESIAN_POINT('Ctrl Pts',(-40.4292272513528,-26.7482719222387,99.8));
#1096=CARTESIAN_POINT('Ctrl Pts',(-40.1711651356134,-27.8424061242126,99.8));
#1097=CARTESIAN_POINT('',(-42.666666666467,-25.2287638337422,95.8981765445235));
#1098=CARTESIAN_POINT('Ctrl Pts',(-42.6666666664629,-25.2287638337434,95.8981765445307));
#1099=CARTESIAN_POINT('Ctrl Pts',(-42.324315559468,-25.3498032284156,96.5171780170629));
#1100=CARTESIAN_POINT('Ctrl Pts',(-42.0029995938789,-25.5159072815152,97.0911355478007));
#1101=CARTESIAN_POINT('Ctrl Pts',(-41.3770749839124,-25.9527171130276,98.1761257183563));
#1102=CARTESIAN_POINT('Ctrl Pts',(-41.0784679863617,-26.2369010991494,98.6714353115382));
#1103=CARTESIAN_POINT('Ctrl Pts',(-40.6866110479704,-26.7472596485721,99.2555348093901));
#1104=CARTESIAN_POINT('Ctrl Pts',(-40.5462466073887,-26.963053764247,99.4491350565303));
#1105=CARTESIAN_POINT('Ctrl Pts',(-40.3259492155305,-27.4039697486358,99.6973171490615));
#1106=CARTESIAN_POINT('Ctrl Pts',(-40.2401553473347,-27.6142154491712,99.7728600500343));
#1107=CARTESIAN_POINT('Ctrl Pts',(-40.1711651356134,-27.8424061242126,99.8));
#1108=CARTESIAN_POINT('',(-45.9999999999897,-24.5000202466996,89.8));
#1109=CARTESIAN_POINT('Ctrl Pts',(-45.4658861752932,-29.0912172035887,89.8));
#1110=CARTESIAN_POINT('Ctrl Pts',(-45.8203671035066,-27.5882856074707,89.8));
#1111=CARTESIAN_POINT('Ctrl Pts',(-45.9999984367727,-26.0441899624609,89.8));
#1112=CARTESIAN_POINT('Ctrl Pts',(-45.9999999999897,-24.5000202466996,89.8));
#1113=CARTESIAN_POINT('',(-44.0195011128714,-24.5000182417713,93.4406229542635));
#1114=CARTESIAN_POINT('',(-45.9999999999897,-24.5000202466996,89.8));
#1115=CARTESIAN_POINT('Ctrl Pts',(-44.0195011128714,-24.5000182417713,93.4406229542635));
#1116=CARTESIAN_POINT('Ctrl Pts',(-43.9438032322005,-24.5573714791564,93.5797733634733));
#1117=CARTESIAN_POINT('Ctrl Pts',(-43.8663349360007,-24.6126714803768,93.7216747697142));
#1118=CARTESIAN_POINT('Ctrl Pts',(-43.4328622868594,-24.9037164749959,94.5134772326214));
#1119=CARTESIAN_POINT('Ctrl Pts',(-43.0557881192428,-25.0911886247794,95.194610096681));
#1120=CARTESIAN_POINT('Ctrl Pts',(-42.666666666467,-25.2287638337424,95.8981765445234));
#1121=CARTESIAN_POINT('Origin',(-43.2799999999923,-12.2500101233496,94.8));
#1122=CARTESIAN_POINT('',(-45.9999999999906,-20.5147186257625,89.8));
#1123=CARTESIAN_POINT('Origin',(-41.,-20.5147186257614,98.9911764705708));
#1124=CARTESIAN_POINT('',(-45.9999999999923,-12.2500101233502,89.8));
#1125=CARTESIAN_POINT('Origin',(-26.,-24.5,0.));
#1126=CARTESIAN_POINT('',(-39.8673070350005,-38.9117242409465,102.3));
#1127=CARTESIAN_POINT('',(-39.8673070350024,-38.9117242409447,102.3));
#1128=CARTESIAN_POINT('',(-26.,-44.5,102.3));
#1129=CARTESIAN_POINT('Origin',(-26.,-24.5,102.3));
#1130=CARTESIAN_POINT('',(-26.,-44.5,-7.8));
#1131=CARTESIAN_POINT('',(-26.,-44.5,0.));
#1132=CARTESIAN_POINT('Origin',(-26.,-24.5,-7.8));
#1133=CARTESIAN_POINT('',(-44.7349939951952,-31.5,-7.8));
#1134=CARTESIAN_POINT('',(-44.7349939951952,-31.5,0.));
#1135=CARTESIAN_POINT('',(-45.9999999999897,-24.5000202466996,-7.8));
#1136=CARTESIAN_POINT('Origin',(-26.,-24.5,-7.8));
#1137=CARTESIAN_POINT('',(-45.9999999999897,-24.5000202466996,0.));
#1138=CARTESIAN_POINT('Origin',(-26.,24.5000000000001,94.8));
#1139=CARTESIAN_POINT('',(-40.6828459697981,31.2352827874607,96.8699505769682));
#1140=CARTESIAN_POINT('',(-40.0768662369366,28.2196017189202,99.8));
#1141=CARTESIAN_POINT('Ctrl Pts',(-40.0768662369366,28.2196017189202,99.8));
#1142=CARTESIAN_POINT('Ctrl Pts',(-40.0484443228953,28.3624812886088,99.7834150256981));
#1143=CARTESIAN_POINT('Ctrl Pts',(-40.0285279867274,28.5034779320548,99.7485729334867));
#1144=CARTESIAN_POINT('Ctrl Pts',(-39.9982261383403,28.8399392913921,99.6267418076614));
#1145=CARTESIAN_POINT('Ctrl Pts',(-39.9959598806349,29.0320395939524,99.5234297094615));
#1146=CARTESIAN_POINT('Ctrl Pts',(-40.0253358658652,29.5792226810311,99.1513658730613));
#1147=CARTESIAN_POINT('Ctrl Pts',(-40.0937189560463,29.9053838678856,98.8199337898777));
#1148=CARTESIAN_POINT('Ctrl Pts',(-40.3003600061153,30.5786484545844,98.0074090334551));
#1149=CARTESIAN_POINT('Ctrl Pts',(-40.4753673534799,30.9273850430846,97.4525976287816));
#1150=CARTESIAN_POINT('Ctrl Pts',(-40.6828459697984,31.2352827874605,96.8699505769682));
#1151=CARTESIAN_POINT('',(-40.1711651356124,27.8424061242171,99.8));
#1152=CARTESIAN_POINT('Origin',(-26.,24.5000000000001,99.8));
#1153=CARTESIAN_POINT('',(-45.4658861752918,29.0912172035949,89.8));
#1154=CARTESIAN_POINT('',(-40.1711651356124,27.8424061242171,99.8));
#1155=CARTESIAN_POINT('',(-39.8673070349998,38.9117242409451,89.8));
#1156=CARTESIAN_POINT('Origin',(-26.,24.5000000000001,89.8));
#1157=CARTESIAN_POINT('Ctrl Pts',(-40.682845969798,31.2352827874612,96.8699505769684));
#1158=CARTESIAN_POINT('Ctrl Pts',(-41.0985231249752,31.8521466394486,95.7026347674293));
#1159=CARTESIAN_POINT('Ctrl Pts',(-41.4191942394331,32.575076416452,94.5892415737146));
#1160=CARTESIAN_POINT('Ctrl Pts',(-41.6756919779827,33.8262360448861,93.0406933864211));
#1161=CARTESIAN_POINT('Ctrl Pts',(-41.728557934786,34.3484065598681,92.4633606609999));
#1162=CARTESIAN_POINT('Ctrl Pts',(-41.6684974445146,35.4697957463449,91.4162206753305));
#1163=CARTESIAN_POINT('Ctrl Pts',(-41.5539193877474,36.0693659789027,90.9468853689821));
#1164=CARTESIAN_POINT('Ctrl Pts',(-41.20693831625,37.0188946110225,90.3634724128874));
#1165=CARTESIAN_POINT('Ctrl Pts',(-41.0126166142704,37.4291079566387,90.1543120610578));
#1166=CARTESIAN_POINT('Ctrl Pts',(-40.5078941964197,38.2174748442801,89.8719942128886));
#1167=CARTESIAN_POINT('Ctrl Pts',(-40.1962247517188,38.595231717864,89.7999999999975));
#1168=CARTESIAN_POINT('Ctrl Pts',(-39.8673070350008,38.9117242409461,89.7999999999975));
#1169=CARTESIAN_POINT('Ctrl Pts',(-45.4658861752917,29.091217203595,89.8));
#1170=CARTESIAN_POINT('Ctrl Pts',(-45.8203686575046,27.5882790188173,89.8));
#1171=CARTESIAN_POINT('Ctrl Pts',(-46.0000000047577,26.0441764235833,89.8));
#1172=CARTESIAN_POINT('Ctrl Pts',(-46.,24.4999999383788,89.8));
#1173=CARTESIAN_POINT('Ctrl Pts',(-43.7009791620653,28.6749468438024,93.1333333333333));
#1174=CARTESIAN_POINT('Ctrl Pts',(-44.0233218992242,27.3082750544446,93.1333333333333));
#1175=CARTESIAN_POINT('Ctrl Pts',(-44.186666670993,25.9041710945118,93.1333333333333));
#1176=CARTESIAN_POINT('Ctrl Pts',(-44.1866666666667,24.4999999439658,93.1333333333333));
#1177=CARTESIAN_POINT('Ctrl Pts',(-41.9360721488388,28.2586764840098,96.4666666666667));
#1178=CARTESIAN_POINT('Ctrl Pts',(-42.2262751409438,27.0282710900718,96.4666666666667));
#1179=CARTESIAN_POINT('Ctrl Pts',(-42.3733333372283,25.7641657654402,96.4666666666667));
#1180=CARTESIAN_POINT('Ctrl Pts',(-42.3733333333333,24.4999999495528,96.4666666666667));
#1181=CARTESIAN_POINT('Ctrl Pts',(-40.1711651356124,27.8424061242172,99.8));
#1182=CARTESIAN_POINT('Ctrl Pts',(-40.4292283826634,26.748267125699,99.8));
#1183=CARTESIAN_POINT('Ctrl Pts',(-40.5600000034636,25.6241604363687,99.8));
#1184=CARTESIAN_POINT('Ctrl Pts',(-40.56,24.4999999551398,99.8));
#1185=CARTESIAN_POINT('',(-44.0195252624127,24.4999999445207,93.4405785617413));
#1186=CARTESIAN_POINT('',(-42.6666666660226,25.2287638338995,95.8981765453269));
#1187=CARTESIAN_POINT('Ctrl Pts',(-42.6666666660226,25.2287638338995,95.8981765453269));
#1188=CARTESIAN_POINT('Ctrl Pts',(-43.0722260996274,25.0853769211237,95.1648887554737));
#1189=CARTESIAN_POINT('Ctrl Pts',(-43.4645740992705,24.8878361034046,94.4562146137948));
#1190=CARTESIAN_POINT('Ctrl Pts',(-43.8944688940553,24.5924475114758,93.6701206679597));
#1191=CARTESIAN_POINT('Ctrl Pts',(-43.9571694129037,24.5472450566701,93.5552032853709));
#1192=CARTESIAN_POINT('Ctrl Pts',(-44.0195252624127,24.4999999445207,93.4405785617413));
#1193=CARTESIAN_POINT('',(-46.,24.4999999384231,89.8));
#1194=CARTESIAN_POINT('',(-40.56,24.499999955172,99.8));
#1195=CARTESIAN_POINT('Ctrl Pts',(-46.,24.4999999383788,89.8));
#1196=CARTESIAN_POINT('Ctrl Pts',(-46.0000000047577,26.0441764235833,89.8));
#1197=CARTESIAN_POINT('Ctrl Pts',(-45.8203686575046,27.5882790188173,89.8));
#1198=CARTESIAN_POINT('Ctrl Pts',(-45.4658861752917,29.091217203595,89.8));
#1199=CARTESIAN_POINT('Ctrl Pts',(-40.1711651356124,27.8424061242172,99.8));
#1200=CARTESIAN_POINT('Ctrl Pts',(-40.2333303886583,27.636789549013,99.7755449097033));
#1201=CARTESIAN_POINT('Ctrl Pts',(-40.3092213299465,27.4454859676512,99.7117542738686));
#1202=CARTESIAN_POINT('Ctrl Pts',(-40.510253847457,27.0267153123992,99.4942798452826));
#1203=CARTESIAN_POINT('Ctrl Pts',(-40.6417778212707,26.8153279144728,99.3176743873343));
#1204=CARTESIAN_POINT('Ctrl Pts',(-41.0208467614531,26.2985259871945,98.7638344389436));
#1205=CARTESIAN_POINT('Ctrl Pts',(-41.3157081015648,26.0062317480484,98.2792685012672));
#1206=CARTESIAN_POINT('Ctrl Pts',(-41.9562161723527,25.5403908247073,97.1747030247582));
#1207=CARTESIAN_POINT('Ctrl Pts',(-42.2993512433474,25.3586294470745,96.5623157371444));
#1208=CARTESIAN_POINT('Ctrl Pts',(-42.6666666660183,25.228763833901,95.8981765453347));
#1209=CARTESIAN_POINT('Origin',(-43.2799999999923,-12.2500101233496,94.8));
#1210=CARTESIAN_POINT('',(-45.9999999999992,20.5147186257604,89.8));
#1211=CARTESIAN_POINT('Origin',(-41.,20.5147186257614,98.9911764705868));
#1212=CARTESIAN_POINT('',(-45.9999999999923,-12.2500101233502,89.8));
#1213=CARTESIAN_POINT('Origin',(-45.9999999999897,-24.5000202466996,0.));
#1214=CARTESIAN_POINT('',(-46.0000000000001,24.4999999384231,-7.8));
#1215=CARTESIAN_POINT('',(-46.0000000000001,24.4999999384231,-7.8));
#1216=CARTESIAN_POINT('',(-46.0000000000001,24.4999999384231,0.));
#1217=CARTESIAN_POINT('',(-46.,20.5147186257614,102.3));
#1218=CARTESIAN_POINT('',(-45.9999999999993,20.5147186257604,102.3));
#1219=CARTESIAN_POINT('',(-46.0000000000001,-20.5147186257614,102.3));
#1220=CARTESIAN_POINT('',(-46.0000000000001,24.4999999384231,102.3));
#1221=CARTESIAN_POINT('',(-45.9999999999906,-20.5147186257625,102.3));
#1222=CARTESIAN_POINT('Origin',(-42.9336535175,-3.77475828372553E-14,99.8));
#1223=CARTESIAN_POINT('Origin',(-44.,29.,99.8));
#1224=CARTESIAN_POINT('Origin',(-35.7071149245017,-34.5882069686612,102.3));
#1225=CARTESIAN_POINT('',(-40.6828459698004,-31.2352827874641,102.3));
#1226=CARTESIAN_POINT('Origin',(-35.7071149245017,-34.5882069686612,102.3));
#1227=CARTESIAN_POINT('',(-40.6828459698004,-31.2352827874641,102.3));
#1228=CARTESIAN_POINT('Origin',(-44.,-29.,102.3));
#1229=CARTESIAN_POINT('',(-42.6666666666666,-25.2287638336714,102.3));
#1230=CARTESIAN_POINT('Origin',(-44.,-29.,102.3));
#1231=CARTESIAN_POINT('Origin',(-44.,-29.,99.8));
#1232=CARTESIAN_POINT('',(-42.6666666666666,-25.2287638336714,102.3));
#1233=CARTESIAN_POINT('Origin',(-41.,-20.5147186257614,102.3));
#1234=CARTESIAN_POINT('Origin',(-41.,-20.5147186257614,102.3));
#1235=CARTESIAN_POINT('Origin',(-42.9336535175,-3.77475828372553E-14,99.8));
#1236=CARTESIAN_POINT('Origin',(-41.,20.5147186257614,102.3));
#1237=CARTESIAN_POINT('',(-42.6666666666667,25.2287638336717,102.3));
#1238=CARTESIAN_POINT('Origin',(-41.,20.5147186257614,102.3));
#1239=CARTESIAN_POINT('',(-42.6666666666667,25.2287638336717,102.3));
#1240=CARTESIAN_POINT('Origin',(-44.,29.,102.3));
#1241=CARTESIAN_POINT('',(-40.6828459698001,31.2352827874643,102.3));
#1242=CARTESIAN_POINT('Origin',(-44.,29.,102.3));
#1243=CARTESIAN_POINT('',(-40.6828459698001,31.2352827874643,102.3));
#1244=CARTESIAN_POINT('Origin',(-35.7071149244995,34.5882069686612,102.3));
#1245=CARTESIAN_POINT('',(-39.8673070350004,38.9117242409464,102.3));
#1246=CARTESIAN_POINT('Origin',(-35.7071149244995,34.5882069686612,102.3));
#1247=CARTESIAN_POINT('',(-39.8673070350008,38.9117242409461,102.3));
#1248=CARTESIAN_POINT('Origin',(-26.,24.5000000000001,0.));
#1249=CARTESIAN_POINT('Origin',(-26.,24.5000000000001,-7.8));
#1250=CARTESIAN_POINT('',(-33.,43.2349939951952,-7.8));
#1251=CARTESIAN_POINT('',(-33.,43.2349939951952,0.));
#1252=CARTESIAN_POINT('',(-26.,44.5,-7.8));
#1253=CARTESIAN_POINT('Origin',(-26.,24.5000000000001,-7.8));
#1254=CARTESIAN_POINT('',(-26.,44.5,102.3));
#1255=CARTESIAN_POINT('',(-26.,44.5,0.));
#1256=CARTESIAN_POINT('Origin',(-26.,24.5000000000001,102.3));
#1257=CARTESIAN_POINT('Origin',(-44.7349939951952,-31.5,0.));
#1258=CARTESIAN_POINT('',(-26.,-31.5,-7.8));
#1259=CARTESIAN_POINT('Origin',(-33.,43.2349939951952,0.));
#1260=CARTESIAN_POINT('',(-33.,31.5,-7.8));
#1261=CARTESIAN_POINT('Origin',(-37.,0.,-7.8));
#1262=CARTESIAN_POINT('',(-26.,-46.5,-7.8));
#1263=CARTESIAN_POINT('',(-26.,46.5,-7.8));
#1264=CARTESIAN_POINT('',(-48.,-24.5,-7.8));
#1265=CARTESIAN_POINT('Origin',(-26.,-24.5,-7.8));
#1266=CARTESIAN_POINT('',(-48.0000000000001,24.5000000000001,-7.8));
#1267=CARTESIAN_POINT('',(-48.0000000000001,24.5000000000001,-7.8));
#1268=CARTESIAN_POINT('',(-26.,46.5,-7.8));
#1269=CARTESIAN_POINT('Origin',(-26.,24.5000000000001,-7.8));
#1270=CARTESIAN_POINT('',(-26.,46.5,-7.8));
#1271=CARTESIAN_POINT('Origin',(-26.,44.5,0.));
#1272=CARTESIAN_POINT('',(-26.,46.5,102.3));
#1273=CARTESIAN_POINT('',(-26.,46.5,0.));
#1274=CARTESIAN_POINT('',(-26.,46.5,102.3));
#1275=CARTESIAN_POINT('Origin',(-26.,-46.5,0.));
#1276=CARTESIAN_POINT('',(-26.,-46.5,102.3));
#1277=CARTESIAN_POINT('',(-26.,46.5,102.3));
#1278=CARTESIAN_POINT('',(-26.,-46.5,0.));
#1279=CARTESIAN_POINT('Origin',(-26.,-24.5,0.));
#1280=CARTESIAN_POINT('',(-48.,-24.5,102.3));
#1281=CARTESIAN_POINT('Origin',(-26.,-24.5,102.3));
#1282=CARTESIAN_POINT('',(-48.,-24.5,0.));
#1283=CARTESIAN_POINT('Origin',(-48.0000000000001,24.5000000000001,0.));
#1284=CARTESIAN_POINT('',(-48.0000000000001,24.5000000000001,102.3));
#1285=CARTESIAN_POINT('',(-48.0000000000001,24.5000000000001,102.3));
#1286=CARTESIAN_POINT('',(-48.0000000000001,24.5000000000001,0.));
#1287=CARTESIAN_POINT('Origin',(-26.,24.5000000000001,0.));
#1288=CARTESIAN_POINT('Origin',(-26.,24.5000000000001,102.3));
#1289=CARTESIAN_POINT('Origin',(-37.,0.,102.3));
#1290=UNCERTAINTY_MEASURE_WITH_UNIT(LENGTH_MEASURE(0.01),#1294,
'DISTANCE_ACCURACY_VALUE',
'Maximum model space distance between geometric entities at asserted c
onnectivities');
#1291=UNCERTAINTY_MEASURE_WITH_UNIT(LENGTH_MEASURE(0.01),#1294,
'DISTANCE_ACCURACY_VALUE',
'Maximum model space distance between geometric entities at asserted c
onnectivities');
#1292=(
GEOMETRIC_REPRESENTATION_CONTEXT(3)
GLOBAL_UNCERTAINTY_ASSIGNED_CONTEXT((#1290))
GLOBAL_UNIT_ASSIGNED_CONTEXT((#1294,#1296,#1297))
REPRESENTATION_CONTEXT('','3D')
);
#1293=(
GEOMETRIC_REPRESENTATION_CONTEXT(3)
GLOBAL_UNCERTAINTY_ASSIGNED_CONTEXT((#1291))
GLOBAL_UNIT_ASSIGNED_CONTEXT((#1294,#1296,#1297))
REPRESENTATION_CONTEXT('','3D')
);
#1294=(
LENGTH_UNIT()
NAMED_UNIT(*)
SI_UNIT(.MILLI.,.METRE.)
);
#1295=(
LENGTH_UNIT()
NAMED_UNIT(*)
SI_UNIT($,.METRE.)
);
#1296=(
NAMED_UNIT(*)
PLANE_ANGLE_UNIT()
SI_UNIT($,.RADIAN.)
);
#1297=(
NAMED_UNIT(*)
SI_UNIT($,.STERADIAN.)
SOLID_ANGLE_UNIT()
);
#1298=SHAPE_DEFINITION_REPRESENTATION(#1299,#1300);
#1299=PRODUCT_DEFINITION_SHAPE('',$,#1302);
#1300=SHAPE_REPRESENTATION('',(#702),#1292);
#1301=PRODUCT_DEFINITION_CONTEXT('part definition',#1306,'design');
#1302=PRODUCT_DEFINITION('2026-08-17-11-24-59-616','(Unsaved)',#1303,#1301);
#1303=PRODUCT_DEFINITION_FORMATION('',$,#1308);
#1304=PRODUCT_RELATED_PRODUCT_CATEGORY('(Unsaved)','(Unsaved)',(#1308));
#1305=APPLICATION_PROTOCOL_DEFINITION('international standard',
'automotive_design',2009,#1306);
#1306=APPLICATION_CONTEXT(
'Core Data for Automotive Mechanical Design Process');
#1307=PRODUCT_CONTEXT('part definition',#1306,'mechanical');
#1308=PRODUCT('2026-08-17-11-24-59-616','(Unsaved)',$,(#1307));
#1309=PRESENTATION_STYLE_ASSIGNMENT((#1310));
#1310=SURFACE_STYLE_USAGE(.BOTH.,#1311);
#1311=SURFACE_SIDE_STYLE('',(#1312));
#1312=SURFACE_STYLE_FILL_AREA(#1313);
#1313=FILL_AREA_STYLE('Steel - Satin',(#1314));
#1314=FILL_AREA_STYLE_COLOUR('Steel - Satin',#1315);
#1315=COLOUR_RGB('Steel - Satin',0.627450980392157,0.627450980392157,0.627450980392157);
ENDSEC;
END-ISO-10303-21;
