ISO-10303-21;
HEADER;
/* Generated by software containing ST-Developer
 * from STEP Tools, Inc. (www.steptools.com) 
 */

FILE_DESCRIPTION(
/* description */ (''),
/* implementation_level */ '2;1');

FILE_NAME(
/* name */ 'LeftIndex_routing_lid.step',
/* time_stamp */ '2026-08-25T10:25:28+02:00',
/* author */ (''),
/* organization */ (''),
/* preprocessor_version */ 'ST-DEVELOPER v20.1',
/* originating_system */ 'Autodesk Translation Framework v15.8.0.0',
/* authorisation */ '');

FILE_SCHEMA (('AUTOMOTIVE_DESIGN { 1 0 10303 214 3 1 1 }'));
ENDSEC;

DATA;
#10=MECHANICAL_DESIGN_GEOMETRIC_PRESENTATION_REPRESENTATION('',(#13),#475);
#11=SHAPE_REPRESENTATION_RELATIONSHIP('SRR','None',#482,#12);
#12=ADVANCED_BREP_SHAPE_REPRESENTATION('',(#14),#474);
#13=STYLED_ITEM('',(#491),#14);
#14=MANIFOLD_SOLID_BREP('routing_lid',#177);
#15=(
BOUNDED_CURVE()
B_SPLINE_CURVE(5,(#450,#451,#452,#453,#454,#455,#456),.UNSPECIFIED.,.F.,
 .F.)
B_SPLINE_CURVE_WITH_KNOTS((6,1,6),(-0.534586191769923,-0.4,-0.34944622628008),
 .UNSPECIFIED.)
CURVE()
GEOMETRIC_REPRESENTATION_ITEM()
RATIONAL_B_SPLINE_CURVE((1.,1.,1.,1.,1.,1.,1.))
REPRESENTATION_ITEM('')
);
#16=(
BOUNDED_SURFACE()
B_SPLINE_SURFACE(5,1,((#419,#420),(#421,#422),(#423,#424),(#425,#426),(#427,
#428),(#429,#430),(#431,#432)),.UNSPECIFIED.,.F.,.F.,.F.)
B_SPLINE_SURFACE_WITH_KNOTS((6,1,6),(2,2),(-0.563445957637757,-0.4,-0.320127928419965),
(0.,0.35),.UNSPECIFIED.)
GEOMETRIC_REPRESENTATION_ITEM()
RATIONAL_B_SPLINE_SURFACE(((1.,1.),(1.,1.),(1.,1.),(1.,1.),(1.,1.),(1.,
1.),(1.,1.)))
REPRESENTATION_ITEM('')
SURFACE()
);
#17=LINE('',#395,#27);
#18=LINE('',#397,#28);
#19=LINE('',#398,#29);
#20=LINE('',#401,#30);
#21=LINE('',#408,#31);
#22=LINE('',#415,#32);
#23=LINE('',#417,#33);
#24=LINE('',#418,#34);
#25=LINE('',#467,#35);
#26=LINE('',#470,#36);
#27=VECTOR('',#203,10.);
#28=VECTOR('',#204,10.);
#29=VECTOR('',#205,10.);
#30=VECTOR('',#208,10.);
#31=VECTOR('',#211,10.);
#32=VECTOR('',#214,10.);
#33=VECTOR('',#215,10.);
#34=VECTOR('',#216,10.);
#35=VECTOR('',#219,10.);
#36=VECTOR('',#224,10.);
#37=PLANE('',#191);
#38=PLANE('',#192);
#39=PLANE('',#193);
#40=PLANE('',#194);
#41=PLANE('',#195);
#42=PLANE('',#196);
#43=PLANE('',#197);
#44=PLANE('',#198);
#45=FACE_OUTER_BOUND('',#55,.T.);
#46=FACE_OUTER_BOUND('',#56,.T.);
#47=FACE_OUTER_BOUND('',#57,.T.);
#48=FACE_OUTER_BOUND('',#58,.T.);
#49=FACE_OUTER_BOUND('',#59,.T.);
#50=FACE_OUTER_BOUND('',#60,.T.);
#51=FACE_OUTER_BOUND('',#61,.T.);
#52=FACE_OUTER_BOUND('',#62,.T.);
#53=FACE_OUTER_BOUND('',#63,.T.);
#54=FACE_OUTER_BOUND('',#64,.T.);
#55=EDGE_LOOP('',(#118,#119,#120,#121,#122,#123,#124,#125));
#56=EDGE_LOOP('',(#126,#127,#128,#129));
#57=EDGE_LOOP('',(#130,#131,#132,#133));
#58=EDGE_LOOP('',(#134,#135,#136,#137));
#59=EDGE_LOOP('',(#138,#139,#140,#141));
#60=EDGE_LOOP('',(#142,#143,#144,#145,#146,#147,#148,#149));
#61=EDGE_LOOP('',(#150,#151,#152,#153));
#62=EDGE_LOOP('',(#154,#155,#156,#157));
#63=EDGE_LOOP('',(#158,#159,#160,#161));
#64=EDGE_LOOP('',(#162,#163,#164,#165));
#65=B_SPLINE_CURVE_WITH_KNOTS('',3,(#260,#261,#262,#263,#264,#265,#266,
#267,#268,#269,#270,#271,#272,#273,#274,#275),.UNSPECIFIED.,.F.,.F.,(4,
3,3,3,3,4),(0.0699382638400111,0.0881062400608067,0.104170269495032,0.122311221290532,
0.140164950315872,0.148778724967456),.UNSPECIFIED.);
#66=B_SPLINE_CURVE_WITH_KNOTS('',3,(#277,#278,#279,#280,#281,#282,#283,
#284,#285,#286),.UNSPECIFIED.,.F.,.F.,(4,3,3,4),(0.,0.243233164439474,0.490345184200721,
0.861013213842252),.UNSPECIFIED.);
#67=B_SPLINE_CURVE_WITH_KNOTS('',3,(#288,#289,#290,#291,#292,#293,#294,
#295,#296,#297,#298,#299,#300,#301,#302,#303,#304,#305,#306),
 .UNSPECIFIED.,.F.,.F.,(4,3,3,3,3,3,4),(0.,0.0178304839554561,0.0359500613649628,
0.0540385029860975,0.0583179852578564,0.0764625981802303,0.0787982761475722),
 .UNSPECIFIED.);
#68=B_SPLINE_CURVE_WITH_KNOTS('',3,(#308,#309,#310,#311),.UNSPECIFIED.,
 .F.,.F.,(4,4),(0.0502462611811373,0.150997482830403),.UNSPECIFIED.);
#69=B_SPLINE_CURVE_WITH_KNOTS('',3,(#313,#314,#315,#316,#317,#318,#319,
#320,#321,#322,#323,#324,#325,#326,#327,#328,#329,#330,#331,#332,#333,#334,
#335,#336,#337,#338,#339,#340,#341,#342,#343,#344,#345,#346),
 .UNSPECIFIED.,.F.,.F.,(4,3,3,3,3,3,3,3,3,3,3,4),(0.0536673042682356,0.0581720663583949,
0.0762161859880827,0.0941287770756792,0.112406475408752,0.1167596187675,
0.134949680019531,0.153278757286042,0.164415690704611,0.1827859588936,0.200763445861255,
0.212159024251955),.UNSPECIFIED.);
#70=B_SPLINE_CURVE_WITH_KNOTS('',3,(#348,#349,#350,#351,#352,#353),
 .UNSPECIFIED.,.F.,.F.,(4,1,1,4),(0.115919636569036,0.365013825892825,0.608356376488264,
0.772995304248254),.UNSPECIFIED.);
#71=B_SPLINE_CURVE_WITH_KNOTS('',3,(#355,#356,#357,#358,#359,#360,#361,
#362,#363,#364,#365,#366,#367,#368,#369,#370,#371,#372,#373,#374,#375,#376,
#377,#378,#379,#380,#381,#382,#383,#384,#385,#386,#387,#388),
 .UNSPECIFIED.,.F.,.F.,(4,3,3,3,3,3,3,3,3,3,3,4),(0.,0.0181132656644932,
0.0365729701497494,0.055148961045921,0.0611566719165749,0.0796523829281462,
0.0980311987645291,0.115870129771613,0.121734593218362,0.137447247424204,
0.155653708478497,0.160136911120426),.UNSPECIFIED.);
#72=B_SPLINE_CURVE_WITH_KNOTS('',3,(#389,#390,#391,#392),.UNSPECIFIED.,
 .F.,.F.,(4,4),(0.0521198710672636,0.158007377537331),.UNSPECIFIED.);
#73=B_SPLINE_CURVE_WITH_KNOTS('',3,(#402,#403,#404,#405),.UNSPECIFIED.,
 .F.,.F.,(4,4),(0.,0.102600067343562),.UNSPECIFIED.);
#74=B_SPLINE_CURVE_WITH_KNOTS('',3,(#409,#410,#411,#412),.UNSPECIFIED.,
 .F.,.F.,(4,4),(0.0499999999999998,0.125),.UNSPECIFIED.);
#75=B_SPLINE_CURVE_WITH_KNOTS('',3,(#433,#434,#435,#436,#437,#438,#439,
#440,#441,#442,#443,#444,#445,#446,#447,#448),.UNSPECIFIED.,.F.,.F.,(4,
3,3,3,3,4),(0.,0.161192162438494,0.343027189502015,0.567613873532069,0.841692828671569,
0.861449267841877),.UNSPECIFIED.);
#76=B_SPLINE_CURVE_WITH_KNOTS('',3,(#458,#459,#460,#461),.UNSPECIFIED.,
 .F.,.F.,(4,4),(0.,0.0750000000000001),.UNSPECIFIED.);
#77=B_SPLINE_CURVE_WITH_KNOTS('',3,(#462,#463,#464,#465),.UNSPECIFIED.,
 .F.,.F.,(4,4),(0.0511265514148661,0.153226111450923),.UNSPECIFIED.);
#78=VERTEX_POINT('',#258);
#79=VERTEX_POINT('',#259);
#80=VERTEX_POINT('',#276);
#81=VERTEX_POINT('',#287);
#82=VERTEX_POINT('',#307);
#83=VERTEX_POINT('',#312);
#84=VERTEX_POINT('',#347);
#85=VERTEX_POINT('',#354);
#86=VERTEX_POINT('',#394);
#87=VERTEX_POINT('',#396);
#88=VERTEX_POINT('',#400);
#89=VERTEX_POINT('',#407);
#90=VERTEX_POINT('',#414);
#91=VERTEX_POINT('',#416);
#92=VERTEX_POINT('',#449);
#93=VERTEX_POINT('',#457);
#94=EDGE_CURVE('',#78,#79,#65,.T.);
#95=EDGE_CURVE('',#79,#80,#66,.T.);
#96=EDGE_CURVE('',#80,#81,#67,.T.);
#97=EDGE_CURVE('',#81,#82,#68,.T.);
#98=EDGE_CURVE('',#82,#83,#69,.T.);
#99=EDGE_CURVE('',#83,#84,#70,.T.);
#100=EDGE_CURVE('',#84,#85,#71,.T.);
#101=EDGE_CURVE('',#85,#78,#72,.T.);
#102=EDGE_CURVE('',#78,#86,#17,.T.);
#103=EDGE_CURVE('',#86,#87,#18,.T.);
#104=EDGE_CURVE('',#87,#79,#19,.T.);
#105=EDGE_CURVE('',#85,#88,#20,.T.);
#106=EDGE_CURVE('',#86,#88,#73,.T.);
#107=EDGE_CURVE('',#89,#84,#21,.T.);
#108=EDGE_CURVE('',#88,#89,#74,.T.);
#109=EDGE_CURVE('',#80,#90,#22,.T.);
#110=EDGE_CURVE('',#91,#90,#23,.T.);
#111=EDGE_CURVE('',#91,#81,#24,.T.);
#112=EDGE_CURVE('',#90,#87,#75,.T.);
#113=EDGE_CURVE('',#89,#92,#15,.T.);
#114=EDGE_CURVE('',#92,#93,#76,.T.);
#115=EDGE_CURVE('',#93,#91,#77,.T.);
#116=EDGE_CURVE('',#93,#82,#25,.T.);
#117=EDGE_CURVE('',#92,#83,#26,.T.);
#118=ORIENTED_EDGE('',*,*,#94,.T.);
#119=ORIENTED_EDGE('',*,*,#95,.T.);
#120=ORIENTED_EDGE('',*,*,#96,.T.);
#121=ORIENTED_EDGE('',*,*,#97,.T.);
#122=ORIENTED_EDGE('',*,*,#98,.T.);
#123=ORIENTED_EDGE('',*,*,#99,.T.);
#124=ORIENTED_EDGE('',*,*,#100,.T.);
#125=ORIENTED_EDGE('',*,*,#101,.T.);
#126=ORIENTED_EDGE('',*,*,#94,.F.);
#127=ORIENTED_EDGE('',*,*,#102,.T.);
#128=ORIENTED_EDGE('',*,*,#103,.T.);
#129=ORIENTED_EDGE('',*,*,#104,.T.);
#130=ORIENTED_EDGE('',*,*,#101,.F.);
#131=ORIENTED_EDGE('',*,*,#105,.T.);
#132=ORIENTED_EDGE('',*,*,#106,.F.);
#133=ORIENTED_EDGE('',*,*,#102,.F.);
#134=ORIENTED_EDGE('',*,*,#100,.F.);
#135=ORIENTED_EDGE('',*,*,#107,.F.);
#136=ORIENTED_EDGE('',*,*,#108,.F.);
#137=ORIENTED_EDGE('',*,*,#105,.F.);
#138=ORIENTED_EDGE('',*,*,#96,.F.);
#139=ORIENTED_EDGE('',*,*,#109,.T.);
#140=ORIENTED_EDGE('',*,*,#110,.F.);
#141=ORIENTED_EDGE('',*,*,#111,.T.);
#142=ORIENTED_EDGE('',*,*,#112,.T.);
#143=ORIENTED_EDGE('',*,*,#103,.F.);
#144=ORIENTED_EDGE('',*,*,#106,.T.);
#145=ORIENTED_EDGE('',*,*,#108,.T.);
#146=ORIENTED_EDGE('',*,*,#113,.T.);
#147=ORIENTED_EDGE('',*,*,#114,.T.);
#148=ORIENTED_EDGE('',*,*,#115,.T.);
#149=ORIENTED_EDGE('',*,*,#110,.T.);
#150=ORIENTED_EDGE('',*,*,#97,.F.);
#151=ORIENTED_EDGE('',*,*,#111,.F.);
#152=ORIENTED_EDGE('',*,*,#115,.F.);
#153=ORIENTED_EDGE('',*,*,#116,.T.);
#154=ORIENTED_EDGE('',*,*,#104,.F.);
#155=ORIENTED_EDGE('',*,*,#112,.F.);
#156=ORIENTED_EDGE('',*,*,#109,.F.);
#157=ORIENTED_EDGE('',*,*,#95,.F.);
#158=ORIENTED_EDGE('',*,*,#99,.F.);
#159=ORIENTED_EDGE('',*,*,#117,.F.);
#160=ORIENTED_EDGE('',*,*,#113,.F.);
#161=ORIENTED_EDGE('',*,*,#107,.T.);
#162=ORIENTED_EDGE('',*,*,#98,.F.);
#163=ORIENTED_EDGE('',*,*,#116,.F.);
#164=ORIENTED_EDGE('',*,*,#114,.F.);
#165=ORIENTED_EDGE('',*,*,#117,.T.);
#166=B_SPLINE_SURFACE_WITH_KNOTS('',3,3,((#228,#229,#230,#231,#232,#233),
(#234,#235,#236,#237,#238,#239),(#240,#241,#242,#243,#244,#245),(#246,#247,
#248,#249,#250,#251),(#252,#253,#254,#255,#256,#257)),.UNSPECIFIED.,.F.,
 .F.,.F.,(4,1,4),(4,1,1,4),(0.,0.571428571428571,1.),(-3.34580236411028E-13,
0.365013825892825,0.608356376488264,0.851698927083703),.UNSPECIFIED.);
#167=ADVANCED_FACE('',(#45),#166,.F.);
#168=ADVANCED_FACE('',(#46),#37,.T.);
#169=ADVANCED_FACE('',(#47),#38,.T.);
#170=ADVANCED_FACE('',(#48),#39,.T.);
#171=ADVANCED_FACE('',(#49),#40,.T.);
#172=ADVANCED_FACE('',(#50),#16,.T.);
#173=ADVANCED_FACE('',(#51),#41,.T.);
#174=ADVANCED_FACE('',(#52),#42,.T.);
#175=ADVANCED_FACE('',(#53),#43,.T.);
#176=ADVANCED_FACE('',(#54),#44,.T.);
#177=CLOSED_SHELL('',(#167,#168,#169,#170,#171,#172,#173,#174,#175,#176));
#178=DERIVED_UNIT_ELEMENT(#180,1.);
#179=DERIVED_UNIT_ELEMENT(#477,-3.);
#180=(
MASS_UNIT()
NAMED_UNIT(*)
SI_UNIT(.KILO.,.GRAM.)
);
#181=DERIVED_UNIT((#178,#179));
#182=MEASURE_REPRESENTATION_ITEM('density measure',
POSITIVE_RATIO_MEASURE(7850.),#181);
#183=PROPERTY_DEFINITION_REPRESENTATION(#188,#185);
#184=PROPERTY_DEFINITION_REPRESENTATION(#189,#186);
#185=REPRESENTATION('material name',(#187),#474);
#186=REPRESENTATION('density',(#182),#474);
#187=DESCRIPTIVE_REPRESENTATION_ITEM('Steel','Steel');
#188=PROPERTY_DEFINITION('material property','material name',#484);
#189=PROPERTY_DEFINITION('material property','density of part',#484);
#190=AXIS2_PLACEMENT_3D('',#227,#199,#200);
#191=AXIS2_PLACEMENT_3D('',#393,#201,#202);
#192=AXIS2_PLACEMENT_3D('',#399,#206,#207);
#193=AXIS2_PLACEMENT_3D('',#406,#209,#210);
#194=AXIS2_PLACEMENT_3D('',#413,#212,#213);
#195=AXIS2_PLACEMENT_3D('',#466,#217,#218);
#196=AXIS2_PLACEMENT_3D('',#468,#220,#221);
#197=AXIS2_PLACEMENT_3D('',#469,#222,#223);
#198=AXIS2_PLACEMENT_3D('',#471,#225,#226);
#199=DIRECTION('axis',(0.,0.,1.));
#200=DIRECTION('refdir',(1.,0.,0.));
#201=DIRECTION('center_axis',(0.,0.,-1.));
#202=DIRECTION('ref_axis',(0.,-1.,0.));
#203=DIRECTION('',(0.,-1.,0.));
#204=DIRECTION('',(-1.,0.,0.));
#205=DIRECTION('',(0.,1.,0.));
#206=DIRECTION('center_axis',(1.,0.,0.));
#207=DIRECTION('ref_axis',(0.,0.,-1.));
#208=DIRECTION('',(0.,-1.,0.));
#209=DIRECTION('center_axis',(0.,0.,-1.));
#210=DIRECTION('ref_axis',(-1.,0.,0.));
#211=DIRECTION('',(0.,1.,0.));
#212=DIRECTION('center_axis',(0.,0.,1.));
#213=DIRECTION('ref_axis',(0.,1.,0.));
#214=DIRECTION('',(0.,-1.,0.));
#215=DIRECTION('',(-1.,0.,0.));
#216=DIRECTION('',(0.,1.,0.));
#217=DIRECTION('center_axis',(1.,0.,0.));
#218=DIRECTION('ref_axis',(0.,0.,-1.));
#219=DIRECTION('',(0.,1.,0.));
#220=DIRECTION('center_axis',(-1.,0.,0.));
#221=DIRECTION('ref_axis',(0.,0.,1.));
#222=DIRECTION('center_axis',(1.,0.,0.));
#223=DIRECTION('ref_axis',(0.,0.,-1.));
#224=DIRECTION('',(0.,1.,0.));
#225=DIRECTION('center_axis',(0.,0.,1.));
#226=DIRECTION('ref_axis',(1.,0.,0.));
#227=CARTESIAN_POINT('',(0.,0.,0.));
#228=CARTESIAN_POINT('Ctrl Pts',(9.5,5.51313157749845,22.8508598843968));
#229=CARTESIAN_POINT('Ctrl Pts',(9.5,5.39076281399297,21.6403162837877));
#230=CARTESIAN_POINT('Ctrl Pts',(9.5,5.04988576163011,19.6354943377098));
#231=CARTESIAN_POINT('Ctrl Pts',(9.5,4.26807730632632,16.9053885475418));
#232=CARTESIAN_POINT('Ctrl Pts',(9.5,3.89348634704102,15.3262540276543));
#233=CARTESIAN_POINT('Ctrl Pts',(9.5,3.75130199471595,14.5277210824577));
#234=CARTESIAN_POINT('Ctrl Pts',(9.5,5.95965496288581,22.8057227125356));
#235=CARTESIAN_POINT('Ctrl Pts',(9.5,5.83547861589192,21.5772974355757));
#236=CARTESIAN_POINT('Ctrl Pts',(9.5,5.48588348249931,19.5268620967191));
#237=CARTESIAN_POINT('Ctrl Pts',(9.5,4.69882472531062,16.7798891946049));
#238=CARTESIAN_POINT('Ctrl Pts',(9.5,4.33263975930638,15.2324388275128));
#239=CARTESIAN_POINT('Ctrl Pts',(9.5,4.19315134021895,14.4490467292034));
#240=CARTESIAN_POINT('Ctrl Pts',(9.12373673081582,6.73298581191114,22.7275499480616));
#241=CARTESIAN_POINT('Ctrl Pts',(9.12373673081582,6.60570483885005,21.468411888605));
#242=CARTESIAN_POINT('Ctrl Pts',(9.12373673081582,6.24106098315326,19.3391553808169));
#243=CARTESIAN_POINT('Ctrl Pts',(9.12373673081582,5.44498607006168,16.5632298659173));
#244=CARTESIAN_POINT('Ctrl Pts',(9.12373673081582,5.0932452534732,15.0701779899646));
#245=CARTESIAN_POINT('Ctrl Pts',(9.12373673081582,4.9583872509937,14.3127911457564));
#246=CARTESIAN_POINT('Ctrl Pts',(8.33659921288462,7.00552606129949,22.7));
#247=CARTESIAN_POINT('Ctrl Pts',(8.33659921288462,6.87713812250809,21.4299111860981));
#248=CARTESIAN_POINT('Ctrl Pts',(8.33659921288462,6.5071659695895,19.2727889656559));
#249=CARTESIAN_POINT('Ctrl Pts',(8.33659921288462,5.70787554892123,16.4865315119766));
#250=CARTESIAN_POINT('Ctrl Pts',(8.33659921288462,5.36128166150453,15.0128860020987));
#251=CARTESIAN_POINT('Ctrl Pts',(8.33659921288462,5.2280746509291,14.2647714259431));
#252=CARTESIAN_POINT('Ctrl Pts',(8.,7.00552606129949,22.7));
#253=CARTESIAN_POINT('Ctrl Pts',(8.,6.87714274216286,21.4299568864334));
#254=CARTESIAN_POINT('Ctrl Pts',(8.,6.50717951346046,19.2728661033713));
#255=CARTESIAN_POINT('Ctrl Pts',(8.,5.70790278415199,16.4866548941477));
#256=CARTESIAN_POINT('Ctrl Pts',(8.,5.36128855152146,15.0129246976755));
#257=CARTESIAN_POINT('Ctrl Pts',(8.,5.2280746509291,14.2647714259431));
#258=CARTESIAN_POINT('',(8.75,5.03022463061082,14.3));
#259=CARTESIAN_POINT('',(8.,5.23437652841613,14.3));
#260=CARTESIAN_POINT('Ctrl Pts',(8.75089260953341,5.02987401422717,14.300062429689));
#261=CARTESIAN_POINT('Ctrl Pts',(8.69874921620059,5.06030067150577,14.3000861338518));
#262=CARTESIAN_POINT('Ctrl Pts',(8.64476266349867,5.0875365463179,14.3001083153726));
#263=CARTESIAN_POINT('Ctrl Pts',(8.58926592842584,5.1114755334968,14.3001202656386));
#264=CARTESIAN_POINT('Ctrl Pts',(8.54019600589407,5.13264226059914,14.3001308320012));
#265=CARTESIAN_POINT('Ctrl Pts',(8.48994452145034,5.15123101434257,14.3001334702505));
#266=CARTESIAN_POINT('Ctrl Pts',(8.43873212769223,5.16713614804912,14.3001264809574));
#267=CARTESIAN_POINT('Ctrl Pts',(8.38089835281303,5.18509769709433,14.3001185880007));
#268=CARTESIAN_POINT('Ctrl Pts',(8.32212458714242,5.19954896780738,14.300097459117));
#269=CARTESIAN_POINT('Ctrl Pts',(8.26274675021906,5.21039437089923,14.3000730408283));
#270=CARTESIAN_POINT('Ctrl Pts',(8.20430903303139,5.2210680604694,14.3000490091505));
#271=CARTESIAN_POINT('Ctrl Pts',(8.14528518557528,5.22824935650452,14.3000217673456));
#272=CARTESIAN_POINT('Ctrl Pts',(8.08598609925777,5.23179864846183,14.3000061219468));
#273=CARTESIAN_POINT('Ctrl Pts',(8.05737644769093,5.2335110526912,14.2999985736112));
#274=CARTESIAN_POINT('Ctrl Pts',(8.02870268420676,5.23437728535741,14.2999938067694));
#275=CARTESIAN_POINT('Ctrl Pts',(8.,5.23437731322782,14.2999939623713));
#276=CARTESIAN_POINT('',(8.,7.00552606129949,22.7));
#277=CARTESIAN_POINT('Ctrl Pts',(8.,5.23437731322782,14.2999939623713));
#278=CARTESIAN_POINT('Ctrl Pts',(8.,5.36673605086435,15.0360647629975));
#279=CARTESIAN_POINT('Ctrl Pts',(8.,5.53774813928139,15.7618207687898));
#280=CARTESIAN_POINT('Ctrl Pts',(8.,5.73543161589557,16.5162525177759));
#281=CARTESIAN_POINT('Ctrl Pts',(8.,5.93626756395441,17.2827152396401));
#282=CARTESIAN_POINT('Ctrl Pts',(8.,6.16463234375683,18.0787755851326));
#283=CARTESIAN_POINT('Ctrl Pts',(8.,6.36084532823066,18.901546317718));
#284=CARTESIAN_POINT('Ctrl Pts',(8.,6.65516480494115,20.135702416595));
#285=CARTESIAN_POINT('Ctrl Pts',(8.,6.87714274216246,21.429956886431));
#286=CARTESIAN_POINT('Ctrl Pts',(8.,7.00552606129914,22.6999999999965));
#287=CARTESIAN_POINT('',(8.75,6.8035335039672,22.7));
#288=CARTESIAN_POINT('Ctrl Pts',(8.,7.00552606129949,22.7));
#289=CARTESIAN_POINT('Ctrl Pts',(8.05943494651819,7.00552606129949,22.7));
#290=CARTESIAN_POINT('Ctrl Pts',(8.11871659021305,7.00185298729364,22.7000134637781));
#291=CARTESIAN_POINT('Ctrl Pts',(8.17753391877593,6.99468136335767,22.7000275676442));
#292=CARTESIAN_POINT('Ctrl Pts',(8.23730487847494,6.98739346273847,22.7000419001825));
#293=CARTESIAN_POINT('Ctrl Pts',(8.29659736758316,6.97649243329959,22.7000569193808));
#294=CARTESIAN_POINT('Ctrl Pts',(8.35508553794831,6.96210782897687,22.7000659902203));
#295=CARTESIAN_POINT('Ctrl Pts',(8.41347320512545,6.94774794244894,22.7000750454729));
#296=CARTESIAN_POINT('Ctrl Pts',(8.47106035527721,6.92991609884035,22.7000782121652));
#297=CARTESIAN_POINT('Ctrl Pts',(8.52750781119235,6.90869262864378,22.7000751141025));
#298=CARTESIAN_POINT('Ctrl Pts',(8.54086252089782,6.90367144072977,22.7000743811424));
#299=CARTESIAN_POINT('Ctrl Pts',(8.55415333283275,6.89846021121186,22.7000733235399));
#300=CARTESIAN_POINT('Ctrl Pts',(8.56737553334659,6.89305963702867,22.7000719838713));
#301=CARTESIAN_POINT('Ctrl Pts',(8.62343619278723,6.87016180321114,22.7000663038257));
#302=CARTESIAN_POINT('Ctrl Pts',(8.67796689270054,6.84398559887888,22.7000542731997));
#303=CARTESIAN_POINT('Ctrl Pts',(8.73064319365744,6.81465951637387,22.7000401500183));
#304=CARTESIAN_POINT('Ctrl Pts',(8.7374239872777,6.81088449592739,22.7000383320019));
#305=CARTESIAN_POINT('Ctrl Pts',(8.74417403073742,6.80705721433431,22.7000364873911));
#306=CARTESIAN_POINT('Ctrl Pts',(8.75089260953341,6.8031778875082,22.7000346323196));
#307=CARTESIAN_POINT('',(8.75,6.68505720749738,21.7));
#308=CARTESIAN_POINT('Ctrl Pts',(8.75089260953341,6.80317788750821,22.7000346323196));
#309=CARTESIAN_POINT('Ctrl Pts',(8.75089260953341,6.76925532869506,22.36696130718));
#310=CARTESIAN_POINT('Ctrl Pts',(8.75089260953341,6.72893010877663,22.0325282873122));
#311=CARTESIAN_POINT('Ctrl Pts',(8.75089260953341,6.68254974263141,21.6981061857814));
#312=CARTESIAN_POINT('',(9.5,5.37348186803271,21.7000000000004));
#313=CARTESIAN_POINT('Ctrl Pts',(8.75089260953341,6.68254974263141,21.6981061857814));
#314=CARTESIAN_POINT('Ctrl Pts',(8.76385657066177,6.6750355999703,21.6981107175068));
#315=CARTESIAN_POINT('Ctrl Pts',(8.77671169012998,6.66732215305982,21.6981156045203));
#316=CARTESIAN_POINT('Ctrl Pts',(8.78945228255228,6.65941007118805,21.698120827906));
#317=CARTESIAN_POINT('Ctrl Pts',(8.84048567441574,6.62771763796096,21.6981417505667));
#318=CARTESIAN_POINT('Ctrl Pts',(8.88937813897967,6.59303130495721,21.6981692164498));
#319=CARTESIAN_POINT('Ctrl Pts',(8.93582181521906,6.55547804075394,21.6982163308999));
#320=CARTESIAN_POINT('Ctrl Pts',(8.98192695075097,6.51819851260391,21.6982631019197));
#321=CARTESIAN_POINT('Ctrl Pts',(9.02561992033336,6.47809341285846,21.6983293317028));
#322=CARTESIAN_POINT('Ctrl Pts',(9.06680331662759,6.43547235082112,21.6984036624687));
#323=CARTESIAN_POINT('Ctrl Pts',(9.10882614236599,6.39198255580797,21.6984795082975));
#324=CARTESIAN_POINT('Ctrl Pts',(9.1482366474437,6.34587239668206,21.6985639141985));
#325=CARTESIAN_POINT('Ctrl Pts',(9.18489279894176,6.29743403780394,21.6986500703189));
#326=CARTESIAN_POINT('Ctrl Pts',(9.19362308212858,6.28589762241857,21.6986705898579));
#327=CARTESIAN_POINT('Ctrl Pts',(9.20219693667399,6.27422901327099,21.6986912268163));
#328=CARTESIAN_POINT('Ctrl Pts',(9.21061207065197,6.26243193681703,21.698711919548));
#329=CARTESIAN_POINT('Ctrl Pts',(9.24577558122092,6.21313662866664,21.6987983862747));
#330=CARTESIAN_POINT('Ctrl Pts',(9.27798653289519,6.16185923044602,21.6988845458316));
#331=CARTESIAN_POINT('Ctrl Pts',(9.30714301514232,6.10891693365744,21.6989687435995));
#332=CARTESIAN_POINT('Ctrl Pts',(9.33652232335481,6.05557002981477,21.6990535848417));
#333=CARTESIAN_POINT('Ctrl Pts',(9.36280081672962,6.000531770323,21.6991365763961));
#334=CARTESIAN_POINT('Ctrl Pts',(9.38583158030679,5.94409653640684,21.6992191529262));
#335=CARTESIAN_POINT('Ctrl Pts',(9.39982530605787,5.90980591536537,21.6992693272642));
#336=CARTESIAN_POINT('Ctrl Pts',(9.41261914263317,5.87499902077512,21.6993193997401));
#337=CARTESIAN_POINT('Ctrl Pts',(9.42417126672996,5.83973870174194,21.6993699086109));
#338=CARTESIAN_POINT('Ctrl Pts',(9.4432263880847,5.78157713313734,21.699453222524));
#339=CARTESIAN_POINT('Ctrl Pts',(9.45881920276151,5.72244618496291,21.6995369788958));
#340=CARTESIAN_POINT('Ctrl Pts',(9.47081499542888,5.66264468446872,21.6996279816049));
#341=CARTESIAN_POINT('Ctrl Pts',(9.48255430179751,5.60412182107226,21.6997170385527));
#342=CARTESIAN_POINT('Ctrl Pts',(9.49084902604797,5.54495584210626,21.6998131676599));
#343=CARTESIAN_POINT('Ctrl Pts',(9.49552573655117,5.48541357120566,21.6999226622194));
#344=CARTESIAN_POINT('Ctrl Pts',(9.49849021213364,5.44767088687893,21.6999920686852));
#345=CARTESIAN_POINT('Ctrl Pts',(9.5,5.40977678755807,21.7000668374446));
#346=CARTESIAN_POINT('Ctrl Pts',(9.5,5.3717988897626,21.7001481942878));
#347=CARTESIAN_POINT('',(9.5,3.90180296266738,15.29999999999));
#348=CARTESIAN_POINT('Ctrl Pts',(9.5,5.37181245401486,21.7002419994542));
#349=CARTESIAN_POINT('Ctrl Pts',(9.5,5.25295856336823,20.8782839556913));
#350=CARTESIAN_POINT('Ctrl Pts',(9.5,4.94347849830767,19.2639160006609));
#351=CARTESIAN_POINT('Ctrl Pts',(9.5,4.34032250452853,17.1576716132795));
#352=CARTESIAN_POINT('Ctrl Pts',(9.5,4.01652628018808,15.8364904217046));
#353=CARTESIAN_POINT('Ctrl Pts',(9.5,3.90250157055206,15.2998515602027));
#354=CARTESIAN_POINT('',(8.75,5.23109109000926,15.3));
#355=CARTESIAN_POINT('Ctrl Pts',(9.5,3.90243834295567,15.2995539813573));
#356=CARTESIAN_POINT('Ctrl Pts',(9.5,3.96280252785783,15.2994924180039));
#357=CARTESIAN_POINT('Ctrl Pts',(9.49627964257749,4.02293887061492,15.2994490843569));
#358=CARTESIAN_POINT('Ctrl Pts',(9.48905361021983,4.08258143894651,15.2994106126385));
#359=CARTESIAN_POINT('Ctrl Pts',(9.48168937097142,4.14336474586288,15.2993714051005));
#360=CARTESIAN_POINT('Ctrl Pts',(9.4706837748922,4.20363609163968,15.2993370598276));
#361=CARTESIAN_POINT('Ctrl Pts',(9.45620963503636,4.26311186249916,15.2992977068531));
#362=CARTESIAN_POINT('Ctrl Pts',(9.44164431572658,4.3229622993743,15.2992581059755));
#363=CARTESIAN_POINT('Ctrl Pts',(9.42356620452407,4.38200804867289,15.2992132412617));
#364=CARTESIAN_POINT('Ctrl Pts',(9.40210236089031,4.43994413407545,15.2991602191458));
#365=CARTESIAN_POINT('Ctrl Pts',(9.39516068184636,4.4586813983227,15.2991430711215));
#366=CARTESIAN_POINT('Ctrl Pts',(9.38786451462281,4.47730241258799,15.2991251377497));
#367=CARTESIAN_POINT('Ctrl Pts',(9.3802171784306,4.495796250042,15.2991065325311));
#368=CARTESIAN_POINT('Ctrl Pts',(9.35667361528906,4.55273252417512,15.2990492533522));
#369=CARTESIAN_POINT('Ctrl Pts',(9.32992830169409,4.60816684012231,15.2989835434276));
#370=CARTESIAN_POINT('Ctrl Pts',(9.30014717838089,4.66181098232586,15.2989055334936));
#371=CARTESIAN_POINT('Ctrl Pts',(9.27055427544077,4.71511608693324,15.2988280165921));
#372=CARTESIAN_POINT('Ctrl Pts',(9.23796329220318,4.76665446726507,15.2987381933312));
#373=CARTESIAN_POINT('Ctrl Pts',(9.20249280874737,4.81611907986667,15.2986399619753));
#374=CARTESIAN_POINT('Ctrl Pts',(9.16806428447306,4.86413065032624,15.2985446162035));
#375=CARTESIAN_POINT('Ctrl Pts',(9.13092237300937,4.91018916970118,15.2984412395023));
#376=CARTESIAN_POINT('Ctrl Pts',(9.09114195460134,4.95397971736913,15.2983425927663));
#377=CARTESIAN_POINT('Ctrl Pts',(9.07806433186948,4.96837565096009,15.2983101631226));
#378=CARTESIAN_POINT('Ctrl Pts',(9.0647013164745,4.98252615366564,15.2982783272716));
#379=CARTESIAN_POINT('Ctrl Pts',(9.05105489850463,4.99641900858132,15.2982477956779));
#380=CARTESIAN_POINT('Ctrl Pts',(9.01449189664933,5.03364229172999,15.2981659920342));
#381=CARTESIAN_POINT('Ctrl Pts',(8.97605630587319,5.06885367379536,15.2980914611987));
#382=CARTESIAN_POINT('Ctrl Pts',(8.93582181521905,5.10185537782877,15.2980378808628));
#383=CARTESIAN_POINT('Ctrl Pts',(8.88920157668154,5.14009489047496,15.2979757966163));
#384=CARTESIAN_POINT('Ctrl Pts',(8.84016602097021,5.17536894872926,15.2979416532555));
#385=CARTESIAN_POINT('Ctrl Pts',(8.78903830912832,5.20756387911784,15.2979140249223));
#386=CARTESIAN_POINT('Ctrl Pts',(8.7764484987241,5.21549163600284,15.2979072216553));
#387=CARTESIAN_POINT('Ctrl Pts',(8.76373171934397,5.22323247105195,15.2979008552732));
#388=CARTESIAN_POINT('Ctrl Pts',(8.75089260953341,5.23078424930433,15.2978946896371));
#389=CARTESIAN_POINT('Ctrl Pts',(8.75089260953341,5.23078424930433,15.2978946896371));
#390=CARTESIAN_POINT('Ctrl Pts',(8.75089260953341,5.15668309679721,14.9653574863261));
#391=CARTESIAN_POINT('Ctrl Pts',(8.75089260953341,5.08929521654101,14.633782609968));
#392=CARTESIAN_POINT('Ctrl Pts',(8.75089260953341,5.02987401422717,14.300062429689));
#393=CARTESIAN_POINT('Origin',(9.5,5.23437652841613,14.3));
#394=CARTESIAN_POINT('',(8.75,-0.762098850008572,14.3));
#395=CARTESIAN_POINT('',(8.75,2.61718826420806,14.3));
#396=CARTESIAN_POINT('',(8.,-0.762098850008572,14.3));
#397=CARTESIAN_POINT('',(9.5,-0.762098850008572,14.3));
#398=CARTESIAN_POINT('',(8.,2.61718826420806,14.3));
#399=CARTESIAN_POINT('Origin',(8.75,0.,15.3));
#400=CARTESIAN_POINT('',(8.75,-0.994189037868011,15.3));
#401=CARTESIAN_POINT('',(8.75,0.,15.3));
#402=CARTESIAN_POINT('Ctrl Pts',(8.75,-0.762098850008571,14.3));
#403=CARTESIAN_POINT('Ctrl Pts',(8.75,-0.83890667128252,14.6330049399924));
#404=CARTESIAN_POINT('Ctrl Pts',(8.75,-0.916369034039437,14.9663967713829));
#405=CARTESIAN_POINT('Ctrl Pts',(8.75,-0.994189037868012,15.3));
#406=CARTESIAN_POINT('Origin',(9.5,0.,15.3));
#407=CARTESIAN_POINT('',(9.5,-0.994189037868012,15.3));
#408=CARTESIAN_POINT('',(9.5,0.,15.3));
#409=CARTESIAN_POINT('Ctrl Pts',(8.75,-0.994189037868011,15.3));
#410=CARTESIAN_POINT('Ctrl Pts',(9.,-0.994189037868011,15.3));
#411=CARTESIAN_POINT('Ctrl Pts',(9.25,-0.994189037868012,15.3));
#412=CARTESIAN_POINT('Ctrl Pts',(9.5,-0.994189037868012,15.3));
#413=CARTESIAN_POINT('Origin',(9.5,-2.66633759737788,22.7));
#414=CARTESIAN_POINT('',(8.,-2.66633759737788,22.7));
#415=CARTESIAN_POINT('',(8.,-1.33316879868894,22.7));
#416=CARTESIAN_POINT('',(8.75,-2.66633759737788,22.7));
#417=CARTESIAN_POINT('',(9.5,-2.66633759737788,22.7));
#418=CARTESIAN_POINT('',(8.75,-1.33316879868894,22.7));
#419=CARTESIAN_POINT('Ctrl Pts',(9.5,-0.762098850008571,14.3));
#420=CARTESIAN_POINT('Ctrl Pts',(6.,-0.762098850008571,14.3));
#421=CARTESIAN_POINT('Ctrl Pts',(9.5,-1.02309738949116,15.4315749039218));
#422=CARTESIAN_POINT('Ctrl Pts',(6.,-1.02309738949116,15.4315749039218));
#423=CARTESIAN_POINT('Ctrl Pts',(9.5,-1.42101321225991,17.1216636315438));
#424=CARTESIAN_POINT('Ctrl Pts',(6.,-1.42101321225991,17.1216636315438));
#425=CARTESIAN_POINT('Ctrl Pts',(9.5,-1.82097448411187,18.8129613988921));
#426=CARTESIAN_POINT('Ctrl Pts',(6.,-1.82097448411187,18.8129613988921));
#427=CARTESIAN_POINT('Ctrl Pts',(9.5,-2.20482759430618,20.4947378305485));
#428=CARTESIAN_POINT('Ctrl Pts',(6.,-2.20482759430618,20.4947378305485));
#429=CARTESIAN_POINT('Ctrl Pts',(9.5,-2.55541659186648,22.1568522554772));
#430=CARTESIAN_POINT('Ctrl Pts',(6.,-2.55541659186648,22.1568522554772));
#431=CARTESIAN_POINT('Ctrl Pts',(9.5,-2.66633759737788,22.7));
#432=CARTESIAN_POINT('Ctrl Pts',(6.,-2.66633759737788,22.7));
#433=CARTESIAN_POINT('Ctrl Pts',(8.,-2.66633759737788,22.7));
#434=CARTESIAN_POINT('Ctrl Pts',(8.,-2.56095810446694,22.1839874230346));
#435=CARTESIAN_POINT('Ctrl Pts',(8.,-2.45106439493707,21.6653065483));
#436=CARTESIAN_POINT('Ctrl Pts',(8.,-2.3377559670462,21.1446072756565));
#437=CARTESIAN_POINT('Ctrl Pts',(8.,-2.20993684271426,20.5572253279193));
#438=CARTESIAN_POINT('Ctrl Pts',(8.,-2.07777320826607,19.9672753938337));
#439=CARTESIAN_POINT('Ctrl Pts',(8.,-1.94290133249016,19.3757246517004));
#440=CARTESIAN_POINT('Ctrl Pts',(8.,-1.77631941569123,18.645093036017));
#441=CARTESIAN_POINT('Ctrl Pts',(8.,-1.60560707064344,17.9120199751369));
#442=CARTESIAN_POINT('Ctrl Pts',(8.,-1.43391445658217,17.1783674893326));
#443=CARTESIAN_POINT('Ctrl Pts',(8.,-1.22438586199826,16.283039666968));
#444=CARTESIAN_POINT('Ctrl Pts',(8.,-1.01340443323359,15.3868530922371));
#445=CARTESIAN_POINT('Ctrl Pts',(8.,-0.806724151996335,14.4932088727631));
#446=CARTESIAN_POINT('Ctrl Pts',(8.,-0.791826012874753,14.4287922974264));
#447=CARTESIAN_POINT('Ctrl Pts',(8.,-0.776950198814461,14.3643889181581));
#448=CARTESIAN_POINT('Ctrl Pts',(8.,-0.762098850008571,14.3));
#449=CARTESIAN_POINT('',(9.5,-2.45743962844477,21.7));
#450=CARTESIAN_POINT('Ctrl Pts',(9.5,-0.994189037868012,15.3));
#451=CARTESIAN_POINT('Ctrl Pts',(9.5,-1.21193504468123,16.2334459948291));
#452=CARTESIAN_POINT('Ctrl Pts',(9.5,-1.51468010905604,17.5194129930626));
#453=CARTESIAN_POINT('Ctrl Pts',(9.5,-1.81612430578675,18.8046110644754));
#454=CARTESIAN_POINT('Ctrl Pts',(9.5,-2.10832251357972,20.084343945859));
#455=CARTESIAN_POINT('Ctrl Pts',(9.5,-2.38366402634044,21.3541130426962));
#456=CARTESIAN_POINT('Ctrl Pts',(9.5,-2.45743962844477,21.7));
#457=CARTESIAN_POINT('',(8.75,-2.45743962844477,21.7));
#458=CARTESIAN_POINT('Ctrl Pts',(9.5,-2.45743962844477,21.7));
#459=CARTESIAN_POINT('Ctrl Pts',(9.25,-2.45743962844477,21.7));
#460=CARTESIAN_POINT('Ctrl Pts',(9.,-2.45743962844477,21.7));
#461=CARTESIAN_POINT('Ctrl Pts',(8.75,-2.45743962844477,21.7));
#462=CARTESIAN_POINT('Ctrl Pts',(8.75,-2.45743962844477,21.7));
#463=CARTESIAN_POINT('Ctrl Pts',(8.75,-2.52874901243226,22.0343244263836));
#464=CARTESIAN_POINT('Ctrl Pts',(8.75,-2.59847876983389,22.367715154974));
#465=CARTESIAN_POINT('Ctrl Pts',(8.75,-2.66633759737788,22.7));
#466=CARTESIAN_POINT('Origin',(8.75,0.,23.2));
#467=CARTESIAN_POINT('',(8.75,0.,21.7));
#468=CARTESIAN_POINT('Origin',(8.,0.,13.8));
#469=CARTESIAN_POINT('Origin',(9.5,0.,21.7));
#470=CARTESIAN_POINT('',(9.5,0.,21.7));
#471=CARTESIAN_POINT('Origin',(8.75,0.,21.7));
#472=UNCERTAINTY_MEASURE_WITH_UNIT(LENGTH_MEASURE(0.01),#476,
'DISTANCE_ACCURACY_VALUE',
'Maximum model space distance between geometric entities at asserted c
onnectivities');
#473=UNCERTAINTY_MEASURE_WITH_UNIT(LENGTH_MEASURE(0.01),#476,
'DISTANCE_ACCURACY_VALUE',
'Maximum model space distance between geometric entities at asserted c
onnectivities');
#474=(
GEOMETRIC_REPRESENTATION_CONTEXT(3)
GLOBAL_UNCERTAINTY_ASSIGNED_CONTEXT((#472))
GLOBAL_UNIT_ASSIGNED_CONTEXT((#476,#478,#479))
REPRESENTATION_CONTEXT('','3D')
);
#475=(
GEOMETRIC_REPRESENTATION_CONTEXT(3)
GLOBAL_UNCERTAINTY_ASSIGNED_CONTEXT((#473))
GLOBAL_UNIT_ASSIGNED_CONTEXT((#476,#478,#479))
REPRESENTATION_CONTEXT('','3D')
);
#476=(
LENGTH_UNIT()
NAMED_UNIT(*)
SI_UNIT(.MILLI.,.METRE.)
);
#477=(
LENGTH_UNIT()
NAMED_UNIT(*)
SI_UNIT($,.METRE.)
);
#478=(
NAMED_UNIT(*)
PLANE_ANGLE_UNIT()
SI_UNIT($,.RADIAN.)
);
#479=(
NAMED_UNIT(*)
SI_UNIT($,.STERADIAN.)
SOLID_ANGLE_UNIT()
);
#480=SHAPE_DEFINITION_REPRESENTATION(#481,#482);
#481=PRODUCT_DEFINITION_SHAPE('',$,#484);
#482=SHAPE_REPRESENTATION('',(#190),#474);
#483=PRODUCT_DEFINITION_CONTEXT('part definition',#488,'design');
#484=PRODUCT_DEFINITION('2026-08-25-10-25-27-924','routing_lid',#485,#483);
#485=PRODUCT_DEFINITION_FORMATION('',$,#490);
#486=PRODUCT_RELATED_PRODUCT_CATEGORY('routing_lid','routing_lid',(#490));
#487=APPLICATION_PROTOCOL_DEFINITION('international standard',
'automotive_design',2009,#488);
#488=APPLICATION_CONTEXT(
'Core Data for Automotive Mechanical Design Process');
#489=PRODUCT_CONTEXT('part definition',#488,'mechanical');
#490=PRODUCT('2026-08-25-10-25-27-924','routing_lid',$,(#489));
#491=PRESENTATION_STYLE_ASSIGNMENT((#492));
#492=SURFACE_STYLE_USAGE(.BOTH.,#493);
#493=SURFACE_SIDE_STYLE('',(#494));
#494=SURFACE_STYLE_FILL_AREA(#495);
#495=FILL_AREA_STYLE('Steel - Satin',(#496));
#496=FILL_AREA_STYLE_COLOUR('Steel - Satin',#497);
#497=COLOUR_RGB('Steel - Satin',0.627450980392157,0.627450980392157,0.627450980392157);
ENDSEC;
END-ISO-10303-21;
