ISO-10303-21;
HEADER;
/* Generated by software containing ST-Developer
 * from STEP Tools, Inc. (www.steptools.com) 
 */

FILE_DESCRIPTION(
/* description */ (''),
/* implementation_level */ '2;1');

FILE_NAME(
/* name */ 'LeftIndex_PP.step',
/* time_stamp */ '2026-08-25T10:25:27+02:00',
/* author */ (''),
/* organization */ (''),
/* preprocessor_version */ 'ST-DEVELOPER v20.1',
/* originating_system */ 'Autodesk Translation Framework v15.8.0.0',
/* authorisation */ '');

FILE_SCHEMA (('AUTOMOTIVE_DESIGN { 1 0 10303 214 3 1 1 }'));
ENDSEC;

DATA;
#10=MECHANICAL_DESIGN_GEOMETRIC_PRESENTATION_REPRESENTATION('',(#13),#1594);
#11=SHAPE_REPRESENTATION_RELATIONSHIP('SRR','None',#1601,#12);
#12=ADVANCED_BREP_SHAPE_REPRESENTATION('',(#14),#1593);
#13=STYLED_ITEM('',(#1610),#14);
#14=MANIFOLD_SOLID_BREP('lid',#922);
#15=B_SPLINE_SURFACE_WITH_KNOTS('',3,1,((#1528,#1529),(#1530,#1531),(#1532,
#1533),(#1534,#1535),(#1536,#1537),(#1538,#1539)),.UNSPECIFIED.,.F.,.F.,
 .F.,(4,2,4),(2,2),(0.581174174955869,0.61501392205389,1.01985991154053),
(0.,1.),.UNSPECIFIED.);
#16=TOROIDAL_SURFACE('',#955,6.5,1.5);
#17=TOROIDAL_SURFACE('',#957,6.5,1.5);
#18=TOROIDAL_SURFACE('',#994,6.5,1.5);
#19=B_SPLINE_CURVE_WITH_KNOTS('',3,(#1307,#1308,#1309,#1310),
 .UNSPECIFIED.,.F.,.F.,(4,4),(-0.0600000000000001,-0.05),.UNSPECIFIED.);
#20=B_SPLINE_CURVE_WITH_KNOTS('',3,(#1317,#1318,#1319,#1320),
 .UNSPECIFIED.,.F.,.F.,(4,4),(-0.379743350769621,-0.148359972043534),
 .UNSPECIFIED.);
#21=B_SPLINE_CURVE_WITH_KNOTS('',3,(#1355,#1356,#1357,#1358),
 .UNSPECIFIED.,.F.,.F.,(4,4),(-0.01,0.),.UNSPECIFIED.);
#22=B_SPLINE_CURVE_WITH_KNOTS('',3,(#1377,#1378,#1379,#1380,#1381,#1382,
#1383,#1384),.UNSPECIFIED.,.F.,.F.,(4,2,2,4),(1.56855119116182,1.66853968821025,
1.73794129559647,1.77524879826181),.UNSPECIFIED.);
#23=B_SPLINE_CURVE_WITH_KNOTS('',3,(#1386,#1387,#1388,#1389,#1390,#1391,
#1392,#1393),.UNSPECIFIED.,.F.,.F.,(4,2,2,4),(0.702797090977566,0.740124454506191,
0.809568353991731,0.909743552794892),.UNSPECIFIED.);
#24=B_SPLINE_CURVE_WITH_KNOTS('',3,(#1398,#1399,#1400,#1401,#1402,#1403,
#1404,#1405),.UNSPECIFIED.,.F.,.F.,(4,2,2,4),(1.57283770335918,1.682616611588,
1.75659238723333,1.77708349861713),.UNSPECIFIED.);
#25=B_SPLINE_CURVE_WITH_KNOTS('',3,(#1406,#1407,#1408,#1409,#1410,#1411,
#1412,#1413),.UNSPECIFIED.,.F.,.F.,(4,2,2,4),(0.705087431903094,0.725504020623354,
0.799598280853072,0.909925980939658),.UNSPECIFIED.);
#26=B_SPLINE_CURVE_WITH_KNOTS('',3,(#1475,#1476,#1477,#1478,#1479,#1480,
#1481),.UNSPECIFIED.,.F.,.F.,(4,3,4),(0.581174174955869,0.615012797261995,
1.01984533016203),.UNSPECIFIED.);
#27=B_SPLINE_CURVE_WITH_KNOTS('',3,(#1493,#1494,#1495,#1496,#1497,#1498,
#1499),.UNSPECIFIED.,.F.,.F.,(4,3,4),(-0.778444917166403,-0.61501392205389,
-0.581174174955869),.UNSPECIFIED.);
#28=B_SPLINE_CURVE_WITH_KNOTS('',3,(#1505,#1506,#1507,#1508),
 .UNSPECIFIED.,.F.,.F.,(4,4),(-1.01986006201764,-1.00976756277585),
 .UNSPECIFIED.);
#29=B_SPLINE_CURVE_WITH_KNOTS('',3,(#1542,#1543,#1544,#1545,#1546,#1547),
 .UNSPECIFIED.,.F.,.F.,(4,2,4),(1.56497764230477,1.67575167251722,1.72730234487467),
 .UNSPECIFIED.);
#30=B_SPLINE_CURVE_WITH_KNOTS('',3,(#1549,#1550,#1551,#1552,#1553,#1554,
#1555,#1556),.UNSPECIFIED.,.F.,.F.,(4,2,2,4),(-0.121801060880845,-0.10898659446986,
-0.0523101437559752,-0.00973148686409101),.UNSPECIFIED.);
#31=B_SPLINE_CURVE_WITH_KNOTS('',3,(#1559,#1560,#1561,#1562,#1563,#1564,
#1565,#1566,#1567,#1568),.UNSPECIFIED.,.F.,.F.,(4,2,2,2,4),(0.00973148686409118,
0.0523101437559755,0.108986594469859,0.172971136376569,0.248139196513719),
 .UNSPECIFIED.);
#32=CIRCLE('',#943,6.5);
#33=CIRCLE('',#944,6.5);
#34=CIRCLE('',#947,6.5);
#35=CIRCLE('',#948,2.73700000027905);
#36=CIRCLE('',#949,2.66299999972922);
#37=CIRCLE('',#950,6.5);
#38=CIRCLE('',#952,2.73700000027905);
#39=CIRCLE('',#956,6.50000000000001);
#40=CIRCLE('',#958,6.50000000000001);
#41=CIRCLE('',#964,2.66299999972922);
#42=CIRCLE('',#976,6.5);
#43=CIRCLE('',#977,6.5);
#44=CIRCLE('',#978,6.5);
#45=CIRCLE('',#979,9.5);
#46=CIRCLE('',#981,9.5);
#47=CIRCLE('',#982,6.5);
#48=CIRCLE('',#985,6.5);
#49=CIRCLE('',#995,7.99666295470958);
#50=CIRCLE('',#998,6.5);
#51=CIRCLE('',#1001,7.99666295470958);
#52=CYLINDRICAL_SURFACE('',#942,6.5);
#53=CYLINDRICAL_SURFACE('',#951,2.73700000027905);
#54=CYLINDRICAL_SURFACE('',#963,2.66299999972922);
#55=CYLINDRICAL_SURFACE('',#987,6.5);
#56=CYLINDRICAL_SURFACE('',#988,9.5);
#57=CYLINDRICAL_SURFACE('',#991,6.5);
#58=CYLINDRICAL_SURFACE('',#997,6.5);
#59=CYLINDRICAL_SURFACE('',#1000,7.99666295470958);
#60=FACE_OUTER_BOUND('',#109,.T.);
#61=FACE_OUTER_BOUND('',#110,.T.);
#62=FACE_OUTER_BOUND('',#111,.T.);
#63=FACE_OUTER_BOUND('',#112,.T.);
#64=FACE_OUTER_BOUND('',#113,.T.);
#65=FACE_OUTER_BOUND('',#114,.T.);
#66=FACE_OUTER_BOUND('',#115,.T.);
#67=FACE_OUTER_BOUND('',#116,.T.);
#68=FACE_OUTER_BOUND('',#117,.T.);
#69=FACE_OUTER_BOUND('',#118,.T.);
#70=FACE_OUTER_BOUND('',#119,.T.);
#71=FACE_OUTER_BOUND('',#120,.T.);
#72=FACE_OUTER_BOUND('',#121,.T.);
#73=FACE_OUTER_BOUND('',#122,.T.);
#74=FACE_OUTER_BOUND('',#123,.T.);
#75=FACE_OUTER_BOUND('',#124,.T.);
#76=FACE_OUTER_BOUND('',#125,.T.);
#77=FACE_OUTER_BOUND('',#126,.T.);
#78=FACE_OUTER_BOUND('',#127,.T.);
#79=FACE_OUTER_BOUND('',#128,.T.);
#80=FACE_OUTER_BOUND('',#129,.T.);
#81=FACE_OUTER_BOUND('',#130,.T.);
#82=FACE_OUTER_BOUND('',#131,.T.);
#83=FACE_OUTER_BOUND('',#132,.T.);
#84=FACE_OUTER_BOUND('',#133,.T.);
#85=FACE_OUTER_BOUND('',#134,.T.);
#86=FACE_OUTER_BOUND('',#135,.T.);
#87=FACE_OUTER_BOUND('',#136,.T.);
#88=FACE_OUTER_BOUND('',#137,.T.);
#89=FACE_OUTER_BOUND('',#138,.T.);
#90=FACE_OUTER_BOUND('',#139,.T.);
#91=FACE_OUTER_BOUND('',#140,.T.);
#92=FACE_OUTER_BOUND('',#141,.T.);
#93=FACE_OUTER_BOUND('',#142,.T.);
#94=FACE_OUTER_BOUND('',#143,.T.);
#95=FACE_OUTER_BOUND('',#144,.T.);
#96=FACE_OUTER_BOUND('',#145,.T.);
#97=FACE_OUTER_BOUND('',#146,.T.);
#98=FACE_OUTER_BOUND('',#147,.T.);
#99=FACE_OUTER_BOUND('',#148,.T.);
#100=FACE_OUTER_BOUND('',#149,.T.);
#101=FACE_OUTER_BOUND('',#150,.T.);
#102=FACE_OUTER_BOUND('',#151,.T.);
#103=FACE_OUTER_BOUND('',#152,.T.);
#104=FACE_OUTER_BOUND('',#153,.T.);
#105=FACE_OUTER_BOUND('',#154,.T.);
#106=FACE_OUTER_BOUND('',#155,.T.);
#107=FACE_OUTER_BOUND('',#156,.T.);
#108=FACE_OUTER_BOUND('',#157,.T.);
#109=EDGE_LOOP('',(#572,#573,#574,#575));
#110=EDGE_LOOP('',(#576,#577,#578,#579));
#111=EDGE_LOOP('',(#580,#581,#582,#583,#584));
#112=EDGE_LOOP('',(#585,#586,#587,#588,#589));
#113=EDGE_LOOP('',(#590,#591,#592,#593,#594,#595));
#114=EDGE_LOOP('',(#596,#597,#598,#599,#600,#601,#602,#603));
#115=EDGE_LOOP('',(#604,#605,#606,#607));
#116=EDGE_LOOP('',(#608,#609,#610,#611));
#117=EDGE_LOOP('',(#612,#613,#614,#615,#616,#617,#618,#619,#620,#621,#622,
#623,#624,#625,#626,#627,#628,#629,#630,#631,#632,#633,#634));
#118=EDGE_LOOP('',(#635,#636,#637,#638));
#119=EDGE_LOOP('',(#639,#640,#641,#642,#643,#644));
#120=EDGE_LOOP('',(#645,#646,#647,#648));
#121=EDGE_LOOP('',(#649,#650,#651));
#122=EDGE_LOOP('',(#652,#653,#654));
#123=EDGE_LOOP('',(#655,#656,#657,#658));
#124=EDGE_LOOP('',(#659,#660,#661,#662,#663,#664));
#125=EDGE_LOOP('',(#665,#666,#667,#668,#669,#670));
#126=EDGE_LOOP('',(#671,#672,#673,#674,#675,#676));
#127=EDGE_LOOP('',(#677,#678,#679,#680));
#128=EDGE_LOOP('',(#681,#682,#683,#684));
#129=EDGE_LOOP('',(#685,#686,#687,#688));
#130=EDGE_LOOP('',(#689,#690,#691,#692,#693,#694,#695,#696));
#131=EDGE_LOOP('',(#697,#698,#699,#700));
#132=EDGE_LOOP('',(#701,#702,#703,#704));
#133=EDGE_LOOP('',(#705,#706,#707,#708));
#134=EDGE_LOOP('',(#709,#710,#711,#712));
#135=EDGE_LOOP('',(#713,#714,#715,#716));
#136=EDGE_LOOP('',(#717,#718,#719,#720));
#137=EDGE_LOOP('',(#721,#722,#723,#724));
#138=EDGE_LOOP('',(#725,#726,#727,#728,#729,#730,#731,#732,#733,#734));
#139=EDGE_LOOP('',(#735,#736,#737,#738,#739,#740,#741,#742,#743,#744,#745,
#746));
#140=EDGE_LOOP('',(#747,#748,#749,#750));
#141=EDGE_LOOP('',(#751,#752,#753));
#142=EDGE_LOOP('',(#754,#755,#756,#757,#758));
#143=EDGE_LOOP('',(#759,#760,#761,#762,#763,#764,#765));
#144=EDGE_LOOP('',(#766,#767,#768,#769));
#145=EDGE_LOOP('',(#770,#771,#772,#773,#774,#775));
#146=EDGE_LOOP('',(#776,#777,#778,#779));
#147=EDGE_LOOP('',(#780,#781,#782,#783));
#148=EDGE_LOOP('',(#784,#785,#786,#787));
#149=EDGE_LOOP('',(#788,#789,#790,#791,#792,#793));
#150=EDGE_LOOP('',(#794,#795,#796,#797,#798,#799,#800,#801));
#151=EDGE_LOOP('',(#802,#803,#804,#805,#806));
#152=EDGE_LOOP('',(#807,#808,#809,#810,#811));
#153=EDGE_LOOP('',(#812,#813,#814,#815,#816));
#154=EDGE_LOOP('',(#817,#818,#819,#820,#821,#822));
#155=EDGE_LOOP('',(#823,#824,#825,#826));
#156=EDGE_LOOP('',(#827,#828,#829,#830));
#157=EDGE_LOOP('',(#831,#832,#833,#834,#835));
#158=LINE('',#1245,#257);
#159=LINE('',#1247,#258);
#160=LINE('',#1249,#259);
#161=LINE('',#1250,#260);
#162=LINE('',#1253,#261);
#163=LINE('',#1255,#262);
#164=LINE('',#1256,#263);
#165=LINE('',#1259,#264);
#166=LINE('',#1261,#265);
#167=LINE('',#1262,#266);
#168=LINE('',#1265,#267);
#169=LINE('',#1267,#268);
#170=LINE('',#1268,#269);
#171=LINE('',#1271,#270);
#172=LINE('',#1273,#271);
#173=LINE('',#1275,#272);
#174=LINE('',#1277,#273);
#175=LINE('',#1278,#274);
#176=LINE('',#1281,#275);
#177=LINE('',#1283,#276);
#178=LINE('',#1285,#277);
#179=LINE('',#1287,#278);
#180=LINE('',#1289,#279);
#181=LINE('',#1290,#280);
#182=LINE('',#1294,#281);
#183=LINE('',#1298,#282);
#184=LINE('',#1303,#283);
#185=LINE('',#1305,#284);
#186=LINE('',#1311,#285);
#187=LINE('',#1315,#286);
#188=LINE('',#1323,#287);
#189=LINE('',#1325,#288);
#190=LINE('',#1327,#289);
#191=LINE('',#1329,#290);
#192=LINE('',#1331,#291);
#193=LINE('',#1333,#292);
#194=LINE('',#1335,#293);
#195=LINE('',#1337,#294);
#196=LINE('',#1339,#295);
#197=LINE('',#1341,#296);
#198=LINE('',#1345,#297);
#199=LINE('',#1347,#298);
#200=LINE('',#1351,#299);
#201=LINE('',#1352,#300);
#202=LINE('',#1361,#301);
#203=LINE('',#1364,#302);
#204=LINE('',#1366,#303);
#205=LINE('',#1367,#304);
#206=LINE('',#1370,#305);
#207=LINE('',#1372,#306);
#208=LINE('',#1373,#307);
#209=LINE('',#1418,#308);
#210=LINE('',#1419,#309);
#211=LINE('',#1420,#310);
#212=LINE('',#1423,#311);
#213=LINE('',#1424,#312);
#214=LINE('',#1426,#313);
#215=LINE('',#1427,#314);
#216=LINE('',#1429,#315);
#217=LINE('',#1431,#316);
#218=LINE('',#1432,#317);
#219=LINE('',#1437,#318);
#220=LINE('',#1439,#319);
#221=LINE('',#1442,#320);
#222=LINE('',#1443,#321);
#223=LINE('',#1445,#322);
#224=LINE('',#1446,#323);
#225=LINE('',#1448,#324);
#226=LINE('',#1450,#325);
#227=LINE('',#1452,#326);
#228=LINE('',#1457,#327);
#229=LINE('',#1458,#328);
#230=LINE('',#1461,#329);
#231=LINE('',#1462,#330);
#232=LINE('',#1465,#331);
#233=LINE('',#1472,#332);
#234=LINE('',#1487,#333);
#235=LINE('',#1491,#334);
#236=LINE('',#1492,#335);
#237=LINE('',#1502,#336);
#238=LINE('',#1504,#337);
#239=LINE('',#1512,#338);
#240=LINE('',#1513,#339);
#241=LINE('',#1515,#340);
#242=LINE('',#1516,#341);
#243=LINE('',#1518,#342);
#244=LINE('',#1519,#343);
#245=LINE('',#1521,#344);
#246=LINE('',#1523,#345);
#247=LINE('',#1525,#346);
#248=LINE('',#1571,#347);
#249=LINE('',#1573,#348);
#250=LINE('',#1574,#349);
#251=LINE('',#1576,#350);
#252=LINE('',#1578,#351);
#253=LINE('',#1582,#352);
#254=LINE('',#1583,#353);
#255=LINE('',#1586,#354);
#256=LINE('',#1589,#355);
#257=VECTOR('',#1008,10.);
#258=VECTOR('',#1009,10.);
#259=VECTOR('',#1010,10.);
#260=VECTOR('',#1011,10.);
#261=VECTOR('',#1014,10.);
#262=VECTOR('',#1015,10.);
#263=VECTOR('',#1016,10.);
#264=VECTOR('',#1019,10.);
#265=VECTOR('',#1020,10.);
#266=VECTOR('',#1021,10.);
#267=VECTOR('',#1024,10.);
#268=VECTOR('',#1025,10.);
#269=VECTOR('',#1026,10.);
#270=VECTOR('',#1029,10.);
#271=VECTOR('',#1030,10.);
#272=VECTOR('',#1031,10.);
#273=VECTOR('',#1032,10.);
#274=VECTOR('',#1033,10.);
#275=VECTOR('',#1036,10.);
#276=VECTOR('',#1037,10.);
#277=VECTOR('',#1038,10.);
#278=VECTOR('',#1039,10.);
#279=VECTOR('',#1040,10.);
#280=VECTOR('',#1041,10.);
#281=VECTOR('',#1044,10.);
#282=VECTOR('',#1047,10.);
#283=VECTOR('',#1052,10.);
#284=VECTOR('',#1053,10.);
#285=VECTOR('',#1054,10.);
#286=VECTOR('',#1059,10.);
#287=VECTOR('',#1062,10.);
#288=VECTOR('',#1063,10.);
#289=VECTOR('',#1064,10.);
#290=VECTOR('',#1065,10.);
#291=VECTOR('',#1066,10.);
#292=VECTOR('',#1067,10.);
#293=VECTOR('',#1068,10.);
#294=VECTOR('',#1069,10.);
#295=VECTOR('',#1070,10.);
#296=VECTOR('',#1071,10.);
#297=VECTOR('',#1074,10.);
#298=VECTOR('',#1075,10.);
#299=VECTOR('',#1078,10.);
#300=VECTOR('',#1079,10.);
#301=VECTOR('',#1084,10.);
#302=VECTOR('',#1087,10.);
#303=VECTOR('',#1088,10.);
#304=VECTOR('',#1089,10.);
#305=VECTOR('',#1092,10.);
#306=VECTOR('',#1093,10.);
#307=VECTOR('',#1094,10.);
#308=VECTOR('',#1105,10.);
#309=VECTOR('',#1106,10.);
#310=VECTOR('',#1107,10.);
#311=VECTOR('',#1110,10.);
#312=VECTOR('',#1111,10.);
#313=VECTOR('',#1112,10.);
#314=VECTOR('',#1113,10.);
#315=VECTOR('',#1116,10.);
#316=VECTOR('',#1117,10.);
#317=VECTOR('',#1118,10.);
#318=VECTOR('',#1125,10.);
#319=VECTOR('',#1128,10.);
#320=VECTOR('',#1131,10.);
#321=VECTOR('',#1132,10.);
#322=VECTOR('',#1135,10.);
#323=VECTOR('',#1136,10.);
#324=VECTOR('',#1139,10.);
#325=VECTOR('',#1142,10.);
#326=VECTOR('',#1145,10.);
#327=VECTOR('',#1152,10.);
#328=VECTOR('',#1153,10.);
#329=VECTOR('',#1156,10.);
#330=VECTOR('',#1157,10.);
#331=VECTOR('',#1160,10.);
#332=VECTOR('',#1167,10.);
#333=VECTOR('',#1174,10.);
#334=VECTOR('',#1177,10.);
#335=VECTOR('',#1178,10.);
#336=VECTOR('',#1181,10.);
#337=VECTOR('',#1182,10.);
#338=VECTOR('',#1189,10.);
#339=VECTOR('',#1190,10.);
#340=VECTOR('',#1193,10.);
#341=VECTOR('',#1194,10.);
#342=VECTOR('',#1197,10.);
#343=VECTOR('',#1198,10.);
#344=VECTOR('',#1201,10.);
#345=VECTOR('',#1204,10.);
#346=VECTOR('',#1207,10.);
#347=VECTOR('',#1218,10.);
#348=VECTOR('',#1219,10.);
#349=VECTOR('',#1220,10.);
#350=VECTOR('',#1223,10.);
#351=VECTOR('',#1224,10.);
#352=VECTOR('',#1229,10.);
#353=VECTOR('',#1230,10.);
#354=VECTOR('',#1233,10.);
#355=VECTOR('',#1238,10.);
#356=VERTEX_POINT('',#1243);
#357=VERTEX_POINT('',#1244);
#358=VERTEX_POINT('',#1246);
#359=VERTEX_POINT('',#1248);
#360=VERTEX_POINT('',#1252);
#361=VERTEX_POINT('',#1254);
#362=VERTEX_POINT('',#1258);
#363=VERTEX_POINT('',#1260);
#364=VERTEX_POINT('',#1264);
#365=VERTEX_POINT('',#1266);
#366=VERTEX_POINT('',#1270);
#367=VERTEX_POINT('',#1272);
#368=VERTEX_POINT('',#1274);
#369=VERTEX_POINT('',#1276);
#370=VERTEX_POINT('',#1280);
#371=VERTEX_POINT('',#1282);
#372=VERTEX_POINT('',#1284);
#373=VERTEX_POINT('',#1286);
#374=VERTEX_POINT('',#1288);
#375=VERTEX_POINT('',#1292);
#376=VERTEX_POINT('',#1293);
#377=VERTEX_POINT('',#1295);
#378=VERTEX_POINT('',#1297);
#379=VERTEX_POINT('',#1301);
#380=VERTEX_POINT('',#1302);
#381=VERTEX_POINT('',#1304);
#382=VERTEX_POINT('',#1306);
#383=VERTEX_POINT('',#1313);
#384=VERTEX_POINT('',#1316);
#385=VERTEX_POINT('',#1321);
#386=VERTEX_POINT('',#1324);
#387=VERTEX_POINT('',#1326);
#388=VERTEX_POINT('',#1328);
#389=VERTEX_POINT('',#1330);
#390=VERTEX_POINT('',#1332);
#391=VERTEX_POINT('',#1334);
#392=VERTEX_POINT('',#1336);
#393=VERTEX_POINT('',#1338);
#394=VERTEX_POINT('',#1340);
#395=VERTEX_POINT('',#1342);
#396=VERTEX_POINT('',#1344);
#397=VERTEX_POINT('',#1346);
#398=VERTEX_POINT('',#1348);
#399=VERTEX_POINT('',#1350);
#400=VERTEX_POINT('',#1354);
#401=VERTEX_POINT('',#1359);
#402=VERTEX_POINT('',#1363);
#403=VERTEX_POINT('',#1365);
#404=VERTEX_POINT('',#1369);
#405=VERTEX_POINT('',#1371);
#406=VERTEX_POINT('',#1375);
#407=VERTEX_POINT('',#1376);
#408=VERTEX_POINT('',#1385);
#409=VERTEX_POINT('',#1396);
#410=VERTEX_POINT('',#1397);
#411=VERTEX_POINT('',#1416);
#412=VERTEX_POINT('',#1417);
#413=VERTEX_POINT('',#1422);
#414=VERTEX_POINT('',#1425);
#415=VERTEX_POINT('',#1430);
#416=VERTEX_POINT('',#1435);
#417=VERTEX_POINT('',#1441);
#418=VERTEX_POINT('',#1456);
#419=VERTEX_POINT('',#1460);
#420=VERTEX_POINT('',#1464);
#421=VERTEX_POINT('',#1466);
#422=VERTEX_POINT('',#1469);
#423=VERTEX_POINT('',#1471);
#424=VERTEX_POINT('',#1473);
#425=VERTEX_POINT('',#1483);
#426=VERTEX_POINT('',#1484);
#427=VERTEX_POINT('',#1486);
#428=VERTEX_POINT('',#1488);
#429=VERTEX_POINT('',#1490);
#430=VERTEX_POINT('',#1501);
#431=VERTEX_POINT('',#1503);
#432=VERTEX_POINT('',#1541);
#433=VERTEX_POINT('',#1548);
#434=VERTEX_POINT('',#1557);
#435=VERTEX_POINT('',#1570);
#436=VERTEX_POINT('',#1572);
#437=VERTEX_POINT('',#1577);
#438=VERTEX_POINT('',#1581);
#439=VERTEX_POINT('',#1585);
#440=EDGE_CURVE('',#356,#357,#158,.T.);
#441=EDGE_CURVE('',#358,#357,#159,.T.);
#442=EDGE_CURVE('',#358,#359,#160,.T.);
#443=EDGE_CURVE('',#359,#356,#161,.T.);
#444=EDGE_CURVE('',#358,#360,#162,.T.);
#445=EDGE_CURVE('',#361,#360,#163,.T.);
#446=EDGE_CURVE('',#361,#359,#164,.T.);
#447=EDGE_CURVE('',#362,#357,#165,.T.);
#448=EDGE_CURVE('',#363,#362,#166,.T.);
#449=EDGE_CURVE('',#360,#363,#167,.T.);
#450=EDGE_CURVE('',#361,#364,#168,.T.);
#451=EDGE_CURVE('',#365,#364,#169,.T.);
#452=EDGE_CURVE('',#356,#365,#170,.T.);
#453=EDGE_CURVE('',#365,#366,#171,.T.);
#454=EDGE_CURVE('',#367,#366,#172,.T.);
#455=EDGE_CURVE('',#367,#368,#173,.T.);
#456=EDGE_CURVE('',#369,#368,#174,.T.);
#457=EDGE_CURVE('',#369,#356,#175,.T.);
#458=EDGE_CURVE('',#370,#364,#176,.T.);
#459=EDGE_CURVE('',#371,#370,#177,.T.);
#460=EDGE_CURVE('',#372,#371,#178,.T.);
#461=EDGE_CURVE('',#373,#372,#179,.T.);
#462=EDGE_CURVE('',#374,#373,#180,.T.);
#463=EDGE_CURVE('',#366,#374,#181,.T.);
#464=EDGE_CURVE('',#375,#376,#182,.T.);
#465=EDGE_CURVE('',#377,#376,#32,.T.);
#466=EDGE_CURVE('',#378,#377,#183,.T.);
#467=EDGE_CURVE('',#375,#378,#33,.T.);
#468=EDGE_CURVE('',#379,#380,#184,.T.);
#469=EDGE_CURVE('',#380,#381,#185,.T.);
#470=EDGE_CURVE('',#381,#382,#19,.T.);
#471=EDGE_CURVE('',#382,#379,#186,.T.);
#472=EDGE_CURVE('',#375,#383,#34,.T.);
#473=EDGE_CURVE('',#378,#379,#187,.T.);
#474=EDGE_CURVE('',#382,#384,#20,.T.);
#475=EDGE_CURVE('',#385,#384,#35,.T.);
#476=EDGE_CURVE('',#385,#368,#188,.T.);
#477=EDGE_CURVE('',#367,#386,#189,.T.);
#478=EDGE_CURVE('',#386,#387,#190,.T.);
#479=EDGE_CURVE('',#387,#388,#191,.T.);
#480=EDGE_CURVE('',#388,#389,#192,.T.);
#481=EDGE_CURVE('',#389,#390,#193,.T.);
#482=EDGE_CURVE('',#390,#391,#194,.T.);
#483=EDGE_CURVE('',#391,#392,#195,.T.);
#484=EDGE_CURVE('',#393,#392,#196,.T.);
#485=EDGE_CURVE('',#393,#394,#197,.T.);
#486=EDGE_CURVE('',#395,#394,#36,.T.);
#487=EDGE_CURVE('',#396,#395,#198,.T.);
#488=EDGE_CURVE('',#396,#397,#199,.T.);
#489=EDGE_CURVE('',#397,#398,#37,.T.);
#490=EDGE_CURVE('',#399,#398,#200,.T.);
#491=EDGE_CURVE('',#383,#399,#201,.T.);
#492=EDGE_CURVE('',#384,#400,#21,.T.);
#493=EDGE_CURVE('',#400,#401,#38,.T.);
#494=EDGE_CURVE('',#401,#385,#202,.T.);
#495=EDGE_CURVE('',#401,#402,#203,.T.);
#496=EDGE_CURVE('',#403,#402,#204,.T.);
#497=EDGE_CURVE('',#403,#369,#205,.T.);
#498=EDGE_CURVE('',#402,#404,#206,.T.);
#499=EDGE_CURVE('',#405,#404,#207,.T.);
#500=EDGE_CURVE('',#405,#403,#208,.T.);
#501=EDGE_CURVE('',#406,#407,#22,.T.);
#502=EDGE_CURVE('',#407,#408,#23,.T.);
#503=EDGE_CURVE('',#408,#406,#39,.T.);
#504=EDGE_CURVE('',#409,#410,#24,.T.);
#505=EDGE_CURVE('',#410,#377,#25,.T.);
#506=EDGE_CURVE('',#377,#409,#40,.T.);
#507=EDGE_CURVE('',#411,#412,#209,.T.);
#508=EDGE_CURVE('',#412,#383,#210,.T.);
#509=EDGE_CURVE('',#399,#411,#211,.T.);
#510=EDGE_CURVE('',#404,#413,#212,.T.);
#511=EDGE_CURVE('',#394,#413,#213,.T.);
#512=EDGE_CURVE('',#414,#393,#214,.T.);
#513=EDGE_CURVE('',#414,#405,#215,.T.);
#514=EDGE_CURVE('',#357,#414,#216,.T.);
#515=EDGE_CURVE('',#392,#415,#217,.T.);
#516=EDGE_CURVE('',#415,#362,#218,.T.);
#517=EDGE_CURVE('',#413,#416,#41,.T.);
#518=EDGE_CURVE('',#395,#416,#219,.T.);
#519=EDGE_CURVE('',#386,#374,#220,.T.);
#520=EDGE_CURVE('',#391,#417,#221,.T.);
#521=EDGE_CURVE('',#417,#415,#222,.T.);
#522=EDGE_CURVE('',#390,#370,#223,.T.);
#523=EDGE_CURVE('',#363,#417,#224,.T.);
#524=EDGE_CURVE('',#389,#371,#225,.T.);
#525=EDGE_CURVE('',#388,#372,#226,.T.);
#526=EDGE_CURVE('',#387,#373,#227,.T.);
#527=EDGE_CURVE('',#418,#396,#228,.T.);
#528=EDGE_CURVE('',#416,#418,#229,.T.);
#529=EDGE_CURVE('',#419,#411,#230,.T.);
#530=EDGE_CURVE('',#398,#419,#231,.T.);
#531=EDGE_CURVE('',#420,#409,#232,.T.);
#532=EDGE_CURVE('',#421,#376,#42,.T.);
#533=EDGE_CURVE('',#421,#406,#43,.T.);
#534=EDGE_CURVE('',#408,#422,#44,.T.);
#535=EDGE_CURVE('',#422,#423,#233,.T.);
#536=EDGE_CURVE('',#423,#424,#45,.T.);
#537=EDGE_CURVE('',#424,#420,#26,.T.);
#538=EDGE_CURVE('',#425,#426,#46,.T.);
#539=EDGE_CURVE('',#426,#427,#234,.T.);
#540=EDGE_CURVE('',#427,#428,#47,.T.);
#541=EDGE_CURVE('',#429,#428,#235,.T.);
#542=EDGE_CURVE('',#418,#429,#236,.T.);
#543=EDGE_CURVE('',#400,#425,#27,.T.);
#544=EDGE_CURVE('',#430,#380,#237,.T.);
#545=EDGE_CURVE('',#431,#430,#238,.T.);
#546=EDGE_CURVE('',#431,#381,#28,.T.);
#547=EDGE_CURVE('',#419,#412,#48,.T.);
#548=EDGE_CURVE('',#431,#420,#239,.T.);
#549=EDGE_CURVE('',#430,#410,#240,.T.);
#550=EDGE_CURVE('',#383,#421,#241,.T.);
#551=EDGE_CURVE('',#397,#406,#242,.T.);
#552=EDGE_CURVE('',#426,#423,#243,.T.);
#553=EDGE_CURVE('',#425,#424,#244,.T.);
#554=EDGE_CURVE('',#429,#407,#245,.T.);
#555=EDGE_CURVE('',#427,#422,#246,.T.);
#556=EDGE_CURVE('',#428,#408,#247,.T.);
#557=EDGE_CURVE('',#376,#432,#29,.T.);
#558=EDGE_CURVE('',#432,#433,#30,.T.);
#559=EDGE_CURVE('',#433,#434,#49,.T.);
#560=EDGE_CURVE('',#434,#421,#31,.T.);
#561=EDGE_CURVE('',#435,#375,#248,.T.);
#562=EDGE_CURVE('',#436,#435,#249,.T.);
#563=EDGE_CURVE('',#436,#432,#250,.T.);
#564=EDGE_CURVE('',#412,#383,#251,.T.);
#565=EDGE_CURVE('',#437,#412,#252,.T.);
#566=EDGE_CURVE('',#435,#437,#50,.T.);
#567=EDGE_CURVE('',#438,#434,#253,.T.);
#568=EDGE_CURVE('',#438,#437,#254,.T.);
#569=EDGE_CURVE('',#439,#433,#255,.T.);
#570=EDGE_CURVE('',#438,#439,#51,.T.);
#571=EDGE_CURVE('',#436,#439,#256,.T.);
#572=ORIENTED_EDGE('',*,*,#440,.T.);
#573=ORIENTED_EDGE('',*,*,#441,.F.);
#574=ORIENTED_EDGE('',*,*,#442,.T.);
#575=ORIENTED_EDGE('',*,*,#443,.T.);
#576=ORIENTED_EDGE('',*,*,#444,.T.);
#577=ORIENTED_EDGE('',*,*,#445,.F.);
#578=ORIENTED_EDGE('',*,*,#446,.T.);
#579=ORIENTED_EDGE('',*,*,#442,.F.);
#580=ORIENTED_EDGE('',*,*,#444,.F.);
#581=ORIENTED_EDGE('',*,*,#441,.T.);
#582=ORIENTED_EDGE('',*,*,#447,.F.);
#583=ORIENTED_EDGE('',*,*,#448,.F.);
#584=ORIENTED_EDGE('',*,*,#449,.F.);
#585=ORIENTED_EDGE('',*,*,#446,.F.);
#586=ORIENTED_EDGE('',*,*,#450,.T.);
#587=ORIENTED_EDGE('',*,*,#451,.F.);
#588=ORIENTED_EDGE('',*,*,#452,.F.);
#589=ORIENTED_EDGE('',*,*,#443,.F.);
#590=ORIENTED_EDGE('',*,*,#452,.T.);
#591=ORIENTED_EDGE('',*,*,#453,.T.);
#592=ORIENTED_EDGE('',*,*,#454,.F.);
#593=ORIENTED_EDGE('',*,*,#455,.T.);
#594=ORIENTED_EDGE('',*,*,#456,.F.);
#595=ORIENTED_EDGE('',*,*,#457,.T.);
#596=ORIENTED_EDGE('',*,*,#451,.T.);
#597=ORIENTED_EDGE('',*,*,#458,.F.);
#598=ORIENTED_EDGE('',*,*,#459,.F.);
#599=ORIENTED_EDGE('',*,*,#460,.F.);
#600=ORIENTED_EDGE('',*,*,#461,.F.);
#601=ORIENTED_EDGE('',*,*,#462,.F.);
#602=ORIENTED_EDGE('',*,*,#463,.F.);
#603=ORIENTED_EDGE('',*,*,#453,.F.);
#604=ORIENTED_EDGE('',*,*,#464,.T.);
#605=ORIENTED_EDGE('',*,*,#465,.F.);
#606=ORIENTED_EDGE('',*,*,#466,.F.);
#607=ORIENTED_EDGE('',*,*,#467,.F.);
#608=ORIENTED_EDGE('',*,*,#468,.T.);
#609=ORIENTED_EDGE('',*,*,#469,.T.);
#610=ORIENTED_EDGE('',*,*,#470,.T.);
#611=ORIENTED_EDGE('',*,*,#471,.T.);
#612=ORIENTED_EDGE('',*,*,#472,.F.);
#613=ORIENTED_EDGE('',*,*,#467,.T.);
#614=ORIENTED_EDGE('',*,*,#473,.T.);
#615=ORIENTED_EDGE('',*,*,#471,.F.);
#616=ORIENTED_EDGE('',*,*,#474,.T.);
#617=ORIENTED_EDGE('',*,*,#475,.F.);
#618=ORIENTED_EDGE('',*,*,#476,.T.);
#619=ORIENTED_EDGE('',*,*,#455,.F.);
#620=ORIENTED_EDGE('',*,*,#477,.T.);
#621=ORIENTED_EDGE('',*,*,#478,.T.);
#622=ORIENTED_EDGE('',*,*,#479,.T.);
#623=ORIENTED_EDGE('',*,*,#480,.T.);
#624=ORIENTED_EDGE('',*,*,#481,.T.);
#625=ORIENTED_EDGE('',*,*,#482,.T.);
#626=ORIENTED_EDGE('',*,*,#483,.T.);
#627=ORIENTED_EDGE('',*,*,#484,.F.);
#628=ORIENTED_EDGE('',*,*,#485,.T.);
#629=ORIENTED_EDGE('',*,*,#486,.F.);
#630=ORIENTED_EDGE('',*,*,#487,.F.);
#631=ORIENTED_EDGE('',*,*,#488,.T.);
#632=ORIENTED_EDGE('',*,*,#489,.T.);
#633=ORIENTED_EDGE('',*,*,#490,.F.);
#634=ORIENTED_EDGE('',*,*,#491,.F.);
#635=ORIENTED_EDGE('',*,*,#492,.T.);
#636=ORIENTED_EDGE('',*,*,#493,.T.);
#637=ORIENTED_EDGE('',*,*,#494,.T.);
#638=ORIENTED_EDGE('',*,*,#475,.T.);
#639=ORIENTED_EDGE('',*,*,#495,.T.);
#640=ORIENTED_EDGE('',*,*,#496,.F.);
#641=ORIENTED_EDGE('',*,*,#497,.T.);
#642=ORIENTED_EDGE('',*,*,#456,.T.);
#643=ORIENTED_EDGE('',*,*,#476,.F.);
#644=ORIENTED_EDGE('',*,*,#494,.F.);
#645=ORIENTED_EDGE('',*,*,#498,.T.);
#646=ORIENTED_EDGE('',*,*,#499,.F.);
#647=ORIENTED_EDGE('',*,*,#500,.T.);
#648=ORIENTED_EDGE('',*,*,#496,.T.);
#649=ORIENTED_EDGE('',*,*,#501,.T.);
#650=ORIENTED_EDGE('',*,*,#502,.T.);
#651=ORIENTED_EDGE('',*,*,#503,.T.);
#652=ORIENTED_EDGE('',*,*,#504,.T.);
#653=ORIENTED_EDGE('',*,*,#505,.T.);
#654=ORIENTED_EDGE('',*,*,#506,.T.);
#655=ORIENTED_EDGE('',*,*,#507,.T.);
#656=ORIENTED_EDGE('',*,*,#508,.T.);
#657=ORIENTED_EDGE('',*,*,#491,.T.);
#658=ORIENTED_EDGE('',*,*,#509,.T.);
#659=ORIENTED_EDGE('',*,*,#510,.T.);
#660=ORIENTED_EDGE('',*,*,#511,.F.);
#661=ORIENTED_EDGE('',*,*,#485,.F.);
#662=ORIENTED_EDGE('',*,*,#512,.F.);
#663=ORIENTED_EDGE('',*,*,#513,.T.);
#664=ORIENTED_EDGE('',*,*,#499,.T.);
#665=ORIENTED_EDGE('',*,*,#447,.T.);
#666=ORIENTED_EDGE('',*,*,#514,.T.);
#667=ORIENTED_EDGE('',*,*,#512,.T.);
#668=ORIENTED_EDGE('',*,*,#484,.T.);
#669=ORIENTED_EDGE('',*,*,#515,.T.);
#670=ORIENTED_EDGE('',*,*,#516,.T.);
#671=ORIENTED_EDGE('',*,*,#513,.F.);
#672=ORIENTED_EDGE('',*,*,#514,.F.);
#673=ORIENTED_EDGE('',*,*,#440,.F.);
#674=ORIENTED_EDGE('',*,*,#457,.F.);
#675=ORIENTED_EDGE('',*,*,#497,.F.);
#676=ORIENTED_EDGE('',*,*,#500,.F.);
#677=ORIENTED_EDGE('',*,*,#517,.T.);
#678=ORIENTED_EDGE('',*,*,#518,.F.);
#679=ORIENTED_EDGE('',*,*,#486,.T.);
#680=ORIENTED_EDGE('',*,*,#511,.T.);
#681=ORIENTED_EDGE('',*,*,#477,.F.);
#682=ORIENTED_EDGE('',*,*,#454,.T.);
#683=ORIENTED_EDGE('',*,*,#463,.T.);
#684=ORIENTED_EDGE('',*,*,#519,.F.);
#685=ORIENTED_EDGE('',*,*,#483,.F.);
#686=ORIENTED_EDGE('',*,*,#520,.T.);
#687=ORIENTED_EDGE('',*,*,#521,.T.);
#688=ORIENTED_EDGE('',*,*,#515,.F.);
#689=ORIENTED_EDGE('',*,*,#522,.T.);
#690=ORIENTED_EDGE('',*,*,#458,.T.);
#691=ORIENTED_EDGE('',*,*,#450,.F.);
#692=ORIENTED_EDGE('',*,*,#445,.T.);
#693=ORIENTED_EDGE('',*,*,#449,.T.);
#694=ORIENTED_EDGE('',*,*,#523,.T.);
#695=ORIENTED_EDGE('',*,*,#520,.F.);
#696=ORIENTED_EDGE('',*,*,#482,.F.);
#697=ORIENTED_EDGE('',*,*,#524,.T.);
#698=ORIENTED_EDGE('',*,*,#459,.T.);
#699=ORIENTED_EDGE('',*,*,#522,.F.);
#700=ORIENTED_EDGE('',*,*,#481,.F.);
#701=ORIENTED_EDGE('',*,*,#525,.T.);
#702=ORIENTED_EDGE('',*,*,#460,.T.);
#703=ORIENTED_EDGE('',*,*,#524,.F.);
#704=ORIENTED_EDGE('',*,*,#480,.F.);
#705=ORIENTED_EDGE('',*,*,#526,.T.);
#706=ORIENTED_EDGE('',*,*,#461,.T.);
#707=ORIENTED_EDGE('',*,*,#525,.F.);
#708=ORIENTED_EDGE('',*,*,#479,.F.);
#709=ORIENTED_EDGE('',*,*,#519,.T.);
#710=ORIENTED_EDGE('',*,*,#462,.T.);
#711=ORIENTED_EDGE('',*,*,#526,.F.);
#712=ORIENTED_EDGE('',*,*,#478,.F.);
#713=ORIENTED_EDGE('',*,*,#448,.T.);
#714=ORIENTED_EDGE('',*,*,#516,.F.);
#715=ORIENTED_EDGE('',*,*,#521,.F.);
#716=ORIENTED_EDGE('',*,*,#523,.F.);
#717=ORIENTED_EDGE('',*,*,#527,.T.);
#718=ORIENTED_EDGE('',*,*,#487,.T.);
#719=ORIENTED_EDGE('',*,*,#518,.T.);
#720=ORIENTED_EDGE('',*,*,#528,.T.);
#721=ORIENTED_EDGE('',*,*,#529,.T.);
#722=ORIENTED_EDGE('',*,*,#509,.F.);
#723=ORIENTED_EDGE('',*,*,#490,.T.);
#724=ORIENTED_EDGE('',*,*,#530,.T.);
#725=ORIENTED_EDGE('',*,*,#531,.T.);
#726=ORIENTED_EDGE('',*,*,#506,.F.);
#727=ORIENTED_EDGE('',*,*,#465,.T.);
#728=ORIENTED_EDGE('',*,*,#532,.F.);
#729=ORIENTED_EDGE('',*,*,#533,.T.);
#730=ORIENTED_EDGE('',*,*,#503,.F.);
#731=ORIENTED_EDGE('',*,*,#534,.T.);
#732=ORIENTED_EDGE('',*,*,#535,.T.);
#733=ORIENTED_EDGE('',*,*,#536,.T.);
#734=ORIENTED_EDGE('',*,*,#537,.T.);
#735=ORIENTED_EDGE('',*,*,#538,.T.);
#736=ORIENTED_EDGE('',*,*,#539,.T.);
#737=ORIENTED_EDGE('',*,*,#540,.T.);
#738=ORIENTED_EDGE('',*,*,#541,.F.);
#739=ORIENTED_EDGE('',*,*,#542,.F.);
#740=ORIENTED_EDGE('',*,*,#528,.F.);
#741=ORIENTED_EDGE('',*,*,#517,.F.);
#742=ORIENTED_EDGE('',*,*,#510,.F.);
#743=ORIENTED_EDGE('',*,*,#498,.F.);
#744=ORIENTED_EDGE('',*,*,#495,.F.);
#745=ORIENTED_EDGE('',*,*,#493,.F.);
#746=ORIENTED_EDGE('',*,*,#543,.T.);
#747=ORIENTED_EDGE('',*,*,#469,.F.);
#748=ORIENTED_EDGE('',*,*,#544,.F.);
#749=ORIENTED_EDGE('',*,*,#545,.F.);
#750=ORIENTED_EDGE('',*,*,#546,.T.);
#751=ORIENTED_EDGE('',*,*,#507,.F.);
#752=ORIENTED_EDGE('',*,*,#529,.F.);
#753=ORIENTED_EDGE('',*,*,#547,.T.);
#754=ORIENTED_EDGE('',*,*,#504,.F.);
#755=ORIENTED_EDGE('',*,*,#531,.F.);
#756=ORIENTED_EDGE('',*,*,#548,.F.);
#757=ORIENTED_EDGE('',*,*,#545,.T.);
#758=ORIENTED_EDGE('',*,*,#549,.T.);
#759=ORIENTED_EDGE('',*,*,#550,.F.);
#760=ORIENTED_EDGE('',*,*,#508,.F.);
#761=ORIENTED_EDGE('',*,*,#547,.F.);
#762=ORIENTED_EDGE('',*,*,#530,.F.);
#763=ORIENTED_EDGE('',*,*,#489,.F.);
#764=ORIENTED_EDGE('',*,*,#551,.T.);
#765=ORIENTED_EDGE('',*,*,#533,.F.);
#766=ORIENTED_EDGE('',*,*,#536,.F.);
#767=ORIENTED_EDGE('',*,*,#552,.F.);
#768=ORIENTED_EDGE('',*,*,#538,.F.);
#769=ORIENTED_EDGE('',*,*,#553,.T.);
#770=ORIENTED_EDGE('',*,*,#488,.F.);
#771=ORIENTED_EDGE('',*,*,#527,.F.);
#772=ORIENTED_EDGE('',*,*,#542,.T.);
#773=ORIENTED_EDGE('',*,*,#554,.T.);
#774=ORIENTED_EDGE('',*,*,#501,.F.);
#775=ORIENTED_EDGE('',*,*,#551,.F.);
#776=ORIENTED_EDGE('',*,*,#535,.F.);
#777=ORIENTED_EDGE('',*,*,#555,.F.);
#778=ORIENTED_EDGE('',*,*,#539,.F.);
#779=ORIENTED_EDGE('',*,*,#552,.T.);
#780=ORIENTED_EDGE('',*,*,#534,.F.);
#781=ORIENTED_EDGE('',*,*,#556,.F.);
#782=ORIENTED_EDGE('',*,*,#540,.F.);
#783=ORIENTED_EDGE('',*,*,#555,.T.);
#784=ORIENTED_EDGE('',*,*,#502,.F.);
#785=ORIENTED_EDGE('',*,*,#554,.F.);
#786=ORIENTED_EDGE('',*,*,#541,.T.);
#787=ORIENTED_EDGE('',*,*,#556,.T.);
#788=ORIENTED_EDGE('',*,*,#473,.F.);
#789=ORIENTED_EDGE('',*,*,#466,.T.);
#790=ORIENTED_EDGE('',*,*,#505,.F.);
#791=ORIENTED_EDGE('',*,*,#549,.F.);
#792=ORIENTED_EDGE('',*,*,#544,.T.);
#793=ORIENTED_EDGE('',*,*,#468,.F.);
#794=ORIENTED_EDGE('',*,*,#470,.F.);
#795=ORIENTED_EDGE('',*,*,#546,.F.);
#796=ORIENTED_EDGE('',*,*,#548,.T.);
#797=ORIENTED_EDGE('',*,*,#537,.F.);
#798=ORIENTED_EDGE('',*,*,#553,.F.);
#799=ORIENTED_EDGE('',*,*,#543,.F.);
#800=ORIENTED_EDGE('',*,*,#492,.F.);
#801=ORIENTED_EDGE('',*,*,#474,.F.);
#802=ORIENTED_EDGE('',*,*,#557,.T.);
#803=ORIENTED_EDGE('',*,*,#558,.T.);
#804=ORIENTED_EDGE('',*,*,#559,.T.);
#805=ORIENTED_EDGE('',*,*,#560,.T.);
#806=ORIENTED_EDGE('',*,*,#532,.T.);
#807=ORIENTED_EDGE('',*,*,#561,.F.);
#808=ORIENTED_EDGE('',*,*,#562,.F.);
#809=ORIENTED_EDGE('',*,*,#563,.T.);
#810=ORIENTED_EDGE('',*,*,#557,.F.);
#811=ORIENTED_EDGE('',*,*,#464,.F.);
#812=ORIENTED_EDGE('',*,*,#472,.T.);
#813=ORIENTED_EDGE('',*,*,#564,.F.);
#814=ORIENTED_EDGE('',*,*,#565,.F.);
#815=ORIENTED_EDGE('',*,*,#566,.F.);
#816=ORIENTED_EDGE('',*,*,#561,.T.);
#817=ORIENTED_EDGE('',*,*,#560,.F.);
#818=ORIENTED_EDGE('',*,*,#567,.F.);
#819=ORIENTED_EDGE('',*,*,#568,.T.);
#820=ORIENTED_EDGE('',*,*,#565,.T.);
#821=ORIENTED_EDGE('',*,*,#564,.T.);
#822=ORIENTED_EDGE('',*,*,#550,.T.);
#823=ORIENTED_EDGE('',*,*,#559,.F.);
#824=ORIENTED_EDGE('',*,*,#569,.F.);
#825=ORIENTED_EDGE('',*,*,#570,.F.);
#826=ORIENTED_EDGE('',*,*,#567,.T.);
#827=ORIENTED_EDGE('',*,*,#558,.F.);
#828=ORIENTED_EDGE('',*,*,#563,.F.);
#829=ORIENTED_EDGE('',*,*,#571,.T.);
#830=ORIENTED_EDGE('',*,*,#569,.T.);
#831=ORIENTED_EDGE('',*,*,#568,.F.);
#832=ORIENTED_EDGE('',*,*,#570,.T.);
#833=ORIENTED_EDGE('',*,*,#571,.F.);
#834=ORIENTED_EDGE('',*,*,#562,.T.);
#835=ORIENTED_EDGE('',*,*,#566,.T.);
#836=PLANE('',#936);
#837=PLANE('',#937);
#838=PLANE('',#938);
#839=PLANE('',#939);
#840=PLANE('',#940);
#841=PLANE('',#941);
#842=PLANE('',#945);
#843=PLANE('',#946);
#844=PLANE('',#953);
#845=PLANE('',#954);
#846=PLANE('',#959);
#847=PLANE('',#960);
#848=PLANE('',#961);
#849=PLANE('',#962);
#850=PLANE('',#965);
#851=PLANE('',#966);
#852=PLANE('',#967);
#853=PLANE('',#968);
#854=PLANE('',#969);
#855=PLANE('',#970);
#856=PLANE('',#971);
#857=PLANE('',#972);
#858=PLANE('',#973);
#859=PLANE('',#974);
#860=PLANE('',#975);
#861=PLANE('',#980);
#862=PLANE('',#983);
#863=PLANE('',#984);
#864=PLANE('',#986);
#865=PLANE('',#989);
#866=PLANE('',#990);
#867=PLANE('',#992);
#868=PLANE('',#993);
#869=PLANE('',#996);
#870=PLANE('',#999);
#871=PLANE('',#1002);
#872=PLANE('',#1003);
#873=ADVANCED_FACE('',(#60),#836,.T.);
#874=ADVANCED_FACE('',(#61),#837,.F.);
#875=ADVANCED_FACE('',(#62),#838,.T.);
#876=ADVANCED_FACE('',(#63),#839,.T.);
#877=ADVANCED_FACE('',(#64),#840,.F.);
#878=ADVANCED_FACE('',(#65),#841,.F.);
#879=ADVANCED_FACE('',(#66),#52,.T.);
#880=ADVANCED_FACE('',(#67),#842,.F.);
#881=ADVANCED_FACE('',(#68),#843,.T.);
#882=ADVANCED_FACE('',(#69),#53,.F.);
#883=ADVANCED_FACE('',(#70),#844,.F.);
#884=ADVANCED_FACE('',(#71),#845,.F.);
#885=ADVANCED_FACE('',(#72),#16,.T.);
#886=ADVANCED_FACE('',(#73),#17,.T.);
#887=ADVANCED_FACE('',(#74),#846,.T.);
#888=ADVANCED_FACE('',(#75),#847,.F.);
#889=ADVANCED_FACE('',(#76),#848,.F.);
#890=ADVANCED_FACE('',(#77),#849,.F.);
#891=ADVANCED_FACE('',(#78),#54,.F.);
#892=ADVANCED_FACE('',(#79),#850,.F.);
#893=ADVANCED_FACE('',(#80),#851,.F.);
#894=ADVANCED_FACE('',(#81),#852,.F.);
#895=ADVANCED_FACE('',(#82),#853,.F.);
#896=ADVANCED_FACE('',(#83),#854,.F.);
#897=ADVANCED_FACE('',(#84),#855,.F.);
#898=ADVANCED_FACE('',(#85),#856,.F.);
#899=ADVANCED_FACE('',(#86),#857,.F.);
#900=ADVANCED_FACE('',(#87),#858,.F.);
#901=ADVANCED_FACE('',(#88),#859,.F.);
#902=ADVANCED_FACE('',(#89),#860,.F.);
#903=ADVANCED_FACE('',(#90),#861,.T.);
#904=ADVANCED_FACE('',(#91),#862,.T.);
#905=ADVANCED_FACE('',(#92),#863,.T.);
#906=ADVANCED_FACE('',(#93),#864,.T.);
#907=ADVANCED_FACE('',(#94),#55,.T.);
#908=ADVANCED_FACE('',(#95),#56,.T.);
#909=ADVANCED_FACE('',(#96),#865,.T.);
#910=ADVANCED_FACE('',(#97),#866,.T.);
#911=ADVANCED_FACE('',(#98),#57,.T.);
#912=ADVANCED_FACE('',(#99),#867,.T.);
#913=ADVANCED_FACE('',(#100),#868,.T.);
#914=ADVANCED_FACE('',(#101),#15,.T.);
#915=ADVANCED_FACE('',(#102),#18,.T.);
#916=ADVANCED_FACE('',(#103),#869,.T.);
#917=ADVANCED_FACE('',(#104),#58,.F.);
#918=ADVANCED_FACE('',(#105),#870,.T.);
#919=ADVANCED_FACE('',(#106),#59,.T.);
#920=ADVANCED_FACE('',(#107),#871,.T.);
#921=ADVANCED_FACE('',(#108),#872,.T.);
#922=CLOSED_SHELL('',(#873,#874,#875,#876,#877,#878,#879,#880,#881,#882,
#883,#884,#885,#886,#887,#888,#889,#890,#891,#892,#893,#894,#895,#896,#897,
#898,#899,#900,#901,#902,#903,#904,#905,#906,#907,#908,#909,#910,#911,#912,
#913,#914,#915,#916,#917,#918,#919,#920,#921));
#923=DERIVED_UNIT_ELEMENT(#925,1.);
#924=DERIVED_UNIT_ELEMENT(#1596,-3.);
#925=(
MASS_UNIT()
NAMED_UNIT(*)
SI_UNIT(.KILO.,.GRAM.)
);
#926=DERIVED_UNIT((#923,#924));
#927=MEASURE_REPRESENTATION_ITEM('density measure',
POSITIVE_RATIO_MEASURE(7850.),#926);
#928=PROPERTY_DEFINITION_REPRESENTATION(#933,#930);
#929=PROPERTY_DEFINITION_REPRESENTATION(#934,#931);
#930=REPRESENTATION('material name',(#932),#1593);
#931=REPRESENTATION('density',(#927),#1593);
#932=DESCRIPTIVE_REPRESENTATION_ITEM('Steel','Steel');
#933=PROPERTY_DEFINITION('material property','material name',#1603);
#934=PROPERTY_DEFINITION('material property','density of part',#1603);
#935=AXIS2_PLACEMENT_3D('',#1241,#1004,#1005);
#936=AXIS2_PLACEMENT_3D('',#1242,#1006,#1007);
#937=AXIS2_PLACEMENT_3D('',#1251,#1012,#1013);
#938=AXIS2_PLACEMENT_3D('',#1257,#1017,#1018);
#939=AXIS2_PLACEMENT_3D('',#1263,#1022,#1023);
#940=AXIS2_PLACEMENT_3D('',#1269,#1027,#1028);
#941=AXIS2_PLACEMENT_3D('',#1279,#1034,#1035);
#942=AXIS2_PLACEMENT_3D('',#1291,#1042,#1043);
#943=AXIS2_PLACEMENT_3D('',#1296,#1045,#1046);
#944=AXIS2_PLACEMENT_3D('',#1299,#1048,#1049);
#945=AXIS2_PLACEMENT_3D('',#1300,#1050,#1051);
#946=AXIS2_PLACEMENT_3D('',#1312,#1055,#1056);
#947=AXIS2_PLACEMENT_3D('',#1314,#1057,#1058);
#948=AXIS2_PLACEMENT_3D('',#1322,#1060,#1061);
#949=AXIS2_PLACEMENT_3D('',#1343,#1072,#1073);
#950=AXIS2_PLACEMENT_3D('',#1349,#1076,#1077);
#951=AXIS2_PLACEMENT_3D('',#1353,#1080,#1081);
#952=AXIS2_PLACEMENT_3D('',#1360,#1082,#1083);
#953=AXIS2_PLACEMENT_3D('',#1362,#1085,#1086);
#954=AXIS2_PLACEMENT_3D('',#1368,#1090,#1091);
#955=AXIS2_PLACEMENT_3D('',#1374,#1095,#1096);
#956=AXIS2_PLACEMENT_3D('',#1394,#1097,#1098);
#957=AXIS2_PLACEMENT_3D('',#1395,#1099,#1100);
#958=AXIS2_PLACEMENT_3D('',#1414,#1101,#1102);
#959=AXIS2_PLACEMENT_3D('',#1415,#1103,#1104);
#960=AXIS2_PLACEMENT_3D('',#1421,#1108,#1109);
#961=AXIS2_PLACEMENT_3D('',#1428,#1114,#1115);
#962=AXIS2_PLACEMENT_3D('',#1433,#1119,#1120);
#963=AXIS2_PLACEMENT_3D('',#1434,#1121,#1122);
#964=AXIS2_PLACEMENT_3D('',#1436,#1123,#1124);
#965=AXIS2_PLACEMENT_3D('',#1438,#1126,#1127);
#966=AXIS2_PLACEMENT_3D('',#1440,#1129,#1130);
#967=AXIS2_PLACEMENT_3D('',#1444,#1133,#1134);
#968=AXIS2_PLACEMENT_3D('',#1447,#1137,#1138);
#969=AXIS2_PLACEMENT_3D('',#1449,#1140,#1141);
#970=AXIS2_PLACEMENT_3D('',#1451,#1143,#1144);
#971=AXIS2_PLACEMENT_3D('',#1453,#1146,#1147);
#972=AXIS2_PLACEMENT_3D('',#1454,#1148,#1149);
#973=AXIS2_PLACEMENT_3D('',#1455,#1150,#1151);
#974=AXIS2_PLACEMENT_3D('',#1459,#1154,#1155);
#975=AXIS2_PLACEMENT_3D('',#1463,#1158,#1159);
#976=AXIS2_PLACEMENT_3D('',#1467,#1161,#1162);
#977=AXIS2_PLACEMENT_3D('',#1468,#1163,#1164);
#978=AXIS2_PLACEMENT_3D('',#1470,#1165,#1166);
#979=AXIS2_PLACEMENT_3D('',#1474,#1168,#1169);
#980=AXIS2_PLACEMENT_3D('',#1482,#1170,#1171);
#981=AXIS2_PLACEMENT_3D('',#1485,#1172,#1173);
#982=AXIS2_PLACEMENT_3D('',#1489,#1175,#1176);
#983=AXIS2_PLACEMENT_3D('',#1500,#1179,#1180);
#984=AXIS2_PLACEMENT_3D('',#1509,#1183,#1184);
#985=AXIS2_PLACEMENT_3D('',#1510,#1185,#1186);
#986=AXIS2_PLACEMENT_3D('',#1511,#1187,#1188);
#987=AXIS2_PLACEMENT_3D('',#1514,#1191,#1192);
#988=AXIS2_PLACEMENT_3D('',#1517,#1195,#1196);
#989=AXIS2_PLACEMENT_3D('',#1520,#1199,#1200);
#990=AXIS2_PLACEMENT_3D('',#1522,#1202,#1203);
#991=AXIS2_PLACEMENT_3D('',#1524,#1205,#1206);
#992=AXIS2_PLACEMENT_3D('',#1526,#1208,#1209);
#993=AXIS2_PLACEMENT_3D('',#1527,#1210,#1211);
#994=AXIS2_PLACEMENT_3D('',#1540,#1212,#1213);
#995=AXIS2_PLACEMENT_3D('',#1558,#1214,#1215);
#996=AXIS2_PLACEMENT_3D('',#1569,#1216,#1217);
#997=AXIS2_PLACEMENT_3D('',#1575,#1221,#1222);
#998=AXIS2_PLACEMENT_3D('',#1579,#1225,#1226);
#999=AXIS2_PLACEMENT_3D('',#1580,#1227,#1228);
#1000=AXIS2_PLACEMENT_3D('',#1584,#1231,#1232);
#1001=AXIS2_PLACEMENT_3D('',#1587,#1234,#1235);
#1002=AXIS2_PLACEMENT_3D('',#1588,#1236,#1237);
#1003=AXIS2_PLACEMENT_3D('',#1590,#1239,#1240);
#1004=DIRECTION('axis',(0.,0.,1.));
#1005=DIRECTION('refdir',(1.,0.,0.));
#1006=DIRECTION('center_axis',(0.,0.,1.));
#1007=DIRECTION('ref_axis',(1.,0.,0.));
#1008=DIRECTION('',(1.,0.,0.));
#1009=DIRECTION('',(0.,-1.,0.));
#1010=DIRECTION('',(-1.,0.,0.));
#1011=DIRECTION('',(0.,-1.,0.));
#1012=DIRECTION('center_axis',(0.,1.,0.));
#1013=DIRECTION('ref_axis',(0.,0.,1.));
#1014=DIRECTION('',(0.,0.,1.));
#1015=DIRECTION('',(1.,0.,4.45481339034546E-14));
#1016=DIRECTION('',(0.,0.,-1.));
#1017=DIRECTION('center_axis',(-1.,0.,0.));
#1018=DIRECTION('ref_axis',(0.,0.,1.));
#1019=DIRECTION('',(0.,1.,0.));
#1020=DIRECTION('',(0.,0.,-1.));
#1021=DIRECTION('',(0.,-1.,0.));
#1022=DIRECTION('center_axis',(1.,0.,0.));
#1023=DIRECTION('ref_axis',(0.,0.,-1.));
#1024=DIRECTION('',(0.,-1.,0.));
#1025=DIRECTION('',(0.,0.,1.));
#1026=DIRECTION('',(0.,-1.,0.));
#1027=DIRECTION('center_axis',(0.,0.,1.));
#1028=DIRECTION('ref_axis',(-1.,0.,0.));
#1029=DIRECTION('',(-1.,0.,0.));
#1030=DIRECTION('',(0.,1.,0.));
#1031=DIRECTION('',(-1.,0.,0.));
#1032=DIRECTION('',(0.,-1.,0.));
#1033=DIRECTION('',(1.,0.,0.));
#1034=DIRECTION('center_axis',(0.,1.,0.));
#1035=DIRECTION('ref_axis',(0.,0.,1.));
#1036=DIRECTION('',(1.,0.,4.45481339034546E-14));
#1037=DIRECTION('',(0.,0.,-1.));
#1038=DIRECTION('',(1.,0.,0.));
#1039=DIRECTION('',(0.,0.,1.));
#1040=DIRECTION('',(-1.,0.,0.));
#1041=DIRECTION('',(-3.20256641718795E-16,0.,1.));
#1042=DIRECTION('center_axis',(0.,1.,0.));
#1043=DIRECTION('ref_axis',(1.,0.,0.));
#1044=DIRECTION('',(0.,1.,0.));
#1045=DIRECTION('center_axis',(0.,1.,0.));
#1046=DIRECTION('ref_axis',(1.,0.,0.));
#1047=DIRECTION('',(0.,1.,0.));
#1048=DIRECTION('center_axis',(0.,-1.,0.));
#1049=DIRECTION('ref_axis',(1.,0.,0.));
#1050=DIRECTION('center_axis',(-1.,0.,-1.16425783617244E-12));
#1051=DIRECTION('ref_axis',(1.16425783617244E-12,0.,-1.));
#1052=DIRECTION('',(0.,-1.,0.));
#1053=DIRECTION('',(1.16425783617244E-12,0.,-1.));
#1054=DIRECTION('',(-1.16425783617244E-12,0.,1.));
#1055=DIRECTION('center_axis',(0.,-1.,0.));
#1056=DIRECTION('ref_axis',(-1.,0.,0.));
#1057=DIRECTION('center_axis',(0.,1.,0.));
#1058=DIRECTION('ref_axis',(1.,0.,-6.83214169000096E-16));
#1059=DIRECTION('',(-1.,0.,0.));
#1060=DIRECTION('center_axis',(0.,1.,0.));
#1061=DIRECTION('ref_axis',(-0.999999999999595,0.,9.00584972476943E-7));
#1062=DIRECTION('',(1.06752213907687E-16,0.,1.));
#1063=DIRECTION('',(-3.20256641718795E-16,0.,1.));
#1064=DIRECTION('',(-1.,0.,0.));
#1065=DIRECTION('',(0.,0.,1.));
#1066=DIRECTION('',(1.,0.,0.));
#1067=DIRECTION('',(0.,0.,-1.));
#1068=DIRECTION('',(1.,0.,4.45481339034546E-14));
#1069=DIRECTION('',(5.51939446528405E-13,0.,-1.));
#1070=DIRECTION('',(-1.,0.,0.));
#1071=DIRECTION('',(0.,0.,-1.));
#1072=DIRECTION('center_axis',(0.,1.,0.));
#1073=DIRECTION('ref_axis',(-9.13867219568209E-7,0.,-0.999999999999582));
#1074=DIRECTION('',(1.36541167348081E-12,0.,-1.));
#1075=DIRECTION('',(-1.,0.,-9.41214050375844E-15));
#1076=DIRECTION('center_axis',(0.,-1.,0.));
#1077=DIRECTION('ref_axis',(1.,0.,0.));
#1078=DIRECTION('',(1.,0.,1.08196280218215E-12));
#1079=DIRECTION('',(0.168193396835845,0.,-0.985754016609022));
#1080=DIRECTION('center_axis',(0.,-1.,0.));
#1081=DIRECTION('ref_axis',(-0.999999999999595,0.,9.00584972476943E-7));
#1082=DIRECTION('center_axis',(0.,-1.,0.));
#1083=DIRECTION('ref_axis',(-0.999999999999595,0.,9.00584972476943E-7));
#1084=DIRECTION('',(0.,1.,0.));
#1085=DIRECTION('center_axis',(-1.,0.,1.06752213907687E-16));
#1086=DIRECTION('ref_axis',(-1.06752213907687E-16,0.,-1.));
#1087=DIRECTION('',(-1.06752213907687E-16,0.,-1.));
#1088=DIRECTION('',(0.,-1.,0.));
#1089=DIRECTION('',(1.06752213907687E-16,0.,1.));
#1090=DIRECTION('center_axis',(0.,0.,-1.));
#1091=DIRECTION('ref_axis',(1.,0.,0.));
#1092=DIRECTION('',(1.,0.,0.));
#1093=DIRECTION('',(0.,-1.,0.));
#1094=DIRECTION('',(-1.,0.,0.));
#1095=DIRECTION('center_axis',(0.,1.,0.));
#1096=DIRECTION('ref_axis',(0.,0.,1.));
#1097=DIRECTION('center_axis',(0.,-1.,0.));
#1098=DIRECTION('ref_axis',(-0.168193396836303,0.,0.985754016608944));
#1099=DIRECTION('center_axis',(0.,1.,0.));
#1100=DIRECTION('ref_axis',(0.,0.,1.));
#1101=DIRECTION('center_axis',(0.,-1.,0.));
#1102=DIRECTION('ref_axis',(-0.168193396836303,0.,0.985754016608944));
#1103=DIRECTION('center_axis',(-0.985754016609022,0.,-0.168193396835845));
#1104=DIRECTION('ref_axis',(-0.168193396835845,0.,0.985754016609022));
#1105=DIRECTION('',(-0.168193396835845,0.,0.985754016609022));
#1106=DIRECTION('',(0.,1.,0.));
#1107=DIRECTION('',(0.,-1.,0.));
#1108=DIRECTION('center_axis',(1.,0.,0.));
#1109=DIRECTION('ref_axis',(0.,0.,1.));
#1110=DIRECTION('',(0.,0.,1.));
#1111=DIRECTION('',(0.,-1.,0.));
#1112=DIRECTION('',(0.,-1.,0.));
#1113=DIRECTION('',(0.,0.,-1.));
#1114=DIRECTION('center_axis',(0.,0.,1.));
#1115=DIRECTION('ref_axis',(-1.,0.,0.));
#1116=DIRECTION('',(1.,0.,0.));
#1117=DIRECTION('',(0.,1.,0.));
#1118=DIRECTION('',(-1.,0.,0.));
#1119=DIRECTION('center_axis',(0.,1.,0.));
#1120=DIRECTION('ref_axis',(0.,0.,1.));
#1121=DIRECTION('center_axis',(0.,-1.,0.));
#1122=DIRECTION('ref_axis',(-9.13867219568209E-7,0.,-0.999999999999582));
#1123=DIRECTION('center_axis',(0.,-1.,0.));
#1124=DIRECTION('ref_axis',(-9.13867219568209E-7,0.,-0.999999999999582));
#1125=DIRECTION('',(0.,-1.,0.));
#1126=DIRECTION('center_axis',(-1.,0.,-3.20256641718795E-16));
#1127=DIRECTION('ref_axis',(-3.20256641718795E-16,0.,1.));
#1128=DIRECTION('',(0.,1.,0.));
#1129=DIRECTION('center_axis',(1.,0.,5.51939446528405E-13));
#1130=DIRECTION('ref_axis',(5.51939446528405E-13,0.,-1.));
#1131=DIRECTION('',(0.,1.,0.));
#1132=DIRECTION('',(5.51939446528405E-13,0.,-1.));
#1133=DIRECTION('center_axis',(-4.45481339034546E-14,0.,1.));
#1134=DIRECTION('ref_axis',(1.,0.,4.45481339034546E-14));
#1135=DIRECTION('',(0.,1.,0.));
#1136=DIRECTION('',(1.,0.,4.45481339034546E-14));
#1137=DIRECTION('center_axis',(1.,0.,0.));
#1138=DIRECTION('ref_axis',(0.,0.,-1.));
#1139=DIRECTION('',(0.,1.,0.));
#1140=DIRECTION('center_axis',(0.,0.,1.));
#1141=DIRECTION('ref_axis',(1.,0.,0.));
#1142=DIRECTION('',(0.,1.,0.));
#1143=DIRECTION('center_axis',(-1.,0.,0.));
#1144=DIRECTION('ref_axis',(0.,0.,1.));
#1145=DIRECTION('',(0.,1.,0.));
#1146=DIRECTION('center_axis',(0.,0.,-1.));
#1147=DIRECTION('ref_axis',(-1.,0.,0.));
#1148=DIRECTION('center_axis',(0.,1.,0.));
#1149=DIRECTION('ref_axis',(0.,0.,1.));
#1150=DIRECTION('center_axis',(1.,0.,1.36541167348081E-12));
#1151=DIRECTION('ref_axis',(-1.36541167348081E-12,0.,1.));
#1152=DIRECTION('',(0.,1.,0.));
#1153=DIRECTION('',(-1.36541167348081E-12,0.,1.));
#1154=DIRECTION('center_axis',(-1.08196280218215E-12,0.,1.));
#1155=DIRECTION('ref_axis',(-1.,0.,-1.08196280218215E-12));
#1156=DIRECTION('',(-1.,0.,-1.08196280218215E-12));
#1157=DIRECTION('',(0.,-1.,0.));
#1158=DIRECTION('center_axis',(0.,-1.,0.));
#1159=DIRECTION('ref_axis',(0.,0.,-1.));
#1160=DIRECTION('',(-1.02809295615348E-13,0.,1.));
#1161=DIRECTION('center_axis',(0.,-1.,0.));
#1162=DIRECTION('ref_axis',(1.,0.,-6.83214169000096E-16));
#1163=DIRECTION('center_axis',(0.,1.,0.));
#1164=DIRECTION('ref_axis',(1.,0.,0.));
#1165=DIRECTION('center_axis',(0.,1.,0.));
#1166=DIRECTION('ref_axis',(1.,0.,0.));
#1167=DIRECTION('',(0.,0.,-1.));
#1168=DIRECTION('center_axis',(0.,1.,0.));
#1169=DIRECTION('ref_axis',(-1.,0.,0.));
#1170=DIRECTION('center_axis',(0.,-1.,0.));
#1171=DIRECTION('ref_axis',(-1.,0.,0.));
#1172=DIRECTION('center_axis',(0.,-1.,0.));
#1173=DIRECTION('ref_axis',(-1.,0.,0.));
#1174=DIRECTION('',(3.20493781063927E-16,0.,1.));
#1175=DIRECTION('center_axis',(0.,-1.,0.));
#1176=DIRECTION('ref_axis',(1.,0.,0.));
#1177=DIRECTION('',(-3.25345872200475E-16,0.,-1.));
#1178=DIRECTION('',(1.,0.,9.41214050375844E-15));
#1179=DIRECTION('center_axis',(0.,-1.,0.));
#1180=DIRECTION('ref_axis',(-1.,0.,0.));
#1181=DIRECTION('',(1.,0.,0.));
#1182=DIRECTION('',(-1.02809295615348E-13,0.,1.));
#1183=DIRECTION('center_axis',(0.,-1.,0.));
#1184=DIRECTION('ref_axis',(-1.,0.,0.));
#1185=DIRECTION('center_axis',(0.,-1.,0.));
#1186=DIRECTION('ref_axis',(1.,0.,0.));
#1187=DIRECTION('center_axis',(-1.,0.,-1.02809295615348E-13));
#1188=DIRECTION('ref_axis',(-1.02809295615348E-13,0.,1.));
#1189=DIRECTION('',(0.,1.,0.));
#1190=DIRECTION('',(0.,1.,0.));
#1191=DIRECTION('center_axis',(0.,1.,0.));
#1192=DIRECTION('ref_axis',(1.,0.,0.));
#1193=DIRECTION('',(0.,1.,0.));
#1194=DIRECTION('',(0.,1.,0.));
#1195=DIRECTION('center_axis',(0.,1.,0.));
#1196=DIRECTION('ref_axis',(-1.,0.,0.));
#1197=DIRECTION('',(0.,1.,0.));
#1198=DIRECTION('',(0.,1.,0.));
#1199=DIRECTION('center_axis',(-9.41214050375844E-15,0.,1.));
#1200=DIRECTION('ref_axis',(1.,0.,9.41214050375844E-15));
#1201=DIRECTION('',(0.,1.,0.));
#1202=DIRECTION('center_axis',(1.,0.,-3.20493781063927E-16));
#1203=DIRECTION('ref_axis',(-3.20493781063927E-16,0.,-1.));
#1204=DIRECTION('',(0.,1.,0.));
#1205=DIRECTION('center_axis',(0.,1.,0.));
#1206=DIRECTION('ref_axis',(1.,0.,0.));
#1207=DIRECTION('',(0.,1.,0.));
#1208=DIRECTION('center_axis',(1.,0.,-3.25345872200475E-16));
#1209=DIRECTION('ref_axis',(-3.25345872200475E-16,0.,-1.));
#1210=DIRECTION('center_axis',(0.,0.,1.));
#1211=DIRECTION('ref_axis',(1.,0.,0.));
#1212=DIRECTION('center_axis',(0.,1.,0.));
#1213=DIRECTION('ref_axis',(0.,0.,1.));
#1214=DIRECTION('center_axis',(0.,1.,0.));
#1215=DIRECTION('ref_axis',(0.364402788866786,0.,0.931241433499449));
#1216=DIRECTION('center_axis',(6.98700356828693E-13,0.,-1.));
#1217=DIRECTION('ref_axis',(-1.,0.,-6.98700356828693E-13));
#1218=DIRECTION('',(0.,1.,0.));
#1219=DIRECTION('',(1.,0.,6.98700356828693E-13));
#1220=DIRECTION('',(0.,1.,0.));
#1221=DIRECTION('center_axis',(0.,1.,0.));
#1222=DIRECTION('ref_axis',(1.,0.,-6.83214169000096E-16));
#1223=DIRECTION('',(0.,1.,0.));
#1224=DIRECTION('',(0.,1.,0.));
#1225=DIRECTION('center_axis',(0.,1.,0.));
#1226=DIRECTION('ref_axis',(1.,0.,-6.83214169000096E-16));
#1227=DIRECTION('center_axis',(0.985754016609022,0.,0.168193396835845));
#1228=DIRECTION('ref_axis',(0.168193396835845,0.,-0.985754016609022));
#1229=DIRECTION('',(0.,1.,0.));
#1230=DIRECTION('',(0.168193396835845,0.,-0.985754016609022));
#1231=DIRECTION('center_axis',(0.,1.,0.));
#1232=DIRECTION('ref_axis',(0.364402788866786,0.,0.931241433499449));
#1233=DIRECTION('',(0.,1.,0.));
#1234=DIRECTION('center_axis',(-3.12662538218795E-17,-1.,1.22347542541087E-17));
#1235=DIRECTION('ref_axis',(0.364402788866786,0.,0.931241433499449));
#1236=DIRECTION('center_axis',(-0.98575401660902,0.,-0.168193396835856));
#1237=DIRECTION('ref_axis',(-0.168193396835856,0.,0.98575401660902));
#1238=DIRECTION('',(-0.168193396835856,0.,0.98575401660902));
#1239=DIRECTION('center_axis',(0.,-1.,0.));
#1240=DIRECTION('ref_axis',(-1.,0.,0.));
#1241=CARTESIAN_POINT('',(0.,0.,0.));
#1242=CARTESIAN_POINT('Origin',(1.41556013375521,8.5,33.7000000000006));
#1243=CARTESIAN_POINT('',(0.953340865671635,8.65,33.7000000000006));
#1244=CARTESIAN_POINT('',(1.87777940183878,8.65,33.7000000000006));
#1245=CARTESIAN_POINT('',(4.87500000000218,8.65,33.7000000000006));
#1246=CARTESIAN_POINT('',(1.87777940183878,8.7,33.7000000000006));
#1247=CARTESIAN_POINT('',(1.87777940183878,8.5,33.7000000000006));
#1248=CARTESIAN_POINT('',(0.953340865671635,8.7,33.7000000000006));
#1249=CARTESIAN_POINT('',(4.87500000000218,8.7,33.7000000000006));
#1250=CARTESIAN_POINT('',(0.953340865671635,8.5,33.7000000000006));
#1251=CARTESIAN_POINT('Origin',(0.820000000000234,8.7,37.6250000000003));
#1252=CARTESIAN_POINT('',(1.87777940183878,8.7,39.5999999999999));
#1253=CARTESIAN_POINT('',(1.87777940183878,8.7,33.5180788114667));
#1254=CARTESIAN_POINT('',(0.953340865671635,8.7,39.5999999999998));
#1255=CARTESIAN_POINT('',(4.66500000000007,8.7,39.6));
#1256=CARTESIAN_POINT('',(0.953340865671635,8.7,40.5037837103009));
#1257=CARTESIAN_POINT('Origin',(1.87777940183878,8.5,36.6500000000002));
#1258=CARTESIAN_POINT('',(1.87777940183878,8.5,33.7000000000006));
#1259=CARTESIAN_POINT('',(1.87777940183878,7.65,33.7000000000006));
#1260=CARTESIAN_POINT('',(1.87777940183878,8.5,39.5999999999999));
#1261=CARTESIAN_POINT('',(1.87777940183878,8.5,37.1375000000003));
#1262=CARTESIAN_POINT('',(1.87777940183878,8.5,39.5999999999999));
#1263=CARTESIAN_POINT('Origin',(0.953340865671635,8.5,36.6500000000002));
#1264=CARTESIAN_POINT('',(0.953340865671635,8.5,39.5999999999998));
#1265=CARTESIAN_POINT('',(0.953340865671635,8.5,39.5999999999998));
#1266=CARTESIAN_POINT('',(0.953340865671635,8.5,33.7000000000006));
#1267=CARTESIAN_POINT('',(0.953340865671635,8.5,37.1375000000002));
#1268=CARTESIAN_POINT('',(0.953340865671635,7.65,33.7000000000006));
#1269=CARTESIAN_POINT('Origin',(4.87500000000218,6.8,33.7000000000006));
#1270=CARTESIAN_POINT('',(-1.71499999999947,8.5,33.7000000000006));
#1271=CARTESIAN_POINT('',(4.87500000000218,8.5,33.7000000000006));
#1272=CARTESIAN_POINT('',(-1.71499999999947,7.3,33.7000000000006));
#1273=CARTESIAN_POINT('',(-1.71499999999947,6.8,33.7000000000006));
#1274=CARTESIAN_POINT('',(-1.92499999999782,7.3,33.7000000000006));
#1275=CARTESIAN_POINT('',(4.87500000000218,7.3,33.7000000000006));
#1276=CARTESIAN_POINT('',(-1.92499999999782,8.65,33.7000000000006));
#1277=CARTESIAN_POINT('',(-1.92499999999782,6.8,33.7000000000006));
#1278=CARTESIAN_POINT('',(4.87500000000218,8.65,33.7000000000006));
#1279=CARTESIAN_POINT('Origin',(0.820000000000234,8.5,37.6250000000003));
#1280=CARTESIAN_POINT('',(-0.925,8.5,39.6));
#1281=CARTESIAN_POINT('',(4.66500000000007,8.5,39.6));
#1282=CARTESIAN_POINT('',(-0.925,8.5,41.55));
#1283=CARTESIAN_POINT('',(-0.925,8.5,41.55));
#1284=CARTESIAN_POINT('',(-3.025,8.5,41.55));
#1285=CARTESIAN_POINT('',(-3.025,8.5,41.55));
#1286=CARTESIAN_POINT('',(-3.025,8.5,39.6));
#1287=CARTESIAN_POINT('',(-3.025,8.5,39.6));
#1288=CARTESIAN_POINT('',(-1.71499999999992,8.5,39.6));
#1289=CARTESIAN_POINT('',(-0.925,8.5,39.6));
#1290=CARTESIAN_POINT('',(-1.71499999999992,8.5,39.5999999999997));
#1291=CARTESIAN_POINT('Origin',(1.47500000000001,7.2,37.));
#1292=CARTESIAN_POINT('',(-1.98910161514637,7.3,42.4999999999946));
#1293=CARTESIAN_POINT('',(-1.98910161514639,9.2,42.4999999999946));
#1294=CARTESIAN_POINT('',(-1.98910161514638,4.8,42.4999999999946));
#1295=CARTESIAN_POINT('',(-2.00383396446819,9.2,42.490693421387));
#1296=CARTESIAN_POINT('Origin',(1.475,9.2,37.));
#1297=CARTESIAN_POINT('',(-2.00383396446819,7.3,42.490693421387));
#1298=CARTESIAN_POINT('',(-2.00383396446819,7.2,42.490693421387));
#1299=CARTESIAN_POINT('Origin',(1.47500000000001,7.3,37.));
#1300=CARTESIAN_POINT('Origin',(-3.9750000000064,6.8,42.4999999999932));
#1301=CARTESIAN_POINT('',(-3.97500000000639,7.3,42.490693421387));
#1302=CARTESIAN_POINT('',(-3.97500000000639,7.2,42.490693421387));
#1303=CARTESIAN_POINT('',(-3.97500000000639,7.,42.490693421387));
#1304=CARTESIAN_POINT('',(-3.97499999999505,7.2,32.7504208180433));
#1305=CARTESIAN_POINT('',(-3.97500000000233,7.2,38.9999999999931));
#1306=CARTESIAN_POINT('',(-3.97499999999505,7.3,32.7504208180433));
#1307=CARTESIAN_POINT('Ctrl Pts',(-3.97499999999505,7.2,32.7504208180433));
#1308=CARTESIAN_POINT('Ctrl Pts',(-3.97499999999505,7.23333333333333,32.7504208180433));
#1309=CARTESIAN_POINT('Ctrl Pts',(-3.97499999999505,7.26666666666667,32.7504208180433));
#1310=CARTESIAN_POINT('Ctrl Pts',(-3.97499999999505,7.3,32.7504208180433));
#1311=CARTESIAN_POINT('',(-3.9750000000064,7.3,42.4999999999932));
#1312=CARTESIAN_POINT('Origin',(1.4750000000001,7.3,36.0000000000017));
#1313=CARTESIAN_POINT('',(4.69633549777755,7.3,42.6456175579611));
#1314=CARTESIAN_POINT('Origin',(1.475,7.3,37.));
#1315=CARTESIAN_POINT('',(-1.26454914909848,7.3,42.490693421387));
#1316=CARTESIAN_POINT('',(-3.36824152868064,7.3,30.5185006462451));
#1317=CARTESIAN_POINT('Ctrl Pts',(-3.97500011844317,7.3,32.7504208807048));
#1318=CARTESIAN_POINT('Ctrl Pts',(-3.75350405386266,7.3,32.0117991855072));
#1319=CARTESIAN_POINT('Ctrl Pts',(-3.55074121679404,7.3,31.2676074826854));
#1320=CARTESIAN_POINT('Ctrl Pts',(-3.36825120995458,7.3,30.5184995336464));
#1321=CARTESIAN_POINT('',(-1.92499999999782,7.3,29.5876227147348));
#1322=CARTESIAN_POINT('Origin',(-1.23799999971652,7.3,32.2370000002758));
#1323=CARTESIAN_POINT('',(-1.92499999999782,7.3,34.8500000000011));
#1324=CARTESIAN_POINT('',(-1.71499999999992,7.3,39.6));
#1325=CARTESIAN_POINT('',(-1.71499999999992,7.3,34.8500000000011));
#1326=CARTESIAN_POINT('',(-3.025,7.3,39.6));
#1327=CARTESIAN_POINT('',(-0.393529867288475,7.3,39.6));
#1328=CARTESIAN_POINT('',(-3.025,7.3,41.55));
#1329=CARTESIAN_POINT('',(-3.025,7.3,39.2687499999779));
#1330=CARTESIAN_POINT('',(-0.925,7.3,41.55));
#1331=CARTESIAN_POINT('',(-1.04852986728852,7.3,41.55));
#1332=CARTESIAN_POINT('',(-0.925,7.3,39.6));
#1333=CARTESIAN_POINT('',(-0.925,7.3,40.2437499999779));
#1334=CARTESIAN_POINT('',(4.66500000000007,7.3,39.6));
#1335=CARTESIAN_POINT('',(0.00147013271146991,7.3,39.5999999999998));
#1336=CARTESIAN_POINT('',(4.66500000000047,7.3,33.7000000000006));
#1337=CARTESIAN_POINT('',(4.6649999999974,7.3,39.2687499999789));
#1338=CARTESIAN_POINT('',(4.87500000000218,7.3,33.7000000000006));
#1339=CARTESIAN_POINT('',(4.87500000000218,7.3,33.7000000000006));
#1340=CARTESIAN_POINT('',(4.87500000000218,7.3,29.5715139397856));
#1341=CARTESIAN_POINT('',(4.87500000000218,7.3,32.5500000000011));
#1342=CARTESIAN_POINT('',(6.92500000000198,7.3,32.1629964528796));
#1343=CARTESIAN_POINT('Origin',(4.26200000027512,7.3,32.1629999997312));
#1344=CARTESIAN_POINT('',(6.9249999999925,7.3,42.490693421387));
#1345=CARTESIAN_POINT('',(6.92500000000661,7.3,32.1629964528796));
#1346=CARTESIAN_POINT('',(4.95383396446818,7.3,42.490693421387));
#1347=CARTESIAN_POINT('',(3.21441698223411,7.3,42.490693421387));
#1348=CARTESIAN_POINT('',(4.9391016151308,7.3,42.5000000000044));
#1349=CARTESIAN_POINT('Origin',(1.47500000000001,7.3,37.));
#1350=CARTESIAN_POINT('',(4.7211813632765,7.3,42.5000000000042));
#1351=CARTESIAN_POINT('',(6.92499999999249,7.3,42.5000000000065));
#1352=CARTESIAN_POINT('',(5.19023659192024,7.3,39.7509439469993));
#1353=CARTESIAN_POINT('Origin',(-1.23799999971652,6.8,32.2370000002758));
#1354=CARTESIAN_POINT('',(-3.36824152861675,7.2,30.5185006461121));
#1355=CARTESIAN_POINT('Ctrl Pts',(-3.36824152868064,7.3,30.5185006462451));
#1356=CARTESIAN_POINT('Ctrl Pts',(-3.36824152868064,7.26666666666667,30.5185006462451));
#1357=CARTESIAN_POINT('Ctrl Pts',(-3.36824152868064,7.23333333333333,30.5185006462451));
#1358=CARTESIAN_POINT('Ctrl Pts',(-3.36824152868064,7.2,30.5185006462451));
#1359=CARTESIAN_POINT('',(-1.92499999999782,7.2,29.5876227147348));
#1360=CARTESIAN_POINT('Origin',(-1.23799999971652,7.2,32.2370000002758));
#1361=CARTESIAN_POINT('',(-1.92499999999782,6.8,29.5876227147348));
#1362=CARTESIAN_POINT('Origin',(-1.92499999999782,6.8,33.7000000000006));
#1363=CARTESIAN_POINT('',(-1.92499999999782,7.2,29.1000000000006));
#1364=CARTESIAN_POINT('',(-1.92499999999782,7.2,34.6000000000003));
#1365=CARTESIAN_POINT('',(-1.92499999999782,8.65,29.1000000000006));
#1366=CARTESIAN_POINT('',(-1.92499999999782,6.8,29.1000000000006));
#1367=CARTESIAN_POINT('',(-1.92499999999782,8.65,33.7000000000006));
#1368=CARTESIAN_POINT('Origin',(-1.92499999999782,6.8,29.1000000000006));
#1369=CARTESIAN_POINT('',(4.87499999998442,7.2,29.1000000000006));
#1370=CARTESIAN_POINT('',(0.0294840226884241,7.2,29.1000000000006));
#1371=CARTESIAN_POINT('',(4.87499999998442,8.65,29.1000000000006));
#1372=CARTESIAN_POINT('',(4.87499999998442,6.8,29.1000000000006));
#1373=CARTESIAN_POINT('',(4.87499999998442,8.65,29.1000000000006));
#1374=CARTESIAN_POINT('Origin',(1.475,7.7,37.));
#1375=CARTESIAN_POINT('',(4.9538339644682,9.2,42.490693421387));
#1376=CARTESIAN_POINT('',(6.97052197104402,8.50068097171205,42.490693421387));
#1377=CARTESIAN_POINT('Ctrl Pts',(4.9538339644682,9.2,42.490693421387));
#1378=CARTESIAN_POINT('Ctrl Pts',(5.28712895462963,9.2,42.490693421387));
#1379=CARTESIAN_POINT('Ctrl Pts',(5.68496011829008,9.1588471399217,42.490693421387));
#1380=CARTESIAN_POINT('Ctrl Pts',(6.22754672956233,9.00260705705378,42.490693421387));
#1381=CARTESIAN_POINT('Ctrl Pts',(6.48204308142836,8.89171550367145,42.490693421387));
#1382=CARTESIAN_POINT('Ctrl Pts',(6.77515732229071,8.69021011553481,42.490693421387));
#1383=CARTESIAN_POINT('Ctrl Pts',(6.88074329956528,8.60129425812961,42.490693421387));
#1384=CARTESIAN_POINT('Ctrl Pts',(6.97052197104402,8.50068097171205,42.490693421387));
#1385=CARTESIAN_POINT('',(6.97052197104402,9.2,40.4712012712853));
#1386=CARTESIAN_POINT('Ctrl Pts',(6.97052197104402,8.50068097171205,42.490693421387));
#1387=CARTESIAN_POINT('Ctrl Pts',(6.97052197104402,8.60130736395882,42.4008240931882));
#1388=CARTESIAN_POINT('Ctrl Pts',(6.97052197104402,8.6902196502968,42.2951386941021));
#1389=CARTESIAN_POINT('Ctrl Pts',(6.97052197104402,8.89170785452937,42.0017612745817));
#1390=CARTESIAN_POINT('Ctrl Pts',(6.97052197104402,9.0025620775413,41.7470641523904));
#1391=CARTESIAN_POINT('Ctrl Pts',(6.97052197104402,9.15887076337896,41.203702987151));
#1392=CARTESIAN_POINT('Ctrl Pts',(6.97052197104402,9.2,40.8051186006291));
#1393=CARTESIAN_POINT('Ctrl Pts',(6.97052197104402,9.2,40.4712012712853));
#1394=CARTESIAN_POINT('Origin',(1.475,9.2,37.));
#1395=CARTESIAN_POINT('Origin',(1.475,7.7,37.));
#1396=CARTESIAN_POINT('',(-4.00409829819685,9.2,40.49706760568));
#1397=CARTESIAN_POINT('',(-4.00409829819706,8.5187840942657,42.490693421387));
#1398=CARTESIAN_POINT('Ctrl Pts',(-4.00409829819685,9.2,40.49706760568));
#1399=CARTESIAN_POINT('Ctrl Pts',(-4.00409829819689,9.2,40.8629972997761));
#1400=CARTESIAN_POINT('Ctrl Pts',(-4.00409829819693,9.15004473704833,41.2992621399523));
#1401=CARTESIAN_POINT('Ctrl Pts',(-4.00409829819699,8.9573279907142,41.8806704575275));
#1402=CARTESIAN_POINT('Ctrl Pts',(-4.00409829819702,8.82373329169945,42.1446990592214));
#1403=CARTESIAN_POINT('Ctrl Pts',(-4.00409829819704,8.62290943742119,42.3872382405859));
#1404=CARTESIAN_POINT('Ctrl Pts',(-4.00409829819705,8.57316946052296,42.4406398188851));
#1405=CARTESIAN_POINT('Ctrl Pts',(-4.00409829819706,8.5187840942657,42.490693421387));
#1406=CARTESIAN_POINT('Ctrl Pts',(-4.00409829819706,8.5187840942657,42.490693421387));
#1407=CARTESIAN_POINT('Ctrl Pts',(-3.95417575149369,8.57291251374418,42.490693421387));
#1408=CARTESIAN_POINT('Ctrl Pts',(-3.90094531362289,8.62242101232672,42.490693421387));
#1409=CARTESIAN_POINT('Ctrl Pts',(-3.65819730871173,8.82322238237777,42.490693421387));
#1410=CARTESIAN_POINT('Ctrl Pts',(-3.39366102810217,8.95686334400663,42.490693421387));
#1411=CARTESIAN_POINT('Ctrl Pts',(-2.81006920014264,9.15006190327791,42.490693421387));
#1412=CARTESIAN_POINT('Ctrl Pts',(-2.37159296475683,9.2,42.490693421387));
#1413=CARTESIAN_POINT('Ctrl Pts',(-2.00383396446821,9.2,42.490693421387));
#1414=CARTESIAN_POINT('Origin',(1.475,9.2,37.));
#1415=CARTESIAN_POINT('Origin',(5.17594594903106,0.,39.8346990699289));
#1416=CARTESIAN_POINT('',(4.7211813632765,7.2,42.5000000000041));
#1417=CARTESIAN_POINT('',(4.69633549777755,7.2,42.6456175579611));
#1418=CARTESIAN_POINT('',(5.49013772447567,7.2,37.9932724119471));
#1419=CARTESIAN_POINT('',(4.69633549777755,4.8,42.6456175579611));
#1420=CARTESIAN_POINT('',(4.7211813632765,3.4,42.5000000000041));
#1421=CARTESIAN_POINT('Origin',(4.87500000000218,6.8,29.1000000000006));
#1422=CARTESIAN_POINT('',(4.87500000000218,7.2,29.5715139397856));
#1423=CARTESIAN_POINT('',(4.87500000000218,7.2,32.3000000000003));
#1424=CARTESIAN_POINT('',(4.87500000000218,6.8,29.5715139397856));
#1425=CARTESIAN_POINT('',(4.87500000000218,8.65,33.7000000000006));
#1426=CARTESIAN_POINT('',(4.87500000000218,6.8,33.7000000000006));
#1427=CARTESIAN_POINT('',(4.87500000000218,8.65,31.0999999999748));
#1428=CARTESIAN_POINT('Origin',(4.87500000000218,6.8,33.7000000000006));
#1429=CARTESIAN_POINT('',(4.87500000000218,8.65,33.7000000000006));
#1430=CARTESIAN_POINT('',(4.66500000000047,8.5,33.7000000000006));
#1431=CARTESIAN_POINT('',(4.66500000000047,6.8,33.7000000000006));
#1432=CARTESIAN_POINT('',(4.87500000000218,8.5,33.7000000000006));
#1433=CARTESIAN_POINT('Origin',(1.47500000000218,8.65,31.4000000000006));
#1434=CARTESIAN_POINT('Origin',(4.26200000027512,6.8,32.1629999997312));
#1435=CARTESIAN_POINT('',(6.92500000000198,7.2,32.1629964528796));
#1436=CARTESIAN_POINT('Origin',(4.26200000027512,7.2,32.1629999997312));
#1437=CARTESIAN_POINT('',(6.92500000000198,6.8,32.1629964528796));
#1438=CARTESIAN_POINT('Origin',(-1.71499999999992,6.8,33.7000000000006));
#1439=CARTESIAN_POINT('',(-1.71499999999992,6.8,39.6));
#1440=CARTESIAN_POINT('Origin',(4.66499999999721,6.8,39.6));
#1441=CARTESIAN_POINT('',(4.66500000000007,8.5,39.6));
#1442=CARTESIAN_POINT('',(4.66500000000007,6.8,39.6));
#1443=CARTESIAN_POINT('',(4.66500000000008,8.5,34.4));
#1444=CARTESIAN_POINT('Origin',(-0.925,6.8,39.5999999999997));
#1445=CARTESIAN_POINT('',(-0.925,6.8,39.6));
#1446=CARTESIAN_POINT('',(4.66500000000007,8.5,39.6));
#1447=CARTESIAN_POINT('Origin',(-0.925,6.8,41.55));
#1448=CARTESIAN_POINT('',(-0.925,6.8,41.55));
#1449=CARTESIAN_POINT('Origin',(-3.025,6.8,41.55));
#1450=CARTESIAN_POINT('',(-3.025,6.8,41.55));
#1451=CARTESIAN_POINT('Origin',(-3.025,6.8,39.6));
#1452=CARTESIAN_POINT('',(-3.025,6.8,39.6));
#1453=CARTESIAN_POINT('Origin',(-1.71499999999992,6.8,39.6));
#1454=CARTESIAN_POINT('Origin',(0.820000000000234,8.5,37.6250000000003));
#1455=CARTESIAN_POINT('Origin',(6.92500000000661,6.8,32.1629964528796));
#1456=CARTESIAN_POINT('',(6.9249999999925,7.2,42.490693421387));
#1457=CARTESIAN_POINT('',(6.9249999999925,7.,42.490693421387));
#1458=CARTESIAN_POINT('',(6.92500000000433,7.2,33.8314982264432));
#1459=CARTESIAN_POINT('Origin',(6.92499999999249,6.8,42.5000000000065));
#1460=CARTESIAN_POINT('',(4.9391016151308,7.2,42.5000000000044));
#1461=CARTESIAN_POINT('',(4.45448402267979,7.2,42.5000000000039));
#1462=CARTESIAN_POINT('',(4.9391016151308,7.2,42.5000000000044));
#1463=CARTESIAN_POINT('Origin',(0.92794026542297,9.2,38.9374999999558));
#1464=CARTESIAN_POINT('',(-4.00409829829152,9.2,32.8470662436595));
#1465=CARTESIAN_POINT('',(-4.00409829819638,9.2,35.8922831214916));
#1466=CARTESIAN_POINT('',(4.69633549777756,9.2,42.6456175579611));
#1467=CARTESIAN_POINT('Origin',(1.475,9.2,37.));
#1468=CARTESIAN_POINT('Origin',(1.475,9.2,37.));
#1469=CARTESIAN_POINT('',(7.975,9.2,37.));
#1470=CARTESIAN_POINT('Origin',(1.475,9.2,37.));
#1471=CARTESIAN_POINT('',(7.975,9.2,30.0717967697245));
#1472=CARTESIAN_POINT('',(7.975,9.2,37.9687499999779));
#1473=CARTESIAN_POINT('',(-2.94655743416059,9.2,28.591680913736));
#1474=CARTESIAN_POINT('Origin',(1.47499999999999,9.2,37.));
#1475=CARTESIAN_POINT('Ctrl Pts',(-2.94655743416095,9.2,28.591680913736));
#1476=CARTESIAN_POINT('Ctrl Pts',(-2.96803215415044,9.2,28.7024213709135));
#1477=CARTESIAN_POINT('Ctrl Pts',(-2.98996720257279,9.2,28.8130637414928));
#1478=CARTESIAN_POINT('Ctrl Pts',(-3.01236037005536,9.2,28.9236178671855));
#1479=CARTESIAN_POINT('Ctrl Pts',(-3.28026379205676,9.2,30.2462457898538));
#1480=CARTESIAN_POINT('Ctrl Pts',(-3.61359418216468,9.2,31.5552301063749));
#1481=CARTESIAN_POINT('Ctrl Pts',(-4.00409829819604,9.2,32.8470662430278));
#1482=CARTESIAN_POINT('Origin',(1.98396804537466,7.2,35.5));
#1483=CARTESIAN_POINT('',(-2.94655743416095,7.2,28.591680913736));
#1484=CARTESIAN_POINT('',(7.975,7.2,30.0717967697245));
#1485=CARTESIAN_POINT('Origin',(1.47499999999999,7.2,37.));
#1486=CARTESIAN_POINT('',(7.975,7.2,37.));
#1487=CARTESIAN_POINT('',(7.975,7.2,30.0717967697245));
#1488=CARTESIAN_POINT('',(6.97052197104402,7.2,40.4712012712853));
#1489=CARTESIAN_POINT('Origin',(1.47500000000001,7.2,37.));
#1490=CARTESIAN_POINT('',(6.97052197104402,7.2,42.490693421387));
#1491=CARTESIAN_POINT('',(6.97052197104402,7.2,42.490693421387));
#1492=CARTESIAN_POINT('',(3.19591440182867,7.2,42.490693421387));
#1493=CARTESIAN_POINT('Ctrl Pts',(-3.36825120991699,7.2,30.5184995334921));
#1494=CARTESIAN_POINT('Ctrl Pts',(-3.23932071654002,7.2,29.9892494165325));
#1495=CARTESIAN_POINT('Ctrl Pts',(-3.12050945387673,7.2,29.4575453437535));
#1496=CARTESIAN_POINT('Ctrl Pts',(-3.01236037005536,7.2,28.9236178671855));
#1497=CARTESIAN_POINT('Ctrl Pts',(-2.98996720257279,7.2,28.8130637414928));
#1498=CARTESIAN_POINT('Ctrl Pts',(-2.96803215415044,7.2,28.7024213709135));
#1499=CARTESIAN_POINT('Ctrl Pts',(-2.94655743416095,7.2,28.591680913736));
#1500=CARTESIAN_POINT('Origin',(1.98396804537466,7.2,35.5));
#1501=CARTESIAN_POINT('',(-4.00409829819706,7.2,42.490693421387));
#1502=CARTESIAN_POINT('',(-4.00409829819706,7.2,42.490693421387));
#1503=CARTESIAN_POINT('',(-4.00409829819606,7.2,32.8470662430279));
#1504=CARTESIAN_POINT('',(-4.004098298196,7.2,32.2533756667507));
#1505=CARTESIAN_POINT('Ctrl Pts',(-4.00409829819607,7.2,32.8470662430279));
#1506=CARTESIAN_POINT('Ctrl Pts',(-3.99436332154979,7.2,32.8148617306941));
#1507=CARTESIAN_POINT('Ctrl Pts',(-3.98466384467214,7.2,32.7826465713555));
#1508=CARTESIAN_POINT('Ctrl Pts',(-3.97499999999506,7.2,32.7504208180434));
#1509=CARTESIAN_POINT('Origin',(1.98396804537466,7.2,35.5));
#1510=CARTESIAN_POINT('Origin',(1.47500000000001,7.2,37.));
#1511=CARTESIAN_POINT('Origin',(-4.00409829819606,7.2,32.8470662430279));
#1512=CARTESIAN_POINT('',(-4.00409829819606,7.2,32.8470662430279));
#1513=CARTESIAN_POINT('',(-4.00409829819706,7.2,42.490693421387));
#1514=CARTESIAN_POINT('Origin',(1.47500000000001,7.2,37.));
#1515=CARTESIAN_POINT('',(4.69633549777755,4.8,42.6456175579611));
#1516=CARTESIAN_POINT('',(4.95383396446818,7.2,42.490693421387));
#1517=CARTESIAN_POINT('Origin',(1.47499999999999,7.2,37.));
#1518=CARTESIAN_POINT('',(7.975,7.2,30.0717967697245));
#1519=CARTESIAN_POINT('',(-2.94655743416095,7.2,28.591680913736));
#1520=CARTESIAN_POINT('Origin',(4.95383396446818,7.2,42.490693421387));
#1521=CARTESIAN_POINT('',(6.97052197104402,7.2,42.490693421387));
#1522=CARTESIAN_POINT('Origin',(7.975,7.2,37.));
#1523=CARTESIAN_POINT('',(7.975,7.2,37.));
#1524=CARTESIAN_POINT('Origin',(1.47500000000001,7.2,37.));
#1525=CARTESIAN_POINT('',(6.97052197104402,7.2,40.4712012712853));
#1526=CARTESIAN_POINT('Origin',(6.97052197104402,7.2,42.490693421387));
#1527=CARTESIAN_POINT('Origin',(-4.00409829819706,7.2,42.490693421387));
#1528=CARTESIAN_POINT('Ctrl Pts',(-2.94655743416095,7.2,28.591680913736));
#1529=CARTESIAN_POINT('Ctrl Pts',(-2.94655743416095,17.2,28.591680913736));
#1530=CARTESIAN_POINT('Ctrl Pts',(-2.96803215415044,7.2,28.7024213709135));
#1531=CARTESIAN_POINT('Ctrl Pts',(-2.96803215415044,17.2,28.7024213709135));
#1532=CARTESIAN_POINT('Ctrl Pts',(-2.98996720257279,7.2,28.8130637414928));
#1533=CARTESIAN_POINT('Ctrl Pts',(-2.98996720257279,17.2,28.8130637414928));
#1534=CARTESIAN_POINT('Ctrl Pts',(-3.28026379205676,7.2,30.2462457898538));
#1535=CARTESIAN_POINT('Ctrl Pts',(-3.28026379205676,17.2,30.2462457898538));
#1536=CARTESIAN_POINT('Ctrl Pts',(-3.61359418216468,7.2,31.5552301063749));
#1537=CARTESIAN_POINT('Ctrl Pts',(-3.61359418216468,17.2,31.5552301063749));
#1538=CARTESIAN_POINT('Ctrl Pts',(-4.00409829819604,7.2,32.8470662430278));
#1539=CARTESIAN_POINT('Ctrl Pts',(-4.00409829819604,17.2,32.8470662430278));
#1540=CARTESIAN_POINT('Origin',(1.475,7.7,37.));
#1541=CARTESIAN_POINT('',(-3.6480465182959,8.80318662829702,42.4999999999934));
#1542=CARTESIAN_POINT('Ctrl Pts',(-1.98910161514639,9.2,42.4999999999946));
#1543=CARTESIAN_POINT('Ctrl Pts',(-2.35834838252124,9.2,42.4999999999943));
#1544=CARTESIAN_POINT('Ctrl Pts',(-2.79862314598522,9.15007700961587,42.499999999994));
#1545=CARTESIAN_POINT('Ctrl Pts',(-3.31234065112065,8.98018167232534,42.4999999999936));
#1546=CARTESIAN_POINT('Ctrl Pts',(-3.49148559853525,8.9014974082485,42.4999999999935));
#1547=CARTESIAN_POINT('Ctrl Pts',(-3.6480465182959,8.80318662829702,42.4999999999934));
#1548=CARTESIAN_POINT('',(-3.74346435487604,7.8,43.05922834923));
#1549=CARTESIAN_POINT('Ctrl Pts',(-3.6480465182959,8.80318662829702,42.4999999999934));
#1550=CARTESIAN_POINT('Ctrl Pts',(-3.65406313314843,8.77563665302222,42.5352623965491));
#1551=CARTESIAN_POINT('Ctrl Pts',(-3.6597671805808,8.74717639935768,42.5686928865277));
#1552=CARTESIAN_POINT('Ctrl Pts',(-3.68860753226615,8.59144269187989,42.7377214753372));
#1553=CARTESIAN_POINT('Ctrl Pts',(-3.71146096813337,8.40996748689202,42.871661728779));
#1554=CARTESIAN_POINT('Ctrl Pts',(-3.7343061976943,8.10828396819012,43.0055538864005));
#1555=CARTESIAN_POINT('Ctrl Pts',(-3.74150968300676,7.94900814639723,43.0477723367911));
#1556=CARTESIAN_POINT('Ctrl Pts',(-3.74346435487604,7.8,43.05922834923));
#1557=CARTESIAN_POINT('',(4.38900628232388,7.8,44.4468238731557));
#1558=CARTESIAN_POINT('Origin',(1.475,7.80000000000002,37.));
#1559=CARTESIAN_POINT('Ctrl Pts',(4.38900628232388,7.8,44.4468238731557));
#1560=CARTESIAN_POINT('Ctrl Pts',(4.39096095419316,7.94900814639723,44.4353678607168));
#1561=CARTESIAN_POINT('Ctrl Pts',(4.39816443950562,8.10828396819012,44.3931494103262));
#1562=CARTESIAN_POINT('Ctrl Pts',(4.42100966906655,8.40996748689202,44.2592572527047));
#1563=CARTESIAN_POINT('Ctrl Pts',(4.44386310493377,8.59144269187989,44.1253169992629));
#1564=CARTESIAN_POINT('Ctrl Pts',(4.49394023164124,8.86185189794908,43.8318231420676));
#1565=CARTESIAN_POINT('Ctrl Pts',(4.53112999246716,8.99074468035342,43.6138600305511));
#1566=CARTESIAN_POINT('Ctrl Pts',(4.6042639202045,9.15223953316651,43.1852340299249));
#1567=CARTESIAN_POINT('Ctrl Pts',(4.65419292655079,9.2,42.8926082819641));
#1568=CARTESIAN_POINT('Ctrl Pts',(4.69633549777755,9.2,42.6456175579611));
#1569=CARTESIAN_POINT('Origin',(-1.98910161514638,4.8,42.4999999999946));
#1570=CARTESIAN_POINT('',(-1.98910161514638,4.8,42.4999999999946));
#1571=CARTESIAN_POINT('',(-1.98910161514638,4.8,42.4999999999946));
#1572=CARTESIAN_POINT('',(-3.6480465182959,4.8,42.4999999999934));
#1573=CARTESIAN_POINT('',(-0.224999999995281,4.8,42.4999999999958));
#1574=CARTESIAN_POINT('',(-3.6480465182959,4.8,42.4999999999934));
#1575=CARTESIAN_POINT('Origin',(1.475,4.8,37.));
#1576=CARTESIAN_POINT('',(4.69633549777755,4.8,42.6456175579611));
#1577=CARTESIAN_POINT('',(4.69633549777755,4.8,42.6456175579611));
#1578=CARTESIAN_POINT('',(4.69633549777755,4.8,42.6456175579611));
#1579=CARTESIAN_POINT('Origin',(1.475,4.8,37.));
#1580=CARTESIAN_POINT('Origin',(4.38900628232388,4.8,44.4468238731557));
#1581=CARTESIAN_POINT('',(4.38900628232388,4.8,44.4468238731557));
#1582=CARTESIAN_POINT('',(4.38900628232388,4.8,44.4468238731557));
#1583=CARTESIAN_POINT('',(4.78503880500764,4.8,42.1257419681131));
#1584=CARTESIAN_POINT('Origin',(1.475,4.8,37.));
#1585=CARTESIAN_POINT('',(-3.74346435487766,4.8,43.0592283492286));
#1586=CARTESIAN_POINT('',(-3.74346435487766,4.8,43.0592283492286));
#1587=CARTESIAN_POINT('Origin',(1.475,4.8,37.));
#1588=CARTESIAN_POINT('Origin',(-3.6480465182959,4.8,42.4999999999934));
#1589=CARTESIAN_POINT('',(-3.74122922272912,4.8,43.0461286049301));
#1590=CARTESIAN_POINT('Origin',(0.476435571449945,4.8,43.7483314773515));
#1591=UNCERTAINTY_MEASURE_WITH_UNIT(LENGTH_MEASURE(0.01),#1595,
'DISTANCE_ACCURACY_VALUE',
'Maximum model space distance between geometric entities at asserted c
onnectivities');
#1592=UNCERTAINTY_MEASURE_WITH_UNIT(LENGTH_MEASURE(0.01),#1595,
'DISTANCE_ACCURACY_VALUE',
'Maximum model space distance between geometric entities at asserted c
onnectivities');
#1593=(
GEOMETRIC_REPRESENTATION_CONTEXT(3)
GLOBAL_UNCERTAINTY_ASSIGNED_CONTEXT((#1591))
GLOBAL_UNIT_ASSIGNED_CONTEXT((#1595,#1597,#1598))
REPRESENTATION_CONTEXT('','3D')
);
#1594=(
GEOMETRIC_REPRESENTATION_CONTEXT(3)
GLOBAL_UNCERTAINTY_ASSIGNED_CONTEXT((#1592))
GLOBAL_UNIT_ASSIGNED_CONTEXT((#1595,#1597,#1598))
REPRESENTATION_CONTEXT('','3D')
);
#1595=(
LENGTH_UNIT()
NAMED_UNIT(*)
SI_UNIT(.MILLI.,.METRE.)
);
#1596=(
LENGTH_UNIT()
NAMED_UNIT(*)
SI_UNIT($,.METRE.)
);
#1597=(
NAMED_UNIT(*)
PLANE_ANGLE_UNIT()
SI_UNIT($,.RADIAN.)
);
#1598=(
NAMED_UNIT(*)
SI_UNIT($,.STERADIAN.)
SOLID_ANGLE_UNIT()
);
#1599=SHAPE_DEFINITION_REPRESENTATION(#1600,#1601);
#1600=PRODUCT_DEFINITION_SHAPE('',$,#1603);
#1601=SHAPE_REPRESENTATION('',(#935),#1593);
#1602=PRODUCT_DEFINITION_CONTEXT('part definition',#1607,'design');
#1603=PRODUCT_DEFINITION('2026-08-25-10-25-27-779','PP',#1604,#1602);
#1604=PRODUCT_DEFINITION_FORMATION('',$,#1609);
#1605=PRODUCT_RELATED_PRODUCT_CATEGORY('PP','PP',(#1609));
#1606=APPLICATION_PROTOCOL_DEFINITION('international standard',
'automotive_design',2009,#1607);
#1607=APPLICATION_CONTEXT(
'Core Data for Automotive Mechanical Design Process');
#1608=PRODUCT_CONTEXT('part definition',#1607,'mechanical');
#1609=PRODUCT('2026-08-25-10-25-27-779','PP',$,(#1608));
#1610=PRESENTATION_STYLE_ASSIGNMENT((#1611));
#1611=SURFACE_STYLE_USAGE(.BOTH.,#1612);
#1612=SURFACE_SIDE_STYLE('',(#1613));
#1613=SURFACE_STYLE_FILL_AREA(#1614);
#1614=FILL_AREA_STYLE('Steel - Satin',(#1615));
#1615=FILL_AREA_STYLE_COLOUR('Steel - Satin',#1616);
#1616=COLOUR_RGB('Steel - Satin',0.627450980392157,0.627450980392157,0.627450980392157);
ENDSEC;
END-ISO-10303-21;
