ISO-10303-21;
HEADER;
/* Generated by software containing ST-Developer
 * from STEP Tools, Inc. (www.steptools.com) 
 */

FILE_DESCRIPTION(
/* description */ (''),
/* implementation_level */ '2;1');

FILE_NAME(
/* name */ 'Middle_Lid.step',
/* time_stamp */ '2026-08-25T10:25:35+02:00',
/* author */ (''),
/* organization */ (''),
/* preprocessor_version */ 'ST-DEVELOPER v20.1',
/* originating_system */ 'Autodesk Translation Framework v15.8.0.0',
/* authorisation */ '');

FILE_SCHEMA (('AUTOMOTIVE_DESIGN { 1 0 10303 214 3 1 1 }'));
ENDSEC;

DATA;
#10=MECHANICAL_DESIGN_GEOMETRIC_PRESENTATION_REPRESENTATION('',(#13),#1592);
#11=SHAPE_REPRESENTATION_RELATIONSHIP('SRR','None',#1599,#12);
#12=ADVANCED_BREP_SHAPE_REPRESENTATION('',(#14),#1591);
#13=STYLED_ITEM('',(#1608),#14);
#14=MANIFOLD_SOLID_BREP('Body1',#845);
#15=FACE_BOUND('',#136,.T.);
#16=FACE_BOUND('',#137,.T.);
#17=FACE_BOUND('',#138,.T.);
#18=FACE_BOUND('',#139,.T.);
#19=(
BOUNDED_SURFACE()
B_SPLINE_SURFACE(3,1,((#1334,#1335),(#1336,#1337),(#1338,#1339),(#1340,
#1341)),.UNSPECIFIED.,.F.,.F.,.F.)
B_SPLINE_SURFACE_WITH_KNOTS((4,4),(2,2),(-1.,0.),(-1.1714,1.1714),
 .UNSPECIFIED.)
GEOMETRIC_REPRESENTATION_ITEM()
RATIONAL_B_SPLINE_SURFACE(((1.,1.),(1.,1.),(1.,1.),(1.,1.)))
REPRESENTATION_ITEM('')
SURFACE()
);
#20=B_SPLINE_SURFACE_WITH_KNOTS('',3,3,((#1182,#1183,#1184,#1185),(#1186,
#1187,#1188,#1189),(#1190,#1191,#1192,#1193),(#1194,#1195,#1196,#1197)),
 .UNSPECIFIED.,.F.,.F.,.F.,(4,4),(4,4),(0.564165883268817,1.),(0.514354066789239,
0.761682189157954),.UNSPECIFIED.);
#21=B_SPLINE_SURFACE_WITH_KNOTS('',3,3,((#1371,#1372,#1373,#1374),(#1375,
#1376,#1377,#1378),(#1379,#1380,#1381,#1382),(#1383,#1384,#1385,#1386),
(#1387,#1388,#1389,#1390)),.UNSPECIFIED.,.F.,.F.,.F.,(4,1,4),(4,4),(0.,
0.571428571428571,1.),(0.736151095146035,0.991722044154864),
 .UNSPECIFIED.);
#22=B_SPLINE_SURFACE_WITH_KNOTS('',3,1,((#1462,#1463),(#1464,#1465),(#1466,
#1467),(#1468,#1469),(#1470,#1471),(#1472,#1473)),.UNSPECIFIED.,.F.,.F.,
 .F.,(4,2,4),(2,2),(-0.527538644380444,-0.325869953323594,0.),(0.,2.),
 .UNSPECIFIED.);
#23=B_SPLINE_SURFACE_WITH_KNOTS('',3,1,((#1543,#1544),(#1545,#1546),(#1547,
#1548),(#1549,#1550),(#1551,#1552),(#1553,#1554)),.UNSPECIFIED.,.F.,.F.,
 .F.,(4,2,4),(2,2),(-0.00576227053300463,-0.00288113526650231,0.),(0.,2.),
 .UNSPECIFIED.);
#24=B_SPLINE_SURFACE_WITH_KNOTS('',3,1,((#1559,#1560),(#1561,#1562),(#1563,
#1564),(#1565,#1566),(#1567,#1568),(#1569,#1570),(#1571,#1572),(#1573,#1574)),
 .UNSPECIFIED.,.F.,.F.,.F.,(4,2,2,4),(2,2),(0.,0.210434866816699,0.315652300225049,
0.420869733633399),(0.,2.),.UNSPECIFIED.);
#25=B_SPLINE_SURFACE_WITH_KNOTS('',3,1,((#1577,#1578),(#1579,#1580),(#1581,
#1582),(#1583,#1584),(#1585,#1586),(#1587,#1588)),.UNSPECIFIED.,.F.,.F.,
 .F.,(4,2,4),(2,2),(-0.812875112680623,-0.406437556340311,-0.228745816123401),
(0.,2.),.UNSPECIFIED.);
#26=B_SPLINE_CURVE_WITH_KNOTS('',3,(#1169,#1170,#1171,#1172,#1173,#1174,
#1175,#1176,#1177,#1178,#1179,#1180),.UNSPECIFIED.,.F.,.F.,(4,2,2,2,2,4),
(0.171360600434109,0.243904350334457,0.302526790477324,0.33744077477215,
0.354065868258706,0.369265665430046),.UNSPECIFIED.);
#27=B_SPLINE_CURVE_WITH_KNOTS('',3,(#1199,#1200,#1201,#1202,#1203,#1204),
 .UNSPECIFIED.,.F.,.F.,(4,2,4),(0.157049404912579,0.212392405705218,0.302167381038332),
 .UNSPECIFIED.);
#28=B_SPLINE_CURVE_WITH_KNOTS('',3,(#1205,#1206,#1207,#1208),
 .UNSPECIFIED.,.F.,.F.,(4,4),(-0.761682189157954,-0.514354066789239),
 .UNSPECIFIED.);
#29=B_SPLINE_CURVE_WITH_KNOTS('',3,(#1216,#1217,#1218,#1219),
 .UNSPECIFIED.,.F.,.F.,(4,4),(0.736151095146035,0.765599254509966),
 .UNSPECIFIED.);
#30=B_SPLINE_CURVE_WITH_KNOTS('',3,(#1323,#1324,#1325,#1326,#1327,#1328,
#1329,#1330),.UNSPECIFIED.,.F.,.F.,(4,2,2,4),(0.,0.210434866816699,0.315652300225049,
0.420869733633399),.UNSPECIFIED.);
#31=B_SPLINE_CURVE_WITH_KNOTS('',3,(#1343,#1344,#1345,#1346),
 .UNSPECIFIED.,.F.,.F.,(4,4),(0.05,0.62),.UNSPECIFIED.);
#32=B_SPLINE_CURVE_WITH_KNOTS('',3,(#1348,#1349,#1350,#1351),
 .UNSPECIFIED.,.F.,.F.,(4,4),(-0.991722044154864,-0.744393824836958),
 .UNSPECIFIED.);
#33=B_SPLINE_CURVE_WITH_KNOTS('',3,(#1354,#1355,#1356,#1357,#1358,#1359),
 .UNSPECIFIED.,.F.,.F.,(4,2,4),(-0.527538644380444,-0.325855370439447,0.),
 .UNSPECIFIED.);
#34=B_SPLINE_CURVE_WITH_KNOTS('',3,(#1361,#1362,#1363,#1364),
 .UNSPECIFIED.,.F.,.F.,(4,4),(-0.00576227053300463,0.),.UNSPECIFIED.);
#35=B_SPLINE_CURVE_WITH_KNOTS('',3,(#1365,#1366,#1367,#1368,#1369,#1370),
 .UNSPECIFIED.,.F.,.F.,(4,2,4),(-0.812875112680623,-0.406340360950092,-0.228745816123402),
 .UNSPECIFIED.);
#36=B_SPLINE_CURVE_WITH_KNOTS('',3,(#1391,#1392,#1393,#1394,#1395,#1396,
#1397,#1398,#1399,#1400,#1401,#1402,#1403,#1404,#1405,#1406,#1407,#1408,
#1409,#1410,#1411,#1412,#1413,#1414,#1415,#1416,#1417,#1418,#1419,#1420,
#1421,#1422,#1423,#1424,#1425,#1426,#1427,#1428,#1429,#1430,#1431,#1432,
#1433,#1434,#1435,#1436,#1437,#1438,#1439),.UNSPECIFIED.,.F.,.F.,(4,3,3,
3,3,3,3,3,3,3,3,3,3,3,3,3,4),(0.,0.0178507015058705,0.035982036772546,0.0540624365358811,
0.0585138349319001,0.0766710755854277,0.0946546231979093,0.101336685797212,
0.117073678770395,0.135015288140788,0.153240214716271,0.171448899769549,
0.17572511369875,0.193903346189178,0.206057582703804,0.224003906948557,
0.236393246638151),.UNSPECIFIED.);
#37=B_SPLINE_CURVE_WITH_KNOTS('',3,(#1440,#1441,#1442,#1443,#1444,#1445,
#1446,#1447,#1448,#1449,#1450,#1451,#1452,#1453,#1454,#1455,#1456,#1457),
 .UNSPECIFIED.,.F.,.F.,(4,2,2,2,2,2,2,2,4),(0.,0.00516640080512472,0.0106373527681986,
0.020649579633528,0.0366722198846711,0.0609420760303844,0.101391975235235,
0.119052315595983,0.135243250916834),.UNSPECIFIED.);
#38=B_SPLINE_CURVE_WITH_KNOTS('',3,(#1477,#1478,#1479,#1480,#1481,#1482,
#1483),.UNSPECIFIED.,.F.,.F.,(4,3,4),(0.,0.325869953323594,0.527538644380444),
 .UNSPECIFIED.);
#39=B_SPLINE_CURVE_WITH_KNOTS('',3,(#1495,#1496,#1497,#1498,#1499,#1500,
#1501),.UNSPECIFIED.,.F.,.F.,(4,3,4),(0.228745816123401,0.406437556340311,
0.812875112680623),.UNSPECIFIED.);
#40=B_SPLINE_CURVE_WITH_KNOTS('',3,(#1503,#1504,#1505,#1506,#1507,#1508,
#1509),.UNSPECIFIED.,.F.,.F.,(4,3,4),(0.,0.00288113526650231,0.00576227053300463),
 .UNSPECIFIED.);
#41=B_SPLINE_CURVE_WITH_KNOTS('',3,(#1512,#1513,#1514,#1515,#1516,#1517,
#1518,#1519,#1520,#1521),.UNSPECIFIED.,.F.,.F.,(4,3,3,4),(-0.420869733633399,
-0.315652300225049,-0.210434866816699,0.),.UNSPECIFIED.);
#42=ELLIPSE('',#867,3.60838525725169,3.00000000000057);
#43=ELLIPSE('',#897,3.16164979417808,3.00000000000057);
#44=CYLINDRICAL_SURFACE('',#861,6.);
#45=CYLINDRICAL_SURFACE('',#866,3.00000000000057);
#46=CYLINDRICAL_SURFACE('',#873,2.46299999965987);
#47=CYLINDRICAL_SURFACE('',#889,2.43700000039334);
#48=CYLINDRICAL_SURFACE('',#896,3.00000000000057);
#49=CYLINDRICAL_SURFACE('',#905,1.05);
#50=CYLINDRICAL_SURFACE('',#908,1.05);
#51=CYLINDRICAL_SURFACE('',#911,1.05);
#52=CYLINDRICAL_SURFACE('',#914,8.5);
#53=FACE_OUTER_BOUND('',#100,.T.);
#54=FACE_OUTER_BOUND('',#101,.T.);
#55=FACE_OUTER_BOUND('',#102,.T.);
#56=FACE_OUTER_BOUND('',#103,.T.);
#57=FACE_OUTER_BOUND('',#104,.T.);
#58=FACE_OUTER_BOUND('',#105,.T.);
#59=FACE_OUTER_BOUND('',#106,.T.);
#60=FACE_OUTER_BOUND('',#107,.T.);
#61=FACE_OUTER_BOUND('',#108,.T.);
#62=FACE_OUTER_BOUND('',#109,.T.);
#63=FACE_OUTER_BOUND('',#110,.T.);
#64=FACE_OUTER_BOUND('',#111,.T.);
#65=FACE_OUTER_BOUND('',#112,.T.);
#66=FACE_OUTER_BOUND('',#113,.T.);
#67=FACE_OUTER_BOUND('',#114,.T.);
#68=FACE_OUTER_BOUND('',#115,.T.);
#69=FACE_OUTER_BOUND('',#116,.T.);
#70=FACE_OUTER_BOUND('',#117,.T.);
#71=FACE_OUTER_BOUND('',#118,.T.);
#72=FACE_OUTER_BOUND('',#119,.T.);
#73=FACE_OUTER_BOUND('',#120,.T.);
#74=FACE_OUTER_BOUND('',#121,.T.);
#75=FACE_OUTER_BOUND('',#122,.T.);
#76=FACE_OUTER_BOUND('',#123,.T.);
#77=FACE_OUTER_BOUND('',#124,.T.);
#78=FACE_OUTER_BOUND('',#125,.T.);
#79=FACE_OUTER_BOUND('',#126,.T.);
#80=FACE_OUTER_BOUND('',#127,.T.);
#81=FACE_OUTER_BOUND('',#128,.T.);
#82=FACE_OUTER_BOUND('',#129,.T.);
#83=FACE_OUTER_BOUND('',#130,.T.);
#84=FACE_OUTER_BOUND('',#131,.T.);
#85=FACE_OUTER_BOUND('',#132,.T.);
#86=FACE_OUTER_BOUND('',#133,.T.);
#87=FACE_OUTER_BOUND('',#134,.T.);
#88=FACE_OUTER_BOUND('',#135,.T.);
#89=FACE_OUTER_BOUND('',#140,.T.);
#90=FACE_OUTER_BOUND('',#141,.T.);
#91=FACE_OUTER_BOUND('',#142,.T.);
#92=FACE_OUTER_BOUND('',#143,.T.);
#93=FACE_OUTER_BOUND('',#144,.T.);
#94=FACE_OUTER_BOUND('',#145,.T.);
#95=FACE_OUTER_BOUND('',#146,.T.);
#96=FACE_OUTER_BOUND('',#147,.T.);
#97=FACE_OUTER_BOUND('',#148,.T.);
#98=FACE_OUTER_BOUND('',#149,.T.);
#99=FACE_OUTER_BOUND('',#150,.T.);
#100=EDGE_LOOP('',(#531,#532,#533,#534));
#101=EDGE_LOOP('',(#535,#536,#537,#538));
#102=EDGE_LOOP('',(#539,#540,#541,#542));
#103=EDGE_LOOP('',(#543,#544,#545,#546,#547,#548,#549,#550));
#104=EDGE_LOOP('',(#551,#552,#553,#554,#555,#556,#557,#558));
#105=EDGE_LOOP('',(#559,#560,#561));
#106=EDGE_LOOP('',(#562,#563,#564));
#107=EDGE_LOOP('',(#565,#566,#567,#568));
#108=EDGE_LOOP('',(#569,#570,#571,#572));
#109=EDGE_LOOP('',(#573,#574,#575,#576));
#110=EDGE_LOOP('',(#577,#578,#579,#580));
#111=EDGE_LOOP('',(#581,#582,#583,#584));
#112=EDGE_LOOP('',(#585,#586,#587,#588,#589,#590,#591,#592));
#113=EDGE_LOOP('',(#593,#594,#595,#596,#597,#598,#599,#600));
#114=EDGE_LOOP('',(#601,#602,#603,#604));
#115=EDGE_LOOP('',(#605,#606,#607,#608,#609,#610,#611,#612,#613,#614,#615,
#616,#617,#618,#619,#620));
#116=EDGE_LOOP('',(#621,#622,#623,#624));
#117=EDGE_LOOP('',(#625,#626,#627,#628));
#118=EDGE_LOOP('',(#629,#630,#631,#632));
#119=EDGE_LOOP('',(#633,#634,#635,#636));
#120=EDGE_LOOP('',(#637,#638,#639,#640));
#121=EDGE_LOOP('',(#641,#642,#643,#644));
#122=EDGE_LOOP('',(#645,#646,#647,#648));
#123=EDGE_LOOP('',(#649,#650,#651,#652,#653,#654,#655,#656));
#124=EDGE_LOOP('',(#657,#658,#659,#660));
#125=EDGE_LOOP('',(#661,#662,#663,#664));
#126=EDGE_LOOP('',(#665,#666,#667,#668));
#127=EDGE_LOOP('',(#669,#670,#671,#672));
#128=EDGE_LOOP('',(#673,#674,#675));
#129=EDGE_LOOP('',(#676,#677,#678,#679,#680,#681,#682,#683,#684));
#130=EDGE_LOOP('',(#685,#686,#687,#688));
#131=EDGE_LOOP('',(#689,#690,#691,#692,#693));
#132=EDGE_LOOP('',(#694,#695,#696,#697));
#133=EDGE_LOOP('',(#698,#699,#700));
#134=EDGE_LOOP('',(#701,#702,#703,#704,#705));
#135=EDGE_LOOP('',(#706,#707,#708,#709,#710,#711,#712,#713,#714,#715));
#136=EDGE_LOOP('',(#716,#717,#718,#719,#720,#721,#722,#723,#724,#725,#726,
#727));
#137=EDGE_LOOP('',(#728));
#138=EDGE_LOOP('',(#729));
#139=EDGE_LOOP('',(#730));
#140=EDGE_LOOP('',(#731,#732,#733,#734));
#141=EDGE_LOOP('',(#735));
#142=EDGE_LOOP('',(#736,#737,#738,#739));
#143=EDGE_LOOP('',(#740));
#144=EDGE_LOOP('',(#741,#742,#743,#744));
#145=EDGE_LOOP('',(#745));
#146=EDGE_LOOP('',(#746,#747,#748,#749));
#147=EDGE_LOOP('',(#750,#751,#752,#753));
#148=EDGE_LOOP('',(#754,#755,#756,#757));
#149=EDGE_LOOP('',(#758,#759,#760,#761,#762));
#150=EDGE_LOOP('',(#763,#764,#765,#766));
#151=CIRCLE('',#860,6.);
#152=CIRCLE('',#862,6.);
#153=CIRCLE('',#869,3.00000000000057);
#154=CIRCLE('',#874,2.46299999965987);
#155=CIRCLE('',#875,2.46299999965987);
#156=CIRCLE('',#880,2.43700000039334);
#157=CIRCLE('',#890,2.43700000039334);
#158=CIRCLE('',#895,8.5);
#159=CIRCLE('',#901,8.5);
#160=CIRCLE('',#902,1.05);
#161=CIRCLE('',#903,1.05);
#162=CIRCLE('',#904,1.05);
#163=CIRCLE('',#906,1.05);
#164=CIRCLE('',#909,1.05);
#165=CIRCLE('',#912,1.05);
#166=LINE('',#1121,#251);
#167=LINE('',#1125,#252);
#168=LINE('',#1126,#253);
#169=LINE('',#1129,#254);
#170=LINE('',#1132,#255);
#171=LINE('',#1135,#256);
#172=LINE('',#1137,#257);
#173=LINE('',#1138,#258);
#174=LINE('',#1141,#259);
#175=LINE('',#1142,#260);
#176=LINE('',#1144,#261);
#177=LINE('',#1146,#262);
#178=LINE('',#1148,#263);
#179=LINE('',#1149,#264);
#180=LINE('',#1152,#265);
#181=LINE('',#1154,#266);
#182=LINE('',#1156,#267);
#183=LINE('',#1158,#268);
#184=LINE('',#1160,#269);
#185=LINE('',#1162,#270);
#186=LINE('',#1163,#271);
#187=LINE('',#1181,#272);
#188=LINE('',#1212,#273);
#189=LINE('',#1220,#274);
#190=LINE('',#1224,#275);
#191=LINE('',#1225,#276);
#192=LINE('',#1228,#277);
#193=LINE('',#1229,#278);
#194=LINE('',#1234,#279);
#195=LINE('',#1238,#280);
#196=LINE('',#1240,#281);
#197=LINE('',#1242,#282);
#198=LINE('',#1244,#283);
#199=LINE('',#1245,#284);
#200=LINE('',#1248,#285);
#201=LINE('',#1250,#286);
#202=LINE('',#1252,#287);
#203=LINE('',#1254,#288);
#204=LINE('',#1255,#289);
#205=LINE('',#1256,#290);
#206=LINE('',#1260,#291);
#207=LINE('',#1262,#292);
#208=LINE('',#1264,#293);
#209=LINE('',#1266,#294);
#210=LINE('',#1268,#295);
#211=LINE('',#1270,#296);
#212=LINE('',#1271,#297);
#213=LINE('',#1273,#298);
#214=LINE('',#1275,#299);
#215=LINE('',#1277,#300);
#216=LINE('',#1281,#301);
#217=LINE('',#1283,#302);
#218=LINE('',#1284,#303);
#219=LINE('',#1287,#304);
#220=LINE('',#1288,#305);
#221=LINE('',#1291,#306);
#222=LINE('',#1292,#307);
#223=LINE('',#1294,#308);
#224=LINE('',#1297,#309);
#225=LINE('',#1298,#310);
#226=LINE('',#1301,#311);
#227=LINE('',#1302,#312);
#228=LINE('',#1304,#313);
#229=LINE('',#1309,#314);
#230=LINE('',#1312,#315);
#231=LINE('',#1313,#316);
#232=LINE('',#1316,#317);
#233=LINE('',#1317,#318);
#234=LINE('',#1319,#319);
#235=LINE('',#1333,#320);
#236=LINE('',#1353,#321);
#237=LINE('',#1461,#322);
#238=LINE('',#1475,#323);
#239=LINE('',#1484,#324);
#240=LINE('',#1486,#325);
#241=LINE('',#1489,#326);
#242=LINE('',#1490,#327);
#243=LINE('',#1493,#328);
#244=LINE('',#1531,#329);
#245=LINE('',#1536,#330);
#246=LINE('',#1541,#331);
#247=LINE('',#1555,#332);
#248=LINE('',#1556,#333);
#249=LINE('',#1558,#334);
#250=LINE('',#1576,#335);
#251=VECTOR('',#920,10.);
#252=VECTOR('',#923,10.);
#253=VECTOR('',#924,10.);
#254=VECTOR('',#927,10.);
#255=VECTOR('',#930,10.);
#256=VECTOR('',#933,10.);
#257=VECTOR('',#934,10.);
#258=VECTOR('',#935,10.);
#259=VECTOR('',#938,10.);
#260=VECTOR('',#939,10.);
#261=VECTOR('',#940,10.);
#262=VECTOR('',#941,10.);
#263=VECTOR('',#942,10.);
#264=VECTOR('',#943,10.);
#265=VECTOR('',#946,10.);
#266=VECTOR('',#947,10.);
#267=VECTOR('',#948,10.);
#268=VECTOR('',#949,10.);
#269=VECTOR('',#950,10.);
#270=VECTOR('',#951,10.);
#271=VECTOR('',#952,10.);
#272=VECTOR('',#957,3.00000000000057);
#273=VECTOR('',#960,10.);
#274=VECTOR('',#963,10.);
#275=VECTOR('',#968,10.);
#276=VECTOR('',#969,10.);
#277=VECTOR('',#972,10.);
#278=VECTOR('',#973,10.);
#279=VECTOR('',#978,10.);
#280=VECTOR('',#983,10.);
#281=VECTOR('',#984,10.);
#282=VECTOR('',#985,10.);
#283=VECTOR('',#986,10.);
#284=VECTOR('',#987,10.);
#285=VECTOR('',#990,10.);
#286=VECTOR('',#991,10.);
#287=VECTOR('',#992,10.);
#288=VECTOR('',#993,10.);
#289=VECTOR('',#994,10.);
#290=VECTOR('',#995,10.);
#291=VECTOR('',#1000,10.);
#292=VECTOR('',#1001,10.);
#293=VECTOR('',#1002,10.);
#294=VECTOR('',#1003,10.);
#295=VECTOR('',#1004,10.);
#296=VECTOR('',#1005,10.);
#297=VECTOR('',#1006,10.);
#298=VECTOR('',#1007,10.);
#299=VECTOR('',#1008,10.);
#300=VECTOR('',#1009,10.);
#301=VECTOR('',#1014,10.);
#302=VECTOR('',#1015,10.);
#303=VECTOR('',#1016,10.);
#304=VECTOR('',#1019,10.);
#305=VECTOR('',#1020,10.);
#306=VECTOR('',#1023,10.);
#307=VECTOR('',#1024,10.);
#308=VECTOR('',#1027,10.);
#309=VECTOR('',#1030,10.);
#310=VECTOR('',#1031,10.);
#311=VECTOR('',#1034,10.);
#312=VECTOR('',#1035,10.);
#313=VECTOR('',#1038,10.);
#314=VECTOR('',#1045,10.);
#315=VECTOR('',#1048,10.);
#316=VECTOR('',#1049,10.);
#317=VECTOR('',#1052,10.);
#318=VECTOR('',#1053,10.);
#319=VECTOR('',#1056,10.);
#320=VECTOR('',#1061,10.);
#321=VECTOR('',#1062,3.00000000000057);
#322=VECTOR('',#1067,10.);
#323=VECTOR('',#1068,10.);
#324=VECTOR('',#1069,10.);
#325=VECTOR('',#1072,10.);
#326=VECTOR('',#1075,10.);
#327=VECTOR('',#1076,10.);
#328=VECTOR('',#1079,10.);
#329=VECTOR('',#1092,1.05);
#330=VECTOR('',#1099,1.05);
#331=VECTOR('',#1106,1.05);
#332=VECTOR('',#1109,10.);
#333=VECTOR('',#1110,10.);
#334=VECTOR('',#1113,10.);
#335=VECTOR('',#1116,10.);
#336=VERTEX_POINT('',#1119);
#337=VERTEX_POINT('',#1120);
#338=VERTEX_POINT('',#1122);
#339=VERTEX_POINT('',#1124);
#340=VERTEX_POINT('',#1128);
#341=VERTEX_POINT('',#1130);
#342=VERTEX_POINT('',#1134);
#343=VERTEX_POINT('',#1136);
#344=VERTEX_POINT('',#1140);
#345=VERTEX_POINT('',#1143);
#346=VERTEX_POINT('',#1145);
#347=VERTEX_POINT('',#1147);
#348=VERTEX_POINT('',#1151);
#349=VERTEX_POINT('',#1153);
#350=VERTEX_POINT('',#1155);
#351=VERTEX_POINT('',#1157);
#352=VERTEX_POINT('',#1159);
#353=VERTEX_POINT('',#1161);
#354=VERTEX_POINT('',#1165);
#355=VERTEX_POINT('',#1166);
#356=VERTEX_POINT('',#1168);
#357=VERTEX_POINT('',#1198);
#358=VERTEX_POINT('',#1210);
#359=VERTEX_POINT('',#1211);
#360=VERTEX_POINT('',#1213);
#361=VERTEX_POINT('',#1215);
#362=VERTEX_POINT('',#1223);
#363=VERTEX_POINT('',#1227);
#364=VERTEX_POINT('',#1231);
#365=VERTEX_POINT('',#1233);
#366=VERTEX_POINT('',#1237);
#367=VERTEX_POINT('',#1239);
#368=VERTEX_POINT('',#1241);
#369=VERTEX_POINT('',#1243);
#370=VERTEX_POINT('',#1247);
#371=VERTEX_POINT('',#1249);
#372=VERTEX_POINT('',#1251);
#373=VERTEX_POINT('',#1253);
#374=VERTEX_POINT('',#1259);
#375=VERTEX_POINT('',#1261);
#376=VERTEX_POINT('',#1263);
#377=VERTEX_POINT('',#1265);
#378=VERTEX_POINT('',#1267);
#379=VERTEX_POINT('',#1269);
#380=VERTEX_POINT('',#1272);
#381=VERTEX_POINT('',#1274);
#382=VERTEX_POINT('',#1276);
#383=VERTEX_POINT('',#1280);
#384=VERTEX_POINT('',#1282);
#385=VERTEX_POINT('',#1286);
#386=VERTEX_POINT('',#1290);
#387=VERTEX_POINT('',#1296);
#388=VERTEX_POINT('',#1300);
#389=VERTEX_POINT('',#1307);
#390=VERTEX_POINT('',#1311);
#391=VERTEX_POINT('',#1315);
#392=VERTEX_POINT('',#1321);
#393=VERTEX_POINT('',#1322);
#394=VERTEX_POINT('',#1331);
#395=VERTEX_POINT('',#1342);
#396=VERTEX_POINT('',#1347);
#397=VERTEX_POINT('',#1352);
#398=VERTEX_POINT('',#1360);
#399=VERTEX_POINT('',#1459);
#400=VERTEX_POINT('',#1474);
#401=VERTEX_POINT('',#1476);
#402=VERTEX_POINT('',#1488);
#403=VERTEX_POINT('',#1492);
#404=VERTEX_POINT('',#1494);
#405=VERTEX_POINT('',#1502);
#406=VERTEX_POINT('',#1510);
#407=VERTEX_POINT('',#1522);
#408=VERTEX_POINT('',#1524);
#409=VERTEX_POINT('',#1526);
#410=VERTEX_POINT('',#1529);
#411=VERTEX_POINT('',#1534);
#412=VERTEX_POINT('',#1539);
#413=EDGE_CURVE('',#336,#337,#166,.T.);
#414=EDGE_CURVE('',#338,#337,#151,.T.);
#415=EDGE_CURVE('',#339,#338,#167,.T.);
#416=EDGE_CURVE('',#336,#339,#168,.T.);
#417=EDGE_CURVE('',#337,#340,#169,.T.);
#418=EDGE_CURVE('',#340,#341,#152,.T.);
#419=EDGE_CURVE('',#341,#338,#170,.T.);
#420=EDGE_CURVE('',#340,#342,#171,.T.);
#421=EDGE_CURVE('',#343,#342,#172,.T.);
#422=EDGE_CURVE('',#341,#343,#173,.T.);
#423=EDGE_CURVE('',#344,#336,#174,.T.);
#424=EDGE_CURVE('',#339,#343,#175,.T.);
#425=EDGE_CURVE('',#342,#345,#176,.T.);
#426=EDGE_CURVE('',#346,#345,#177,.T.);
#427=EDGE_CURVE('',#346,#347,#178,.T.);
#428=EDGE_CURVE('',#347,#344,#179,.T.);
#429=EDGE_CURVE('',#345,#348,#180,.T.);
#430=EDGE_CURVE('',#349,#348,#181,.T.);
#431=EDGE_CURVE('',#350,#349,#182,.T.);
#432=EDGE_CURVE('',#351,#350,#183,.T.);
#433=EDGE_CURVE('',#351,#352,#184,.T.);
#434=EDGE_CURVE('',#353,#352,#185,.T.);
#435=EDGE_CURVE('',#353,#346,#186,.T.);
#436=EDGE_CURVE('',#354,#355,#42,.T.);
#437=EDGE_CURVE('',#356,#355,#26,.F.);
#438=EDGE_CURVE('',#354,#356,#187,.T.);
#439=EDGE_CURVE('',#355,#357,#27,.T.);
#440=EDGE_CURVE('',#357,#356,#28,.T.);
#441=EDGE_CURVE('',#358,#359,#188,.T.);
#442=EDGE_CURVE('',#360,#359,#153,.T.);
#443=EDGE_CURVE('',#361,#360,#29,.T.);
#444=EDGE_CURVE('',#361,#358,#189,.T.);
#445=EDGE_CURVE('',#347,#362,#190,.T.);
#446=EDGE_CURVE('',#362,#353,#191,.T.);
#447=EDGE_CURVE('',#352,#363,#192,.T.);
#448=EDGE_CURVE('',#363,#362,#193,.T.);
#449=EDGE_CURVE('',#348,#364,#154,.T.);
#450=EDGE_CURVE('',#364,#365,#194,.T.);
#451=EDGE_CURVE('',#365,#349,#155,.T.);
#452=EDGE_CURVE('',#366,#344,#195,.T.);
#453=EDGE_CURVE('',#363,#367,#196,.T.);
#454=EDGE_CURVE('',#367,#368,#197,.T.);
#455=EDGE_CURVE('',#369,#368,#198,.T.);
#456=EDGE_CURVE('',#366,#369,#199,.T.);
#457=EDGE_CURVE('',#370,#350,#200,.T.);
#458=EDGE_CURVE('',#370,#371,#201,.T.);
#459=EDGE_CURVE('',#371,#372,#202,.T.);
#460=EDGE_CURVE('',#373,#372,#203,.T.);
#461=EDGE_CURVE('',#368,#373,#204,.T.);
#462=EDGE_CURVE('',#367,#351,#205,.T.);
#463=EDGE_CURVE('',#373,#374,#206,.T.);
#464=EDGE_CURVE('',#374,#375,#207,.T.);
#465=EDGE_CURVE('',#375,#376,#208,.T.);
#466=EDGE_CURVE('',#376,#377,#209,.T.);
#467=EDGE_CURVE('',#377,#378,#210,.T.);
#468=EDGE_CURVE('',#378,#379,#211,.T.);
#469=EDGE_CURVE('',#379,#370,#212,.T.);
#470=EDGE_CURVE('',#380,#365,#213,.T.);
#471=EDGE_CURVE('',#381,#380,#214,.T.);
#472=EDGE_CURVE('',#382,#381,#215,.T.);
#473=EDGE_CURVE('',#369,#382,#156,.T.);
#474=EDGE_CURVE('',#376,#383,#216,.T.);
#475=EDGE_CURVE('',#383,#384,#217,.T.);
#476=EDGE_CURVE('',#377,#384,#218,.T.);
#477=EDGE_CURVE('',#384,#385,#219,.T.);
#478=EDGE_CURVE('',#378,#385,#220,.T.);
#479=EDGE_CURVE('',#385,#386,#221,.T.);
#480=EDGE_CURVE('',#379,#386,#222,.T.);
#481=EDGE_CURVE('',#386,#371,#223,.T.);
#482=EDGE_CURVE('',#375,#387,#224,.T.);
#483=EDGE_CURVE('',#387,#383,#225,.T.);
#484=EDGE_CURVE('',#374,#388,#226,.T.);
#485=EDGE_CURVE('',#388,#387,#227,.T.);
#486=EDGE_CURVE('',#372,#388,#228,.T.);
#487=EDGE_CURVE('',#389,#366,#157,.T.);
#488=EDGE_CURVE('',#382,#389,#229,.T.);
#489=EDGE_CURVE('',#390,#389,#230,.T.);
#490=EDGE_CURVE('',#381,#390,#231,.T.);
#491=EDGE_CURVE('',#391,#390,#232,.T.);
#492=EDGE_CURVE('',#380,#391,#233,.T.);
#493=EDGE_CURVE('',#364,#391,#234,.T.);
#494=EDGE_CURVE('',#392,#393,#30,.T.);
#495=EDGE_CURVE('',#393,#394,#158,.T.);
#496=EDGE_CURVE('',#394,#392,#235,.T.);
#497=EDGE_CURVE('',#357,#395,#31,.T.);
#498=EDGE_CURVE('',#396,#395,#32,.T.);
#499=EDGE_CURVE('',#396,#397,#236,.T.);
#500=EDGE_CURVE('',#397,#392,#33,.T.);
#501=EDGE_CURVE('',#394,#398,#34,.T.);
#502=EDGE_CURVE('',#398,#354,#35,.T.);
#503=EDGE_CURVE('',#395,#361,#36,.T.);
#504=EDGE_CURVE('',#360,#396,#37,.F.);
#505=EDGE_CURVE('',#399,#397,#43,.T.);
#506=EDGE_CURVE('',#359,#399,#237,.T.);
#507=EDGE_CURVE('',#400,#397,#238,.T.);
#508=EDGE_CURVE('',#401,#400,#38,.T.);
#509=EDGE_CURVE('',#401,#392,#239,.T.);
#510=EDGE_CURVE('',#400,#399,#240,.T.);
#511=EDGE_CURVE('',#402,#357,#241,.T.);
#512=EDGE_CURVE('',#402,#358,#242,.T.);
#513=EDGE_CURVE('',#403,#402,#243,.T.);
#514=EDGE_CURVE('',#403,#404,#39,.T.);
#515=EDGE_CURVE('',#404,#405,#40,.T.);
#516=EDGE_CURVE('',#405,#406,#159,.T.);
#517=EDGE_CURVE('',#406,#401,#41,.T.);
#518=EDGE_CURVE('',#407,#407,#160,.T.);
#519=EDGE_CURVE('',#408,#408,#161,.T.);
#520=EDGE_CURVE('',#409,#409,#162,.T.);
#521=EDGE_CURVE('',#410,#410,#163,.T.);
#522=EDGE_CURVE('',#410,#407,#244,.T.);
#523=EDGE_CURVE('',#411,#411,#164,.T.);
#524=EDGE_CURVE('',#411,#408,#245,.T.);
#525=EDGE_CURVE('',#412,#412,#165,.T.);
#526=EDGE_CURVE('',#412,#409,#246,.T.);
#527=EDGE_CURVE('',#405,#394,#247,.T.);
#528=EDGE_CURVE('',#404,#398,#248,.T.);
#529=EDGE_CURVE('',#406,#393,#249,.T.);
#530=EDGE_CURVE('',#403,#354,#250,.T.);
#531=ORIENTED_EDGE('',*,*,#413,.T.);
#532=ORIENTED_EDGE('',*,*,#414,.F.);
#533=ORIENTED_EDGE('',*,*,#415,.F.);
#534=ORIENTED_EDGE('',*,*,#416,.F.);
#535=ORIENTED_EDGE('',*,*,#417,.T.);
#536=ORIENTED_EDGE('',*,*,#418,.T.);
#537=ORIENTED_EDGE('',*,*,#419,.T.);
#538=ORIENTED_EDGE('',*,*,#414,.T.);
#539=ORIENTED_EDGE('',*,*,#420,.T.);
#540=ORIENTED_EDGE('',*,*,#421,.F.);
#541=ORIENTED_EDGE('',*,*,#422,.F.);
#542=ORIENTED_EDGE('',*,*,#418,.F.);
#543=ORIENTED_EDGE('',*,*,#423,.T.);
#544=ORIENTED_EDGE('',*,*,#416,.T.);
#545=ORIENTED_EDGE('',*,*,#424,.T.);
#546=ORIENTED_EDGE('',*,*,#421,.T.);
#547=ORIENTED_EDGE('',*,*,#425,.T.);
#548=ORIENTED_EDGE('',*,*,#426,.F.);
#549=ORIENTED_EDGE('',*,*,#427,.T.);
#550=ORIENTED_EDGE('',*,*,#428,.T.);
#551=ORIENTED_EDGE('',*,*,#429,.T.);
#552=ORIENTED_EDGE('',*,*,#430,.F.);
#553=ORIENTED_EDGE('',*,*,#431,.F.);
#554=ORIENTED_EDGE('',*,*,#432,.F.);
#555=ORIENTED_EDGE('',*,*,#433,.T.);
#556=ORIENTED_EDGE('',*,*,#434,.F.);
#557=ORIENTED_EDGE('',*,*,#435,.T.);
#558=ORIENTED_EDGE('',*,*,#426,.T.);
#559=ORIENTED_EDGE('',*,*,#436,.T.);
#560=ORIENTED_EDGE('',*,*,#437,.F.);
#561=ORIENTED_EDGE('',*,*,#438,.F.);
#562=ORIENTED_EDGE('',*,*,#439,.T.);
#563=ORIENTED_EDGE('',*,*,#440,.T.);
#564=ORIENTED_EDGE('',*,*,#437,.T.);
#565=ORIENTED_EDGE('',*,*,#441,.T.);
#566=ORIENTED_EDGE('',*,*,#442,.F.);
#567=ORIENTED_EDGE('',*,*,#443,.F.);
#568=ORIENTED_EDGE('',*,*,#444,.T.);
#569=ORIENTED_EDGE('',*,*,#419,.F.);
#570=ORIENTED_EDGE('',*,*,#422,.T.);
#571=ORIENTED_EDGE('',*,*,#424,.F.);
#572=ORIENTED_EDGE('',*,*,#415,.T.);
#573=ORIENTED_EDGE('',*,*,#445,.F.);
#574=ORIENTED_EDGE('',*,*,#427,.F.);
#575=ORIENTED_EDGE('',*,*,#435,.F.);
#576=ORIENTED_EDGE('',*,*,#446,.F.);
#577=ORIENTED_EDGE('',*,*,#446,.T.);
#578=ORIENTED_EDGE('',*,*,#434,.T.);
#579=ORIENTED_EDGE('',*,*,#447,.T.);
#580=ORIENTED_EDGE('',*,*,#448,.T.);
#581=ORIENTED_EDGE('',*,*,#449,.T.);
#582=ORIENTED_EDGE('',*,*,#450,.T.);
#583=ORIENTED_EDGE('',*,*,#451,.T.);
#584=ORIENTED_EDGE('',*,*,#430,.T.);
#585=ORIENTED_EDGE('',*,*,#452,.T.);
#586=ORIENTED_EDGE('',*,*,#428,.F.);
#587=ORIENTED_EDGE('',*,*,#445,.T.);
#588=ORIENTED_EDGE('',*,*,#448,.F.);
#589=ORIENTED_EDGE('',*,*,#453,.T.);
#590=ORIENTED_EDGE('',*,*,#454,.T.);
#591=ORIENTED_EDGE('',*,*,#455,.F.);
#592=ORIENTED_EDGE('',*,*,#456,.F.);
#593=ORIENTED_EDGE('',*,*,#457,.F.);
#594=ORIENTED_EDGE('',*,*,#458,.T.);
#595=ORIENTED_EDGE('',*,*,#459,.T.);
#596=ORIENTED_EDGE('',*,*,#460,.F.);
#597=ORIENTED_EDGE('',*,*,#461,.F.);
#598=ORIENTED_EDGE('',*,*,#454,.F.);
#599=ORIENTED_EDGE('',*,*,#462,.T.);
#600=ORIENTED_EDGE('',*,*,#432,.T.);
#601=ORIENTED_EDGE('',*,*,#433,.F.);
#602=ORIENTED_EDGE('',*,*,#462,.F.);
#603=ORIENTED_EDGE('',*,*,#453,.F.);
#604=ORIENTED_EDGE('',*,*,#447,.F.);
#605=ORIENTED_EDGE('',*,*,#455,.T.);
#606=ORIENTED_EDGE('',*,*,#461,.T.);
#607=ORIENTED_EDGE('',*,*,#463,.T.);
#608=ORIENTED_EDGE('',*,*,#464,.T.);
#609=ORIENTED_EDGE('',*,*,#465,.T.);
#610=ORIENTED_EDGE('',*,*,#466,.T.);
#611=ORIENTED_EDGE('',*,*,#467,.T.);
#612=ORIENTED_EDGE('',*,*,#468,.T.);
#613=ORIENTED_EDGE('',*,*,#469,.T.);
#614=ORIENTED_EDGE('',*,*,#457,.T.);
#615=ORIENTED_EDGE('',*,*,#431,.T.);
#616=ORIENTED_EDGE('',*,*,#451,.F.);
#617=ORIENTED_EDGE('',*,*,#470,.F.);
#618=ORIENTED_EDGE('',*,*,#471,.F.);
#619=ORIENTED_EDGE('',*,*,#472,.F.);
#620=ORIENTED_EDGE('',*,*,#473,.F.);
#621=ORIENTED_EDGE('',*,*,#466,.F.);
#622=ORIENTED_EDGE('',*,*,#474,.T.);
#623=ORIENTED_EDGE('',*,*,#475,.T.);
#624=ORIENTED_EDGE('',*,*,#476,.F.);
#625=ORIENTED_EDGE('',*,*,#467,.F.);
#626=ORIENTED_EDGE('',*,*,#476,.T.);
#627=ORIENTED_EDGE('',*,*,#477,.T.);
#628=ORIENTED_EDGE('',*,*,#478,.F.);
#629=ORIENTED_EDGE('',*,*,#468,.F.);
#630=ORIENTED_EDGE('',*,*,#478,.T.);
#631=ORIENTED_EDGE('',*,*,#479,.T.);
#632=ORIENTED_EDGE('',*,*,#480,.F.);
#633=ORIENTED_EDGE('',*,*,#469,.F.);
#634=ORIENTED_EDGE('',*,*,#480,.T.);
#635=ORIENTED_EDGE('',*,*,#481,.T.);
#636=ORIENTED_EDGE('',*,*,#458,.F.);
#637=ORIENTED_EDGE('',*,*,#465,.F.);
#638=ORIENTED_EDGE('',*,*,#482,.T.);
#639=ORIENTED_EDGE('',*,*,#483,.T.);
#640=ORIENTED_EDGE('',*,*,#474,.F.);
#641=ORIENTED_EDGE('',*,*,#464,.F.);
#642=ORIENTED_EDGE('',*,*,#484,.T.);
#643=ORIENTED_EDGE('',*,*,#485,.T.);
#644=ORIENTED_EDGE('',*,*,#482,.F.);
#645=ORIENTED_EDGE('',*,*,#463,.F.);
#646=ORIENTED_EDGE('',*,*,#460,.T.);
#647=ORIENTED_EDGE('',*,*,#486,.T.);
#648=ORIENTED_EDGE('',*,*,#484,.F.);
#649=ORIENTED_EDGE('',*,*,#486,.F.);
#650=ORIENTED_EDGE('',*,*,#459,.F.);
#651=ORIENTED_EDGE('',*,*,#481,.F.);
#652=ORIENTED_EDGE('',*,*,#479,.F.);
#653=ORIENTED_EDGE('',*,*,#477,.F.);
#654=ORIENTED_EDGE('',*,*,#475,.F.);
#655=ORIENTED_EDGE('',*,*,#483,.F.);
#656=ORIENTED_EDGE('',*,*,#485,.F.);
#657=ORIENTED_EDGE('',*,*,#487,.T.);
#658=ORIENTED_EDGE('',*,*,#456,.T.);
#659=ORIENTED_EDGE('',*,*,#473,.T.);
#660=ORIENTED_EDGE('',*,*,#488,.T.);
#661=ORIENTED_EDGE('',*,*,#489,.T.);
#662=ORIENTED_EDGE('',*,*,#488,.F.);
#663=ORIENTED_EDGE('',*,*,#472,.T.);
#664=ORIENTED_EDGE('',*,*,#490,.T.);
#665=ORIENTED_EDGE('',*,*,#491,.T.);
#666=ORIENTED_EDGE('',*,*,#490,.F.);
#667=ORIENTED_EDGE('',*,*,#471,.T.);
#668=ORIENTED_EDGE('',*,*,#492,.T.);
#669=ORIENTED_EDGE('',*,*,#493,.T.);
#670=ORIENTED_EDGE('',*,*,#492,.F.);
#671=ORIENTED_EDGE('',*,*,#470,.T.);
#672=ORIENTED_EDGE('',*,*,#450,.F.);
#673=ORIENTED_EDGE('',*,*,#494,.T.);
#674=ORIENTED_EDGE('',*,*,#495,.T.);
#675=ORIENTED_EDGE('',*,*,#496,.T.);
#676=ORIENTED_EDGE('',*,*,#497,.T.);
#677=ORIENTED_EDGE('',*,*,#498,.F.);
#678=ORIENTED_EDGE('',*,*,#499,.T.);
#679=ORIENTED_EDGE('',*,*,#500,.T.);
#680=ORIENTED_EDGE('',*,*,#496,.F.);
#681=ORIENTED_EDGE('',*,*,#501,.T.);
#682=ORIENTED_EDGE('',*,*,#502,.T.);
#683=ORIENTED_EDGE('',*,*,#438,.T.);
#684=ORIENTED_EDGE('',*,*,#440,.F.);
#685=ORIENTED_EDGE('',*,*,#503,.T.);
#686=ORIENTED_EDGE('',*,*,#443,.T.);
#687=ORIENTED_EDGE('',*,*,#504,.T.);
#688=ORIENTED_EDGE('',*,*,#498,.T.);
#689=ORIENTED_EDGE('',*,*,#505,.T.);
#690=ORIENTED_EDGE('',*,*,#499,.F.);
#691=ORIENTED_EDGE('',*,*,#504,.F.);
#692=ORIENTED_EDGE('',*,*,#442,.T.);
#693=ORIENTED_EDGE('',*,*,#506,.T.);
#694=ORIENTED_EDGE('',*,*,#500,.F.);
#695=ORIENTED_EDGE('',*,*,#507,.F.);
#696=ORIENTED_EDGE('',*,*,#508,.F.);
#697=ORIENTED_EDGE('',*,*,#509,.T.);
#698=ORIENTED_EDGE('',*,*,#505,.F.);
#699=ORIENTED_EDGE('',*,*,#510,.F.);
#700=ORIENTED_EDGE('',*,*,#507,.T.);
#701=ORIENTED_EDGE('',*,*,#444,.F.);
#702=ORIENTED_EDGE('',*,*,#503,.F.);
#703=ORIENTED_EDGE('',*,*,#497,.F.);
#704=ORIENTED_EDGE('',*,*,#511,.F.);
#705=ORIENTED_EDGE('',*,*,#512,.T.);
#706=ORIENTED_EDGE('',*,*,#506,.F.);
#707=ORIENTED_EDGE('',*,*,#441,.F.);
#708=ORIENTED_EDGE('',*,*,#512,.F.);
#709=ORIENTED_EDGE('',*,*,#513,.F.);
#710=ORIENTED_EDGE('',*,*,#514,.T.);
#711=ORIENTED_EDGE('',*,*,#515,.T.);
#712=ORIENTED_EDGE('',*,*,#516,.T.);
#713=ORIENTED_EDGE('',*,*,#517,.T.);
#714=ORIENTED_EDGE('',*,*,#508,.T.);
#715=ORIENTED_EDGE('',*,*,#510,.T.);
#716=ORIENTED_EDGE('',*,*,#449,.F.);
#717=ORIENTED_EDGE('',*,*,#429,.F.);
#718=ORIENTED_EDGE('',*,*,#425,.F.);
#719=ORIENTED_EDGE('',*,*,#420,.F.);
#720=ORIENTED_EDGE('',*,*,#417,.F.);
#721=ORIENTED_EDGE('',*,*,#413,.F.);
#722=ORIENTED_EDGE('',*,*,#423,.F.);
#723=ORIENTED_EDGE('',*,*,#452,.F.);
#724=ORIENTED_EDGE('',*,*,#487,.F.);
#725=ORIENTED_EDGE('',*,*,#489,.F.);
#726=ORIENTED_EDGE('',*,*,#491,.F.);
#727=ORIENTED_EDGE('',*,*,#493,.F.);
#728=ORIENTED_EDGE('',*,*,#518,.T.);
#729=ORIENTED_EDGE('',*,*,#519,.T.);
#730=ORIENTED_EDGE('',*,*,#520,.T.);
#731=ORIENTED_EDGE('',*,*,#521,.F.);
#732=ORIENTED_EDGE('',*,*,#522,.T.);
#733=ORIENTED_EDGE('',*,*,#518,.F.);
#734=ORIENTED_EDGE('',*,*,#522,.F.);
#735=ORIENTED_EDGE('',*,*,#521,.T.);
#736=ORIENTED_EDGE('',*,*,#523,.F.);
#737=ORIENTED_EDGE('',*,*,#524,.T.);
#738=ORIENTED_EDGE('',*,*,#519,.F.);
#739=ORIENTED_EDGE('',*,*,#524,.F.);
#740=ORIENTED_EDGE('',*,*,#523,.T.);
#741=ORIENTED_EDGE('',*,*,#525,.F.);
#742=ORIENTED_EDGE('',*,*,#526,.T.);
#743=ORIENTED_EDGE('',*,*,#520,.F.);
#744=ORIENTED_EDGE('',*,*,#526,.F.);
#745=ORIENTED_EDGE('',*,*,#525,.T.);
#746=ORIENTED_EDGE('',*,*,#501,.F.);
#747=ORIENTED_EDGE('',*,*,#527,.F.);
#748=ORIENTED_EDGE('',*,*,#515,.F.);
#749=ORIENTED_EDGE('',*,*,#528,.T.);
#750=ORIENTED_EDGE('',*,*,#495,.F.);
#751=ORIENTED_EDGE('',*,*,#529,.F.);
#752=ORIENTED_EDGE('',*,*,#516,.F.);
#753=ORIENTED_EDGE('',*,*,#527,.T.);
#754=ORIENTED_EDGE('',*,*,#494,.F.);
#755=ORIENTED_EDGE('',*,*,#509,.F.);
#756=ORIENTED_EDGE('',*,*,#517,.F.);
#757=ORIENTED_EDGE('',*,*,#529,.T.);
#758=ORIENTED_EDGE('',*,*,#436,.F.);
#759=ORIENTED_EDGE('',*,*,#530,.F.);
#760=ORIENTED_EDGE('',*,*,#513,.T.);
#761=ORIENTED_EDGE('',*,*,#511,.T.);
#762=ORIENTED_EDGE('',*,*,#439,.F.);
#763=ORIENTED_EDGE('',*,*,#502,.F.);
#764=ORIENTED_EDGE('',*,*,#528,.F.);
#765=ORIENTED_EDGE('',*,*,#514,.F.);
#766=ORIENTED_EDGE('',*,*,#530,.T.);
#767=PLANE('',#859);
#768=PLANE('',#863);
#769=PLANE('',#864);
#770=PLANE('',#865);
#771=PLANE('',#868);
#772=PLANE('',#870);
#773=PLANE('',#871);
#774=PLANE('',#872);
#775=PLANE('',#876);
#776=PLANE('',#877);
#777=PLANE('',#878);
#778=PLANE('',#879);
#779=PLANE('',#881);
#780=PLANE('',#882);
#781=PLANE('',#883);
#782=PLANE('',#884);
#783=PLANE('',#885);
#784=PLANE('',#886);
#785=PLANE('',#887);
#786=PLANE('',#888);
#787=PLANE('',#891);
#788=PLANE('',#892);
#789=PLANE('',#893);
#790=PLANE('',#894);
#791=PLANE('',#898);
#792=PLANE('',#899);
#793=PLANE('',#900);
#794=PLANE('',#907);
#795=PLANE('',#910);
#796=PLANE('',#913);
#797=PLANE('',#915);
#798=ADVANCED_FACE('',(#53),#767,.F.);
#799=ADVANCED_FACE('',(#54),#44,.F.);
#800=ADVANCED_FACE('',(#55),#768,.T.);
#801=ADVANCED_FACE('',(#56),#769,.F.);
#802=ADVANCED_FACE('',(#57),#770,.F.);
#803=ADVANCED_FACE('',(#58),#45,.T.);
#804=ADVANCED_FACE('',(#59),#20,.F.);
#805=ADVANCED_FACE('',(#60),#771,.T.);
#806=ADVANCED_FACE('',(#61),#772,.F.);
#807=ADVANCED_FACE('',(#62),#773,.F.);
#808=ADVANCED_FACE('',(#63),#774,.F.);
#809=ADVANCED_FACE('',(#64),#46,.F.);
#810=ADVANCED_FACE('',(#65),#775,.F.);
#811=ADVANCED_FACE('',(#66),#776,.F.);
#812=ADVANCED_FACE('',(#67),#777,.F.);
#813=ADVANCED_FACE('',(#68),#778,.T.);
#814=ADVANCED_FACE('',(#69),#779,.F.);
#815=ADVANCED_FACE('',(#70),#780,.F.);
#816=ADVANCED_FACE('',(#71),#781,.F.);
#817=ADVANCED_FACE('',(#72),#782,.F.);
#818=ADVANCED_FACE('',(#73),#783,.F.);
#819=ADVANCED_FACE('',(#74),#784,.F.);
#820=ADVANCED_FACE('',(#75),#785,.F.);
#821=ADVANCED_FACE('',(#76),#786,.F.);
#822=ADVANCED_FACE('',(#77),#47,.F.);
#823=ADVANCED_FACE('',(#78),#787,.F.);
#824=ADVANCED_FACE('',(#79),#788,.F.);
#825=ADVANCED_FACE('',(#80),#789,.F.);
#826=ADVANCED_FACE('',(#81),#790,.F.);
#827=ADVANCED_FACE('',(#82),#19,.F.);
#828=ADVANCED_FACE('',(#83),#21,.F.);
#829=ADVANCED_FACE('',(#84),#48,.T.);
#830=ADVANCED_FACE('',(#85),#22,.T.);
#831=ADVANCED_FACE('',(#86),#791,.T.);
#832=ADVANCED_FACE('',(#87),#792,.T.);
#833=ADVANCED_FACE('',(#88,#15,#16,#17,#18),#793,.T.);
#834=ADVANCED_FACE('',(#89),#49,.T.);
#835=ADVANCED_FACE('',(#90),#794,.T.);
#836=ADVANCED_FACE('',(#91),#50,.T.);
#837=ADVANCED_FACE('',(#92),#795,.T.);
#838=ADVANCED_FACE('',(#93),#51,.T.);
#839=ADVANCED_FACE('',(#94),#796,.T.);
#840=ADVANCED_FACE('',(#95),#23,.T.);
#841=ADVANCED_FACE('',(#96),#52,.T.);
#842=ADVANCED_FACE('',(#97),#24,.T.);
#843=ADVANCED_FACE('',(#98),#797,.T.);
#844=ADVANCED_FACE('',(#99),#25,.T.);
#845=CLOSED_SHELL('',(#798,#799,#800,#801,#802,#803,#804,#805,#806,#807,
#808,#809,#810,#811,#812,#813,#814,#815,#816,#817,#818,#819,#820,#821,#822,
#823,#824,#825,#826,#827,#828,#829,#830,#831,#832,#833,#834,#835,#836,#837,
#838,#839,#840,#841,#842,#843,#844));
#846=DERIVED_UNIT_ELEMENT(#848,1.);
#847=DERIVED_UNIT_ELEMENT(#1594,-3.);
#848=(
MASS_UNIT()
NAMED_UNIT(*)
SI_UNIT(.KILO.,.GRAM.)
);
#849=DERIVED_UNIT((#846,#847));
#850=MEASURE_REPRESENTATION_ITEM('density measure',
POSITIVE_RATIO_MEASURE(7850.),#849);
#851=PROPERTY_DEFINITION_REPRESENTATION(#856,#853);
#852=PROPERTY_DEFINITION_REPRESENTATION(#857,#854);
#853=REPRESENTATION('material name',(#855),#1591);
#854=REPRESENTATION('density',(#850),#1591);
#855=DESCRIPTIVE_REPRESENTATION_ITEM('Steel','Steel');
#856=PROPERTY_DEFINITION('material property','material name',#1601);
#857=PROPERTY_DEFINITION('material property','density of part',#1601);
#858=AXIS2_PLACEMENT_3D('',#1117,#916,#917);
#859=AXIS2_PLACEMENT_3D('',#1118,#918,#919);
#860=AXIS2_PLACEMENT_3D('',#1123,#921,#922);
#861=AXIS2_PLACEMENT_3D('',#1127,#925,#926);
#862=AXIS2_PLACEMENT_3D('',#1131,#928,#929);
#863=AXIS2_PLACEMENT_3D('',#1133,#931,#932);
#864=AXIS2_PLACEMENT_3D('',#1139,#936,#937);
#865=AXIS2_PLACEMENT_3D('',#1150,#944,#945);
#866=AXIS2_PLACEMENT_3D('',#1164,#953,#954);
#867=AXIS2_PLACEMENT_3D('',#1167,#955,#956);
#868=AXIS2_PLACEMENT_3D('',#1209,#958,#959);
#869=AXIS2_PLACEMENT_3D('',#1214,#961,#962);
#870=AXIS2_PLACEMENT_3D('',#1221,#964,#965);
#871=AXIS2_PLACEMENT_3D('',#1222,#966,#967);
#872=AXIS2_PLACEMENT_3D('',#1226,#970,#971);
#873=AXIS2_PLACEMENT_3D('',#1230,#974,#975);
#874=AXIS2_PLACEMENT_3D('',#1232,#976,#977);
#875=AXIS2_PLACEMENT_3D('',#1235,#979,#980);
#876=AXIS2_PLACEMENT_3D('',#1236,#981,#982);
#877=AXIS2_PLACEMENT_3D('',#1246,#988,#989);
#878=AXIS2_PLACEMENT_3D('',#1257,#996,#997);
#879=AXIS2_PLACEMENT_3D('',#1258,#998,#999);
#880=AXIS2_PLACEMENT_3D('',#1278,#1010,#1011);
#881=AXIS2_PLACEMENT_3D('',#1279,#1012,#1013);
#882=AXIS2_PLACEMENT_3D('',#1285,#1017,#1018);
#883=AXIS2_PLACEMENT_3D('',#1289,#1021,#1022);
#884=AXIS2_PLACEMENT_3D('',#1293,#1025,#1026);
#885=AXIS2_PLACEMENT_3D('',#1295,#1028,#1029);
#886=AXIS2_PLACEMENT_3D('',#1299,#1032,#1033);
#887=AXIS2_PLACEMENT_3D('',#1303,#1036,#1037);
#888=AXIS2_PLACEMENT_3D('',#1305,#1039,#1040);
#889=AXIS2_PLACEMENT_3D('',#1306,#1041,#1042);
#890=AXIS2_PLACEMENT_3D('',#1308,#1043,#1044);
#891=AXIS2_PLACEMENT_3D('',#1310,#1046,#1047);
#892=AXIS2_PLACEMENT_3D('',#1314,#1050,#1051);
#893=AXIS2_PLACEMENT_3D('',#1318,#1054,#1055);
#894=AXIS2_PLACEMENT_3D('',#1320,#1057,#1058);
#895=AXIS2_PLACEMENT_3D('',#1332,#1059,#1060);
#896=AXIS2_PLACEMENT_3D('',#1458,#1063,#1064);
#897=AXIS2_PLACEMENT_3D('',#1460,#1065,#1066);
#898=AXIS2_PLACEMENT_3D('',#1485,#1070,#1071);
#899=AXIS2_PLACEMENT_3D('',#1487,#1073,#1074);
#900=AXIS2_PLACEMENT_3D('',#1491,#1077,#1078);
#901=AXIS2_PLACEMENT_3D('',#1511,#1080,#1081);
#902=AXIS2_PLACEMENT_3D('',#1523,#1082,#1083);
#903=AXIS2_PLACEMENT_3D('',#1525,#1084,#1085);
#904=AXIS2_PLACEMENT_3D('',#1527,#1086,#1087);
#905=AXIS2_PLACEMENT_3D('',#1528,#1088,#1089);
#906=AXIS2_PLACEMENT_3D('',#1530,#1090,#1091);
#907=AXIS2_PLACEMENT_3D('',#1532,#1093,#1094);
#908=AXIS2_PLACEMENT_3D('',#1533,#1095,#1096);
#909=AXIS2_PLACEMENT_3D('',#1535,#1097,#1098);
#910=AXIS2_PLACEMENT_3D('',#1537,#1100,#1101);
#911=AXIS2_PLACEMENT_3D('',#1538,#1102,#1103);
#912=AXIS2_PLACEMENT_3D('',#1540,#1104,#1105);
#913=AXIS2_PLACEMENT_3D('',#1542,#1107,#1108);
#914=AXIS2_PLACEMENT_3D('',#1557,#1111,#1112);
#915=AXIS2_PLACEMENT_3D('',#1575,#1114,#1115);
#916=DIRECTION('axis',(0.,0.,1.));
#917=DIRECTION('refdir',(1.,0.,0.));
#918=DIRECTION('center_axis',(-0.342020143327625,0.,0.939692620785196));
#919=DIRECTION('ref_axis',(-0.939692620785196,0.,-0.342020143327625));
#920=DIRECTION('',(0.939692620785196,0.,0.342020143327625));
#921=DIRECTION('center_axis',(-0.342020143327625,0.,0.939692620785196));
#922=DIRECTION('ref_axis',(-0.939692620785196,0.,-0.342020143327625));
#923=DIRECTION('',(0.939692618938905,-6.26862398747208E-5,0.342020142655631));
#924=DIRECTION('',(0.,-1.,0.));
#925=DIRECTION('center_axis',(-0.342020143327625,0.,0.939692620785196));
#926=DIRECTION('ref_axis',(-0.939692620785196,0.,-0.342020143327625));
#927=DIRECTION('',(0.342020143327625,0.,-0.939692620785196));
#928=DIRECTION('center_axis',(0.342020143327625,0.,-0.939692620785196));
#929=DIRECTION('ref_axis',(-0.939692620785196,0.,-0.342020143327625));
#930=DIRECTION('',(-0.342020143327625,0.,0.939692620785196));
#931=DIRECTION('center_axis',(-0.342020143327625,0.,0.939692620785196));
#932=DIRECTION('ref_axis',(-0.939692620785196,0.,-0.342020143327625));
#933=DIRECTION('',(-0.939692620785196,0.,-0.342020143327625));
#934=DIRECTION('',(0.,1.,0.));
#935=DIRECTION('',(-0.939692618938905,6.26862398747208E-5,-0.342020142655631));
#936=DIRECTION('center_axis',(0.939692620785196,0.,0.342020143327625));
#937=DIRECTION('ref_axis',(0.342020143327625,0.,-0.939692620785196));
#938=DIRECTION('',(0.342020143327625,0.,-0.939692620785196));
#939=DIRECTION('',(0.342020143327625,-1.35525271826966E-20,-0.939692620785196));
#940=DIRECTION('',(0.342020143327625,0.,-0.939692620785196));
#941=DIRECTION('',(0.,1.,0.));
#942=DIRECTION('',(-0.342020143327625,0.,0.939692620785196));
#943=DIRECTION('',(0.,1.,0.));
#944=DIRECTION('center_axis',(0.342020143328054,0.,-0.93969262078504));
#945=DIRECTION('ref_axis',(-0.93969262078504,0.,-0.342020143328054));
#946=DIRECTION('',(-0.93969262078504,0.,-0.342020143328054));
#947=DIRECTION('',(0.,1.,0.));
#948=DIRECTION('',(0.939692620785031,0.,0.342020143328079));
#949=DIRECTION('',(0.,1.,0.));
#950=DIRECTION('',(0.93969262078504,0.,0.342020143328054));
#951=DIRECTION('',(0.,-1.,0.));
#952=DIRECTION('',(0.939692620785031,0.,0.342020143328079));
#953=DIRECTION('center_axis',(0.,0.,-1.));
#954=DIRECTION('ref_axis',(0.168722294776394,-0.985663627839329,0.));
#955=DIRECTION('center_axis',(-0.555679170650653,0.,0.831396812181165));
#956=DIRECTION('ref_axis',(0.831396812181164,-7.69196569569426E-17,0.555679170650653));
#957=DIRECTION('',(0.,0.,1.));
#958=DIRECTION('center_axis',(0.,0.,1.));
#959=DIRECTION('ref_axis',(1.,0.,0.));
#960=DIRECTION('',(-1.,0.,0.));
#961=DIRECTION('center_axis',(0.,0.,1.));
#962=DIRECTION('ref_axis',(0.168722294776394,-0.985663627839329,0.));
#963=DIRECTION('',(0.,1.,0.));
#964=DIRECTION('center_axis',(-5.89057970350458E-5,-0.999999998035218,-2.14399567466219E-5));
#965=DIRECTION('ref_axis',(0.939692618938905,-6.26862398747208E-5,0.342020142655631));
#966=DIRECTION('center_axis',(0.,-1.,0.));
#967=DIRECTION('ref_axis',(0.,0.,-1.));
#968=DIRECTION('',(-0.939692620785031,0.,-0.342020143328079));
#969=DIRECTION('',(0.342020143328078,0.,-0.939692620785031));
#970=DIRECTION('center_axis',(0.939692620785031,0.,0.342020143328078));
#971=DIRECTION('ref_axis',(0.342020143328078,0.,-0.939692620785031));
#972=DIRECTION('',(-0.342020143328078,0.,0.939692620785031));
#973=DIRECTION('',(0.,1.,0.));
#974=DIRECTION('center_axis',(0.,1.,0.));
#975=DIRECTION('ref_axis',(0.939691898244525,0.,0.34202212848528));
#976=DIRECTION('center_axis',(0.,1.,0.));
#977=DIRECTION('ref_axis',(0.939691898244525,0.,0.34202212848528));
#978=DIRECTION('',(0.,-1.,0.));
#979=DIRECTION('center_axis',(0.,-1.,0.));
#980=DIRECTION('ref_axis',(0.939691898244525,0.,0.34202212848528));
#981=DIRECTION('center_axis',(-0.342020143328077,0.,0.939692620785032));
#982=DIRECTION('ref_axis',(0.939692620785032,0.,0.342020143328077));
#983=DIRECTION('',(0.939692620785032,0.,0.342020143328077));
#984=DIRECTION('',(-0.939692620785032,0.,-0.342020143328077));
#985=DIRECTION('',(0.,1.,0.));
#986=DIRECTION('',(-0.939692620785031,0.,-0.342020143328079));
#987=DIRECTION('',(0.,-1.,0.));
#988=DIRECTION('center_axis',(-0.939692620784797,0.,-0.342020143328723));
#989=DIRECTION('ref_axis',(-0.342020143328723,0.,0.939692620784797));
#990=DIRECTION('',(0.342020143328723,0.,-0.939692620784797));
#991=DIRECTION('',(0.,-1.,0.));
#992=DIRECTION('',(-0.342020143328723,0.,0.939692620784797));
#993=DIRECTION('',(0.,-1.,0.));
#994=DIRECTION('',(0.342020143328723,0.,-0.939692620784797));
#995=DIRECTION('',(0.342020143328723,0.,-0.939692620784797));
#996=DIRECTION('center_axis',(0.,-1.,0.));
#997=DIRECTION('ref_axis',(0.,0.,-1.));
#998=DIRECTION('center_axis',(0.,1.,0.));
#999=DIRECTION('ref_axis',(1.,0.,0.));
#1000=DIRECTION('',(-0.939692620785983,0.,-0.342020143325462));
#1001=DIRECTION('',(-0.342020143327287,0.,0.939692620785319));
#1002=DIRECTION('',(-0.939692620785797,0.,-0.342020143325976));
#1003=DIRECTION('',(0.342020143326532,0.,-0.939692620785594));
#1004=DIRECTION('',(0.939692620785677,0.,0.342020143326305));
#1005=DIRECTION('',(0.342020143326135,0.,-0.939692620785739));
#1006=DIRECTION('',(0.939692620785032,0.,0.342020143328078));
#1007=DIRECTION('',(0.93969262078504,0.,0.342020143328054));
#1008=DIRECTION('',(0.342020143327573,0.,-0.939692620785215));
#1009=DIRECTION('',(-0.939692620785,0.,-0.342020143328166));
#1010=DIRECTION('center_axis',(0.,-1.,0.));
#1011=DIRECTION('ref_axis',(-0.342014024257713,0.,0.939694847921944));
#1012=DIRECTION('center_axis',(-0.939692620785594,0.,-0.342020143326532));
#1013=DIRECTION('ref_axis',(0.342020143326532,0.,-0.939692620785594));
#1014=DIRECTION('',(0.,-1.,0.));
#1015=DIRECTION('',(0.342020143326532,0.,-0.939692620785594));
#1016=DIRECTION('',(0.,-1.,0.));
#1017=DIRECTION('center_axis',(0.342020143326305,0.,-0.939692620785677));
#1018=DIRECTION('ref_axis',(0.939692620785677,0.,0.342020143326305));
#1019=DIRECTION('',(0.939692620785677,0.,0.342020143326305));
#1020=DIRECTION('',(0.,-1.,0.));
#1021=DIRECTION('center_axis',(-0.939692620785739,0.,-0.342020143326135));
#1022=DIRECTION('ref_axis',(0.342020143326135,0.,-0.939692620785739));
#1023=DIRECTION('',(0.342020143326135,0.,-0.939692620785739));
#1024=DIRECTION('',(0.,-1.,0.));
#1025=DIRECTION('center_axis',(0.342020143328078,0.,-0.939692620785032));
#1026=DIRECTION('ref_axis',(0.939692620785032,0.,0.342020143328078));
#1027=DIRECTION('',(0.939692620785032,0.,0.342020143328078));
#1028=DIRECTION('center_axis',(-0.342020143325976,0.,0.939692620785797));
#1029=DIRECTION('ref_axis',(-0.939692620785797,0.,-0.342020143325976));
#1030=DIRECTION('',(0.,-1.,0.));
#1031=DIRECTION('',(-0.939692620785797,0.,-0.342020143325976));
#1032=DIRECTION('center_axis',(0.939692620785319,0.,0.342020143327287));
#1033=DIRECTION('ref_axis',(-0.342020143327287,0.,0.939692620785319));
#1034=DIRECTION('',(0.,-1.,0.));
#1035=DIRECTION('',(-0.342020143327287,0.,0.939692620785319));
#1036=DIRECTION('center_axis',(-0.342020143325462,0.,0.939692620785983));
#1037=DIRECTION('ref_axis',(-0.939692620785983,0.,-0.342020143325462));
#1038=DIRECTION('',(-0.939692620785983,0.,-0.342020143325462));
#1039=DIRECTION('center_axis',(0.,-1.,0.));
#1040=DIRECTION('ref_axis',(0.,0.,-1.));
#1041=DIRECTION('center_axis',(0.,1.,0.));
#1042=DIRECTION('ref_axis',(-0.342014024257713,0.,0.939694847921944));
#1043=DIRECTION('center_axis',(0.,1.,0.));
#1044=DIRECTION('ref_axis',(-0.342014024257713,0.,0.939694847921944));
#1045=DIRECTION('',(0.,1.,0.));
#1046=DIRECTION('center_axis',(-0.342020143328166,0.,0.939692620785));
#1047=DIRECTION('ref_axis',(0.939692620785,0.,0.342020143328166));
#1048=DIRECTION('',(0.939692620785,0.,0.342020143328166));
#1049=DIRECTION('',(0.,1.,0.));
#1050=DIRECTION('center_axis',(-0.939692620785215,0.,-0.342020143327573));
#1051=DIRECTION('ref_axis',(-0.342020143327573,0.,0.939692620785215));
#1052=DIRECTION('',(-0.342020143327573,0.,0.939692620785215));
#1053=DIRECTION('',(0.,1.,0.));
#1054=DIRECTION('center_axis',(0.342020143328054,0.,-0.93969262078504));
#1055=DIRECTION('ref_axis',(-0.93969262078504,0.,-0.342020143328054));
#1056=DIRECTION('',(-0.93969262078504,0.,-0.342020143328054));
#1057=DIRECTION('center_axis',(0.,1.,0.));
#1058=DIRECTION('ref_axis',(1.,0.,0.));
#1059=DIRECTION('center_axis',(0.,-1.,0.));
#1060=DIRECTION('ref_axis',(0.494117647058824,0.,-0.86939504879258));
#1061=DIRECTION('',(0.,0.,1.));
#1062=DIRECTION('',(0.,0.,1.));
#1063=DIRECTION('center_axis',(0.,0.,1.));
#1064=DIRECTION('ref_axis',(0.168722294776394,-0.985663627839329,0.));
#1065=DIRECTION('center_axis',(-0.315662012200056,0.,-0.948871695253796));
#1066=DIRECTION('ref_axis',(0.948871695253796,8.77882669571391E-17,-0.315662012200056));
#1067=DIRECTION('',(0.,0.,1.));
#1068=DIRECTION('',(0.,-1.,0.));
#1069=DIRECTION('',(0.,-1.,0.));
#1070=DIRECTION('center_axis',(0.315662012200056,0.,0.948871695253796));
#1071=DIRECTION('ref_axis',(-0.948871695253796,0.,0.315662012200056));
#1072=DIRECTION('',(0.948871695253796,0.,-0.315662012200056));
#1073=DIRECTION('center_axis',(1.,0.,-2.42170181432247E-16));
#1074=DIRECTION('ref_axis',(2.42170181432247E-16,0.,1.));
#1075=DIRECTION('',(0.,-1.,0.));
#1076=DIRECTION('',(2.42170181432247E-16,0.,1.));
#1077=DIRECTION('center_axis',(0.,1.,0.));
#1078=DIRECTION('ref_axis',(1.,0.,0.));
#1079=DIRECTION('',(0.831396812181165,0.,0.555679170650653));
#1080=DIRECTION('center_axis',(0.,1.,0.));
#1081=DIRECTION('ref_axis',(0.494117647058824,0.,-0.86939504879258));
#1082=DIRECTION('center_axis',(0.,-1.,0.));
#1083=DIRECTION('ref_axis',(1.,0.,0.));
#1084=DIRECTION('center_axis',(0.,-1.,0.));
#1085=DIRECTION('ref_axis',(1.,0.,0.));
#1086=DIRECTION('center_axis',(0.,-1.,0.));
#1087=DIRECTION('ref_axis',(1.,0.,0.));
#1088=DIRECTION('center_axis',(0.,1.,0.));
#1089=DIRECTION('ref_axis',(1.,0.,0.));
#1090=DIRECTION('center_axis',(0.,1.,0.));
#1091=DIRECTION('ref_axis',(1.,0.,0.));
#1092=DIRECTION('',(0.,-1.,0.));
#1093=DIRECTION('center_axis',(0.,1.,0.));
#1094=DIRECTION('ref_axis',(1.,0.,0.));
#1095=DIRECTION('center_axis',(0.,1.,0.));
#1096=DIRECTION('ref_axis',(1.,0.,0.));
#1097=DIRECTION('center_axis',(0.,1.,0.));
#1098=DIRECTION('ref_axis',(1.,0.,0.));
#1099=DIRECTION('',(0.,-1.,0.));
#1100=DIRECTION('center_axis',(0.,1.,0.));
#1101=DIRECTION('ref_axis',(1.,0.,0.));
#1102=DIRECTION('center_axis',(0.,1.,0.));
#1103=DIRECTION('ref_axis',(1.,0.,0.));
#1104=DIRECTION('center_axis',(0.,1.,0.));
#1105=DIRECTION('ref_axis',(1.,0.,0.));
#1106=DIRECTION('',(0.,-1.,0.));
#1107=DIRECTION('center_axis',(0.,1.,0.));
#1108=DIRECTION('ref_axis',(1.,0.,0.));
#1109=DIRECTION('',(0.,-1.,0.));
#1110=DIRECTION('',(0.,-1.,0.));
#1111=DIRECTION('center_axis',(0.,-1.,0.));
#1112=DIRECTION('ref_axis',(-0.966797561227938,0.,-0.255543490630676));
#1113=DIRECTION('',(0.,-1.,0.));
#1114=DIRECTION('center_axis',(0.555679170650653,0.,-0.831396812181165));
#1115=DIRECTION('ref_axis',(0.831396812181164,0.,0.555679170650653));
#1116=DIRECTION('',(0.,-1.,0.));
#1117=CARTESIAN_POINT('',(0.,0.,0.));
#1118=CARTESIAN_POINT('Origin',(9.43458383927659,-4.10259165006789,6.0943521214041));
#1119=CARTESIAN_POINT('',(6.56852134586536,-6.8,5.05119068424889));
#1120=CARTESIAN_POINT('',(10.0453840427878,-6.8,6.31666521456736));
#1121=CARTESIAN_POINT('',(5.03901131048777,-6.8,4.49449455835639));
#1122=CARTESIAN_POINT('',(7.91149873119095,-7.85092436546911,5.53999447780322));
#1123=CARTESIAN_POINT('Origin',(6.66249060796108,-2.,5.08539269858791));
#1124=CARTESIAN_POINT('',(6.56852134588091,-7.85083477638346,5.05119068425455));
#1125=CARTESIAN_POINT('',(6.56852134588091,-7.85083477638346,5.05119068425454));
#1126=CARTESIAN_POINT('',(6.56852134586536,-5.45129582503394,5.05119068424889));
#1127=CARTESIAN_POINT('Origin',(7.51754096628015,-2.,2.73616114662492));
#1128=CARTESIAN_POINT('',(11.7554847594259,-6.8,1.61820211064138));
#1129=CARTESIAN_POINT('',(10.9004344011069,-6.8,3.96743366260437));
#1130=CARTESIAN_POINT('',(9.62159944782907,-7.85092436546911,0.841531373877238));
#1131=CARTESIAN_POINT('Origin',(8.37259132459921,-2.,0.386929594661928));
#1132=CARTESIAN_POINT('',(8.76654908951001,-7.85092436546911,3.19076292584023));
#1133=CARTESIAN_POINT('Origin',(11.1446845559147,-4.10259165006789,1.39588901747812));
#1134=CARTESIAN_POINT('',(8.27862206250349,-6.8,0.352727580322904));
#1135=CARTESIAN_POINT('',(6.7491120271259,-6.8,-0.203968545569591));
#1136=CARTESIAN_POINT('',(8.27862206251904,-7.85083477638346,0.352727580328565));
#1137=CARTESIAN_POINT('',(8.27862206250349,-5.45129582503394,0.352727580322904));
#1138=CARTESIAN_POINT('',(8.27862206251904,-7.85083477638346,0.352727580328564));
#1139=CARTESIAN_POINT('Origin',(6.26925372045351,-6.8,5.87342172743641));
#1140=CARTESIAN_POINT('',(6.26925372045351,-6.8,5.87342172743641));
#1141=CARTESIAN_POINT('',(6.94535695286881,-6.8,4.01584336316713));
#1142=CARTESIAN_POINT('',(6.84641271231897,-7.85083477638346,4.28769042986115));
#1143=CARTESIAN_POINT('',(8.57788968791533,-6.8,-0.469503462864623));
#1144=CARTESIAN_POINT('',(6.94535695286881,-6.8,4.01584336316713));
#1145=CARTESIAN_POINT('',(8.57788968791533,-8.65,-0.469503462864622));
#1146=CARTESIAN_POINT('',(8.57788968791533,-6.8,-0.469503462864623));
#1147=CARTESIAN_POINT('',(6.26925372045351,-8.65,5.87342172743641));
#1148=CARTESIAN_POINT('',(8.57788968791533,-8.65,-0.469503462864623));
#1149=CARTESIAN_POINT('',(6.26925372045351,-6.8,5.87342172743641));
#1150=CARTESIAN_POINT('Origin',(6.69850444634527,-6.8,-1.15354374952078));
#1151=CARTESIAN_POINT('',(7.84110826325527,-6.8,-0.737669970603272));
#1152=CARTESIAN_POINT('',(4.6756557850482,-6.8,-1.88980045066396));
#1153=CARTESIAN_POINT('',(7.84110826325527,-7.3,-0.737669970603272));
#1154=CARTESIAN_POINT('',(7.84110826325527,-6.8,-0.737669970603272));
#1155=CARTESIAN_POINT('',(4.25530363230417,-7.3,-2.04279612217372));
#1156=CARTESIAN_POINT('',(5.1276150752161,-7.3,-1.72530072194151));
#1157=CARTESIAN_POINT('',(4.25530363230417,-8.75,-2.04279612217372));
#1158=CARTESIAN_POINT('',(4.25530363230417,-6.8,-2.04279612217372));
#1159=CARTESIAN_POINT('',(6.69850444634527,-8.75,-1.15354374952078));
#1160=CARTESIAN_POINT('',(6.69850444634527,-8.75,-1.15354374952078));
#1161=CARTESIAN_POINT('',(6.69850444634527,-8.65,-1.15354374952078));
#1162=CARTESIAN_POINT('',(6.69850444634527,-6.8,-1.15354374952078));
#1163=CARTESIAN_POINT('',(6.69850444634527,-8.65,-1.15354374952078));
#1164=CARTESIAN_POINT('Origin',(8.91214811294591,-5.8939645707633,-4.35));
#1165=CARTESIAN_POINT('',(9.41831499954622,-8.85095545404707,-4.50383710971059));
#1166=CARTESIAN_POINT('',(10.473548690982,-8.45561018148032,-3.79855249362474));
#1167=CARTESIAN_POINT('Origin',(8.91214811294591,-5.8939645707633,-4.84214294951867));
#1168=CARTESIAN_POINT('',(9.41831499727792,-8.8509554542817,-2.85));
#1169=CARTESIAN_POINT('Ctrl Pts',(10.473548690984,-8.45561018148032,-3.79855249362775));
#1170=CARTESIAN_POINT('Ctrl Pts',(10.2748070889657,-8.57674920671213,-3.66386615032291));
#1171=CARTESIAN_POINT('Ctrl Pts',(10.0847702248425,-8.66053511169725,-3.52660757698221));
#1172=CARTESIAN_POINT('Ctrl Pts',(9.79515060091128,-8.76436784754348,-3.30500114933037));
#1173=CARTESIAN_POINT('Ctrl Pts',(9.68185433907919,-8.79481841142477,-3.21278875337917));
#1174=CARTESIAN_POINT('Ctrl Pts',(9.54822795337568,-8.82620390566509,-3.08644947783031));
#1175=CARTESIAN_POINT('Ctrl Pts',(9.50370143080686,-8.835246158862,-3.03927072222801));
#1176=CARTESIAN_POINT('Ctrl Pts',(9.45620136669582,-8.84426104462263,-2.97102294964193));
#1177=CARTESIAN_POINT('Ctrl Pts',(9.44214122683501,-8.84679456711651,-2.94696806716285));
#1178=CARTESIAN_POINT('Ctrl Pts',(9.42350779137945,-8.85007568766673,-2.89863811791487));
#1179=CARTESIAN_POINT('Ctrl Pts',(9.41831499727519,-8.85095545428185,-2.87484922846726));
#1180=CARTESIAN_POINT('Ctrl Pts',(9.41831499727519,-8.85095545428185,-2.85));
#1181=CARTESIAN_POINT('',(9.41831499727518,-8.85095545428185,-4.35));
#1182=CARTESIAN_POINT('Ctrl Pts',(9.40086698304044,-8.51340789501896,-3.79855249362775));
#1183=CARTESIAN_POINT('Ctrl Pts',(10.2291696739925,-8.47059248502468,-3.79855249362775));
#1184=CARTESIAN_POINT('Ctrl Pts',(11.0533700752373,-8.42267944911293,-3.79855249362775));
#1185=CARTESIAN_POINT('Ctrl Pts',(11.8742093378325,-8.37757218436064,-3.79855249362775));
#1186=CARTESIAN_POINT('Ctrl Pts',(9.41204109005316,-8.7295810651195,-3.53338111658558));
#1187=CARTESIAN_POINT('Ctrl Pts',(10.2412731333952,-8.68671761640214,-3.53338111658558));
#1188=CARTESIAN_POINT('Ctrl Pts',(11.0656864031597,-8.63879099809295,-3.53338111658558));
#1189=CARTESIAN_POINT('Ctrl Pts',(11.8860865587963,-8.59370786341671,-3.53338111658558));
#1190=CARTESIAN_POINT('Ctrl Pts',(9.41831499727519,-8.85095545428185,-3.19230331482662));
#1191=CARTESIAN_POINT('Ctrl Pts',(10.2480668339599,-8.80806513716804,-3.19230331482662));
#1192=CARTESIAN_POINT('Ctrl Pts',(11.0726006822159,-8.76013084109947,-3.19230331482662));
#1193=CARTESIAN_POINT('Ctrl Pts',(11.8927552422354,-8.71506120254487,-3.19230331482662));
#1194=CARTESIAN_POINT('Ctrl Pts',(9.41831499727519,-8.85095545428185,-2.85));
#1195=CARTESIAN_POINT('Ctrl Pts',(10.2480628358142,-8.80806534383433,-2.85));
#1196=CARTESIAN_POINT('Ctrl Pts',(11.0725987931439,-8.76013094490892,-2.85));
#1197=CARTESIAN_POINT('Ctrl Pts',(11.8927552422354,-8.71506120254487,-2.85));
#1198=CARTESIAN_POINT('',(11.8927552422354,-8.71506120254487,-2.85));
#1199=CARTESIAN_POINT('Ctrl Pts',(10.4735486909785,-8.45561018148473,-3.79855249362273));
#1200=CARTESIAN_POINT('Ctrl Pts',(10.6274424590107,-8.53116632870148,-3.69569479662953));
#1201=CARTESIAN_POINT('Ctrl Pts',(10.7979418382435,-8.59202139859736,-3.58173843757155));
#1202=CARTESIAN_POINT('Ctrl Pts',(11.2778552707704,-8.70799455970612,-3.26097957217367));
#1203=CARTESIAN_POINT('Ctrl Pts',(11.5892969170775,-8.73173703134344,-3.05282188719054));
#1204=CARTESIAN_POINT('Ctrl Pts',(11.8927552422354,-8.71506120254487,-2.85));
#1205=CARTESIAN_POINT('Ctrl Pts',(11.8927552422354,-8.71506120254487,-2.85));
#1206=CARTESIAN_POINT('Ctrl Pts',(11.0725987931439,-8.76013094490892,-2.85));
#1207=CARTESIAN_POINT('Ctrl Pts',(10.2480628358142,-8.80806534383433,-2.85));
#1208=CARTESIAN_POINT('Ctrl Pts',(9.41831499727519,-8.85095545428185,-2.85));
#1209=CARTESIAN_POINT('Origin',(18.6825,0.,4.35));
#1210=CARTESIAN_POINT('',(11.8927552422354,-6.8,4.35));
#1211=CARTESIAN_POINT('',(11.7720606642263,-6.8,4.35));
#1212=CARTESIAN_POINT('',(10.1894388105589,-6.8,4.35));
#1213=CARTESIAN_POINT('',(11.5987187653091,-7.22900694112837,4.35));
#1214=CARTESIAN_POINT('Origin',(8.91214811294591,-5.8939645707633,4.35));
#1215=CARTESIAN_POINT('',(11.8927552422354,-7.2128066753214,4.35));
#1216=CARTESIAN_POINT('Ctrl Pts',(11.8927552422354,-7.2128066753214,4.35));
#1217=CARTESIAN_POINT('Ctrl Pts',(11.7947411999823,-7.21817199499073,4.35));
#1218=CARTESIAN_POINT('Ctrl Pts',(11.6967293496868,-7.22357772956908,4.35));
#1219=CARTESIAN_POINT('Ctrl Pts',(11.5987189685684,-7.22901060797423,4.35));
#1220=CARTESIAN_POINT('',(11.8927552422354,-3.4,4.35));
#1221=CARTESIAN_POINT('Origin',(7.42357170419997,-7.85083477638346,2.70195913229156));
#1222=CARTESIAN_POINT('Origin',(6.48387908339786,-8.65,2.35993898895782));
#1223=CARTESIAN_POINT('',(4.3898684788804,-8.65,5.18938144077914));
#1224=CARTESIAN_POINT('',(6.26925372045351,-8.65,5.87342172743641));
#1225=CARTESIAN_POINT('',(4.96702747074653,-8.65,3.60365014320441));
#1226=CARTESIAN_POINT('Origin',(4.3898684788804,-6.8,5.18938144077914));
#1227=CARTESIAN_POINT('',(4.3898684788804,-8.75,5.18938144077914));
#1228=CARTESIAN_POINT('',(4.3898684788804,-8.75,5.18938144077914));
#1229=CARTESIAN_POINT('',(4.3898684788804,-6.8,5.18938144077914));
#1230=CARTESIAN_POINT('Origin',(5.38743307737461,-6.8,-0.95178928434682));
#1231=CARTESIAN_POINT('',(6.22982838263709,-6.8,-3.26625232099576));
#1232=CARTESIAN_POINT('Origin',(5.38743307737461,-6.8,-0.95178928434682));
#1233=CARTESIAN_POINT('',(6.22982838263709,-7.3,-3.26625232099576));
#1234=CARTESIAN_POINT('',(6.22982838263709,-6.8,-3.26625232099576));
#1235=CARTESIAN_POINT('Origin',(5.38743307737461,-7.3,-0.95178928434682));
#1236=CARTESIAN_POINT('Origin',(1.94666766483496,-6.8,4.30012906812456));
#1237=CARTESIAN_POINT('',(5.53808203728647,-6.8,5.60729699862317));
#1238=CARTESIAN_POINT('',(1.14541941056066,-6.8,4.00849855330863));
#1239=CARTESIAN_POINT('',(1.94666766483496,-8.75,4.30012906812456));
#1240=CARTESIAN_POINT('',(1.94666766483496,-8.75,4.30012906812456));
#1241=CARTESIAN_POINT('',(1.94666766483496,-7.3,4.30012906812456));
#1242=CARTESIAN_POINT('',(1.94666766483496,-6.8,4.30012906812456));
#1243=CARTESIAN_POINT('',(5.53808203728647,-7.3,5.60729699862317));
#1244=CARTESIAN_POINT('',(1.87928648696619,-7.3,4.27560432503033));
#1245=CARTESIAN_POINT('',(5.53808203728647,-6.8,5.60729699862317));
#1246=CARTESIAN_POINT('Origin',(4.25530363230417,-6.8,-2.04279612217372));
#1247=CARTESIAN_POINT('',(4.19545010723133,-7.3,-1.87834991353955));
#1248=CARTESIAN_POINT('',(3.71301507695717,-7.3,-0.552870561544241));
#1249=CARTESIAN_POINT('',(4.19545010723133,-8.6,-1.87834991353955));
#1250=CARTESIAN_POINT('',(4.19545010723133,-6.8,-1.87834991353955));
#1251=CARTESIAN_POINT('',(2.00652118991996,-8.6,4.13568285948041));
#1252=CARTESIAN_POINT('',(4.25530363230417,-8.6,-2.04279612217372));
#1253=CARTESIAN_POINT('',(2.00652118991996,-7.3,4.13568285948041));
#1254=CARTESIAN_POINT('',(2.00652118991996,-6.8,4.13568285948041));
#1255=CARTESIAN_POINT('',(3.71301507695717,-7.3,-0.552870561544241));
#1256=CARTESIAN_POINT('',(4.25530363230417,-8.75,-2.04279612217372));
#1257=CARTESIAN_POINT('Origin',(4.32258605559011,-8.75,1.57329265930271));
#1258=CARTESIAN_POINT('Origin',(0.592763351825534,-7.3,-0.00124685976040539));
#1259=CARTESIAN_POINT('',(-3.53766527268396,-7.3,2.11776401386459));
#1260=CARTESIAN_POINT('',(0.717539605034055,-7.3,3.66653193005724));
#1261=CARTESIAN_POINT('',(-3.87968541601664,-7.3,3.05745663464929));
#1262=CARTESIAN_POINT('',(-2.95556260684483,-7.3,0.518450083660374));
#1263=CARTESIAN_POINT('',(-5.75907065758886,-7.3,2.37341634799711));
#1264=CARTESIAN_POINT('',(-2.39657376959986,-7.3,3.59726512803908));
#1265=CARTESIAN_POINT('',(-5.19473742109976,-7.3,0.822923523699994));
#1266=CARTESIAN_POINT('',(-5.0059579200828,-7.3,0.304256107401477));
#1267=CARTESIAN_POINT('',(-3.31535217952232,-7.3,1.50696381035482));
#1268=CARTESIAN_POINT('',(-2.77193315389809,-7.3,1.7047521604164));
#1269=CARTESIAN_POINT('',(-1.34873635539795,-7.3,-3.89626875916072));
#1270=CARTESIAN_POINT('',(-2.84440606026168,-7.3,0.213049981908398));
#1271=CARTESIAN_POINT('',(0.134375291021505,-7.3,-3.35646026577981));
#1272=CARTESIAN_POINT('',(-3.1078968827751,-7.3,-6.66490637338812));
#1273=CARTESIAN_POINT('',(6.22982838263709,-7.3,-3.26625232099576));
#1274=CARTESIAN_POINT('',(-6.66490637338341,-7.3,3.10789688278237));
#1275=CARTESIAN_POINT('',(-3.1078968827751,-7.3,-6.66490637338812));
#1276=CARTESIAN_POINT('',(2.69726611934464,-7.3,6.51544899822936));
#1277=CARTESIAN_POINT('',(-6.66490637338341,-7.3,3.10789688278237));
#1278=CARTESIAN_POINT('Origin',(3.53075429659521,-7.3,4.22541265347397));
#1279=CARTESIAN_POINT('Origin',(-5.75907065758886,-6.8,2.37341634799711));
#1280=CARTESIAN_POINT('',(-5.75907065758886,-8.6,2.37341634799711));
#1281=CARTESIAN_POINT('',(-5.75907065758886,-6.8,2.37341634799711));
#1282=CARTESIAN_POINT('',(-5.19473742109976,-8.6,0.822923523699994));
#1283=CARTESIAN_POINT('',(-5.75907065758886,-8.6,2.37341634799711));
#1284=CARTESIAN_POINT('',(-5.19473742109976,-6.8,0.822923523699994));
#1285=CARTESIAN_POINT('Origin',(-5.19473742109976,-6.8,0.822923523699994));
#1286=CARTESIAN_POINT('',(-3.31535217952232,-8.6,1.50696381035482));
#1287=CARTESIAN_POINT('',(-5.19473742109976,-8.6,0.822923523699994));
#1288=CARTESIAN_POINT('',(-3.31535217952232,-6.8,1.50696381035482));
#1289=CARTESIAN_POINT('Origin',(-3.31535217952232,-6.8,1.50696381035482));
#1290=CARTESIAN_POINT('',(-1.34873635539795,-8.6,-3.89626875916072));
#1291=CARTESIAN_POINT('',(-1.34873635539795,-8.6,-3.89626875916072));
#1292=CARTESIAN_POINT('',(-1.34873635539795,-6.8,-3.89626875916072));
#1293=CARTESIAN_POINT('Origin',(-1.34873635539357,-6.8,-3.89626875917274));
#1294=CARTESIAN_POINT('',(3.53766527268769,-8.6,-2.11776401386706));
#1295=CARTESIAN_POINT('Origin',(-3.87968541601664,-6.8,3.05745663464929));
#1296=CARTESIAN_POINT('',(-3.87968541601664,-8.6,3.05745663464929));
#1297=CARTESIAN_POINT('',(-3.87968541601664,-6.8,3.05745663464929));
#1298=CARTESIAN_POINT('',(-3.87968541601664,-8.6,3.05745663464929));
#1299=CARTESIAN_POINT('Origin',(-3.53766527268892,-6.8,2.11776401386278));
#1300=CARTESIAN_POINT('',(-3.53766527268396,-8.6,2.11776401386459));
#1301=CARTESIAN_POINT('',(-3.53766527268396,-6.8,2.11776401386459));
#1302=CARTESIAN_POINT('',(-3.31535217952653,-8.6,1.50696381035328));
#1303=CARTESIAN_POINT('Origin',(2.00652118992245,-6.8,4.13568285947357));
#1304=CARTESIAN_POINT('',(-3.53766527268396,-8.6,2.11776401386459));
#1305=CARTESIAN_POINT('Origin',(-0.781810275178763,-8.6,0.119707050159847));
#1306=CARTESIAN_POINT('Origin',(3.53075429659521,-6.8,4.22541265347397));
#1307=CARTESIAN_POINT('',(2.69726611934464,-6.8,6.51544899822936));
#1308=CARTESIAN_POINT('Origin',(3.53075429659521,-6.8,4.22541265347397));
#1309=CARTESIAN_POINT('',(2.69726611934464,-6.8,6.51544899822936));
#1310=CARTESIAN_POINT('Origin',(-6.66490637338341,-6.8,3.10789688278237));
#1311=CARTESIAN_POINT('',(-6.66490637338341,-6.8,3.10789688278237));
#1312=CARTESIAN_POINT('',(-3.47246098933633,-6.8,4.26985197710565));
#1313=CARTESIAN_POINT('',(-6.66490637338341,-6.8,3.10789688278237));
#1314=CARTESIAN_POINT('Origin',(-3.1078968827751,-6.8,-6.66490637338812));
#1315=CARTESIAN_POINT('',(-3.1078968827751,-6.8,-6.66490637338812));
#1316=CARTESIAN_POINT('',(-3.89820501487823,-6.8,-4.49355262603712));
#1317=CARTESIAN_POINT('',(-3.1078968827751,-6.8,-6.66490637338812));
#1318=CARTESIAN_POINT('Origin',(6.22982838263709,-6.8,-3.26625232099576));
#1319=CARTESIAN_POINT('',(4.75341113398103,-6.8,-3.80362425286801));
#1320=CARTESIAN_POINT('Origin',(8.45369678582476,-9.,1.53210777398272E-13));
#1321=CARTESIAN_POINT('',(4.2000000000003,-9.,8.27223409566707));
#1322=CARTESIAN_POINT('',(-5.55111512312578E-16,-9.,8.5));
#1323=CARTESIAN_POINT('Ctrl Pts',(4.20000000000061,-9.,8.27223409566707));
#1324=CARTESIAN_POINT('Ctrl Pts',(3.503537934423,-9.,8.35573302321745));
#1325=CARTESIAN_POINT('Ctrl Pts',(2.80409926998742,-9.,8.41486505710031));
#1326=CARTESIAN_POINT('Ctrl Pts',(1.75332739074457,-9.,8.47014591781494));
#1327=CARTESIAN_POINT('Ctrl Pts',(1.40279790854122,-9.,8.48296856137674));
#1328=CARTESIAN_POINT('Ctrl Pts',(0.701497403095065,-9.,8.49825109205023));
#1329=CARTESIAN_POINT('Ctrl Pts',(0.350724778027832,-9.,8.5000000000003));
#1330=CARTESIAN_POINT('Ctrl Pts',(0.,-9.,8.5000000000003));
#1331=CARTESIAN_POINT('',(4.2,-9.,-7.38985791473692));
#1332=CARTESIAN_POINT('Origin',(0.,-9.,0.));
#1333=CARTESIAN_POINT('',(4.2,-9.,0.));
#1334=CARTESIAN_POINT('Ctrl Pts',(19.25,-8.49000000000027,-11.714));
#1335=CARTESIAN_POINT('Ctrl Pts',(19.25,-8.49000000000027,11.714));
#1336=CARTESIAN_POINT('Ctrl Pts',(12.8333333333333,-8.49000000000027,-11.714));
#1337=CARTESIAN_POINT('Ctrl Pts',(12.8333333333333,-8.49000000000027,11.714));
#1338=CARTESIAN_POINT('Ctrl Pts',(9.625,-9.,-11.714));
#1339=CARTESIAN_POINT('Ctrl Pts',(9.625,-9.,11.714));
#1340=CARTESIAN_POINT('Ctrl Pts',(4.2,-9.,-11.714));
#1341=CARTESIAN_POINT('Ctrl Pts',(4.2,-9.,11.714));
#1342=CARTESIAN_POINT('',(11.892755242235,-8.71506120254491,2.85));
#1343=CARTESIAN_POINT('Ctrl Pts',(11.8927552422354,-8.71506120254487,-2.85));
#1344=CARTESIAN_POINT('Ctrl Pts',(11.8927552422354,-8.71506120254487,-0.95));
#1345=CARTESIAN_POINT('Ctrl Pts',(11.892755242235,-8.71506120254491,0.95));
#1346=CARTESIAN_POINT('Ctrl Pts',(11.892755242235,-8.71506120254491,2.85));
#1347=CARTESIAN_POINT('',(9.4183149972754,-8.85095545428184,2.85));
#1348=CARTESIAN_POINT('Ctrl Pts',(9.41831499727518,-8.85095545428185,2.85));
#1349=CARTESIAN_POINT('Ctrl Pts',(10.2480631610638,-8.80806532702201,2.85));
#1350=CARTESIAN_POINT('Ctrl Pts',(11.0725802450485,-8.76014089173759,2.85));
#1351=CARTESIAN_POINT('Ctrl Pts',(11.8927552665519,-8.71506164496848,2.85));
#1352=CARTESIAN_POINT('',(9.41831499696332,-8.85095545431091,7.14212331944105));
#1353=CARTESIAN_POINT('',(9.41831499727519,-8.85095545428185,4.35));
#1354=CARTESIAN_POINT('Ctrl Pts',(9.4183149969317,-8.8509554542996,7.14212331934774));
#1355=CARTESIAN_POINT('Ctrl Pts',(8.77669440226947,-8.88412116668997,7.35557182771103));
#1356=CARTESIAN_POINT('Ctrl Pts',(8.12268991918126,-8.91463808879342,7.54047067355888));
#1357=CARTESIAN_POINT('Ctrl Pts',(6.38946000822505,-8.97806395844849,7.9552719315466));
#1358=CARTESIAN_POINT('Ctrl Pts',(5.29752872693162,-8.99999999999999,8.14293141862014));
#1359=CARTESIAN_POINT('Ctrl Pts',(4.20000000000061,-9.,8.27223409566707));
#1360=CARTESIAN_POINT('',(4.25088234552233,-8.99998503815113,-7.36121593216772));
#1361=CARTESIAN_POINT('Ctrl Pts',(4.2,-9.,-7.38985791473692));
#1362=CARTESIAN_POINT('Ctrl Pts',(4.21699344236086,-9.,-7.38036711621198));
#1363=CARTESIAN_POINT('Ctrl Pts',(4.23395435952392,-8.99999499570795,-7.37081971514326));
#1364=CARTESIAN_POINT('Ctrl Pts',(4.25088234552232,-8.99998503815113,-7.36121593216773));
#1365=CARTESIAN_POINT('Ctrl Pts',(4.25088234552233,-8.99998503815113,-7.36121593216772));
#1366=CARTESIAN_POINT('Ctrl Pts',(5.44488551207666,-8.99928268913119,-6.6838200928298));
#1367=CARTESIAN_POINT('Ctrl Pts',(6.63507888595829,-8.97265980932787,-5.99748693810516));
#1368=CARTESIAN_POINT('Ctrl Pts',(8.35822764825935,-8.9034875600424,-5.05074190010576));
#1369=CARTESIAN_POINT('Ctrl Pts',(8.88519523547108,-8.87851270048333,-4.76841871127191));
#1370=CARTESIAN_POINT('Ctrl Pts',(9.41831499999894,-8.85095545414105,-4.503837110613));
#1371=CARTESIAN_POINT('Ctrl Pts',(11.8927552422354,-7.2128066753214,4.35));
#1372=CARTESIAN_POINT('Ctrl Pts',(11.042123408672,-7.25937053089822,4.35));
#1373=CARTESIAN_POINT('Ctrl Pts',(10.191656671962,-7.30897841184342,4.35));
#1374=CARTESIAN_POINT('Ctrl Pts',(9.34088257069224,-7.35295538107975,4.35));
#1375=CARTESIAN_POINT('Ctrl Pts',(11.9172859131033,-7.66093471971071,4.35));
#1376=CARTESIAN_POINT('Ctrl Pts',(11.06768215134,-7.70744229831207,4.35));
#1377=CARTESIAN_POINT('Ctrl Pts',(10.2168160903984,-7.75707603410417,4.35));
#1378=CARTESIAN_POINT('Ctrl Pts',(9.36405029854963,-7.80115595489391,4.35));
#1379=CARTESIAN_POINT('Ctrl Pts',(11.9597789636146,-8.43720079609951,3.97392444162082));
#1380=CARTESIAN_POINT('Ctrl Pts',(11.1119409728545,-8.48361171583774,3.97392444162082));
#1381=CARTESIAN_POINT('Ctrl Pts',(10.2603690345455,-8.533290923916,3.97392444162082));
#1382=CARTESIAN_POINT('Ctrl Pts',(9.40418240237101,-8.57754766977545,3.97392444162082));
#1383=CARTESIAN_POINT('Ctrl Pts',(11.974742970281,-8.71056433677733,3.18659921288462));
#1384=CARTESIAN_POINT('Ctrl Pts',(11.1275345716025,-8.7569407924459,3.18659921288462));
#1385=CARTESIAN_POINT('Ctrl Pts',(10.2757213425254,-8.80663566079985,3.18659921288462));
#1386=CARTESIAN_POINT('Ctrl Pts',(9.41831499727518,-8.85095545428185,3.18659921288462));
#1387=CARTESIAN_POINT('Ctrl Pts',(11.974742970281,-8.71056433677733,2.85));
#1388=CARTESIAN_POINT('Ctrl Pts',(11.1275319441516,-8.7569409362734,2.85));
#1389=CARTESIAN_POINT('Ctrl Pts',(10.2757162523468,-8.80663592391391,2.85));
#1390=CARTESIAN_POINT('Ctrl Pts',(9.41831499727518,-8.85095545428185,2.85));
#1391=CARTESIAN_POINT('Ctrl Pts',(11.8927543020606,-8.71506169797978,2.85));
#1392=CARTESIAN_POINT('Ctrl Pts',(11.8927543468668,-8.71506169553536,2.9095023383529));
#1393=CARTESIAN_POINT('Ctrl Pts',(11.8927477592401,-8.71139451795725,2.96885736127438));
#1394=CARTESIAN_POINT('Ctrl Pts',(11.8927406384117,-8.70423356073737,3.02775209030379));
#1395=CARTESIAN_POINT('Ctrl Pts',(11.8927334056357,-8.69696002495272,3.08757271287825));
#1396=CARTESIAN_POINT('Ctrl Pts',(11.8927256110701,-8.68608177722869,3.14691948590575));
#1397=CARTESIAN_POINT('Ctrl Pts',(11.8927207424405,-8.67172662729311,3.20546464822908));
#1398=CARTESIAN_POINT('Ctrl Pts',(11.8927158874881,-8.65741180460188,3.26384534239453));
#1399=CARTESIAN_POINT('Ctrl Pts',(11.8927139229286,-8.63963923581681,3.3214299636227));
#1400=CARTESIAN_POINT('Ctrl Pts',(11.8927156875577,-8.61848700367826,3.37787813177024));
#1401=CARTESIAN_POINT('Ctrl Pts',(11.8927161220098,-8.61327931947623,3.39177568317613));
#1402=CARTESIAN_POINT('Ctrl Pts',(11.8927167708037,-8.60786656101337,3.40560423379475));
#1403=CARTESIAN_POINT('Ctrl Pts',(11.8927176240133,-8.60224947620535,3.41935844778532));
#1404=CARTESIAN_POINT('Ctrl Pts',(11.8927211042526,-8.57933740418736,3.47546184523685));
#1405=CARTESIAN_POINT('Ctrl Pts',(11.892728041238,-8.55316440973086,3.52999945099579));
#1406=CARTESIAN_POINT('Ctrl Pts',(11.8927358611967,-8.52386752901313,3.58264957013622));
#1407=CARTESIAN_POINT('Ctrl Pts',(11.8927436063494,-8.49485090367131,3.63479603569407));
#1408=CARTESIAN_POINT('Ctrl Pts',(11.8927521944908,-8.46276944630034,3.68509194110147));
#1409=CARTESIAN_POINT('Ctrl Pts',(11.8927566128763,-8.42770994061031,3.73320515283352));
#1410=CARTESIAN_POINT('Ctrl Pts',(11.8927582545951,-8.41468304420647,3.75108235368259));
#1411=CARTESIAN_POINT('Ctrl Pts',(11.8927592972715,-8.40124456488415,3.7686579399419));
#1412=CARTESIAN_POINT('Ctrl Pts',(11.8927594036784,-8.38739747601395,3.78591375520518));
#1413=CARTESIAN_POINT('Ctrl Pts',(11.8927596542784,-8.35478605745703,3.82655309964547));
#1414=CARTESIAN_POINT('Ctrl Pts',(11.8927547755265,-8.31990943764248,3.86542040273905));
#1415=CARTESIAN_POINT('Ctrl Pts',(11.8927483095666,-8.28295110389476,3.90242061585104));
#1416=CARTESIAN_POINT('Ctrl Pts',(11.8927409377817,-8.24081522773263,3.94460423831359));
#1417=CARTESIAN_POINT('Ctrl Pts',(11.8927314092232,-8.19621836758656,3.9841178669608));
#1418=CARTESIAN_POINT('Ctrl Pts',(11.8927231873336,-8.14948712512113,4.02087512948421));
#1419=CARTESIAN_POINT('Ctrl Pts',(11.8927148356116,-8.10201794634617,4.05821282850415));
#1420=CARTESIAN_POINT('Ctrl Pts',(11.8927077862217,-8.05234559900609,4.092706974775));
#1421=CARTESIAN_POINT('Ctrl Pts',(11.8927035468899,-8.00077398580537,4.12422916607735));
#1422=CARTESIAN_POINT('Ctrl Pts',(11.8926993113361,-7.9492483317199,4.1557232657236));
#1423=CARTESIAN_POINT('Ctrl Pts',(11.8926978293461,-7.89582584881189,4.18425118608235));
#1424=CARTESIAN_POINT('Ctrl Pts',(11.8926992454597,-7.84078524370017,4.20963972693579));
#1425=CARTESIAN_POINT('Ctrl Pts',(11.8926995780265,-7.8278592470364,4.21560209224234));
#1426=CARTESIAN_POINT('Ctrl Pts',(11.8927000664333,-7.81484393676915,4.22139110003404));
#1427=CARTESIAN_POINT('Ctrl Pts',(11.8927007064149,-7.80174281477838,4.22700410011291));
#1428=CARTESIAN_POINT('Ctrl Pts',(11.8927034269839,-7.74604980096367,4.25086502524243));
#1429=CARTESIAN_POINT('Ctrl Pts',(11.8927088424042,-7.68905385155368,4.27144354799044));
#1430=CARTESIAN_POINT('Ctrl Pts',(11.8927156025121,-7.63104750952936,4.28859325485416));
#1431=CARTESIAN_POINT('Ctrl Pts',(11.8927201224206,-7.59226360682138,4.3000598038428));
#1432=CARTESIAN_POINT('Ctrl Pts',(11.8927252123737,-7.55302746102994,4.30999260658799));
#1433=CARTESIAN_POINT('Ctrl Pts',(11.8927302550408,-7.5134228285595,4.31833539151433));
#1434=CARTESIAN_POINT('Ctrl Pts',(11.8927377007852,-7.45494465306459,4.33065392120661));
#1435=CARTESIAN_POINT('Ctrl Pts',(11.8927450221184,-7.39583772703651,4.33947137717041));
#1436=CARTESIAN_POINT('Ctrl Pts',(11.8927498274037,-7.33637587961749,4.34462725454722));
#1437=CARTESIAN_POINT('Ctrl Pts',(11.8927531447579,-7.29532607932425,4.34818664171465));
#1438=CARTESIAN_POINT('Ctrl Pts',(11.8927552422354,-7.25410676838586,4.35));
#1439=CARTESIAN_POINT('Ctrl Pts',(11.8927552422354,-7.2128066753214,4.35));
#1440=CARTESIAN_POINT('Ctrl Pts',(9.41831499727518,-8.85095545428185,2.85));
#1441=CARTESIAN_POINT('Ctrl Pts',(9.41831499727518,-8.85095545428185,2.86722133601708));
#1442=CARTESIAN_POINT('Ctrl Pts',(9.42080294011827,-8.85053217349619,2.88402452184274));
#1443=CARTESIAN_POINT('Ctrl Pts',(9.43025773486035,-8.84889042075365,2.91813548233055));
#1444=CARTESIAN_POINT('Ctrl Pts',(9.43736887410508,-8.84764302065044,2.93499776211248));
#1445=CARTESIAN_POINT('Ctrl Pts',(9.46120137056783,-8.84333497647146,2.98044284255606));
#1446=CARTESIAN_POINT('Ctrl Pts',(9.48414103486956,-8.83912958238699,3.01314694597691));
#1447=CARTESIAN_POINT('Ctrl Pts',(9.57136051219458,-8.82115480343842,3.1121633396181));
#1448=CARTESIAN_POINT('Ctrl Pts',(9.64492192122255,-8.80434855567403,3.17868752440646));
#1449=CARTESIAN_POINT('Ctrl Pts',(9.85159250500166,-8.74601221954459,3.35089260751047));
#1450=CARTESIAN_POINT('Ctrl Pts',(10.0194037345153,-8.68991832509251,3.47832833880241));
#1451=CARTESIAN_POINT('Ctrl Pts',(10.5203492800279,-8.45016658638383,3.83715286388828));
#1452=CARTESIAN_POINT('Ctrl Pts',(10.8135546424919,-8.24174295348811,4.02913303793389));
#1453=CARTESIAN_POINT('Ctrl Pts',(11.1711264223385,-7.87419274552934,4.22099754462383));
#1454=CARTESIAN_POINT('Ctrl Pts',(11.2737971896873,-7.7511521919897,4.26921035527465));
#1455=CARTESIAN_POINT('Ctrl Pts',(11.4532077874249,-7.49562510759841,4.33257479905998));
#1456=CARTESIAN_POINT('Ctrl Pts',(11.5309876774782,-7.36530550095866,4.35));
#1457=CARTESIAN_POINT('Ctrl Pts',(11.598718765121,-7.22900694120519,4.35));
#1458=CARTESIAN_POINT('Origin',(8.91214811294591,-5.8939645707633,4.35));
#1459=CARTESIAN_POINT('',(11.7720606642263,-6.8,6.35910060166971));
#1460=CARTESIAN_POINT('Origin',(8.91214811294591,-5.8939645707633,7.31051031825094));
#1461=CARTESIAN_POINT('',(11.7720606642263,-6.8,4.35));
#1462=CARTESIAN_POINT('Ctrl Pts',(9.4183149969317,-6.8,7.14212331934774));
#1463=CARTESIAN_POINT('Ctrl Pts',(9.4183149969317,-26.8,7.14212331934774));
#1464=CARTESIAN_POINT('Ctrl Pts',(8.77676892897269,-6.8,7.35554703484471));
#1465=CARTESIAN_POINT('Ctrl Pts',(8.77676892897269,-26.8,7.35554703484471));
#1466=CARTESIAN_POINT('Ctrl Pts',(8.12261235605912,-6.8,7.54048923617451));
#1467=CARTESIAN_POINT('Ctrl Pts',(8.12261235605912,-26.8,7.54048923617451));
#1468=CARTESIAN_POINT('Ctrl Pts',(6.38946000822505,-6.8,7.9552719315466));
#1469=CARTESIAN_POINT('Ctrl Pts',(6.38946000822505,-26.8,7.9552719315466));
#1470=CARTESIAN_POINT('Ctrl Pts',(5.29752872693162,-6.8,8.14293141862014));
#1471=CARTESIAN_POINT('Ctrl Pts',(5.29752872693162,-26.8,8.14293141862014));
#1472=CARTESIAN_POINT('Ctrl Pts',(4.20000000000061,-6.8,8.27223409566707));
#1473=CARTESIAN_POINT('Ctrl Pts',(4.20000000000061,-26.8,8.27223409566707));
#1474=CARTESIAN_POINT('',(9.4183149969317,-6.8,7.14212331934774));
#1475=CARTESIAN_POINT('',(9.4183149969317,-6.8,7.14212331934774));
#1476=CARTESIAN_POINT('',(4.20000000000061,-6.8,8.27223409566707));
#1477=CARTESIAN_POINT('Ctrl Pts',(4.20000000000061,-6.8,8.27223409566707));
#1478=CARTESIAN_POINT('Ctrl Pts',(5.29752872693162,-6.8,8.14293141862014));
#1479=CARTESIAN_POINT('Ctrl Pts',(6.38946000822505,-6.8,7.9552719315466));
#1480=CARTESIAN_POINT('Ctrl Pts',(7.46005887469229,-6.8,7.69905332269173));
#1481=CARTESIAN_POINT('Ctrl Pts',(8.12261235605912,-6.8,7.54048923617451));
#1482=CARTESIAN_POINT('Ctrl Pts',(8.77676892897269,-6.8,7.35554703484471));
#1483=CARTESIAN_POINT('Ctrl Pts',(9.4183149969317,-6.8,7.14212331934774));
#1484=CARTESIAN_POINT('',(4.20000000000061,-6.8,8.27223409566707));
#1485=CARTESIAN_POINT('Origin',(11.8927552422354,-6.8,6.31894902633392));
#1486=CARTESIAN_POINT('',(9.41831499693169,-6.8,7.14212331934774));
#1487=CARTESIAN_POINT('Origin',(11.8927552422354,-6.8,-2.85));
#1488=CARTESIAN_POINT('',(11.8927552422354,-6.8,-2.85));
#1489=CARTESIAN_POINT('',(11.8927552422354,-6.8,-2.85));
#1490=CARTESIAN_POINT('',(11.8927552422354,-6.8,-2.85));
#1491=CARTESIAN_POINT('Origin',(1.6963776211177,-6.8,0.00171130995764712));
#1492=CARTESIAN_POINT('',(9.41831499999894,-6.8,-4.503837110613));
#1493=CARTESIAN_POINT('',(9.41831499999894,-6.8,-4.503837110613));
#1494=CARTESIAN_POINT('',(4.25088234552232,-6.8,-7.36121593216773));
#1495=CARTESIAN_POINT('Ctrl Pts',(9.41831499999894,-6.8,-4.503837110613));
#1496=CARTESIAN_POINT('Ctrl Pts',(8.88477907946308,-6.8,-4.7686252450192));
#1497=CARTESIAN_POINT('Ctrl Pts',(8.35863972168551,-6.8,-5.05051549570003));
#1498=CARTESIAN_POINT('Ctrl Pts',(7.83433367150937,-6.8,-5.33858357331305));
#1499=CARTESIAN_POINT('Ctrl Pts',(6.63507888595829,-6.8,-5.99748693810516));
#1500=CARTESIAN_POINT('Ctrl Pts',(5.44488551207666,-6.8,-6.6838200928298));
#1501=CARTESIAN_POINT('Ctrl Pts',(4.25088234552232,-6.8,-7.36121593216772));
#1502=CARTESIAN_POINT('',(4.2,-6.8,-7.38985791473692));
#1503=CARTESIAN_POINT('Ctrl Pts',(4.25088234552232,-6.8,-7.36121593216773));
#1504=CARTESIAN_POINT('Ctrl Pts',(4.24241835252312,-6.8,-7.36601782365549));
#1505=CARTESIAN_POINT('Ctrl Pts',(4.23394612675747,-6.8,-7.37080561970738));
#1506=CARTESIAN_POINT('Ctrl Pts',(4.2254657189218,-6.8,-7.37557929266211));
#1507=CARTESIAN_POINT('Ctrl Pts',(4.21698531108614,-6.8,-7.38035296561684));
#1508=CARTESIAN_POINT('Ctrl Pts',(4.20849672118043,-6.8,-7.38511251547445));
#1509=CARTESIAN_POINT('Ctrl Pts',(4.2,-6.8,-7.38985791473692));
#1510=CARTESIAN_POINT('',(-9.43689570931383E-15,-6.8,8.5));
#1511=CARTESIAN_POINT('Origin',(0.,-6.8,0.));
#1512=CARTESIAN_POINT('Ctrl Pts',(0.,-6.8,8.5000000000003));
#1513=CARTESIAN_POINT('Ctrl Pts',(0.350724778027832,-6.8,8.5000000000003));
#1514=CARTESIAN_POINT('Ctrl Pts',(0.701497403095065,-6.8,8.49825109205023));
#1515=CARTESIAN_POINT('Ctrl Pts',(1.05214765581814,-6.8,8.49060982671348));
#1516=CARTESIAN_POINT('Ctrl Pts',(1.40279790854122,-6.8,8.48296856137674));
#1517=CARTESIAN_POINT('Ctrl Pts',(1.75332739074457,-6.8,8.47014591781494));
#1518=CARTESIAN_POINT('Ctrl Pts',(2.10358468382552,-6.8,8.4517189642434));
#1519=CARTESIAN_POINT('Ctrl Pts',(2.80409926998742,-6.8,8.41486505710031));
#1520=CARTESIAN_POINT('Ctrl Pts',(3.503537934423,-6.8,8.35573302321745));
#1521=CARTESIAN_POINT('Ctrl Pts',(4.20000000000061,-6.8,8.27223409566707));
#1522=CARTESIAN_POINT('',(8.8427552422354,-6.8,-1.7708454809));
#1523=CARTESIAN_POINT('Origin',(9.8927552422354,-6.8,-1.7708454809));
#1524=CARTESIAN_POINT('',(1.24153496028734,-6.8,-6.29594055926363));
#1525=CARTESIAN_POINT('Origin',(2.29153496028734,-6.8,-6.29594055926363));
#1526=CARTESIAN_POINT('',(-3.34153496032627,-6.8,6.29594055924947));
#1527=CARTESIAN_POINT('Origin',(-2.29153496032627,-6.8,6.29594055924947));
#1528=CARTESIAN_POINT('Origin',(9.8927552422354,-6.8,-1.7708454809));
#1529=CARTESIAN_POINT('',(8.8427552422354,-5.8,-1.7708454809));
#1530=CARTESIAN_POINT('Origin',(9.8927552422354,-5.8,-1.7708454809));
#1531=CARTESIAN_POINT('',(8.8427552422354,-6.8,-1.7708454809));
#1532=CARTESIAN_POINT('Origin',(9.8927552422354,-5.8,-1.7708454809));
#1533=CARTESIAN_POINT('Origin',(2.29153496028734,-6.8,-6.29594055926363));
#1534=CARTESIAN_POINT('',(1.24153496028734,-5.8,-6.29594055926363));
#1535=CARTESIAN_POINT('Origin',(2.29153496028734,-5.8,-6.29594055926363));
#1536=CARTESIAN_POINT('',(1.24153496028734,-6.8,-6.29594055926363));
#1537=CARTESIAN_POINT('Origin',(2.29153496028734,-5.8,-6.29594055926363));
#1538=CARTESIAN_POINT('Origin',(-2.29153496032627,-6.8,6.29594055924947));
#1539=CARTESIAN_POINT('',(-3.34153496032627,-5.8,6.29594055924947));
#1540=CARTESIAN_POINT('Origin',(-2.29153496032627,-5.8,6.29594055924947));
#1541=CARTESIAN_POINT('',(-3.34153496032627,-6.8,6.29594055924947));
#1542=CARTESIAN_POINT('Origin',(-2.29153496032627,-5.8,6.29594055924947));
#1543=CARTESIAN_POINT('Ctrl Pts',(4.2,-6.8,-7.38985791473692));
#1544=CARTESIAN_POINT('Ctrl Pts',(4.2,-26.8,-7.38985791473692));
#1545=CARTESIAN_POINT('Ctrl Pts',(4.20849672118043,-6.8,-7.38511251547445));
#1546=CARTESIAN_POINT('Ctrl Pts',(4.20849672118043,-26.8,-7.38511251547445));
#1547=CARTESIAN_POINT('Ctrl Pts',(4.21698531108614,-6.8,-7.38035296561684));
#1548=CARTESIAN_POINT('Ctrl Pts',(4.21698531108614,-26.8,-7.38035296561684));
#1549=CARTESIAN_POINT('Ctrl Pts',(4.23394612675747,-6.8,-7.37080561970738));
#1550=CARTESIAN_POINT('Ctrl Pts',(4.23394612675747,-26.8,-7.37080561970738));
#1551=CARTESIAN_POINT('Ctrl Pts',(4.24241835252312,-6.8,-7.36601782365549));
#1552=CARTESIAN_POINT('Ctrl Pts',(4.24241835252312,-26.8,-7.36601782365549));
#1553=CARTESIAN_POINT('Ctrl Pts',(4.25088234552232,-6.8,-7.36121593216773));
#1554=CARTESIAN_POINT('Ctrl Pts',(4.25088234552232,-26.8,-7.36121593216773));
#1555=CARTESIAN_POINT('',(4.2,-6.8,-7.38985791473692));
#1556=CARTESIAN_POINT('',(4.25088234552232,-6.8,-7.36121593216773));
#1557=CARTESIAN_POINT('Origin',(0.,-6.8,0.));
#1558=CARTESIAN_POINT('',(-9.43689570931383E-15,-6.8,8.5));
#1559=CARTESIAN_POINT('Ctrl Pts',(4.20000000000061,-6.8,8.27223409566707));
#1560=CARTESIAN_POINT('Ctrl Pts',(4.20000000000061,-26.8,8.27223409566707));
#1561=CARTESIAN_POINT('Ctrl Pts',(3.503537934423,-6.8,8.35573302321745));
#1562=CARTESIAN_POINT('Ctrl Pts',(3.503537934423,-26.8,8.35573302321745));
#1563=CARTESIAN_POINT('Ctrl Pts',(2.80409926998742,-6.8,8.41486505710031));
#1564=CARTESIAN_POINT('Ctrl Pts',(2.80409926998742,-26.8,8.41486505710031));
#1565=CARTESIAN_POINT('Ctrl Pts',(1.75332739074457,-6.8,8.47014591781494));
#1566=CARTESIAN_POINT('Ctrl Pts',(1.75332739074457,-26.8,8.47014591781494));
#1567=CARTESIAN_POINT('Ctrl Pts',(1.40279790854122,-6.8,8.48296856137674));
#1568=CARTESIAN_POINT('Ctrl Pts',(1.40279790854122,-26.8,8.48296856137674));
#1569=CARTESIAN_POINT('Ctrl Pts',(0.701497403095065,-6.8,8.49825109205023));
#1570=CARTESIAN_POINT('Ctrl Pts',(0.701497403095065,-26.8,8.49825109205023));
#1571=CARTESIAN_POINT('Ctrl Pts',(0.350724778027832,-6.8,8.5000000000003));
#1572=CARTESIAN_POINT('Ctrl Pts',(0.350724778027832,-26.8,8.5000000000003));
#1573=CARTESIAN_POINT('Ctrl Pts',(0.,-6.8,8.5000000000003));
#1574=CARTESIAN_POINT('Ctrl Pts',(0.,-26.8,8.5000000000003));
#1575=CARTESIAN_POINT('Origin',(9.41831499999894,-6.8,-4.503837110613));
#1576=CARTESIAN_POINT('',(9.41831499999894,-6.8,-4.503837110613));
#1577=CARTESIAN_POINT('Ctrl Pts',(4.25088234552232,-6.8,-7.36121593216772));
#1578=CARTESIAN_POINT('Ctrl Pts',(4.25088234552232,-26.8,-7.36121593216772));
#1579=CARTESIAN_POINT('Ctrl Pts',(5.44488551207666,-6.8,-6.6838200928298));
#1580=CARTESIAN_POINT('Ctrl Pts',(5.44488551207666,-26.8,-6.6838200928298));
#1581=CARTESIAN_POINT('Ctrl Pts',(6.63507888595829,-6.8,-5.99748693810516));
#1582=CARTESIAN_POINT('Ctrl Pts',(6.63507888595829,-26.8,-5.99748693810516));
#1583=CARTESIAN_POINT('Ctrl Pts',(8.35863972168551,-6.8,-5.05051549570003));
#1584=CARTESIAN_POINT('Ctrl Pts',(8.35863972168551,-26.8,-5.05051549570003));
#1585=CARTESIAN_POINT('Ctrl Pts',(8.88477907946308,-6.8,-4.7686252450192));
#1586=CARTESIAN_POINT('Ctrl Pts',(8.88477907946308,-26.8,-4.7686252450192));
#1587=CARTESIAN_POINT('Ctrl Pts',(9.41831499999894,-6.8,-4.503837110613));
#1588=CARTESIAN_POINT('Ctrl Pts',(9.41831499999894,-26.8,-4.503837110613));
#1589=UNCERTAINTY_MEASURE_WITH_UNIT(LENGTH_MEASURE(0.01),#1593,
'DISTANCE_ACCURACY_VALUE',
'Maximum model space distance between geometric entities at asserted c
onnectivities');
#1590=UNCERTAINTY_MEASURE_WITH_UNIT(LENGTH_MEASURE(0.01),#1593,
'DISTANCE_ACCURACY_VALUE',
'Maximum model space distance between geometric entities at asserted c
onnectivities');
#1591=(
GEOMETRIC_REPRESENTATION_CONTEXT(3)
GLOBAL_UNCERTAINTY_ASSIGNED_CONTEXT((#1589))
GLOBAL_UNIT_ASSIGNED_CONTEXT((#1593,#1595,#1596))
REPRESENTATION_CONTEXT('','3D')
);
#1592=(
GEOMETRIC_REPRESENTATION_CONTEXT(3)
GLOBAL_UNCERTAINTY_ASSIGNED_CONTEXT((#1590))
GLOBAL_UNIT_ASSIGNED_CONTEXT((#1593,#1595,#1596))
REPRESENTATION_CONTEXT('','3D')
);
#1593=(
LENGTH_UNIT()
NAMED_UNIT(*)
SI_UNIT(.MILLI.,.METRE.)
);
#1594=(
LENGTH_UNIT()
NAMED_UNIT(*)
SI_UNIT($,.METRE.)
);
#1595=(
NAMED_UNIT(*)
PLANE_ANGLE_UNIT()
SI_UNIT($,.RADIAN.)
);
#1596=(
NAMED_UNIT(*)
SI_UNIT($,.STERADIAN.)
SOLID_ANGLE_UNIT()
);
#1597=SHAPE_DEFINITION_REPRESENTATION(#1598,#1599);
#1598=PRODUCT_DEFINITION_SHAPE('',$,#1601);
#1599=SHAPE_REPRESENTATION('',(#858),#1591);
#1600=PRODUCT_DEFINITION_CONTEXT('part definition',#1605,'design');
#1601=PRODUCT_DEFINITION('2026-08-25-10-25-35-407','Lid',#1602,#1600);
#1602=PRODUCT_DEFINITION_FORMATION('',$,#1607);
#1603=PRODUCT_RELATED_PRODUCT_CATEGORY('Lid','Lid',(#1607));
#1604=APPLICATION_PROTOCOL_DEFINITION('international standard',
'automotive_design',2009,#1605);
#1605=APPLICATION_CONTEXT(
'Core Data for Automotive Mechanical Design Process');
#1606=PRODUCT_CONTEXT('part definition',#1605,'mechanical');
#1607=PRODUCT('2026-08-25-10-25-35-407','Lid',$,(#1606));
#1608=PRESENTATION_STYLE_ASSIGNMENT((#1609));
#1609=SURFACE_STYLE_USAGE(.BOTH.,#1610);
#1610=SURFACE_SIDE_STYLE('',(#1611));
#1611=SURFACE_STYLE_FILL_AREA(#1612);
#1612=FILL_AREA_STYLE('Steel - Satin',(#1613));
#1613=FILL_AREA_STYLE_COLOUR('Steel - Satin',#1614);
#1614=COLOUR_RGB('Steel - Satin',0.627450980392157,0.627450980392157,0.627450980392157);
ENDSEC;
END-ISO-10303-21;
