ISO-10303-21;
HEADER;
/* Generated by software containing ST-Developer
 * from STEP Tools, Inc. (www.steptools.com) 
 */

FILE_DESCRIPTION(
/* description */ (''),
/* implementation_level */ '2;1');

FILE_NAME(
/* name */ 'Pinky_routing_lid.step',
/* time_stamp */ '2026-08-25T10:25:13+02:00',
/* author */ (''),
/* organization */ (''),
/* preprocessor_version */ 'ST-DEVELOPER v20.1',
/* originating_system */ 'Autodesk Translation Framework v15.8.0.0',
/* authorisation */ '');

FILE_SCHEMA (('AUTOMOTIVE_DESIGN { 1 0 10303 214 3 1 1 }'));
ENDSEC;

DATA;
#10=MECHANICAL_DESIGN_GEOMETRIC_PRESENTATION_REPRESENTATION('',(#13),#458);
#11=SHAPE_REPRESENTATION_RELATIONSHIP('SRR','None',#465,#12);
#12=ADVANCED_BREP_SHAPE_REPRESENTATION('',(#14),#457);
#13=STYLED_ITEM('',(#474),#14);
#14=MANIFOLD_SOLID_BREP('routing_lid',#177);
#15=(
BOUNDED_CURVE()
B_SPLINE_CURVE(5,(#433,#434,#435,#436,#437,#438,#439),.UNSPECIFIED.,.F.,
 .F.)
B_SPLINE_CURVE_WITH_KNOTS((6,1,6),(-0.539320488816052,-0.4,-0.328634934889767),
 .UNSPECIFIED.)
CURVE()
GEOMETRIC_REPRESENTATION_ITEM()
RATIONAL_B_SPLINE_CURVE((1.,1.,1.,1.,1.,1.,1.))
REPRESENTATION_ITEM('')
);
#16=(
BOUNDED_SURFACE()
B_SPLINE_SURFACE(5,1,((#402,#403),(#404,#405),(#406,#407),(#408,#409),(#410,
#411),(#412,#413),(#414,#415)),.UNSPECIFIED.,.F.,.F.,.F.)
B_SPLINE_SURFACE_WITH_KNOTS((6,1,6),(2,2),(-0.574332945053718,-0.4,-0.29291236373084),
(0.,0.3),.UNSPECIFIED.)
GEOMETRIC_REPRESENTATION_ITEM()
RATIONAL_B_SPLINE_SURFACE(((1.,1.),(1.,1.),(1.,1.),(1.,1.),(1.,1.),(1.,
1.),(1.,1.)))
REPRESENTATION_ITEM('')
SURFACE()
);
#17=LINE('',#378,#27);
#18=LINE('',#380,#28);
#19=LINE('',#381,#29);
#20=LINE('',#384,#30);
#21=LINE('',#391,#31);
#22=LINE('',#398,#32);
#23=LINE('',#400,#33);
#24=LINE('',#401,#34);
#25=LINE('',#450,#35);
#26=LINE('',#453,#36);
#27=VECTOR('',#203,10.);
#28=VECTOR('',#204,10.);
#29=VECTOR('',#205,10.);
#30=VECTOR('',#208,10.);
#31=VECTOR('',#211,10.);
#32=VECTOR('',#214,10.);
#33=VECTOR('',#215,10.);
#34=VECTOR('',#216,10.);
#35=VECTOR('',#219,10.);
#36=VECTOR('',#224,10.);
#37=PLANE('',#191);
#38=PLANE('',#192);
#39=PLANE('',#193);
#40=PLANE('',#194);
#41=PLANE('',#195);
#42=PLANE('',#196);
#43=PLANE('',#197);
#44=PLANE('',#198);
#45=FACE_OUTER_BOUND('',#55,.T.);
#46=FACE_OUTER_BOUND('',#56,.T.);
#47=FACE_OUTER_BOUND('',#57,.T.);
#48=FACE_OUTER_BOUND('',#58,.T.);
#49=FACE_OUTER_BOUND('',#59,.T.);
#50=FACE_OUTER_BOUND('',#60,.T.);
#51=FACE_OUTER_BOUND('',#61,.T.);
#52=FACE_OUTER_BOUND('',#62,.T.);
#53=FACE_OUTER_BOUND('',#63,.T.);
#54=FACE_OUTER_BOUND('',#64,.T.);
#55=EDGE_LOOP('',(#118,#119,#120,#121,#122,#123,#124,#125));
#56=EDGE_LOOP('',(#126,#127,#128,#129));
#57=EDGE_LOOP('',(#130,#131,#132,#133));
#58=EDGE_LOOP('',(#134,#135,#136,#137));
#59=EDGE_LOOP('',(#138,#139,#140,#141));
#60=EDGE_LOOP('',(#142,#143,#144,#145,#146,#147,#148,#149));
#61=EDGE_LOOP('',(#150,#151,#152,#153));
#62=EDGE_LOOP('',(#154,#155,#156,#157));
#63=EDGE_LOOP('',(#158,#159,#160,#161));
#64=EDGE_LOOP('',(#162,#163,#164,#165));
#65=B_SPLINE_CURVE_WITH_KNOTS('',3,(#265,#266,#267,#268,#269,#270,#271,
#272,#273,#274,#275,#276,#277,#278,#279,#280),.UNSPECIFIED.,.F.,.F.,(4,
3,3,3,3,4),(0.0699110956187747,0.0880709062203742,0.104139093322592,0.122255648796753,
0.140086322601779,0.148745768294874),.UNSPECIFIED.);
#66=B_SPLINE_CURVE_WITH_KNOTS('',3,(#282,#283,#284,#285,#286,#287,#288,
#289,#290,#291,#292,#293,#294),.UNSPECIFIED.,.F.,.F.,(4,3,3,3,4),(0.,0.115140873725388,
0.353436803556171,0.591732733386953,0.830028663217736),.UNSPECIFIED.);
#67=B_SPLINE_CURVE_WITH_KNOTS('',3,(#296,#297,#298,#299,#300,#301,#302,
#303,#304,#305,#306,#307,#308,#309,#310,#311,#312,#313,#314),
 .UNSPECIFIED.,.F.,.F.,(4,3,3,3,3,3,4),(0.,0.0178443923404546,0.0359718147713888,
0.0540548401444413,0.0584682340003411,0.0766098702004658,0.078776978320732),
 .UNSPECIFIED.);
#68=B_SPLINE_CURVE_WITH_KNOTS('',3,(#316,#317,#318,#319),.UNSPECIFIED.,
 .F.,.F.,(4,4),(0.0500081310245456,0.15001420201859),.UNSPECIFIED.);
#69=B_SPLINE_CURVE_WITH_KNOTS('',3,(#321,#322,#323,#324,#325,#326,#327,
#328,#329,#330,#331,#332,#333,#334,#335,#336,#337,#338,#339,#340,#341,#342,
#343,#344,#345,#346,#347,#348,#349,#350,#351,#352,#353,#354),
 .UNSPECIFIED.,.F.,.F.,(4,3,3,3,3,3,3,3,3,3,3,4),(0.0536493765635342,0.0582896848067583,
0.076180230982698,0.094100022455914,0.112369000769209,0.116877288106993,
0.135053624871986,0.153347505787726,0.164341279258706,0.18267105036626,
0.200602053968171,0.211873799006719),.UNSPECIFIED.);
#70=B_SPLINE_CURVE_WITH_KNOTS('',3,(#356,#357,#358,#359,#360,#361,#362),
 .UNSPECIFIED.,.F.,.F.,(4,1,1,1,4),(0.110649890055771,0.231768995216626,
0.463537990433253,0.695306985649879,0.732057770478604),.UNSPECIFIED.);
#71=B_SPLINE_CURVE_WITH_KNOTS('',3,(#364,#365,#366,#367,#368,#369,#370,
#371),.UNSPECIFIED.,.F.,.F.,(4,2,2,4),(0.,0.061623845951535,0.122679503794297,
0.160685678023086),.UNSPECIFIED.);
#72=B_SPLINE_CURVE_WITH_KNOTS('',3,(#372,#373,#374,#375),.UNSPECIFIED.,
 .F.,.F.,(4,4),(0.0528775625283175,0.160681665231023),.UNSPECIFIED.);
#73=B_SPLINE_CURVE_WITH_KNOTS('',3,(#385,#386,#387,#388),.UNSPECIFIED.,
 .F.,.F.,(4,4),(0.,0.102950051639169),.UNSPECIFIED.);
#74=B_SPLINE_CURVE_WITH_KNOTS('',3,(#392,#393,#394,#395),.UNSPECIFIED.,
 .F.,.F.,(4,4),(0.0500000000000002,0.125),.UNSPECIFIED.);
#75=B_SPLINE_CURVE_WITH_KNOTS('',3,(#416,#417,#418,#419,#420,#421,#422,
#423,#424,#425,#426,#427,#428,#429,#430,#431),.UNSPECIFIED.,.F.,.F.,(4,
3,3,3,3,4),(0.,0.131750418382247,0.27581249417673,0.444338138413288,0.733215556360474,
0.823165491743579),.UNSPECIFIED.);
#76=B_SPLINE_CURVE_WITH_KNOTS('',3,(#441,#442,#443,#444),.UNSPECIFIED.,
 .F.,.F.,(4,4),(0.,0.0750000000000003),.UNSPECIFIED.);
#77=B_SPLINE_CURVE_WITH_KNOTS('',3,(#445,#446,#447,#448),.UNSPECIFIED.,
 .F.,.F.,(4,4),(0.0512245900914676,0.153436747393329),.UNSPECIFIED.);
#78=VERTEX_POINT('',#263);
#79=VERTEX_POINT('',#264);
#80=VERTEX_POINT('',#281);
#81=VERTEX_POINT('',#295);
#82=VERTEX_POINT('',#315);
#83=VERTEX_POINT('',#320);
#84=VERTEX_POINT('',#355);
#85=VERTEX_POINT('',#363);
#86=VERTEX_POINT('',#377);
#87=VERTEX_POINT('',#379);
#88=VERTEX_POINT('',#383);
#89=VERTEX_POINT('',#390);
#90=VERTEX_POINT('',#397);
#91=VERTEX_POINT('',#399);
#92=VERTEX_POINT('',#432);
#93=VERTEX_POINT('',#440);
#94=EDGE_CURVE('',#78,#79,#65,.T.);
#95=EDGE_CURVE('',#79,#80,#66,.T.);
#96=EDGE_CURVE('',#80,#81,#67,.T.);
#97=EDGE_CURVE('',#81,#82,#68,.T.);
#98=EDGE_CURVE('',#82,#83,#69,.T.);
#99=EDGE_CURVE('',#83,#84,#70,.T.);
#100=EDGE_CURVE('',#84,#85,#71,.T.);
#101=EDGE_CURVE('',#85,#78,#72,.T.);
#102=EDGE_CURVE('',#78,#86,#17,.T.);
#103=EDGE_CURVE('',#86,#87,#18,.T.);
#104=EDGE_CURVE('',#87,#79,#19,.T.);
#105=EDGE_CURVE('',#85,#88,#20,.T.);
#106=EDGE_CURVE('',#86,#88,#73,.T.);
#107=EDGE_CURVE('',#89,#84,#21,.T.);
#108=EDGE_CURVE('',#88,#89,#74,.T.);
#109=EDGE_CURVE('',#80,#90,#22,.T.);
#110=EDGE_CURVE('',#91,#90,#23,.T.);
#111=EDGE_CURVE('',#91,#81,#24,.T.);
#112=EDGE_CURVE('',#90,#87,#75,.T.);
#113=EDGE_CURVE('',#89,#92,#15,.T.);
#114=EDGE_CURVE('',#92,#93,#76,.T.);
#115=EDGE_CURVE('',#93,#91,#77,.T.);
#116=EDGE_CURVE('',#93,#82,#25,.T.);
#117=EDGE_CURVE('',#92,#83,#26,.T.);
#118=ORIENTED_EDGE('',*,*,#94,.T.);
#119=ORIENTED_EDGE('',*,*,#95,.T.);
#120=ORIENTED_EDGE('',*,*,#96,.T.);
#121=ORIENTED_EDGE('',*,*,#97,.T.);
#122=ORIENTED_EDGE('',*,*,#98,.T.);
#123=ORIENTED_EDGE('',*,*,#99,.T.);
#124=ORIENTED_EDGE('',*,*,#100,.T.);
#125=ORIENTED_EDGE('',*,*,#101,.T.);
#126=ORIENTED_EDGE('',*,*,#94,.F.);
#127=ORIENTED_EDGE('',*,*,#102,.T.);
#128=ORIENTED_EDGE('',*,*,#103,.T.);
#129=ORIENTED_EDGE('',*,*,#104,.T.);
#130=ORIENTED_EDGE('',*,*,#101,.F.);
#131=ORIENTED_EDGE('',*,*,#105,.T.);
#132=ORIENTED_EDGE('',*,*,#106,.F.);
#133=ORIENTED_EDGE('',*,*,#102,.F.);
#134=ORIENTED_EDGE('',*,*,#100,.F.);
#135=ORIENTED_EDGE('',*,*,#107,.F.);
#136=ORIENTED_EDGE('',*,*,#108,.F.);
#137=ORIENTED_EDGE('',*,*,#105,.F.);
#138=ORIENTED_EDGE('',*,*,#96,.F.);
#139=ORIENTED_EDGE('',*,*,#109,.T.);
#140=ORIENTED_EDGE('',*,*,#110,.F.);
#141=ORIENTED_EDGE('',*,*,#111,.T.);
#142=ORIENTED_EDGE('',*,*,#112,.T.);
#143=ORIENTED_EDGE('',*,*,#103,.F.);
#144=ORIENTED_EDGE('',*,*,#106,.T.);
#145=ORIENTED_EDGE('',*,*,#108,.T.);
#146=ORIENTED_EDGE('',*,*,#113,.T.);
#147=ORIENTED_EDGE('',*,*,#114,.T.);
#148=ORIENTED_EDGE('',*,*,#115,.T.);
#149=ORIENTED_EDGE('',*,*,#110,.T.);
#150=ORIENTED_EDGE('',*,*,#97,.F.);
#151=ORIENTED_EDGE('',*,*,#111,.F.);
#152=ORIENTED_EDGE('',*,*,#115,.F.);
#153=ORIENTED_EDGE('',*,*,#116,.T.);
#154=ORIENTED_EDGE('',*,*,#104,.F.);
#155=ORIENTED_EDGE('',*,*,#112,.F.);
#156=ORIENTED_EDGE('',*,*,#109,.F.);
#157=ORIENTED_EDGE('',*,*,#95,.F.);
#158=ORIENTED_EDGE('',*,*,#99,.F.);
#159=ORIENTED_EDGE('',*,*,#117,.F.);
#160=ORIENTED_EDGE('',*,*,#113,.F.);
#161=ORIENTED_EDGE('',*,*,#107,.T.);
#162=ORIENTED_EDGE('',*,*,#98,.F.);
#163=ORIENTED_EDGE('',*,*,#116,.F.);
#164=ORIENTED_EDGE('',*,*,#114,.F.);
#165=ORIENTED_EDGE('',*,*,#117,.T.);
#166=B_SPLINE_SURFACE_WITH_KNOTS('',3,3,((#228,#229,#230,#231,#232,#233,
#234),(#235,#236,#237,#238,#239,#240,#241),(#242,#243,#244,#245,#246,#247,
#248),(#249,#250,#251,#252,#253,#254,#255),(#256,#257,#258,#259,#260,#261,
#262)),.UNSPECIFIED.,.F.,.F.,.F.,(4,1,4),(4,1,1,1,4),(0.,0.571428571428571,
1.),(-4.91489335896641E-16,0.231768995216626,0.463537990433253,0.695306985649879,
0.811191483258192),.UNSPECIFIED.);
#167=ADVANCED_FACE('',(#45),#166,.F.);
#168=ADVANCED_FACE('',(#46),#37,.T.);
#169=ADVANCED_FACE('',(#47),#38,.T.);
#170=ADVANCED_FACE('',(#48),#39,.T.);
#171=ADVANCED_FACE('',(#49),#40,.T.);
#172=ADVANCED_FACE('',(#50),#16,.T.);
#173=ADVANCED_FACE('',(#51),#41,.T.);
#174=ADVANCED_FACE('',(#52),#42,.T.);
#175=ADVANCED_FACE('',(#53),#43,.T.);
#176=ADVANCED_FACE('',(#54),#44,.T.);
#177=CLOSED_SHELL('',(#167,#168,#169,#170,#171,#172,#173,#174,#175,#176));
#178=DERIVED_UNIT_ELEMENT(#180,1.);
#179=DERIVED_UNIT_ELEMENT(#460,-3.);
#180=(
MASS_UNIT()
NAMED_UNIT(*)
SI_UNIT(.KILO.,.GRAM.)
);
#181=DERIVED_UNIT((#178,#179));
#182=MEASURE_REPRESENTATION_ITEM('density measure',
POSITIVE_RATIO_MEASURE(7850.),#181);
#183=PROPERTY_DEFINITION_REPRESENTATION(#188,#185);
#184=PROPERTY_DEFINITION_REPRESENTATION(#189,#186);
#185=REPRESENTATION('material name',(#187),#457);
#186=REPRESENTATION('density',(#182),#457);
#187=DESCRIPTIVE_REPRESENTATION_ITEM('Steel','Steel');
#188=PROPERTY_DEFINITION('material property','material name',#467);
#189=PROPERTY_DEFINITION('material property','density of part',#467);
#190=AXIS2_PLACEMENT_3D('',#227,#199,#200);
#191=AXIS2_PLACEMENT_3D('',#376,#201,#202);
#192=AXIS2_PLACEMENT_3D('',#382,#206,#207);
#193=AXIS2_PLACEMENT_3D('',#389,#209,#210);
#194=AXIS2_PLACEMENT_3D('',#396,#212,#213);
#195=AXIS2_PLACEMENT_3D('',#449,#217,#218);
#196=AXIS2_PLACEMENT_3D('',#451,#220,#221);
#197=AXIS2_PLACEMENT_3D('',#452,#222,#223);
#198=AXIS2_PLACEMENT_3D('',#454,#225,#226);
#199=DIRECTION('axis',(0.,0.,1.));
#200=DIRECTION('refdir',(1.,0.,0.));
#201=DIRECTION('center_axis',(0.,0.,-1.));
#202=DIRECTION('ref_axis',(0.,-1.,0.));
#203=DIRECTION('',(0.,-1.,0.));
#204=DIRECTION('',(-1.,0.,0.));
#205=DIRECTION('',(0.,1.,0.));
#206=DIRECTION('center_axis',(1.,0.,0.));
#207=DIRECTION('ref_axis',(0.,0.,-1.));
#208=DIRECTION('',(0.,-1.,0.));
#209=DIRECTION('center_axis',(0.,0.,-1.));
#210=DIRECTION('ref_axis',(-1.,0.,0.));
#211=DIRECTION('',(0.,1.,0.));
#212=DIRECTION('center_axis',(0.,0.,1.));
#213=DIRECTION('ref_axis',(0.,1.,0.));
#214=DIRECTION('',(0.,-1.,0.));
#215=DIRECTION('',(-1.,0.,0.));
#216=DIRECTION('',(0.,1.,0.));
#217=DIRECTION('center_axis',(1.,0.,0.));
#218=DIRECTION('ref_axis',(0.,0.,-1.));
#219=DIRECTION('',(0.,1.,0.));
#220=DIRECTION('center_axis',(-1.,0.,0.));
#221=DIRECTION('ref_axis',(0.,0.,1.));
#222=DIRECTION('center_axis',(1.,0.,0.));
#223=DIRECTION('ref_axis',(0.,0.,-1.));
#224=DIRECTION('',(0.,1.,0.));
#225=DIRECTION('center_axis',(0.,0.,1.));
#226=DIRECTION('ref_axis',(1.,0.,0.));
#227=CARTESIAN_POINT('',(0.,0.,0.));
#228=CARTESIAN_POINT('Ctrl Pts',(8.5,4.93950198759714,19.602489229385));
#229=CARTESIAN_POINT('Ctrl Pts',(8.5,4.88671570823029,18.8317313633302));
#230=CARTESIAN_POINT('Ctrl Pts',(8.5,4.71205982635644,17.288627774588));
#231=CARTESIAN_POINT('Ctrl Pts',(8.5,4.04753205322937,15.0638953919752));
#232=CARTESIAN_POINT('Ctrl Pts',(8.5,3.40889443234982,13.2425812002856));
#233=CARTESIAN_POINT('Ctrl Pts',(8.5,3.17171752761025,12.1041088379971));
#234=CARTESIAN_POINT('Ctrl Pts',(8.5,3.10522271004775,11.7236491986741));
#235=CARTESIAN_POINT('Ctrl Pts',(8.5,5.38725211188996,19.5718245236604));
#236=CARTESIAN_POINT('Ctrl Pts',(8.5,5.33342012885755,18.7857978351869));
#237=CARTESIAN_POINT('Ctrl Pts',(8.5,5.15534219153208,17.2026888038626));
#238=CARTESIAN_POINT('Ctrl Pts',(8.5,4.46744452067504,14.9031411833285));
#239=CARTESIAN_POINT('Ctrl Pts',(8.5,3.84089751430563,13.1184733048046));
#240=CARTESIAN_POINT('Ctrl Pts',(8.5,3.61184792543665,12.0155860741242));
#241=CARTESIAN_POINT('Ctrl Pts',(8.5,3.5473202328517,11.6463816226022));
#242=CARTESIAN_POINT('Ctrl Pts',(8.12378656290985,6.16274895487067,19.5187136897597));
#243=CARTESIAN_POINT('Ctrl Pts',(8.12378656290985,6.10712091711687,18.7064619420287));
#244=CARTESIAN_POINT('Ctrl Pts',(8.12378656290984,5.92308808370377,17.0541295020738));
#245=CARTESIAN_POINT('Ctrl Pts',(8.12378656290985,5.19502012456403,14.6259156312972));
#246=CARTESIAN_POINT('Ctrl Pts',(8.12378656290985,4.58923850205127,12.9041094525919));
#247=CARTESIAN_POINT('Ctrl Pts',(8.12378656290985,4.37417589555851,11.8624283154337));
#248=CARTESIAN_POINT('Ctrl Pts',(8.12378656290985,4.31302685050041,11.5125552805031));
#249=CARTESIAN_POINT('Ctrl Pts',(7.33659921288462,6.43599654417263,19.5));
#250=CARTESIAN_POINT('Ctrl Pts',(7.33659921288462,6.37972811656725,18.6783976118874));
#251=CARTESIAN_POINT('Ctrl Pts',(7.33659921288462,6.19361104260897,17.0016414550668));
#252=CARTESIAN_POINT('Ctrl Pts',(7.33659921288462,5.45123594575497,14.5276353330033));
#253=CARTESIAN_POINT('Ctrl Pts',(7.33659921288462,4.85285876300589,12.828283272793));
#254=CARTESIAN_POINT('Ctrl Pts',(7.33659921288462,4.64276921376772,11.8083816964962));
#255=CARTESIAN_POINT('Ctrl Pts',(7.33659921288462,4.58282483778929,11.4654013485501));
#256=CARTESIAN_POINT('Ctrl Pts',(7.,6.43599654417263,19.5));
#257=CARTESIAN_POINT('Ctrl Pts',(7.,6.37973078908001,18.6784366345322));
#258=CARTESIAN_POINT('Ctrl Pts',(7.,6.19360876568997,17.0016920696303));
#259=CARTESIAN_POINT('Ctrl Pts',(7.,5.45128787343904,14.5278475962966));
#260=CARTESIAN_POINT('Ctrl Pts',(7.,4.85287962678657,12.8283876389085));
#261=CARTESIAN_POINT('Ctrl Pts',(7.,4.64277424116389,11.8084104614647));
#262=CARTESIAN_POINT('Ctrl Pts',(7.,4.58282483778929,11.4654013485501));
#263=CARTESIAN_POINT('',(7.75,4.38486368935891,11.5));
#264=CARTESIAN_POINT('',(7.,4.58891744470866,11.5));
#265=CARTESIAN_POINT('Ctrl Pts',(7.75091270642729,4.38452936676977,11.5000584312166));
#266=CARTESIAN_POINT('Ctrl Pts',(7.69878201292763,4.41492902590398,11.5000816756555));
#267=CARTESIAN_POINT('Ctrl Pts',(7.64481048723264,4.44214067256149,11.5001038784171));
#268=CARTESIAN_POINT('Ctrl Pts',(7.58933125571564,4.46605904790681,11.5001164640073));
#269=CARTESIAN_POINT('Ctrl Pts',(7.54024205033461,4.48722253571301,11.5001276000055));
#270=CARTESIAN_POINT('Ctrl Pts',(7.4899715453123,4.5058072305428,11.5001312774706));
#271=CARTESIAN_POINT('Ctrl Pts',(7.43874086511531,4.52170777383788,11.5001251272662));
#272=CARTESIAN_POINT('Ctrl Pts',(7.38097920241204,4.53963534800003,11.5001181930223));
#273=CARTESIAN_POINT('Ctrl Pts',(7.32228092850229,4.55406335810929,11.5000973048514));
#274=CARTESIAN_POINT('Ctrl Pts',(7.26298061842059,4.56489726457947,11.5000736755762));
#275=CARTESIAN_POINT('Ctrl Pts',(7.20461607516557,4.57556021055612,11.5000504191741));
#276=CARTESIAN_POINT('Ctrl Pts',(7.14566731297319,4.58274178529127,11.5000244943426));
#277=CARTESIAN_POINT('Ctrl Pts',(7.08644395393254,4.58630318666644,11.5000098876383));
#278=CARTESIAN_POINT('Ctrl Pts',(7.05768219949842,4.58803277704181,11.5000027939096));
#279=CARTESIAN_POINT('Ctrl Pts',(7.02885563381762,4.58890777710081,11.4999984208206));
#280=CARTESIAN_POINT('Ctrl Pts',(7.,4.58890782065763,11.4999986685884));
#281=CARTESIAN_POINT('',(7.,6.43599654417263,19.5));
#282=CARTESIAN_POINT('Ctrl Pts',(7.,4.58890782065763,11.4999986685885));
#283=CARTESIAN_POINT('Ctrl Pts',(7.,4.64750369223603,11.8312791401951));
#284=CARTESIAN_POINT('Ctrl Pts',(7.,4.71572129404052,12.1598360867017));
#285=CARTESIAN_POINT('Ctrl Pts',(7.,4.79939333850888,12.488361779426));
#286=CARTESIAN_POINT('Ctrl Pts',(7.,4.97256127611707,13.1682796303861));
#287=CARTESIAN_POINT('Ctrl Pts',(7.,5.21192457477806,13.8480636133413));
#288=CARTESIAN_POINT('Ctrl Pts',(7.,5.45532637281704,14.6002630170412));
#289=CARTESIAN_POINT('Ctrl Pts',(7.,5.69872817085602,15.3524624207411));
#290=CARTESIAN_POINT('Ctrl Pts',(7.,5.946168468273,16.1770772451857));
#291=CARTESIAN_POINT('Ctrl Pts',(7.,6.11641912282899,17.0085707986335));
#292=CARTESIAN_POINT('Ctrl Pts',(7.,6.28666977738499,17.8400643520812));
#293=CARTESIAN_POINT('Ctrl Pts',(7.,6.37973078908001,18.6784366345322));
#294=CARTESIAN_POINT('Ctrl Pts',(7.,6.43599654417263,19.5));
#295=CARTESIAN_POINT('',(7.75,6.23455995916921,19.5));
#296=CARTESIAN_POINT('Ctrl Pts',(7.,6.43599654417263,19.5));
#297=CARTESIAN_POINT('Ctrl Pts',(7.05948130780152,6.43599654417263,19.5));
#298=CARTESIAN_POINT('Ctrl Pts',(7.11881274200903,6.43232765017707,19.5000093573283));
#299=CARTESIAN_POINT('Ctrl Pts',(7.17768223610937,6.4251637455784,19.5000190264195));
#300=CARTESIAN_POINT('Ctrl Pts',(7.23748545986124,6.4178862142152,19.5000288488723));
#301=CARTESIAN_POINT('Ctrl Pts',(7.2968130007482,6.40700170871709,19.5000390114352));
#302=CARTESIAN_POINT('Ctrl Pts',(7.35533797841008,6.39263875581663,19.5000449793847));
#303=CARTESIAN_POINT('Ctrl Pts',(7.41371961871494,6.3783109801651,19.5000509327176));
#304=CARTESIAN_POINT('Ctrl Pts',(7.47130366115999,6.36052142548028,19.5000527401222));
#305=CARTESIAN_POINT('Ctrl Pts',(7.52775033910715,6.33934909407434,19.5000504127275));
#306=CARTESIAN_POINT('Ctrl Pts',(7.54152687353646,6.33418171552931,19.500049844697));
#307=CARTESIAN_POINT('Ctrl Pts',(7.55523554608015,6.32881262267212,19.5000490504012));
#308=CARTESIAN_POINT('Ctrl Pts',(7.56887116910524,6.32324255881707,19.50004806817));
#309=CARTESIAN_POINT('Ctrl Pts',(7.62492143282853,6.30034638843624,19.5000440306337));
#310=CARTESIAN_POINT('Ctrl Pts',(7.67944557219053,6.27417796843889,19.5000357101665));
#311=CARTESIAN_POINT('Ctrl Pts',(7.73211704752489,6.24486232382753,19.5000259743258));
#312=CARTESIAN_POINT('Ctrl Pts',(7.73840891561464,6.24136042516815,19.5000248113315));
#313=CARTESIAN_POINT('Ctrl Pts',(7.74467432697452,6.23781355978972,19.5000236331311));
#314=CARTESIAN_POINT('Ctrl Pts',(7.75091270642729,6.23422189478493,19.5000224486153));
#315=CARTESIAN_POINT('',(7.75,6.14299698600511,18.5));
#316=CARTESIAN_POINT('Ctrl Pts',(7.75091270642729,6.23422189478493,19.5000224486153));
#317=CARTESIAN_POINT('Ctrl Pts',(7.75091270642729,6.21131657412761,19.167950745949));
#318=CARTESIAN_POINT('Ctrl Pts',(7.75091270642729,6.18231524322168,18.8334675125895));
#319=CARTESIAN_POINT('Ctrl Pts',(7.75091270642729,6.14455564236174,18.4981026094042));
#320=CARTESIAN_POINT('',(8.5,4.8346827940386,18.5));
#321=CARTESIAN_POINT('Ctrl Pts',(7.75091270642729,6.14455564236174,18.4981026094042));
#322=CARTESIAN_POINT('Ctrl Pts',(7.76427503695692,6.13682967504799,18.4981009610075));
#323=CARTESIAN_POINT('Ctrl Pts',(7.77752200694879,6.12889227563871,18.4980994896747));
#324=CARTESIAN_POINT('Ctrl Pts',(7.79064736488016,6.12074413438891,18.4980981028545));
#325=CARTESIAN_POINT('Ctrl Pts',(7.84125191633089,6.08932914096478,18.4980927559972));
#326=CARTESIAN_POINT('Ctrl Pts',(7.88975247075582,6.05497001459543,18.4980903524846));
#327=CARTESIAN_POINT('Ctrl Pts',(7.93584622277531,6.01778721299999,18.4981011862181));
#328=CARTESIAN_POINT('Ctrl Pts',(7.9820153232759,5.98054362946556,18.4981120376613));
#329=CARTESIAN_POINT('Ctrl Pts',(8.02577080192612,5.94046688693986,18.4981362599091));
#330=CARTESIAN_POINT('Ctrl Pts',(8.0670129816736,5.89786566064922,18.4981640736991));
#331=CARTESIAN_POINT('Ctrl Pts',(8.10905881064019,5.85443430262328,18.4981924294713));
#332=CARTESIAN_POINT('Ctrl Pts',(8.14849303475238,5.80837831368835,18.4982246278766));
#333=CARTESIAN_POINT('Ctrl Pts',(8.18517114142529,5.75998841786292,18.4982549497134));
#334=CARTESIAN_POINT('Ctrl Pts',(8.19422230132332,5.74804710670226,18.4982624323187));
#335=CARTESIAN_POINT('Ctrl Pts',(8.20310541550819,5.73596353100427,18.49826981786));
#336=CARTESIAN_POINT('Ctrl Pts',(8.21181789080589,5.72374181753151,18.4982770505452));
#337=CARTESIAN_POINT('Ctrl Pts',(8.24694450834431,5.6744667906129,18.4983062110027));
#338=CARTESIAN_POINT('Ctrl Pts',(8.27911567198131,5.62320822521031,18.4983317136663));
#339=CARTESIAN_POINT('Ctrl Pts',(8.30822706784816,5.5702818959596,18.4983522805631));
#340=CARTESIAN_POINT('Ctrl Pts',(8.33752672355793,5.51701329859929,18.4983729804635));
#341=CARTESIAN_POINT('Ctrl Pts',(8.36372742262436,5.4620543758012,18.4983888059485));
#342=CARTESIAN_POINT('Ctrl Pts',(8.38667989230025,5.40569752262279,18.4984009271836));
#343=CARTESIAN_POINT('Ctrl Pts',(8.40047326142616,5.37182966920041,18.4984082114835));
#344=CARTESIAN_POINT('Ctrl Pts',(8.41309268966907,5.33745645614119,18.498414196947));
#345=CARTESIAN_POINT('Ctrl Pts',(8.42449719447169,5.3026383774299,18.4984192735385));
#346=CARTESIAN_POINT('Ctrl Pts',(8.44351177242153,5.24458666162301,18.4984277376714));
#347=CARTESIAN_POINT('Ctrl Pts',(8.45906428573939,5.1855656160095,18.4984331015361));
#348=CARTESIAN_POINT('Ctrl Pts',(8.47101918375277,5.12587281684326,18.4984419707635));
#349=CARTESIAN_POINT('Ctrl Pts',(8.48271400078462,5.0674786453843,18.4984506470393));
#350=CARTESIAN_POINT('Ctrl Pts',(8.49096629573895,5.00844069748366,18.498462793145));
#351=CARTESIAN_POINT('Ctrl Pts',(8.49560196683026,4.94902456440262,18.4984839961869));
#352=CARTESIAN_POINT('Ctrl Pts',(8.49851603141827,4.91167453547314,18.4984973247929));
#353=CARTESIAN_POINT('Ctrl Pts',(8.5,4.87417485350521,18.4985142146169));
#354=CARTESIAN_POINT('Ctrl Pts',(8.5,4.83659121261362,18.4985356236514));
#355=CARTESIAN_POINT('',(8.5,3.2619091909566,12.4999999999226));
#356=CARTESIAN_POINT('Ctrl Pts',(8.5,4.83673868184083,18.4997505201848));
#357=CARTESIAN_POINT('Ctrl Pts',(8.5,4.78804083449303,18.0984472059767));
#358=CARTESIAN_POINT('Ctrl Pts',(8.5,4.60630808424387,16.9345879064145));
#359=CARTESIAN_POINT('Ctrl Pts',(8.5,4.04753205322937,15.0638953919752));
#360=CARTESIAN_POINT('Ctrl Pts',(8.5,3.49611535853744,13.491324314509));
#361=CARTESIAN_POINT('Ctrl Pts',(8.5,3.28725590457763,12.6200254288761));
#362=CARTESIAN_POINT('Ctrl Pts',(8.5,3.26018538201979,12.5003961634336));
#363=CARTESIAN_POINT('',(7.75,4.59777813807655,12.5));
#364=CARTESIAN_POINT('Ctrl Pts',(8.5,3.26190919099205,12.5));
#365=CARTESIAN_POINT('Ctrl Pts',(8.5,3.4673220108305,12.5));
#366=CARTESIAN_POINT('Ctrl Pts',(8.45990907021557,3.67108036579371,12.4999999999587));
#367=CARTESIAN_POINT('Ctrl Pts',(8.30458243093384,4.04929806248352,12.4999999999587));
#368=CARTESIAN_POINT('Ctrl Pts',(8.19131566972278,4.22089115840731,12.4999999997913));
#369=CARTESIAN_POINT('Ctrl Pts',(7.95861697963994,4.4549096442134,12.4999999997913));
#370=CARTESIAN_POINT('Ctrl Pts',(7.85858745757464,4.53314170880007,12.5));
#371=CARTESIAN_POINT('Ctrl Pts',(7.75,4.59777813807655,12.5));
#372=CARTESIAN_POINT('Ctrl Pts',(7.75091270642729,4.59484269511097,12.5003549679524));
#373=CARTESIAN_POINT('Ctrl Pts',(7.75091270642729,4.51143281959411,12.1682563261806));
#374=CARTESIAN_POINT('Ctrl Pts',(7.75091270642729,4.44314391150575,11.8354299589049));
#375=CARTESIAN_POINT('Ctrl Pts',(7.75091270642729,4.38452936676977,11.5000584312165));
#376=CARTESIAN_POINT('Origin',(8.5,4.58891744470866,11.5));
#377=CARTESIAN_POINT('',(7.75,-0.943987449607175,11.5));
#378=CARTESIAN_POINT('',(7.75,2.29445872235433,11.5));
#379=CARTESIAN_POINT('',(7.,-0.943987449607175,11.5));
#380=CARTESIAN_POINT('',(8.5,-0.943987449607175,11.5));
#381=CARTESIAN_POINT('',(7.,2.29445872235433,11.5));
#382=CARTESIAN_POINT('Origin',(7.75,0.,12.5));
#383=CARTESIAN_POINT('',(7.75,-1.19238742972736,12.5));
#384=CARTESIAN_POINT('',(7.75,0.,12.5));
#385=CARTESIAN_POINT('Ctrl Pts',(7.75,-0.943987449607176,11.5));
#386=CARTESIAN_POINT('Ctrl Pts',(7.75,-1.02594499169232,11.8328814524301));
#387=CARTESIAN_POINT('Ctrl Pts',(7.75,-1.10890120076841,12.1662985780181));
#388=CARTESIAN_POINT('Ctrl Pts',(7.75,-1.19238742972736,12.5));
#389=CARTESIAN_POINT('Origin',(8.5,0.,12.5));
#390=CARTESIAN_POINT('',(8.5,-1.19238742972736,12.5));
#391=CARTESIAN_POINT('',(8.5,0.,12.5));
#392=CARTESIAN_POINT('Ctrl Pts',(7.75,-1.19238742972736,12.5));
#393=CARTESIAN_POINT('Ctrl Pts',(8.,-1.19238742972736,12.5));
#394=CARTESIAN_POINT('Ctrl Pts',(8.25,-1.19238742972736,12.5));
#395=CARTESIAN_POINT('Ctrl Pts',(8.5,-1.19238742972736,12.5));
#396=CARTESIAN_POINT('Origin',(8.5,-2.8702226581433,19.5));
#397=CARTESIAN_POINT('',(7.,-2.8702226581433,19.5));
#398=CARTESIAN_POINT('',(7.,-1.43511132907165,19.5));
#399=CARTESIAN_POINT('',(7.75,-2.8702226581433,19.5));
#400=CARTESIAN_POINT('',(8.5,-2.8702226581433,19.5));
#401=CARTESIAN_POINT('',(7.75,-1.43511132907165,19.5));
#402=CARTESIAN_POINT('Ctrl Pts',(8.5,-0.943987449607176,11.5));
#403=CARTESIAN_POINT('Ctrl Pts',(5.5,-0.943987449607176,11.5));
#404=CARTESIAN_POINT('Ctrl Pts',(8.5,-1.1888357330423,12.4944838527519));
#405=CARTESIAN_POINT('Ctrl Pts',(5.5,-1.1888357330423,12.4944838527519));
#406=CARTESIAN_POINT('Ctrl Pts',(8.5,-1.59607294904625,14.1062791220589));
#407=CARTESIAN_POINT('Ctrl Pts',(5.5,-1.59607294904625,14.1062791220589));
#408=CARTESIAN_POINT('Ctrl Pts',(8.5,-2.00766083454152,15.7204080390044));
#409=CARTESIAN_POINT('Ctrl Pts',(5.5,-2.00766083454152,15.7204080390044));
#410=CARTESIAN_POINT('Ctrl Pts',(8.5,-2.39866102489772,17.3234939598689));
#411=CARTESIAN_POINT('Ctrl Pts',(5.5,-2.39866102489772,17.3234939598689));
#412=CARTESIAN_POINT('Ctrl Pts',(8.5,-2.74571641215099,18.9030084083));
#413=CARTESIAN_POINT('Ctrl Pts',(5.5,-2.74571641215099,18.9030084083));
#414=CARTESIAN_POINT('Ctrl Pts',(8.5,-2.8702226581433,19.5));
#415=CARTESIAN_POINT('Ctrl Pts',(5.5,-2.8702226581433,19.5));
#416=CARTESIAN_POINT('Ctrl Pts',(7.,-2.8702226581433,19.5));
#417=CARTESIAN_POINT('Ctrl Pts',(7.,-2.78294134755914,19.0814972323998));
#418=CARTESIAN_POINT('Ctrl Pts',(7.,-2.69119918518067,18.6606017166774));
#419=CARTESIAN_POINT('Ctrl Pts',(7.,-2.59591134574973,18.2378043417363));
#420=CARTESIAN_POINT('Ctrl Pts',(7.,-2.49171916089788,17.7754978973062));
#421=CARTESIAN_POINT('Ctrl Pts',(7.,-2.38328829510438,17.3109178745706));
#422=CARTESIAN_POINT('Ctrl Pts',(7.,-2.27187273466262,16.8447368969404));
#423=CARTESIAN_POINT('Ctrl Pts',(7.,-2.14153739833018,16.2993924740401));
#424=CARTESIAN_POINT('Ctrl Pts',(7.,-2.0071186729871,15.7518577695888));
#425=CARTESIAN_POINT('Ctrl Pts',(7.,-1.87068585112127,15.2032427275933));
#426=CARTESIAN_POINT('Ctrl Pts',(7.,-1.63682018941504,14.2628369068851));
#427=CARTESIAN_POINT('Ctrl Pts',(7.,-1.39704090806493,13.3192590905693));
#428=CARTESIAN_POINT('Ctrl Pts',(7.,-1.16193306098343,12.3781869763233));
#429=CARTESIAN_POINT('Ctrl Pts',(7.,-1.08872576148829,12.0851582706916));
#430=CARTESIAN_POINT('Ctrl Pts',(7.,-1.01597143737125,11.7923725356932));
#431=CARTESIAN_POINT('Ctrl Pts',(7.,-0.943987449607176,11.5));
#432=CARTESIAN_POINT('',(8.5,-2.65459644236931,18.5));
#433=CARTESIAN_POINT('Ctrl Pts',(8.5,-1.19238742972736,12.5));
#434=CARTESIAN_POINT('Ctrl Pts',(8.5,-1.39171093018128,13.296712659864));
#435=CARTESIAN_POINT('Ctrl Pts',(8.5,-1.69694012869172,14.5035716677672));
#436=CARTESIAN_POINT('Ctrl Pts',(8.5,-2.00114355225437,15.7098804621253));
#437=CARTESIAN_POINT('Ctrl Pts',(8.5,-2.29393958133547,16.9100704650548));
#438=CARTESIAN_POINT('Ctrl Pts',(8.5,-2.56544332364726,18.0988395373007));
#439=CARTESIAN_POINT('Ctrl Pts',(8.5,-2.65459644236931,18.5));
#440=CARTESIAN_POINT('',(7.75,-2.65459644236931,18.5));
#441=CARTESIAN_POINT('Ctrl Pts',(8.5,-2.65459644236931,18.5));
#442=CARTESIAN_POINT('Ctrl Pts',(8.25,-2.65459644236931,18.5));
#443=CARTESIAN_POINT('Ctrl Pts',(8.,-2.65459644236931,18.5));
#444=CARTESIAN_POINT('Ctrl Pts',(7.75,-2.65459644236931,18.5));
#445=CARTESIAN_POINT('Ctrl Pts',(7.75,-2.65459644236931,18.5));
#446=CARTESIAN_POINT('Ctrl Pts',(7.75,-2.72897407197064,18.834675496865));
#447=CARTESIAN_POINT('Ctrl Pts',(7.75,-2.80100079794404,19.1680899968397));
#448=CARTESIAN_POINT('Ctrl Pts',(7.75,-2.8702226581433,19.5));
#449=CARTESIAN_POINT('Origin',(7.75,0.,20.));
#450=CARTESIAN_POINT('',(7.75,0.,18.5));
#451=CARTESIAN_POINT('Origin',(7.,0.,11.));
#452=CARTESIAN_POINT('Origin',(8.5,0.,18.5));
#453=CARTESIAN_POINT('',(8.5,0.,18.5));
#454=CARTESIAN_POINT('Origin',(7.75,0.,18.5));
#455=UNCERTAINTY_MEASURE_WITH_UNIT(LENGTH_MEASURE(0.01),#459,
'DISTANCE_ACCURACY_VALUE',
'Maximum model space distance between geometric entities at asserted c
onnectivities');
#456=UNCERTAINTY_MEASURE_WITH_UNIT(LENGTH_MEASURE(0.01),#459,
'DISTANCE_ACCURACY_VALUE',
'Maximum model space distance between geometric entities at asserted c
onnectivities');
#457=(
GEOMETRIC_REPRESENTATION_CONTEXT(3)
GLOBAL_UNCERTAINTY_ASSIGNED_CONTEXT((#455))
GLOBAL_UNIT_ASSIGNED_CONTEXT((#459,#461,#462))
REPRESENTATION_CONTEXT('','3D')
);
#458=(
GEOMETRIC_REPRESENTATION_CONTEXT(3)
GLOBAL_UNCERTAINTY_ASSIGNED_CONTEXT((#456))
GLOBAL_UNIT_ASSIGNED_CONTEXT((#459,#461,#462))
REPRESENTATION_CONTEXT('','3D')
);
#459=(
LENGTH_UNIT()
NAMED_UNIT(*)
SI_UNIT(.MILLI.,.METRE.)
);
#460=(
LENGTH_UNIT()
NAMED_UNIT(*)
SI_UNIT($,.METRE.)
);
#461=(
NAMED_UNIT(*)
PLANE_ANGLE_UNIT()
SI_UNIT($,.RADIAN.)
);
#462=(
NAMED_UNIT(*)
SI_UNIT($,.STERADIAN.)
SOLID_ANGLE_UNIT()
);
#463=SHAPE_DEFINITION_REPRESENTATION(#464,#465);
#464=PRODUCT_DEFINITION_SHAPE('',$,#467);
#465=SHAPE_REPRESENTATION('',(#190),#457);
#466=PRODUCT_DEFINITION_CONTEXT('part definition',#471,'design');
#467=PRODUCT_DEFINITION('2026-08-25-10-25-13-572','routing_lid',#468,#466);
#468=PRODUCT_DEFINITION_FORMATION('',$,#473);
#469=PRODUCT_RELATED_PRODUCT_CATEGORY('routing_lid','routing_lid',(#473));
#470=APPLICATION_PROTOCOL_DEFINITION('international standard',
'automotive_design',2009,#471);
#471=APPLICATION_CONTEXT(
'Core Data for Automotive Mechanical Design Process');
#472=PRODUCT_CONTEXT('part definition',#471,'mechanical');
#473=PRODUCT('2026-08-25-10-25-13-572','routing_lid',$,(#472));
#474=PRESENTATION_STYLE_ASSIGNMENT((#475));
#475=SURFACE_STYLE_USAGE(.BOTH.,#476);
#476=SURFACE_SIDE_STYLE('',(#477));
#477=SURFACE_STYLE_FILL_AREA(#478);
#478=FILL_AREA_STYLE('Steel - Satin',(#479));
#479=FILL_AREA_STYLE_COLOUR('Steel - Satin',#480);
#480=COLOUR_RGB('Steel - Satin',0.627450980392157,0.627450980392157,0.627450980392157);
ENDSEC;
END-ISO-10303-21;
