ISO-10303-21;
HEADER;
/* Generated by software containing ST-Developer
 * from STEP Tools, Inc. (www.steptools.com) 
 */

FILE_DESCRIPTION(
/* description */ (''),
/* implementation_level */ '2;1');

FILE_NAME(
/* name */ 'Middle_routing_lid.step',
/* time_stamp */ '2026-08-25T10:25:37+02:00',
/* author */ (''),
/* organization */ (''),
/* preprocessor_version */ 'ST-DEVELOPER v20.1',
/* originating_system */ 'Autodesk Translation Framework v15.8.0.0',
/* authorisation */ '');

FILE_SCHEMA (('AUTOMOTIVE_DESIGN { 1 0 10303 214 3 1 1 }'));
ENDSEC;

DATA;
#10=MECHANICAL_DESIGN_GEOMETRIC_PRESENTATION_REPRESENTATION('',(#13),#469);
#11=SHAPE_REPRESENTATION_RELATIONSHIP('SRR','None',#476,#12);
#12=ADVANCED_BREP_SHAPE_REPRESENTATION('',(#14),#468);
#13=STYLED_ITEM('',(#485),#14);
#14=MANIFOLD_SOLID_BREP('routing_lid',#177);
#15=(
BOUNDED_CURVE()
B_SPLINE_CURVE(5,(#444,#445,#446,#447,#448,#449,#450),.UNSPECIFIED.,.F.,
 .F.)
B_SPLINE_CURVE_WITH_KNOTS((6,1,6),(-0.531658816768477,-0.4,-0.362276595810218),
 .UNSPECIFIED.)
CURVE()
GEOMETRIC_REPRESENTATION_ITEM()
RATIONAL_B_SPLINE_CURVE((1.,1.,1.,1.,1.,1.,1.))
REPRESENTATION_ITEM('')
);
#16=(
BOUNDED_SURFACE()
B_SPLINE_SURFACE(5,1,((#419,#420),(#421,#422),(#423,#424),(#425,#426),(#427,
#428),(#429,#430),(#431,#432)),.UNSPECIFIED.,.F.,.F.,.F.)
B_SPLINE_SURFACE_WITH_KNOTS((6,1,6),(2,2),(-0.558071040505115,-0.4,-0.335504074258771),
(0.,0.35),.UNSPECIFIED.)
GEOMETRIC_REPRESENTATION_ITEM()
RATIONAL_B_SPLINE_SURFACE(((1.,1.),(1.,1.),(1.,1.),(1.,1.),(1.,1.),(1.,
1.),(1.,1.)))
REPRESENTATION_ITEM('')
SURFACE()
);
#17=LINE('',#395,#27);
#18=LINE('',#397,#28);
#19=LINE('',#398,#29);
#20=LINE('',#401,#30);
#21=LINE('',#408,#31);
#22=LINE('',#415,#32);
#23=LINE('',#417,#33);
#24=LINE('',#418,#34);
#25=LINE('',#461,#35);
#26=LINE('',#464,#36);
#27=VECTOR('',#203,10.);
#28=VECTOR('',#204,10.);
#29=VECTOR('',#205,10.);
#30=VECTOR('',#208,10.);
#31=VECTOR('',#211,10.);
#32=VECTOR('',#214,10.);
#33=VECTOR('',#215,10.);
#34=VECTOR('',#216,10.);
#35=VECTOR('',#219,10.);
#36=VECTOR('',#224,10.);
#37=PLANE('',#191);
#38=PLANE('',#192);
#39=PLANE('',#193);
#40=PLANE('',#194);
#41=PLANE('',#195);
#42=PLANE('',#196);
#43=PLANE('',#197);
#44=PLANE('',#198);
#45=FACE_OUTER_BOUND('',#55,.T.);
#46=FACE_OUTER_BOUND('',#56,.T.);
#47=FACE_OUTER_BOUND('',#57,.T.);
#48=FACE_OUTER_BOUND('',#58,.T.);
#49=FACE_OUTER_BOUND('',#59,.T.);
#50=FACE_OUTER_BOUND('',#60,.T.);
#51=FACE_OUTER_BOUND('',#61,.T.);
#52=FACE_OUTER_BOUND('',#62,.T.);
#53=FACE_OUTER_BOUND('',#63,.T.);
#54=FACE_OUTER_BOUND('',#64,.T.);
#55=EDGE_LOOP('',(#118,#119,#120,#121,#122,#123,#124,#125));
#56=EDGE_LOOP('',(#126,#127,#128,#129));
#57=EDGE_LOOP('',(#130,#131,#132,#133));
#58=EDGE_LOOP('',(#134,#135,#136,#137));
#59=EDGE_LOOP('',(#138,#139,#140,#141));
#60=EDGE_LOOP('',(#142,#143,#144,#145,#146,#147,#148,#149));
#61=EDGE_LOOP('',(#150,#151,#152,#153));
#62=EDGE_LOOP('',(#154,#155,#156,#157));
#63=EDGE_LOOP('',(#158,#159,#160,#161));
#64=EDGE_LOOP('',(#162,#163,#164,#165));
#65=B_SPLINE_CURVE_WITH_KNOTS('',3,(#260,#261,#262,#263,#264,#265,#266,
#267,#268,#269,#270,#271,#272,#273,#274,#275),.UNSPECIFIED.,.F.,.F.,(4,
3,3,3,3,4),(0.0698813734963246,0.0880480121662245,0.104075633522774,0.122222531103742,
0.140088140209455,0.148704759058042),.UNSPECIFIED.);
#66=B_SPLINE_CURVE_WITH_KNOTS('',3,(#277,#278,#279,#280,#281,#282,#283,
#284,#285,#286),.UNSPECIFIED.,.F.,.F.,(4,3,3,4),(0.,0.364082604181505,0.60917881845434,
0.854275032724523),.UNSPECIFIED.);
#67=B_SPLINE_CURVE_WITH_KNOTS('',3,(#288,#289,#290,#291,#292,#293,#294,
#295,#296,#297,#298,#299,#300,#301,#302,#303,#304,#305,#306),
 .UNSPECIFIED.,.F.,.F.,(4,3,3,3,3,3,4),(0.,0.0178274087386717,0.0359462112987122,
0.0540381456760104,0.0582605094235196,0.0764069410641621,0.0788064424485681),
 .UNSPECIFIED.);
#68=B_SPLINE_CURVE_WITH_KNOTS('',3,(#308,#309,#310,#311),.UNSPECIFIED.,
 .F.,.F.,(4,4),(0.0503458872151795,0.151376114038735),.UNSPECIFIED.);
#69=B_SPLINE_CURVE_WITH_KNOTS('',3,(#313,#314,#315,#316,#317,#318,#319,
#320,#321,#322,#323,#324,#325,#326,#327,#328,#329,#330,#331,#332,#333,#334,
#335,#336,#337,#338,#339,#340,#341,#342,#343,#344,#345,#346),
 .UNSPECIFIED.,.F.,.F.,(4,3,3,3,3,3,3,3,3,3,3,4),(0.0536713353850837,0.0581453982432754,
0.07622416363006,0.0941337059956737,0.112412141664168,0.116734022864148,
0.134927586110151,0.153264136005239,0.164429948099278,0.182809101412642,
0.200794815147827,0.212214893908139),.UNSPECIFIED.);
#70=B_SPLINE_CURVE_WITH_KNOTS('',3,(#348,#349,#350,#351,#352,#353),
 .UNSPECIFIED.,.F.,.F.,(4,1,1,4),(0.117491371843692,0.243232329873834,0.486464659750301,
0.771458764063975),.UNSPECIFIED.);
#71=B_SPLINE_CURVE_WITH_KNOTS('',3,(#355,#356,#357,#358,#359,#360,#361,
#362,#363,#364,#365,#366,#367,#368,#369,#370,#371,#372,#373,#374,#375,#376,
#377,#378,#379,#380,#381,#382,#383,#384,#385,#386,#387,#388),
 .UNSPECIFIED.,.F.,.F.,(4,3,3,3,3,3,3,3,3,3,3,4),(0.,0.0180528267385799,
0.0364552125687795,0.0549794712409292,0.0607245686624886,0.0791784258380595,
0.0975373046816498,0.115377765879148,0.120941966028563,0.137027302665723,
0.155203752569265,0.159681736755166),.UNSPECIFIED.);
#72=B_SPLINE_CURVE_WITH_KNOTS('',3,(#389,#390,#391,#392),.UNSPECIFIED.,
 .F.,.F.,(4,4),(0.0517223108079084,0.156626705255906),.UNSPECIFIED.);
#73=B_SPLINE_CURVE_WITH_KNOTS('',3,(#402,#403,#404,#405),.UNSPECIFIED.,
 .F.,.F.,(4,4),(0.,0.102192023801397),.UNSPECIFIED.);
#74=B_SPLINE_CURVE_WITH_KNOTS('',3,(#409,#410,#411,#412),.UNSPECIFIED.,
 .F.,.F.,(4,4),(0.0500000000000001,0.125),.UNSPECIFIED.);
#75=B_SPLINE_CURVE_WITH_KNOTS('',3,(#433,#434,#435,#436,#437,#438,#439,
#440,#441,#442),.UNSPECIFIED.,.F.,.F.,(4,3,3,4),(0.,0.179666814052503,0.397904890399621,
0.858176655694504),.UNSPECIFIED.);
#76=B_SPLINE_CURVE_WITH_KNOTS('',3,(#452,#453,#454,#455),.UNSPECIFIED.,
 .F.,.F.,(4,4),(0.,0.0749999999999998),.UNSPECIFIED.);
#77=B_SPLINE_CURVE_WITH_KNOTS('',3,(#456,#457,#458,#459),.UNSPECIFIED.,
 .F.,.F.,(4,4),(0.0509742101301877,0.152810746294089),.UNSPECIFIED.);
#78=VERTEX_POINT('',#258);
#79=VERTEX_POINT('',#259);
#80=VERTEX_POINT('',#276);
#81=VERTEX_POINT('',#287);
#82=VERTEX_POINT('',#307);
#83=VERTEX_POINT('',#312);
#84=VERTEX_POINT('',#347);
#85=VERTEX_POINT('',#354);
#86=VERTEX_POINT('',#394);
#87=VERTEX_POINT('',#396);
#88=VERTEX_POINT('',#400);
#89=VERTEX_POINT('',#407);
#90=VERTEX_POINT('',#414);
#91=VERTEX_POINT('',#416);
#92=VERTEX_POINT('',#443);
#93=VERTEX_POINT('',#451);
#94=EDGE_CURVE('',#78,#79,#65,.T.);
#95=EDGE_CURVE('',#79,#80,#66,.T.);
#96=EDGE_CURVE('',#80,#81,#67,.T.);
#97=EDGE_CURVE('',#81,#82,#68,.T.);
#98=EDGE_CURVE('',#82,#83,#69,.T.);
#99=EDGE_CURVE('',#83,#84,#70,.T.);
#100=EDGE_CURVE('',#84,#85,#71,.T.);
#101=EDGE_CURVE('',#85,#78,#72,.T.);
#102=EDGE_CURVE('',#78,#86,#17,.T.);
#103=EDGE_CURVE('',#86,#87,#18,.T.);
#104=EDGE_CURVE('',#87,#79,#19,.T.);
#105=EDGE_CURVE('',#85,#88,#20,.T.);
#106=EDGE_CURVE('',#86,#88,#73,.T.);
#107=EDGE_CURVE('',#89,#84,#21,.T.);
#108=EDGE_CURVE('',#88,#89,#74,.T.);
#109=EDGE_CURVE('',#80,#90,#22,.T.);
#110=EDGE_CURVE('',#91,#90,#23,.T.);
#111=EDGE_CURVE('',#91,#81,#24,.T.);
#112=EDGE_CURVE('',#90,#87,#75,.T.);
#113=EDGE_CURVE('',#89,#92,#15,.T.);
#114=EDGE_CURVE('',#92,#93,#76,.T.);
#115=EDGE_CURVE('',#93,#91,#77,.T.);
#116=EDGE_CURVE('',#93,#82,#25,.T.);
#117=EDGE_CURVE('',#92,#83,#26,.T.);
#118=ORIENTED_EDGE('',*,*,#94,.T.);
#119=ORIENTED_EDGE('',*,*,#95,.T.);
#120=ORIENTED_EDGE('',*,*,#96,.T.);
#121=ORIENTED_EDGE('',*,*,#97,.T.);
#122=ORIENTED_EDGE('',*,*,#98,.T.);
#123=ORIENTED_EDGE('',*,*,#99,.T.);
#124=ORIENTED_EDGE('',*,*,#100,.T.);
#125=ORIENTED_EDGE('',*,*,#101,.T.);
#126=ORIENTED_EDGE('',*,*,#94,.F.);
#127=ORIENTED_EDGE('',*,*,#102,.T.);
#128=ORIENTED_EDGE('',*,*,#103,.T.);
#129=ORIENTED_EDGE('',*,*,#104,.T.);
#130=ORIENTED_EDGE('',*,*,#101,.F.);
#131=ORIENTED_EDGE('',*,*,#105,.T.);
#132=ORIENTED_EDGE('',*,*,#106,.F.);
#133=ORIENTED_EDGE('',*,*,#102,.F.);
#134=ORIENTED_EDGE('',*,*,#100,.F.);
#135=ORIENTED_EDGE('',*,*,#107,.F.);
#136=ORIENTED_EDGE('',*,*,#108,.F.);
#137=ORIENTED_EDGE('',*,*,#105,.F.);
#138=ORIENTED_EDGE('',*,*,#96,.F.);
#139=ORIENTED_EDGE('',*,*,#109,.T.);
#140=ORIENTED_EDGE('',*,*,#110,.F.);
#141=ORIENTED_EDGE('',*,*,#111,.T.);
#142=ORIENTED_EDGE('',*,*,#112,.T.);
#143=ORIENTED_EDGE('',*,*,#103,.F.);
#144=ORIENTED_EDGE('',*,*,#106,.T.);
#145=ORIENTED_EDGE('',*,*,#108,.T.);
#146=ORIENTED_EDGE('',*,*,#113,.T.);
#147=ORIENTED_EDGE('',*,*,#114,.T.);
#148=ORIENTED_EDGE('',*,*,#115,.T.);
#149=ORIENTED_EDGE('',*,*,#110,.T.);
#150=ORIENTED_EDGE('',*,*,#97,.F.);
#151=ORIENTED_EDGE('',*,*,#111,.F.);
#152=ORIENTED_EDGE('',*,*,#115,.F.);
#153=ORIENTED_EDGE('',*,*,#116,.T.);
#154=ORIENTED_EDGE('',*,*,#104,.F.);
#155=ORIENTED_EDGE('',*,*,#112,.F.);
#156=ORIENTED_EDGE('',*,*,#109,.F.);
#157=ORIENTED_EDGE('',*,*,#95,.F.);
#158=ORIENTED_EDGE('',*,*,#99,.F.);
#159=ORIENTED_EDGE('',*,*,#117,.F.);
#160=ORIENTED_EDGE('',*,*,#113,.F.);
#161=ORIENTED_EDGE('',*,*,#107,.T.);
#162=ORIENTED_EDGE('',*,*,#98,.F.);
#163=ORIENTED_EDGE('',*,*,#116,.F.);
#164=ORIENTED_EDGE('',*,*,#114,.F.);
#165=ORIENTED_EDGE('',*,*,#117,.T.);
#166=B_SPLINE_SURFACE_WITH_KNOTS('',3,3,((#228,#229,#230,#231,#232,#233),
(#234,#235,#236,#237,#238,#239),(#240,#241,#242,#243,#244,#245),(#246,#247,
#248,#249,#250,#251),(#252,#253,#254,#255,#256,#257)),.UNSPECIFIED.,.F.,
 .F.,.F.,(4,1,4),(4,1,1,4),(0.,0.571428571428571,1.),(-2.63193249357715E-12,
0.243232329873834,0.486464659750301,0.851313154565),.UNSPECIFIED.);
#167=ADVANCED_FACE('',(#45),#166,.F.);
#168=ADVANCED_FACE('',(#46),#37,.T.);
#169=ADVANCED_FACE('',(#47),#38,.T.);
#170=ADVANCED_FACE('',(#48),#39,.T.);
#171=ADVANCED_FACE('',(#49),#40,.T.);
#172=ADVANCED_FACE('',(#50),#16,.T.);
#173=ADVANCED_FACE('',(#51),#41,.T.);
#174=ADVANCED_FACE('',(#52),#42,.T.);
#175=ADVANCED_FACE('',(#53),#43,.T.);
#176=ADVANCED_FACE('',(#54),#44,.T.);
#177=CLOSED_SHELL('',(#167,#168,#169,#170,#171,#172,#173,#174,#175,#176));
#178=DERIVED_UNIT_ELEMENT(#180,1.);
#179=DERIVED_UNIT_ELEMENT(#471,-3.);
#180=(
MASS_UNIT()
NAMED_UNIT(*)
SI_UNIT(.KILO.,.GRAM.)
);
#181=DERIVED_UNIT((#178,#179));
#182=MEASURE_REPRESENTATION_ITEM('density measure',
POSITIVE_RATIO_MEASURE(7850.),#181);
#183=PROPERTY_DEFINITION_REPRESENTATION(#188,#185);
#184=PROPERTY_DEFINITION_REPRESENTATION(#189,#186);
#185=REPRESENTATION('material name',(#187),#468);
#186=REPRESENTATION('density',(#182),#468);
#187=DESCRIPTIVE_REPRESENTATION_ITEM('Steel','Steel');
#188=PROPERTY_DEFINITION('material property','material name',#478);
#189=PROPERTY_DEFINITION('material property','density of part',#478);
#190=AXIS2_PLACEMENT_3D('',#227,#199,#200);
#191=AXIS2_PLACEMENT_3D('',#393,#201,#202);
#192=AXIS2_PLACEMENT_3D('',#399,#206,#207);
#193=AXIS2_PLACEMENT_3D('',#406,#209,#210);
#194=AXIS2_PLACEMENT_3D('',#413,#212,#213);
#195=AXIS2_PLACEMENT_3D('',#460,#217,#218);
#196=AXIS2_PLACEMENT_3D('',#462,#220,#221);
#197=AXIS2_PLACEMENT_3D('',#463,#222,#223);
#198=AXIS2_PLACEMENT_3D('',#465,#225,#226);
#199=DIRECTION('axis',(0.,0.,1.));
#200=DIRECTION('refdir',(1.,0.,0.));
#201=DIRECTION('center_axis',(0.,0.,-1.));
#202=DIRECTION('ref_axis',(0.,-1.,0.));
#203=DIRECTION('',(0.,-1.,0.));
#204=DIRECTION('',(-1.,0.,0.));
#205=DIRECTION('',(0.,1.,0.));
#206=DIRECTION('center_axis',(1.,0.,0.));
#207=DIRECTION('ref_axis',(0.,0.,-1.));
#208=DIRECTION('',(0.,-1.,0.));
#209=DIRECTION('center_axis',(0.,0.,-1.));
#210=DIRECTION('ref_axis',(-1.,0.,0.));
#211=DIRECTION('',(0.,1.,0.));
#212=DIRECTION('center_axis',(0.,0.,1.));
#213=DIRECTION('ref_axis',(0.,1.,0.));
#214=DIRECTION('',(0.,-1.,0.));
#215=DIRECTION('',(-1.,0.,0.));
#216=DIRECTION('',(0.,1.,0.));
#217=DIRECTION('center_axis',(1.,0.,0.));
#218=DIRECTION('ref_axis',(0.,0.,-1.));
#219=DIRECTION('',(0.,1.,0.));
#220=DIRECTION('center_axis',(-1.,0.,0.));
#221=DIRECTION('ref_axis',(0.,0.,1.));
#222=DIRECTION('center_axis',(1.,0.,0.));
#223=DIRECTION('ref_axis',(0.,0.,-1.));
#224=DIRECTION('',(0.,1.,0.));
#225=DIRECTION('center_axis',(0.,0.,1.));
#226=DIRECTION('ref_axis',(1.,0.,0.));
#227=CARTESIAN_POINT('',(0.,0.,0.));
#228=CARTESIAN_POINT('Ctrl Pts',(10.,5.42649372230771,24.3656391347317));
#229=CARTESIAN_POINT('Ctrl Pts',(10.,5.33696307195327,23.5598231236433));
#230=CARTESIAN_POINT('Ctrl Pts',(10.,5.10609223382459,21.9524739791086));
#231=CARTESIAN_POINT('Ctrl Pts',(10.,4.47812781547628,19.184826500017));
#232=CARTESIAN_POINT('Ctrl Pts',(10.,4.00125643279552,17.2138418843726));
#233=CARTESIAN_POINT('Ctrl Pts',(10.,3.80056577445806,16.014369732622));
#234=CARTESIAN_POINT('Ctrl Pts',(10.,5.87254797044147,24.3160800215107));
#235=CARTESIAN_POINT('Ctrl Pts',(10.,5.78190935474164,23.5002918253493));
#236=CARTESIAN_POINT('Ctrl Pts',(10.,5.54775386022939,21.8699537853254));
#237=CARTESIAN_POINT('Ctrl Pts',(10.,4.91212356619631,19.0699778582336));
#238=CARTESIAN_POINT('Ctrl Pts',(10.,4.44096567605303,17.1222288091528));
#239=CARTESIAN_POINT('Ctrl Pts',(10.,4.24321164798811,15.9403080783856));
#240=CARTESIAN_POINT('Ctrl Pts',(9.6237193449138,6.64505192993665,24.2302505257657));
#241=CARTESIAN_POINT('Ctrl Pts',(9.6237193449138,6.55251032158676,23.3973345421892));
#242=CARTESIAN_POINT('Ctrl Pts',(9.6237193449138,6.3126795949311,21.7272860299882));
#243=CARTESIAN_POINT('Ctrl Pts',(9.62371934491379,5.66386698289663,18.8717016353962));
#244=CARTESIAN_POINT('Ctrl Pts',(9.6237193449138,5.20252297720249,16.963818767671));
#245=CARTESIAN_POINT('Ctrl Pts',(9.6237193449138,5.00981277640879,15.8120435872756));
#246=CARTESIAN_POINT('Ctrl Pts',(8.83659921288462,6.91732023033786,24.2));
#247=CARTESIAN_POINT('Ctrl Pts',(8.83659921288462,6.82410010302849,23.3609770414468));
#248=CARTESIAN_POINT('Ctrl Pts',(8.83659921288462,6.58226257367261,21.6768818001385));
#249=CARTESIAN_POINT('Ctrl Pts',(8.83659921288462,5.92875758301431,18.8015110226874));
#250=CARTESIAN_POINT('Ctrl Pts',(8.83659921288462,5.4709124353125,16.907863561581));
#251=CARTESIAN_POINT('Ctrl Pts',(8.83659921288462,5.28000062950036,15.7668368869511));
#252=CARTESIAN_POINT('Ctrl Pts',(8.5,6.91732023033786,24.2));
#253=CARTESIAN_POINT('Ctrl Pts',(8.5,6.82410293466389,23.3610025274355));
#254=CARTESIAN_POINT('Ctrl Pts',(8.5,6.58226778794328,21.6769257058506));
#255=CARTESIAN_POINT('Ctrl Pts',(8.5,5.92877957578049,18.8016228031648));
#256=CARTESIAN_POINT('Ctrl Pts',(8.5,5.47091994048067,16.9079084178801));
#257=CARTESIAN_POINT('Ctrl Pts',(8.5,5.28000062950036,15.7668368869511));
#258=CARTESIAN_POINT('',(9.25,5.08179394216886,15.8));
#259=CARTESIAN_POINT('',(8.5,5.28556888497739,15.8));
#260=CARTESIAN_POINT('Ctrl Pts',(9.25088559793506,5.08143693314346,15.8000597332554));
#261=CARTESIAN_POINT('Ctrl Pts',(9.19872097206132,5.11182155132522,15.8000820775394));
#262=CARTESIAN_POINT('Ctrl Pts',(9.14471565842363,5.13901586445493,15.8001032398341));
#263=CARTESIAN_POINT('Ctrl Pts',(9.0892038118691,5.16291560385306,15.8001148079327));
#264=CARTESIAN_POINT('Ctrl Pts',(9.04022816626147,5.18400128627091,15.8001250139542));
#265=CARTESIAN_POINT('Ctrl Pts',(8.99007896926572,5.20252207929384,15.800127819212));
#266=CARTESIAN_POINT('Ctrl Pts',(8.93897599045066,5.21837440313288,15.8001217440627));
#267=CARTESIAN_POINT('Ctrl Pts',(8.88111574450888,5.2363228550107,15.8001148656058));
#268=CARTESIAN_POINT('Ctrl Pts',(8.8223155123147,5.25076365692907,15.8000958705167));
#269=CARTESIAN_POINT('Ctrl Pts',(8.76291204520687,5.26160162310702,15.8000734248064));
#270=CARTESIAN_POINT('Ctrl Pts',(8.70442936968962,5.27227159390352,15.800051327019));
#271=CARTESIAN_POINT('Ctrl Pts',(8.6453609783977,5.27944975362916,15.8000258577458));
#272=CARTESIAN_POINT('Ctrl Pts',(8.58601870621694,5.2829968364939,15.8000110687493));
#273=CARTESIAN_POINT('Ctrl Pts',(8.5573978101722,5.28470760162309,15.8000039359869));
#274=CARTESIAN_POINT('Ctrl Pts',(8.52871315860404,5.28557297825882,15.7999993768794));
#275=CARTESIAN_POINT('Ctrl Pts',(8.5,5.28557299689372,15.7999994879736));
#276=CARTESIAN_POINT('',(8.5,6.91732023033786,24.2));
#277=CARTESIAN_POINT('Ctrl Pts',(8.5,5.28557299689372,15.7999994879736));
#278=CARTESIAN_POINT('Ctrl Pts',(8.5,5.47624310344778,16.9299292628927));
#279=CARTESIAN_POINT('Ctrl Pts',(8.5,5.74832825424637,18.0557030487763));
#280=CARTESIAN_POINT('Ctrl Pts',(8.5,6.02356186011724,19.237992105067));
#281=CARTESIAN_POINT('Ctrl Pts',(8.5,6.20884595242169,20.0338954757444));
#282=CARTESIAN_POINT('Ctrl Pts',(8.5,6.39555687018248,20.8554105907975));
#283=CARTESIAN_POINT('Ctrl Pts',(8.5,6.54937111574303,21.6871873537203));
#284=CARTESIAN_POINT('Ctrl Pts',(8.5,6.70318536130192,22.5189641166341));
#285=CARTESIAN_POINT('Ctrl Pts',(8.5,6.82410293466128,23.3610025274173));
#286=CARTESIAN_POINT('Ctrl Pts',(8.5,6.91732023033483,24.1999999999728));
#287=CARTESIAN_POINT('',(9.25,6.71511510558278,24.2));
#288=CARTESIAN_POINT('Ctrl Pts',(8.5,6.91732023033786,24.2));
#289=CARTESIAN_POINT('Ctrl Pts',(8.55942469579557,6.91732023033786,24.2));
#290=CARTESIAN_POINT('Ctrl Pts',(8.61869473849836,6.91364463000632,24.2000146185736));
#291=CARTESIAN_POINT('Ctrl Pts',(8.6774994113479,6.90646829653006,24.2000300334096));
#292=CARTESIAN_POINT('Ctrl Pts',(8.73726526249244,6.89917466394063,24.2000457002053));
#293=CARTESIAN_POINT('Ctrl Pts',(8.79655142834364,6.88826471106301,24.2000622172209));
#294=CARTESIAN_POINT('Ctrl Pts',(8.85503234401871,6.87386846771329,24.2000723374696));
#295=CARTESIAN_POINT('Ctrl Pts',(8.9134265389558,6.8594935724022,24.200082442711));
#296=CARTESIAN_POINT('Ctrl Pts',(8.97101891092727,6.8416423764394,24.2000862129992));
#297=CARTESIAN_POINT('Ctrl Pts',(9.02747042954866,6.82039577440809,24.2000830539977));
#298=CARTESIAN_POINT('Ctrl Pts',(9.04064529746206,6.81543716244853,24.2000823167381));
#299=CARTESIAN_POINT('Ctrl Pts',(9.05375792295115,6.81029341327094,24.2000812289745));
#300=CARTESIAN_POINT('Ctrl Pts',(9.06680378443904,6.80496520389667,24.2000798314629));
#301=CARTESIAN_POINT('Ctrl Pts',(9.12287061416952,6.78206630925237,24.200073825417));
#302=CARTESIAN_POINT('Ctrl Pts',(9.17740594088549,6.75588658883791,24.2000608749179));
#303=CARTESIAN_POINT('Ctrl Pts',(9.23008607888038,6.72655595898819,24.2000456961039));
#304=CARTESIAN_POINT('Ctrl Pts',(9.2370519698364,6.72267757185823,24.2000436890104));
#305=CARTESIAN_POINT('Ctrl Pts',(9.24398540032231,6.7187440214569,24.2000416520489));
#306=CARTESIAN_POINT('Ctrl Pts',(9.25088559793506,6.71475554485482,24.2000396043027));
#307=CARTESIAN_POINT('',(9.25,6.58943442488528,23.2));
#308=CARTESIAN_POINT('Ctrl Pts',(9.25088559793506,6.71475554485482,24.2000396043027));
#309=CARTESIAN_POINT('Ctrl Pts',(9.25088559793506,6.67752369951998,23.8666715828933));
#310=CARTESIAN_POINT('Ctrl Pts',(9.25088559793506,6.63590326305426,23.53294725141));
#311=CARTESIAN_POINT('Ctrl Pts',(9.25088559793506,6.58955538255415,23.1996371190565));
#312=CARTESIAN_POINT('',(10.,5.27721649781673,23.2000000000003));
#313=CARTESIAN_POINT('Ctrl Pts',(9.25088559793506,6.58955538255415,23.1996371190565));
#314=CARTESIAN_POINT('Ctrl Pts',(9.26375938473477,6.58208871351648,23.1996330831798));
#315=CARTESIAN_POINT('Ctrl Pts',(9.27652578626318,6.57442540447069,23.1996291109428));
#316=CARTESIAN_POINT('Ctrl Pts',(9.28917924074152,6.56656612062249,23.1996252133239));
#317=CARTESIAN_POINT('Ctrl Pts',(9.3403093392952,6.53480831421417,23.1996094638195));
#318=CARTESIAN_POINT('Ctrl Pts',(9.38929036980147,6.50004469204836,23.1995960409158));
#319=CARTESIAN_POINT('Ctrl Pts',(9.43581329967521,6.46240347032071,23.1995983222288));
#320=CARTESIAN_POINT('Ctrl Pts',(9.48190076005872,6.42511458245685,23.1996005821879));
#321=CARTESIAN_POINT('Ctrl Pts',(9.52557697234095,6.3850014166398,23.1996183407424));
#322=CARTESIAN_POINT('Ctrl Pts',(9.56674498262838,6.34237354619563,23.1996396600889));
#323=CARTESIAN_POINT('Ctrl Pts',(9.60876095446491,6.29886764461019,23.1996614185624));
#324=CARTESIAN_POINT('Ctrl Pts',(9.6481649339161,6.25274158734976,23.1996870106504));
#325=CARTESIAN_POINT('Ctrl Pts',(9.68481538277136,6.20428759489944,23.1997089984785));
#326=CARTESIAN_POINT('Ctrl Pts',(9.69348127129438,6.19283079395471,23.1997141974344));
#327=CARTESIAN_POINT('Ctrl Pts',(9.7019930285163,6.18124371583409,23.1997192127885));
#328=CARTESIAN_POINT('Ctrl Pts',(9.71034841954968,6.16953000685633,23.1997239759276));
#329=CARTESIAN_POINT('Ctrl Pts',(9.7455216064507,6.12021951097014,23.1997440270278));
#330=CARTESIAN_POINT('Ctrl Pts',(9.77774292763821,6.06892564789922,23.1997588166939));
#331=CARTESIAN_POINT('Ctrl Pts',(9.80691080058884,6.01596571446114,23.1997663388087));
#332=CARTESIAN_POINT('Ctrl Pts',(9.83630790936083,5.96258955890561,23.1997739200413));
#333=CARTESIAN_POINT('Ctrl Pts',(9.86260390745066,5.907520130444,23.199774259885));
#334=CARTESIAN_POINT('Ctrl Pts',(9.88565218952067,5.85105204780907,23.1997686709501));
#335=CARTESIAN_POINT('Ctrl Pts',(9.89968715183128,5.81666651707294,23.1997652676383));
#336=CARTESIAN_POINT('Ctrl Pts',(9.91251698544988,5.78176183086988,23.1997597221819));
#337=CARTESIAN_POINT('Ctrl Pts',(9.92409966110743,5.74640129021656,23.1997525950801));
#338=CARTESIAN_POINT('Ctrl Pts',(9.94316498030644,5.68819712267037,23.199740863726));
#339=CARTESIAN_POINT('Ctrl Pts',(9.95876769226014,5.62902145295674,23.1997246241177));
#340=CARTESIAN_POINT('Ctrl Pts',(9.97077298124766,5.56917323926816,23.1997105643306));
#341=CARTESIAN_POINT('Ctrl Pts',(9.9825212749452,5.51060618666175,23.199696805519));
#342=CARTESIAN_POINT('Ctrl Pts',(9.99082478197577,5.45139414395782,23.1996852671902));
#343=CARTESIAN_POINT('Ctrl Pts',(9.9955099766807,5.39180409320988,23.1996825585012));
#344=CARTESIAN_POINT('Ctrl Pts',(9.99848485403756,5.35396722541069,23.1996808386117));
#345=CARTESIAN_POINT('Ctrl Pts',(10.,5.31597773900415,23.1996826790528));
#346=CARTESIAN_POINT('Ctrl Pts',(10.,5.27790364972466,23.1996894833847));
#347=CARTESIAN_POINT('',(10.,3.942228533551,16.7999999999975));
#348=CARTESIAN_POINT('Ctrl Pts',(10.,5.2779335454662,23.1998964034677));
#349=CARTESIAN_POINT('Ctrl Pts',(10.,5.21797826287407,22.7849134613145));
#350=CARTESIAN_POINT('Ctrl Pts',(10.,5.01942565221879,21.5705056078215));
#351=CARTESIAN_POINT('Ctrl Pts',(10.,4.53703177533462,19.4444357887714));
#352=CARTESIAN_POINT('Ctrl Pts',(10.,4.12601535666887,17.7316110299582));
#353=CARTESIAN_POINT('Ctrl Pts',(10.,3.94361626556988,16.7997283766763));
#354=CARTESIAN_POINT('',(9.25,5.26617536006018,16.8));
#355=CARTESIAN_POINT('Ctrl Pts',(10.,3.94356099319451,16.7994459819913));
#356=CARTESIAN_POINT('Ctrl Pts',(10.,4.00376893759056,16.7994459792784));
#357=CARTESIAN_POINT('Ctrl Pts',(9.99627769883259,4.06374669988429,16.7994657448239));
#358=CARTESIAN_POINT('Ctrl Pts',(9.98904828177779,4.12322961167762,16.7994938297496));
#359=CARTESIAN_POINT('Ctrl Pts',(9.98167888063655,4.18386429836552,16.7995224584872));
#360=CARTESIAN_POINT('Ctrl Pts',(9.97066493395221,4.2439856727882,16.7995595625433));
#361=CARTESIAN_POINT('Ctrl Pts',(9.95617984462512,4.3033110670467,16.7995958286138));
#362=CARTESIAN_POINT('Ctrl Pts',(9.94159882539969,4.36302935353477,16.7996323348624));
#363=CARTESIAN_POINT('Ctrl Pts',(9.9235001255025,4.42194203180982,16.7996678146792));
#364=CARTESIAN_POINT('Ctrl Pts',(9.90201142759325,4.47974451055317,16.7996982141895));
#365=CARTESIAN_POINT('Ctrl Pts',(9.89534694157326,4.49767132087609,16.7997076422671));
#366=CARTESIAN_POINT('Ctrl Pts',(9.88835605406535,4.51549117134754,16.7997166315111));
#367=CARTESIAN_POINT('Ctrl Pts',(9.88104171622182,4.53319443651924,16.7997252083415));
#368=CARTESIAN_POINT('Ctrl Pts',(9.85754729376141,4.59005918624377,16.7997527580229));
#369=CARTESIAN_POINT('Ctrl Pts',(9.83084525512536,4.64541738643956,16.7997739973438));
#370=CARTESIAN_POINT('Ctrl Pts',(9.80110551392268,4.6989827197146,16.7997852700015));
#371=CARTESIAN_POINT('Ctrl Pts',(9.77151883725204,4.75227236287467,16.7997964846411));
#372=CARTESIAN_POINT('Ctrl Pts',(9.73892512653215,4.8037884511051,16.7997976772869));
#373=CARTESIAN_POINT('Ctrl Pts',(9.70344680705493,4.85322521038729,16.7997913035765));
#374=CARTESIAN_POINT('Ctrl Pts',(9.66897032363901,4.90126597546984,16.7997851098467));
#375=CARTESIAN_POINT('Ctrl Pts',(9.63176926453405,4.94734387312587,16.7997716576134));
#376=CARTESIAN_POINT('Ctrl Pts',(9.59192175392423,4.99114427190057,16.7997608724871));
#377=CARTESIAN_POINT('Ctrl Pts',(9.579493850742,5.00480502779183,16.7997575087511));
#378=CARTESIAN_POINT('Ctrl Pts',(9.56680829564039,5.01824394874528,16.7997544685848));
#379=CARTESIAN_POINT('Ctrl Pts',(9.55386688110099,5.03145062330978,16.7997522386449));
#380=CARTESIAN_POINT('Ctrl Pts',(9.51645489780565,5.06962943959678,16.7997457921722));
#381=CARTESIAN_POINT('Ctrl Pts',(9.47707634289229,5.10569513150784,16.7997442115551));
#382=CARTESIAN_POINT('Ctrl Pts',(9.43581329967521,5.13943697591148,16.7997598493981));
#383=CARTESIAN_POINT('Ctrl Pts',(9.38918601080825,5.17756530099974,16.7997775201796));
#384=CARTESIAN_POINT('Ctrl Pts',(9.34015226392146,5.21272749832684,16.7998170008261));
#385=CARTESIAN_POINT('Ctrl Pts',(9.28903795239006,5.24481474050481,16.7998575900753));
#386=CARTESIAN_POINT('Ctrl Pts',(9.27644533502387,5.25271981348686,16.7998675897187));
#387=CARTESIAN_POINT('Ctrl Pts',(9.26372632446787,5.26043803811376,16.799877695253));
#388=CARTESIAN_POINT('Ctrl Pts',(9.25088559793506,5.26796735202237,16.7998876746272));
#389=CARTESIAN_POINT('Ctrl Pts',(9.25088559793506,5.26796735202237,16.7998876746272));
#390=CARTESIAN_POINT('Ctrl Pts',(9.25088559793506,5.20006246794461,16.466232796755));
#391=CARTESIAN_POINT('Ctrl Pts',(9.25088559793506,5.13721305624618,16.1334180816137));
#392=CARTESIAN_POINT('Ctrl Pts',(9.25088559793506,5.08143693314346,15.8000597332554));
#393=CARTESIAN_POINT('Origin',(10.,5.28556888497739,15.8));
#394=CARTESIAN_POINT('',(9.25,-0.805079690778021,15.8));
#395=CARTESIAN_POINT('',(9.25,2.64278444248869,15.8));
#396=CARTESIAN_POINT('',(8.5,-0.805079690778021,15.8));
#397=CARTESIAN_POINT('',(10.,-0.805079690778021,15.8));
#398=CARTESIAN_POINT('',(8.5,2.64278444248869,15.8));
#399=CARTESIAN_POINT('Origin',(9.25,0.,16.8));
#400=CARTESIAN_POINT('',(9.25,-1.01788065374584,16.8));
#401=CARTESIAN_POINT('',(9.25,0.,16.8));
#402=CARTESIAN_POINT('Ctrl Pts',(9.25,-0.805079690778022,15.8));
#403=CARTESIAN_POINT('Ctrl Pts',(9.25,-0.875587262542316,16.133050798902));
#404=CARTESIAN_POINT('Ctrl Pts',(9.25,-0.946596848480666,16.466434482327));
#405=CARTESIAN_POINT('Ctrl Pts',(9.25,-1.01788065374584,16.8));
#406=CARTESIAN_POINT('Origin',(10.,0.,16.8));
#407=CARTESIAN_POINT('',(10.,-1.01788065374584,16.8));
#408=CARTESIAN_POINT('',(10.,0.,16.8));
#409=CARTESIAN_POINT('Ctrl Pts',(9.25,-1.01788065374584,16.8));
#410=CARTESIAN_POINT('Ctrl Pts',(9.5,-1.01788065374584,16.8));
#411=CARTESIAN_POINT('Ctrl Pts',(9.75,-1.01788065374584,16.8));
#412=CARTESIAN_POINT('Ctrl Pts',(10.,-1.01788065374584,16.8));
#413=CARTESIAN_POINT('Origin',(10.,-2.55806910889645,24.2));
#414=CARTESIAN_POINT('',(8.5,-2.55806910889645,24.2));
#415=CARTESIAN_POINT('',(8.5,-1.27903455444823,24.2));
#416=CARTESIAN_POINT('',(9.25,-2.55806910889645,24.2));
#417=CARTESIAN_POINT('',(10.,-2.55806910889645,24.2));
#418=CARTESIAN_POINT('',(9.25,-1.27903455444823,24.2));
#419=CARTESIAN_POINT('Ctrl Pts',(10.,-0.805079690778022,15.8));
#420=CARTESIAN_POINT('Ctrl Pts',(6.5,-0.805079690778022,15.8));
#421=CARTESIAN_POINT('Ctrl Pts',(10.,-1.05826258086866,16.9959391268628));
#422=CARTESIAN_POINT('Ctrl Pts',(6.5,-1.05826258086866,16.9959391268628));
#423=CARTESIAN_POINT('Ctrl Pts',(10.,-1.42234236104469,18.6848789435752));
#424=CARTESIAN_POINT('Ctrl Pts',(6.5,-1.42234236104469,18.6848789435752));
#425=CARTESIAN_POINT('Ctrl Pts',(10.,-1.78746292481781,20.3745089016604));
#426=CARTESIAN_POINT('Ctrl Pts',(6.5,-1.78746292481781,20.3745089016604));
#427=CARTESIAN_POINT('Ctrl Pts',(10.,-2.13974730009592,22.0556272106623));
#428=CARTESIAN_POINT('Ctrl Pts',(6.5,-2.13974730009592,22.0556272106623));
#429=CARTESIAN_POINT('Ctrl Pts',(10.,-2.4660169532067,23.7194952131442));
#430=CARTESIAN_POINT('Ctrl Pts',(6.5,-2.4660169532067,23.7194952131442));
#431=CARTESIAN_POINT('Ctrl Pts',(10.,-2.55806910889645,24.2));
#432=CARTESIAN_POINT('Ctrl Pts',(6.5,-2.55806910889645,24.2));
#433=CARTESIAN_POINT('Ctrl Pts',(8.5,-2.55806910889645,24.2));
#434=CARTESIAN_POINT('Ctrl Pts',(8.5,-2.44722763084307,23.6214164743048));
#435=CARTESIAN_POINT('Ctrl Pts',(8.5,-2.33204127929396,23.0399518723056));
#436=CARTESIAN_POINT('Ctrl Pts',(8.5,-2.21370544289796,22.4563988536536));
#437=CARTESIAN_POINT('Ctrl Pts',(8.5,-2.06996501184404,21.7475674041244));
#438=CARTESIAN_POINT('Ctrl Pts',(8.5,-1.92157827549875,21.0356549995133));
#439=CARTESIAN_POINT('Ctrl Pts',(8.5,-1.77075516796971,20.3221270423915));
#440=CARTESIAN_POINT('Ctrl Pts',(8.5,-1.45266393883316,18.8172715290512));
#441=CARTESIAN_POINT('Ctrl Pts',(8.5,-1.12374085218068,17.3052334342046));
#442=CARTESIAN_POINT('Ctrl Pts',(8.5,-0.805079690778022,15.8));
#443=CARTESIAN_POINT('',(10.,-2.36293737753456,23.2));
#444=CARTESIAN_POINT('Ctrl Pts',(10.,-1.01788065374584,16.8));
#445=CARTESIAN_POINT('Ctrl Pts',(10.,-1.2310806072874,17.7976480998229));
#446=CARTESIAN_POINT('Ctrl Pts',(10.,-1.50799634556768,19.082889486229));
#447=CARTESIAN_POINT('Ctrl Pts',(10.,-1.78361300067378,20.3672694533662));
#448=CARTESIAN_POINT('Ctrl Pts',(10.,-2.05185042201172,21.6467562664053));
#449=CARTESIAN_POINT('Ctrl Pts',(10.,-2.3068627505175,22.9174735487271));
#450=CARTESIAN_POINT('Ctrl Pts',(10.,-2.36293737753456,23.2));
#451=CARTESIAN_POINT('',(9.25,-2.36293737753456,23.2));
#452=CARTESIAN_POINT('Ctrl Pts',(10.,-2.36293737753456,23.2));
#453=CARTESIAN_POINT('Ctrl Pts',(9.75,-2.36293737753456,23.2));
#454=CARTESIAN_POINT('Ctrl Pts',(9.5,-2.36293737753456,23.2));
#455=CARTESIAN_POINT('Ctrl Pts',(9.25,-2.36293737753456,23.2));
#456=CARTESIAN_POINT('Ctrl Pts',(9.25,-2.36293737753456,23.2));
#457=CARTESIAN_POINT('Ctrl Pts',(9.25,-2.42926486452175,23.5341844701818));
#458=CARTESIAN_POINT('Ctrl Pts',(9.25,-2.4943837341036,23.8675675087522));
#459=CARTESIAN_POINT('Ctrl Pts',(9.25,-2.55806910889645,24.2));
#460=CARTESIAN_POINT('Origin',(9.25,0.,24.7));
#461=CARTESIAN_POINT('',(9.25,0.,23.2));
#462=CARTESIAN_POINT('Origin',(8.5,0.,15.3));
#463=CARTESIAN_POINT('Origin',(10.,0.,23.2));
#464=CARTESIAN_POINT('',(10.,0.,23.2));
#465=CARTESIAN_POINT('Origin',(9.25,0.,23.2));
#466=UNCERTAINTY_MEASURE_WITH_UNIT(LENGTH_MEASURE(0.01),#470,
'DISTANCE_ACCURACY_VALUE',
'Maximum model space distance between geometric entities at asserted c
onnectivities');
#467=UNCERTAINTY_MEASURE_WITH_UNIT(LENGTH_MEASURE(0.01),#470,
'DISTANCE_ACCURACY_VALUE',
'Maximum model space distance between geometric entities at asserted c
onnectivities');
#468=(
GEOMETRIC_REPRESENTATION_CONTEXT(3)
GLOBAL_UNCERTAINTY_ASSIGNED_CONTEXT((#466))
GLOBAL_UNIT_ASSIGNED_CONTEXT((#470,#472,#473))
REPRESENTATION_CONTEXT('','3D')
);
#469=(
GEOMETRIC_REPRESENTATION_CONTEXT(3)
GLOBAL_UNCERTAINTY_ASSIGNED_CONTEXT((#467))
GLOBAL_UNIT_ASSIGNED_CONTEXT((#470,#472,#473))
REPRESENTATION_CONTEXT('','3D')
);
#470=(
LENGTH_UNIT()
NAMED_UNIT(*)
SI_UNIT(.MILLI.,.METRE.)
);
#471=(
LENGTH_UNIT()
NAMED_UNIT(*)
SI_UNIT($,.METRE.)
);
#472=(
NAMED_UNIT(*)
PLANE_ANGLE_UNIT()
SI_UNIT($,.RADIAN.)
);
#473=(
NAMED_UNIT(*)
SI_UNIT($,.STERADIAN.)
SOLID_ANGLE_UNIT()
);
#474=SHAPE_DEFINITION_REPRESENTATION(#475,#476);
#475=PRODUCT_DEFINITION_SHAPE('',$,#478);
#476=SHAPE_REPRESENTATION('',(#190),#468);
#477=PRODUCT_DEFINITION_CONTEXT('part definition',#482,'design');
#478=PRODUCT_DEFINITION('2026-08-25-10-25-37-299','routing_lid',#479,#477);
#479=PRODUCT_DEFINITION_FORMATION('',$,#484);
#480=PRODUCT_RELATED_PRODUCT_CATEGORY('routing_lid','routing_lid',(#484));
#481=APPLICATION_PROTOCOL_DEFINITION('international standard',
'automotive_design',2009,#482);
#482=APPLICATION_CONTEXT(
'Core Data for Automotive Mechanical Design Process');
#483=PRODUCT_CONTEXT('part definition',#482,'mechanical');
#484=PRODUCT('2026-08-25-10-25-37-299','routing_lid',$,(#483));
#485=PRESENTATION_STYLE_ASSIGNMENT((#486));
#486=SURFACE_STYLE_USAGE(.BOTH.,#487);
#487=SURFACE_SIDE_STYLE('',(#488));
#488=SURFACE_STYLE_FILL_AREA(#489);
#489=FILL_AREA_STYLE('Steel - Satin',(#490));
#490=FILL_AREA_STYLE_COLOUR('Steel - Satin',#491);
#491=COLOUR_RGB('Steel - Satin',0.627450980392157,0.627450980392157,0.627450980392157);
ENDSEC;
END-ISO-10303-21;
