G04 Layer: TopSilkscreenLayer*
G04 EasyEDA v6.5.50, 2025-05-19 08:03:27*
G04 0dc4ec5507894c4d82746cca51b72546,a108c55a93274544842cd9e566f09bea,10*
G04 Gerber Generator version 0.2*
G04 Scale: 100 percent, Rotated: No, Reflected: No *
G04 Dimensions in millimeters *
G04 leading zeros omitted , absolute positions ,4 integer and 5 decimal *
%FSLAX45Y45*%
%MOMM*%

%ADD10C,0.1524*%
%ADD11C,0.2540*%
%ADD12C,0.0146*%

%LPD*%
D10*
X1893315Y12319000D02*
G01*
X1784350Y12319000D01*
X1893315Y12246355D02*
G01*
X1784350Y12246355D01*
X1841500Y12319000D02*
G01*
X1841500Y12246355D01*
X1867407Y12206731D02*
G01*
X1872487Y12206731D01*
X1882902Y12201652D01*
X1888236Y12196318D01*
X1893315Y12185904D01*
X1893315Y12165329D01*
X1888236Y12154915D01*
X1882902Y12149581D01*
X1872487Y12144502D01*
X1862073Y12144502D01*
X1851660Y12149581D01*
X1836165Y12159995D01*
X1784350Y12212065D01*
X1784350Y12139168D01*
X646684Y12268200D02*
G01*
X755650Y12268200D01*
X646684Y12340844D02*
G01*
X755650Y12340844D01*
X698500Y12268200D02*
G01*
X698500Y12340844D01*
X667512Y12375134D02*
G01*
X662178Y12385547D01*
X646684Y12401295D01*
X755650Y12401295D01*
D11*
X1775998Y12420600D02*
G01*
X1526001Y12420600D01*
X1526001Y12699598D02*
G01*
X1526001Y11887601D01*
X1775998Y12699598D02*
G01*
X1526001Y12699598D01*
X1775998Y11887601D02*
G01*
X1775998Y12699598D01*
X1526001Y11887601D02*
G01*
X1775998Y11887601D01*
X764001Y12166600D02*
G01*
X1013998Y12166600D01*
X1013998Y11887601D02*
G01*
X1013998Y12699598D01*
X764001Y11887601D02*
G01*
X1013998Y11887601D01*
X764001Y12699598D02*
G01*
X764001Y11887601D01*
X1013998Y12699598D02*
G01*
X764001Y12699598D01*
M02*
