ISO-10303-21;
HEADER;
/* Generated by software containing ST-Developer
 * from STEP Tools, Inc. (www.steptools.com) 
 */

FILE_DESCRIPTION(
/* description */ (''),
/* implementation_level */ '2;1');

FILE_NAME(
/* name */ 'Carpals-L-Touch.step',
/* time_stamp */ '2026-07-01T10:40:57+02:00',
/* author */ (''),
/* organization */ (''),
/* preprocessor_version */ 'ST-DEVELOPER v20.1',
/* originating_system */ 'Autodesk Translation Framework v15.8.0.0',
/* authorisation */ '');

FILE_SCHEMA (('AUTOMOTIVE_DESIGN { 1 0 10303 214 3 1 1 }'));
ENDSEC;

DATA;
#10=MECHANICAL_DESIGN_GEOMETRIC_PRESENTATION_REPRESENTATION('',(#13),#293);
#11=SHAPE_REPRESENTATION_RELATIONSHIP('SRR','None',#300,#12);
#12=ADVANCED_BREP_SHAPE_REPRESENTATION('',(#14),#292);
#13=STYLED_ITEM('',(#309),#14);
#14=MANIFOLD_SOLID_BREP('Carpals-Right (1)',#41);
#15=PLANE('',#55);
#16=FACE_OUTER_BOUND('',#19,.T.);
#17=FACE_OUTER_BOUND('',#20,.T.);
#18=FACE_OUTER_BOUND('',#21,.T.);
#19=EDGE_LOOP('',(#30,#31));
#20=EDGE_LOOP('',(#32,#33));
#21=EDGE_LOOP('',(#34,#35));
#22=B_SPLINE_CURVE_WITH_KNOTS('',3,(#243,#244,#245,#246,#247,#248,#249,
#250,#251,#252,#253,#254,#255,#256),.UNSPECIFIED.,.F.,.F.,(4,2,2,2,2,2,
4),(-2.15078812627607,-2.09918397247205,-1.89990486786811,-1.71001979965013,
-1.42441297901441,-0.864836411790354,-0.526927842223426),.UNSPECIFIED.);
#23=B_SPLINE_CURVE_WITH_KNOTS('',3,(#257,#258,#259,#260,#261,#262,#263,
#264),.UNSPECIFIED.,.F.,.F.,(4,2,2,4),(-3.54713454432292,-3.08888508019182,
-2.11983365561679,-1.99146125415902),.UNSPECIFIED.);
#24=B_SPLINE_CURVE_WITH_KNOTS('',3,(#285,#286,#287,#288),.UNSPECIFIED.,
 .F.,.F.,(4,4),(-2.55179193827761,-1.06106022626098),.UNSPECIFIED.);
#25=VERTEX_POINT('',#241);
#26=VERTEX_POINT('',#242);
#27=EDGE_CURVE('',#25,#26,#22,.T.);
#28=EDGE_CURVE('',#26,#25,#23,.T.);
#29=EDGE_CURVE('',#26,#25,#24,.T.);
#30=ORIENTED_EDGE('',*,*,#27,.T.);
#31=ORIENTED_EDGE('',*,*,#28,.T.);
#32=ORIENTED_EDGE('',*,*,#29,.T.);
#33=ORIENTED_EDGE('',*,*,#28,.F.);
#34=ORIENTED_EDGE('',*,*,#29,.F.);
#35=ORIENTED_EDGE('',*,*,#27,.F.);
#36=(
BOUNDED_SURFACE()
B_SPLINE_SURFACE(3,3,((#61,#62,#63,#64,#65,#66,#67,#68,#69,#70,#71,#72,
#73,#74,#75),(#76,#77,#78,#79,#80,#81,#82,#83,#84,#85,#86,#87,#88,#89,#90),
(#91,#92,#93,#94,#95,#96,#97,#98,#99,#100,#101,#102,#103,#104,#105),(#106,
#107,#108,#109,#110,#111,#112,#113,#114,#115,#116,#117,#118,#119,#120),
(#121,#122,#123,#124,#125,#126,#127,#128,#129,#130,#131,#132,#133,#134,
#135),(#136,#137,#138,#139,#140,#141,#142,#143,#144,#145,#146,#147,#148,
#149,#150),(#151,#152,#153,#154,#155,#156,#157,#158,#159,#160,#161,#162,
#163,#164,#165),(#166,#167,#168,#169,#170,#171,#172,#173,#174,#175,#176,
#177,#178,#179,#180),(#181,#182,#183,#184,#185,#186,#187,#188,#189,#190,
#191,#192,#193,#194,#195),(#196,#197,#198,#199,#200,#201,#202,#203,#204,
#205,#206,#207,#208,#209,#210),(#211,#212,#213,#214,#215,#216,#217,#218,
#219,#220,#221,#222,#223,#224,#225),(#226,#227,#228,#229,#230,#231,#232,
#233,#234,#235,#236,#237,#238,#239,#240)),.UNSPECIFIED.,.F.,.F.,.F.)
B_SPLINE_SURFACE_WITH_KNOTS((4,2,2,1,1,1,1,4),(4,2,2,1,1,1,2,2,4),(0.,0.0362661604717115,
0.072532320943423,0.145064641886846,0.290129283773692,0.543710837985067,
0.670501615090755,0.797292392196443),(0.,0.125,0.25,0.5,1.,1.5,1.75,1.875,
2.00000000000001),.UNSPECIFIED.)
GEOMETRIC_REPRESENTATION_ITEM()
RATIONAL_B_SPLINE_SURFACE(((1.,0.999999999999999,1.,0.999999999999999,0.999999999999999,
1.,1.,1.,1.,1.,0.999999999999999,0.999999999999999,0.999999999999999,1.,
1.),(1.,0.999999999999999,0.999999999999999,0.999999999999999,0.999999999999999,
1.,1.,1.,1.,1.,0.999999999999999,0.999999999999999,1.,1.,1.),(1.,1.,1.,
1.,1.,1.,1.,1.,1.,1.,1.,0.999999999999999,1.,1.,1.),(1.,1.,1.,1.,1.,1.,
1.,1.,1.,1.,1.,1.,1.,1.,1.),(1.,1.,1.,1.,1.,1.,1.,1.,1.,1.,1.,0.999999999999999,
1.,1.,1.),(1.,1.,1.,1.,1.,1.,1.,1.,1.,1.,1.,1.,1.,1.,1.),(1.,1.,1.,1.,1.,
1.,1.,1.,1.,1.,1.,1.,1.,1.,1.),(1.,1.,1.,1.,1.,1.,1.,1.,1.,1.,1.,1.,1.,
1.,1.),(1.,1.,1.,1.,1.,1.,1.,1.,1.,1.,1.,0.999999999999999,0.999999999999999,
0.999999999999999,0.999999999999999),(1.,1.,1.,1.,1.,1.,1.,1.,1.,1.,1.,
1.,1.,1.,1.),(1.00453506849165,1.00434574773166,1.00415649439158,1.00378105540563,
1.00359486975977,1.00304531364514,1.00198220470768,1.0005663442022,1.00009439070037,
1.00002359767509,1.00000589941877,1.00000294970939,1.,1.,1.),(1.00907013698331,
1.00869149546332,1.00831298878315,1.00756211081126,1.00718973951954,1.00609062729028,
1.00396440941537,1.00113268840439,1.00018878140073,1.00004719535018,1.00001179883755,
1.00000589941877,1.,1.,1.)))
REPRESENTATION_ITEM('')
SURFACE()
);
#37=(
BOUNDED_SURFACE()
B_SPLINE_SURFACE(5,1,((#265,#266),(#267,#268),(#269,#270),(#271,#272),(#273,
#274),(#275,#276),(#277,#278),(#279,#280),(#281,#282),(#283,#284)),
 .UNSPECIFIED.,.F.,.F.,.F.)
B_SPLINE_SURFACE_WITH_KNOTS((6,1,1,1,1,6),(2,2),(0.,0.2,0.4,0.6,0.8,1.),
(0.,4.5952),.UNSPECIFIED.)
GEOMETRIC_REPRESENTATION_ITEM()
RATIONAL_B_SPLINE_SURFACE(((1.,1.),(1.,1.),(1.,1.),(1.,1.),(1.,1.),(1.,
1.),(1.,1.),(1.,1.),(1.,1.),(1.,1.)))
REPRESENTATION_ITEM('')
SURFACE()
);
#38=ADVANCED_FACE('',(#16),#36,.T.);
#39=ADVANCED_FACE('',(#17),#37,.F.);
#40=ADVANCED_FACE('',(#18),#15,.F.);
#41=CLOSED_SHELL('',(#38,#39,#40));
#42=DERIVED_UNIT_ELEMENT(#44,1.);
#43=DERIVED_UNIT_ELEMENT(#295,-3.);
#44=(
MASS_UNIT()
NAMED_UNIT(*)
SI_UNIT(.KILO.,.GRAM.)
);
#45=DERIVED_UNIT((#42,#43));
#46=MEASURE_REPRESENTATION_ITEM('density measure',
POSITIVE_RATIO_MEASURE(7850.),#45);
#47=PROPERTY_DEFINITION_REPRESENTATION(#52,#49);
#48=PROPERTY_DEFINITION_REPRESENTATION(#53,#50);
#49=REPRESENTATION('material name',(#51),#292);
#50=REPRESENTATION('density',(#46),#292);
#51=DESCRIPTIVE_REPRESENTATION_ITEM('Steel','Steel');
#52=PROPERTY_DEFINITION('material property','material name',#302);
#53=PROPERTY_DEFINITION('material property','density of part',#302);
#54=AXIS2_PLACEMENT_3D('',#60,#56,#57);
#55=AXIS2_PLACEMENT_3D('',#289,#58,#59);
#56=DIRECTION('axis',(0.,0.,1.));
#57=DIRECTION('refdir',(1.,0.,0.));
#58=DIRECTION('center_axis',(-1.15185638804859E-15,-1.,6.82934758282517E-31));
#59=DIRECTION('ref_axis',(1.,-1.15185638804859E-15,0.));
#60=CARTESIAN_POINT('',(0.,0.,0.));
#61=CARTESIAN_POINT('Ctrl Pts',(-25.8211539575535,-8.21500777323394,-24.7536762795315));
#62=CARTESIAN_POINT('Ctrl Pts',(-25.61021608162,-8.48235945793244,-23.9889549847374));
#63=CARTESIAN_POINT('Ctrl Pts',(-25.3005324261899,-8.79102790476112,-23.0238651155086));
#64=CARTESIAN_POINT('Ctrl Pts',(-24.7113217818895,-9.33199884774189,-21.2695631397027));
#65=CARTESIAN_POINT('Ctrl Pts',(-24.4317947930193,-9.56430134389396,-20.4803510331255));
#66=CARTESIAN_POINT('Ctrl Pts',(-23.638448826249,-10.1466599063353,-18.3765313573716));
#67=CARTESIAN_POINT('Ctrl Pts',(-22.2157900006341,-11.0879253321259,-14.508522327756));
#68=CARTESIAN_POINT('Ctrl Pts',(-21.0003920334063,-11.9152526393102,-8.88726556441972));
#69=CARTESIAN_POINT('Ctrl Pts',(-22.8237016775234,-11.6778995387148,-3.23807647362746));
#70=CARTESIAN_POINT('Ctrl Pts',(-25.1115110616206,-11.014097407447,0.73717774710476));
#71=CARTESIAN_POINT('Ctrl Pts',(-26.4268899439571,-10.5587520531923,2.88715423272272));
#72=CARTESIAN_POINT('Ctrl Pts',(-26.880596566071,-10.3745627418075,3.68551871229428));
#73=CARTESIAN_POINT('Ctrl Pts',(-27.8185037996354,-9.94136906577138,5.44565897350187));
#74=CARTESIAN_POINT('Ctrl Pts',(-28.302704411086,-9.69236470112008,6.4074347551379));
#75=CARTESIAN_POINT('Ctrl Pts',(-28.8928027163903,-9.40884263958098,7.11887870257997));
#76=CARTESIAN_POINT('Ctrl Pts',(-25.4580661839358,-8.40327484574937,-24.7935509528286));
#77=CARTESIAN_POINT('Ctrl Pts',(-25.2241257829144,-8.63026650863638,-23.9989572508773));
#78=CARTESIAN_POINT('Ctrl Pts',(-24.9269899738717,-8.90926624589159,-23.0477483158766));
#79=CARTESIAN_POINT('Ctrl Pts',(-24.3425372452957,-9.4165510736328,-21.3039789467772));
#80=CARTESIAN_POINT('Ctrl Pts',(-24.0585200427081,-9.6432115050245,-20.5076946728602));
#81=CARTESIAN_POINT('Ctrl Pts',(-23.2443298200861,-10.2090172845043,-18.3881157952921));
#82=CARTESIAN_POINT('Ctrl Pts',(-21.7760909681203,-11.13646936816,-14.5061309498354));
#83=CARTESIAN_POINT('Ctrl Pts',(-20.4946523114237,-11.9722947487162,-8.897098702772));
#84=CARTESIAN_POINT('Ctrl Pts',(-22.2972051004594,-11.7456895132119,-3.26956551373122));
#85=CARTESIAN_POINT('Ctrl Pts',(-24.6021862145246,-11.0998283743091,0.718517102255157));
#86=CARTESIAN_POINT('Ctrl Pts',(-25.9286680427817,-10.6604745089775,2.88521850179822));
#87=CARTESIAN_POINT('Ctrl Pts',(-26.37631476168,-10.4831808654651,3.68979463766893));
#88=CARTESIAN_POINT('Ctrl Pts',(-27.2803719335914,-10.0861957084186,5.40532697260208));
#89=CARTESIAN_POINT('Ctrl Pts',(-27.7416859769791,-9.86335189581593,6.35014433718541));
#90=CARTESIAN_POINT('Ctrl Pts',(-28.3311327166133,-9.62371904358717,7.08477653141162));
#91=CARTESIAN_POINT('Ctrl Pts',(-25.0008012999188,-8.60736065690083,-24.8170667875494));
#92=CARTESIAN_POINT('Ctrl Pts',(-24.8081344030923,-8.82377690166533,-23.8954443240045));
#93=CARTESIAN_POINT('Ctrl Pts',(-24.5463783856152,-9.04609351728101,-23.0325791772061));
#94=CARTESIAN_POINT('Ctrl Pts',(-23.969390950888,-9.50642779832414,-21.3280792871892));
#95=CARTESIAN_POINT('Ctrl Pts',(-23.6766342676678,-9.71065162936281,-20.5671521126678));
#96=CARTESIAN_POINT('Ctrl Pts',(-22.838848650212,-10.2713266853615,-18.3962473855198));
#97=CARTESIAN_POINT('Ctrl Pts',(-21.3252151441193,-11.1846910488898,-14.5019451168883));
#98=CARTESIAN_POINT('Ctrl Pts',(-19.9746323906255,-12.0293453815403,-8.90733555193822));
#99=CARTESIAN_POINT('Ctrl Pts',(-21.7514194716223,-11.814627137683,-3.30390157425163));
#100=CARTESIAN_POINT('Ctrl Pts',(-24.0686870573933,-11.1880438434769,0.694911637485305));
#101=CARTESIAN_POINT('Ctrl Pts',(-25.3581578375326,-10.7668787342375,2.89432354435276));
#102=CARTESIAN_POINT('Ctrl Pts',(-25.8097875954547,-10.6085114541349,3.66079506347507));
#103=CARTESIAN_POINT('Ctrl Pts',(-26.6798450406514,-10.2537671343135,5.31941325262763));
#104=CARTESIAN_POINT('Ctrl Pts',(-27.0778021338139,-10.0799416242348,6.14157204917244));
#105=CARTESIAN_POINT('Ctrl Pts',(-27.6000748303949,-9.8701658274325,7.03158990606608));
#106=CARTESIAN_POINT('Ctrl Pts',(-24.0427931859065,-8.97846952612351,-24.8200916728739));
#107=CARTESIAN_POINT('Ctrl Pts',(-23.9270721417872,-9.12741264868117,-23.9103004924761));
#108=CARTESIAN_POINT('Ctrl Pts',(-23.7094133092175,-9.30131595334498,-23.0517362394372));
#109=CARTESIAN_POINT('Ctrl Pts',(-23.1548899680184,-9.69002112025532,-21.3738532481428));
#110=CARTESIAN_POINT('Ctrl Pts',(-22.8576948848838,-9.8759467197184,-20.6033920270598));
#111=CARTESIAN_POINT('Ctrl Pts',(-21.9972526053897,-10.3952529474676,-18.4094168004524));
#112=CARTESIAN_POINT('Ctrl Pts',(-20.40093992604,-11.2799831204058,-14.4911000938037));
#113=CARTESIAN_POINT('Ctrl Pts',(-18.9074697257336,-12.1428168303926,-8.92910237541868));
#114=CARTESIAN_POINT('Ctrl Pts',(-20.6167858262727,-11.9547303383379,-3.37921309330276));
#115=CARTESIAN_POINT('Ctrl Pts',(-22.9129666689992,-11.3747005260285,0.628699968394595));
#116=CARTESIAN_POINT('Ctrl Pts',(-24.164948450743,-11.0001184187001,2.82793090693421));
#117=CARTESIAN_POINT('Ctrl Pts',(-24.5995909380544,-10.8611631827284,3.59355362106258));
#118=CARTESIAN_POINT('Ctrl Pts',(-25.420885716522,-10.5702209562434,5.21092299599386));
#119=CARTESIAN_POINT('Ctrl Pts',(-25.7720072348103,-10.4361036136238,6.03414030812167));
#120=CARTESIAN_POINT('Ctrl Pts',(-25.9723017944932,-10.3550519463237,6.8673385965593));
#121=CARTESIAN_POINT('Ctrl Pts',(-23.5420499559111,-9.14549258419472,-24.7996007234777));
#122=CARTESIAN_POINT('Ctrl Pts',(-23.4910228775813,-9.25295214427696,-23.9358300323499));
#123=CARTESIAN_POINT('Ctrl Pts',(-23.2191600336519,-9.43858189305004,-23.0497859240028));
#124=CARTESIAN_POINT('Ctrl Pts',(-22.7014284780116,-9.78923141814619,-21.3938234356405));
#125=CARTESIAN_POINT('Ctrl Pts',(-22.399112844376,-9.97248594287661,-20.5993167468673));
#126=CARTESIAN_POINT('Ctrl Pts',(-21.5611377304416,-10.4568698087165,-18.4144546251573));
#127=CARTESIAN_POINT('Ctrl Pts',(-19.9275405319618,-11.3270535111921,-14.4844409036663));
#128=CARTESIAN_POINT('Ctrl Pts',(-18.36032698164,-12.1992376464209,-8.94063234973292));
#129=CARTESIAN_POINT('Ctrl Pts',(-20.0279378097602,-12.0258959145217,-3.42018855183347));
#130=CARTESIAN_POINT('Ctrl Pts',(-22.2907454377364,-11.4731417394123,0.586093764073737));
#131=CARTESIAN_POINT('Ctrl Pts',(-23.444261705921,-11.1478316427528,2.76074943170213));
#132=CARTESIAN_POINT('Ctrl Pts',(-23.8385011339587,-11.0215639607946,3.52959081000005));
#133=CARTESIAN_POINT('Ctrl Pts',(-24.5480466457854,-10.7817737598298,5.11422230404991));
#134=CARTESIAN_POINT('Ctrl Pts',(-24.9894581770582,-10.6393112303481,5.95221799980368));
#135=CARTESIAN_POINT('Ctrl Pts',(-25.07558664481,-10.5934912813695,6.75627391239805));
#136=CARTESIAN_POINT('Ctrl Pts',(-21.9746027469576,-9.59096762878799,-24.6721176991137));
#137=CARTESIAN_POINT('Ctrl Pts',(-21.8973192586855,-9.68269005100988,-23.8444671240945));
#138=CARTESIAN_POINT('Ctrl Pts',(-21.7272818729178,-9.80230674224453,-23.022712882799));
#139=CARTESIAN_POINT('Ctrl Pts',(-21.2884145052213,-10.0669729525839,-21.423722764199));
#140=CARTESIAN_POINT('Ctrl Pts',(-21.0195845232925,-10.2120224716885,-20.6464868868943));
#141=CARTESIAN_POINT('Ctrl Pts',(-20.1949784815093,-10.6397867055744,-18.430645345782));
#142=CARTESIAN_POINT('Ctrl Pts',(-18.4733020139562,-11.4657778796333,-14.462426626763));
#143=CARTESIAN_POINT('Ctrl Pts',(-16.6803708759196,-12.3665850738639,-8.97789051567793));
#144=CARTESIAN_POINT('Ctrl Pts',(-18.1900737525162,-12.2426335482902,-3.55449206020648));
#145=CARTESIAN_POINT('Ctrl Pts',(-20.2304384516592,-11.7916891052952,0.416107392218891));
#146=CARTESIAN_POINT('Ctrl Pts',(-21.1327932258096,-11.5701748732664,2.5511481692627));
#147=CARTESIAN_POINT('Ctrl Pts',(-21.4139402212895,-11.4969964608349,3.28778527008249));
#148=CARTESIAN_POINT('Ctrl Pts',(-21.8709315042786,-11.3739333777495,4.79278095675564));
#149=CARTESIAN_POINT('Ctrl Pts',(-22.0467757917878,-11.3240487070956,5.56113954260899));
#150=CARTESIAN_POINT('Ctrl Pts',(-22.1369553005632,-11.2967981133078,6.33626277169073));
#151=CARTESIAN_POINT('Ctrl Pts',(-18.9407397869945,-10.1604717616694,-24.4630689827541));
#152=CARTESIAN_POINT('Ctrl Pts',(-18.8262322978616,-10.242837723725,-23.6638937032809));
#153=CARTESIAN_POINT('Ctrl Pts',(-18.6590522153002,-10.3374645609507,-22.8836784207889));
#154=CARTESIAN_POINT('Ctrl Pts',(-18.251868548562,-10.5428985845194,-21.3634764855772));
#155=CARTESIAN_POINT('Ctrl Pts',(-18.0118649643851,-10.6537057708626,-20.6234898328575));
#156=CARTESIAN_POINT('Ctrl Pts',(-17.2314014872928,-10.9978857517341,-18.4673357730715));
#157=CARTESIAN_POINT('Ctrl Pts',(-15.4286636348622,-11.7332794008457,-14.4102512469922));
#158=CARTESIAN_POINT('Ctrl Pts',(-13.166347170721,-12.6936198461824,-9.06307981957707));
#159=CARTESIAN_POINT('Ctrl Pts',(-14.2290656072021,-12.6890724366943,-3.86860760807601));
#160=CARTESIAN_POINT('Ctrl Pts',(-15.3352513103495,-12.5216787399868,-0.0925363870599007));
#161=CARTESIAN_POINT('Ctrl Pts',(-15.839640127684,-12.4477813463669,1.91527344769924));
#162=CARTESIAN_POINT('Ctrl Pts',(-15.9996523944222,-12.4247821242825,2.60450576332747));
#163=CARTESIAN_POINT('Ctrl Pts',(-16.2823095040775,-12.3882574422311,4.02454117631737));
#164=CARTESIAN_POINT('Ctrl Pts',(-16.4049543469946,-12.3747319822641,4.75534427367904));
#165=CARTESIAN_POINT('Ctrl Pts',(-16.4983491051302,-12.3690470419587,5.50775578206565));
#166=CARTESIAN_POINT('Ctrl Pts',(-11.4739413748727,-10.5847537186927,-23.8203397922715));
#167=CARTESIAN_POINT('Ctrl Pts',(-11.3284912406098,-10.6892225136259,-23.020952178005));
#168=CARTESIAN_POINT('Ctrl Pts',(-11.1475278656878,-10.7984224947131,-22.2559063103929));
#169=CARTESIAN_POINT('Ctrl Pts',(-10.7298626858258,-11.0230394771888,-20.7875999282882));
#170=CARTESIAN_POINT('Ctrl Pts',(-10.4931608808859,-11.1384564785774,-20.0843394137956));
#171=CARTESIAN_POINT('Ctrl Pts',(-9.72237989798951,-11.4891649851855,-18.0568886897136));
#172=CARTESIAN_POINT('Ctrl Pts',(-7.93811565989056,-12.208412008171,-14.3313105191322));
#173=CARTESIAN_POINT('Ctrl Pts',(-4.66811364620806,-13.3015859749346,-9.35474154472846));
#174=CARTESIAN_POINT('Ctrl Pts',(-3.44922879587159,-13.7347421919257,-4.91810744214941));
#175=CARTESIAN_POINT('Ctrl Pts',(-3.39862199889599,-13.8401658039412,-1.6486904193505));
#176=CARTESIAN_POINT('Ctrl Pts',(-3.46658273508927,-13.8790107460206,0.158124790055261));
#177=CARTESIAN_POINT('Ctrl Pts',(-3.50478033626722,-13.889647916059,0.789080976191563));
#178=CARTESIAN_POINT('Ctrl Pts',(-3.60889860281848,-13.9082796607877,2.12017345965477));
#179=CARTESIAN_POINT('Ctrl Pts',(-3.67481926819179,-13.916274235478,2.82030975698168));
#180=CARTESIAN_POINT('Ctrl Pts',(-3.75291897531363,-13.9239373588083,3.56094171583148));
#181=CARTESIAN_POINT('Ctrl Pts',(-1.77366609456172,-11.0389339210202,-23.4054010886565));
#182=CARTESIAN_POINT('Ctrl Pts',(-1.66396143279491,-11.1413158259179,-22.6037583727399));
#183=CARTESIAN_POINT('Ctrl Pts',(-1.53373908374717,-11.2430134458722,-21.840121943659));
#184=CARTESIAN_POINT('Ctrl Pts',(-1.24072235590017,-11.4442843068929,-20.380624552375));
#185=CARTESIAN_POINT('Ctrl Pts',(-1.07792797710091,-11.5438575479592,-19.6847635901717));
#186=CARTESIAN_POINT('Ctrl Pts',(-0.553381813291371,-11.838256989325,-17.6864882436877));
#187=CARTESIAN_POINT('Ctrl Pts',(0.640362623974782,-12.4097747447232,-14.047167711222));
#188=CARTESIAN_POINT('Ctrl Pts',(2.84539654570026,-13.2305501603303,-9.27355788532551));
#189=CARTESIAN_POINT('Ctrl Pts',(3.98357511059226,-13.7547239001551,-4.90457683224892));
#190=CARTESIAN_POINT('Ctrl Pts',(4.21831456754668,-13.943762831287,-1.75068187726722));
#191=CARTESIAN_POINT('Ctrl Pts',(4.26364945140995,-14.0180385315041,-0.0254342400116842));
#192=CARTESIAN_POINT('Ctrl Pts',(4.26675527192871,-14.0394231373517,0.574364999034272));
#193=CARTESIAN_POINT('Ctrl Pts',(4.24939859293652,-14.0755556139491,1.8333217146992));
#194=CARTESIAN_POINT('Ctrl Pts',(4.22893609342555,-14.090303484699,2.49247919131817));
#195=CARTESIAN_POINT('Ctrl Pts',(4.19691108132052,-14.1017885812426,3.18627821221604));
#196=CARTESIAN_POINT('Ctrl Pts',(4.3695574253072,-11.3187958360868,-23.146372053849));
#197=CARTESIAN_POINT('Ctrl Pts',(4.47888359693459,-11.4189589917917,-22.3433215714389));
#198=CARTESIAN_POINT('Ctrl Pts',(4.60485033508741,-11.5148282108409,-21.5805649964165));
#199=CARTESIAN_POINT('Ctrl Pts',(4.88358495449957,-11.6986582085408,-20.1265666929978));
#200=CARTESIAN_POINT('Ctrl Pts',(5.03635283575892,-11.7866189871915,-19.4353249646014));
#201=CARTESIAN_POINT('Ctrl Pts',(5.52513820928025,-12.039657811915,-17.4552625971272));
#202=CARTESIAN_POINT('Ctrl Pts',(6.62463587529603,-12.5023614164478,-13.8697891330386));
#203=CARTESIAN_POINT('Ctrl Pts',(8.67796718352744,-13.0974298408639,-9.22287829155884));
#204=CARTESIAN_POINT('Ctrl Pts',(9.98894703160427,-13.5664018649173,-4.89613023328781));
#205=CARTESIAN_POINT('Ctrl Pts',(10.4345749212607,-13.7479659043997,-1.82196633379238));
#206=CARTESIAN_POINT('Ctrl Pts',(10.5999870410473,-13.8185217454171,-0.153349513541133));
#207=CARTESIAN_POINT('Ctrl Pts',(10.6455574434692,-13.8386693293023,0.424778571626536));
#208=CARTESIAN_POINT('Ctrl Pts',(10.7174684474365,-13.8716241625704,1.63352120319884));
#209=CARTESIAN_POINT('Ctrl Pts',(10.7438090489818,-13.8844314119534,2.26413574960347));
#210=CARTESIAN_POINT('Ctrl Pts',(10.7604868204907,-13.8932693566215,2.92531427882781));
#211=CARTESIAN_POINT('Ctrl Pts',(6.97230110809622,-11.3691584230561,-23.0453959257475));
#212=CARTESIAN_POINT('Ctrl Pts',(7.08132742979416,-11.4681578685309,-22.2390530540409));
#213=CARTESIAN_POINT('Ctrl Pts',(7.20631450947625,-11.5615875194004,-21.4745880479462));
#214=CARTESIAN_POINT('Ctrl Pts',(7.4822493356104,-11.7384812724883,-20.0194940919412));
#215=CARTESIAN_POINT('Ctrl Pts',(7.63320595034485,-11.8219411059411,-19.3288972114629));
#216=CARTESIAN_POINT('Ctrl Pts',(8.11610923971868,-12.0591077649855,-17.3531731272883));
#217=CARTESIAN_POINT('Ctrl Pts',(9.20238400696212,-12.4805531469183,-13.7861952820658));
#218=CARTESIAN_POINT('Ctrl Pts',(11.2491588023061,-12.9849162171648,-9.20159079830677));
#219=CARTESIAN_POINT('Ctrl Pts',(12.6376401779634,-13.4071376647801,-4.89298900968622));
#220=CARTESIAN_POINT('Ctrl Pts',(13.1461693486511,-13.5752851713539,-1.77845719901838));
#221=CARTESIAN_POINT('Ctrl Pts',(13.3440752773368,-13.6411635310887,-0.0782862729929184));
#222=CARTESIAN_POINT('Ctrl Pts',(13.400647811411,-13.6600894289297,0.512238662037584));
#223=CARTESIAN_POINT('Ctrl Pts',(13.4946333703691,-13.6912108546097,1.75002503123123));
#224=CARTESIAN_POINT('Ctrl Pts',(13.532046061508,-13.7034062707969,2.39728298164049));
#225=CARTESIAN_POINT('Ctrl Pts',(13.5596962414939,-13.7119051672745,3.07748254401298));
#226=CARTESIAN_POINT('Ctrl Pts',(8.29554454230811,-11.3628232108333,-22.9978186918241));
#227=CARTESIAN_POINT('Ctrl Pts',(8.40204497431694,-11.4612333926745,-22.1884793262165));
#228=CARTESIAN_POINT('Ctrl Pts',(8.52391538065617,-11.5535692936273,-21.4221225564542));
#229=CARTESIAN_POINT('Ctrl Pts',(8.79282746583083,-11.7274791189296,-19.9647860342673));
#230=CARTESIAN_POINT('Ctrl Pts',(8.93988627219772,-11.8090439606454,-19.2738713542567));
#231=CARTESIAN_POINT('Ctrl Pts',(9.41053265123788,-12.0396220522202,-17.2986974551655));
#232=CARTESIAN_POINT('Ctrl Pts',(10.4703586518518,-12.4442233181177,-13.7390594253553));
#233=CARTESIAN_POINT('Ctrl Pts',(12.4791172339104,-12.9111458170305,-9.19067884444921));
#234=CARTESIAN_POINT('Ctrl Pts',(13.8821663049537,-13.3122726164873,-4.89157524956807));
#235=CARTESIAN_POINT('Ctrl Pts',(14.4240750355252,-13.4759391822369,-1.78007720150819));
#236=CARTESIAN_POINT('Ctrl Pts',(14.6429487540348,-13.5410250636025,-0.0815514192085231));
#237=CARTESIAN_POINT('Ctrl Pts',(14.7072202305089,-13.5599272054653,0.508387578855569));
#238=CARTESIAN_POINT('Ctrl Pts',(14.8180617232976,-13.5914988408741,1.74485256403867));
#239=CARTESIAN_POINT('Ctrl Pts',(14.8646309812835,-13.6041681113968,2.39137159056328));
#240=CARTESIAN_POINT('Ctrl Pts',(14.9021871354221,-13.6133984633988,3.07072666849616));
#241=CARTESIAN_POINT('',(-4.28613855529546,-13.5346138980655,-3.31523401647207));
#242=CARTESIAN_POINT('',(11.0551741902687,-13.5346138981077,-3.96893590618064));
#243=CARTESIAN_POINT('Ctrl Pts',(-4.28613855427585,-13.5346138981077,-3.31523401593512));
#244=CARTESIAN_POINT('Ctrl Pts',(-4.20230190898712,-13.5346138981077,-3.47442876920618));
#245=CARTESIAN_POINT('Ctrl Pts',(-4.11259646793324,-13.5346138981049,-3.6282686820195));
#246=CARTESIAN_POINT('Ctrl Pts',(-3.64386711984294,-13.5346138981049,-4.35045814417859));
#247=CARTESIAN_POINT('Ctrl Pts',(-3.18475415074615,-13.5346138981064,-4.8247888299237));
#248=CARTESIAN_POINT('Ctrl Pts',(-2.08253172041621,-13.5346138981064,-5.57255669393424));
#249=CARTESIAN_POINT('Ctrl Pts',(-1.48347589937305,-13.5346138981034,-5.83020295473569));
#250=CARTESIAN_POINT('Ctrl Pts',(0.0782170716020258,-13.5346138981034,-6.27682156996118));
#251=CARTESIAN_POINT('Ctrl Pts',(1.08847610794476,-13.5346138981077,-6.37096677045832));
#252=CARTESIAN_POINT('Ctrl Pts',(3.9820082012326,-13.5346138981077,-6.35218799116493));
#253=CARTESIAN_POINT('Ctrl Pts',(6.23247329752494,-13.5346138981077,-5.95105839685735));
#254=CARTESIAN_POINT('Ctrl Pts',(9.08243694401428,-13.5346138981077,-5.02386317541795));
#255=CARTESIAN_POINT('Ctrl Pts',(10.1088867149369,-13.5346138981077,-4.56936796591757));
#256=CARTESIAN_POINT('Ctrl Pts',(11.0551741902687,-13.5346138981077,-3.96893590618061));
#257=CARTESIAN_POINT('Ctrl Pts',(11.0551741902687,-13.5346138981077,-3.96893590618064));
#258=CARTESIAN_POINT('Ctrl Pts',(9.5649015828678,-13.6100101293891,-4.0051776752404));
#259=CARTESIAN_POINT('Ctrl Pts',(8.0770795154748,-13.6626012082057,-4.01510542053482));
#260=CARTESIAN_POINT('Ctrl Pts',(3.44383294738658,-13.7749148854468,-3.95651013409568));
#261=CARTESIAN_POINT('Ctrl Pts',(0.287059540627037,-13.7722581051943,-3.79051277084168));
#262=CARTESIAN_POINT('Ctrl Pts',(-3.41937047730246,-13.5852544370262,-3.41210745266117));
#263=CARTESIAN_POINT('Ctrl Pts',(-3.85290665363869,-13.5610247006912,-3.36505791197821));
#264=CARTESIAN_POINT('Ctrl Pts',(-4.28613855529546,-13.5346138980232,-3.31523401647207));
#265=CARTESIAN_POINT('Ctrl Pts',(-23.7484715440735,-10.,0.813656402052025));
#266=CARTESIAN_POINT('Ctrl Pts',(-23.7484715440735,-55.952,0.813656402052025));
#267=CARTESIAN_POINT('Ctrl Pts',(-20.6209548166536,-10.,-0.14202384394226));
#268=CARTESIAN_POINT('Ctrl Pts',(-20.6209548166536,-55.952,-0.14202384394226));
#269=CARTESIAN_POINT('Ctrl Pts',(-14.524019397873,-10.,-1.78888824868186));
#270=CARTESIAN_POINT('Ctrl Pts',(-14.524019397873,-55.952,-1.78888824868186));
#271=CARTESIAN_POINT('Ctrl Pts',(-5.85248370899223,-10.,-3.46641040589306));
#272=CARTESIAN_POINT('Ctrl Pts',(-5.85248370899223,-55.952,-3.46641040589306));
#273=CARTESIAN_POINT('Ctrl Pts',(4.89256742388102,-10.,-4.33628150928729));
#274=CARTESIAN_POINT('Ctrl Pts',(4.89256742388102,-55.952,-4.33628150928729));
#275=CARTESIAN_POINT('Ctrl Pts',(17.4174935924452,-10.,-3.90724473499832));
#276=CARTESIAN_POINT('Ctrl Pts',(17.4174935924452,-55.952,-3.90724473499832));
#277=CARTESIAN_POINT('Ctrl Pts',(26.9926129717153,-10.,-2.8198342750684));
#278=CARTESIAN_POINT('Ctrl Pts',(26.9926129717153,-55.952,-2.8198342750684));
#279=CARTESIAN_POINT('Ctrl Pts',(34.0059374497157,-10.,-1.72318928863369));
#280=CARTESIAN_POINT('Ctrl Pts',(34.0059374497157,-55.952,-1.72318928863369));
#281=CARTESIAN_POINT('Ctrl Pts',(38.6116657642204,-10.,-0.875282384441861));
#282=CARTESIAN_POINT('Ctrl Pts',(38.6116657642204,-55.952,-0.875282384441861));
#283=CARTESIAN_POINT('Ctrl Pts',(40.8970672451534,-10.,-0.422114087718426));
#284=CARTESIAN_POINT('Ctrl Pts',(40.8970672451534,-55.952,-0.422114087718426));
#285=CARTESIAN_POINT('Ctrl Pts',(11.0551741902687,-13.5346138981077,-3.96893590618064));
#286=CARTESIAN_POINT('Ctrl Pts',(5.69456989215216,-13.5346138981077,-4.09929982888062));
#287=CARTESIAN_POINT('Ctrl Pts',(0.643752072777105,-13.5346138981077,-3.88219677837961));
#288=CARTESIAN_POINT('Ctrl Pts',(-4.28613855529546,-13.5346138981077,-3.31523401647207));
#289=CARTESIAN_POINT('Origin',(2.73956715850737,-13.5346138981077,-1.13540880042994));
#290=UNCERTAINTY_MEASURE_WITH_UNIT(LENGTH_MEASURE(0.01),#294,
'DISTANCE_ACCURACY_VALUE',
'Maximum model space distance between geometric entities at asserted c
onnectivities');
#291=UNCERTAINTY_MEASURE_WITH_UNIT(LENGTH_MEASURE(0.01),#294,
'DISTANCE_ACCURACY_VALUE',
'Maximum model space distance between geometric entities at asserted c
onnectivities');
#292=(
GEOMETRIC_REPRESENTATION_CONTEXT(3)
GLOBAL_UNCERTAINTY_ASSIGNED_CONTEXT((#290))
GLOBAL_UNIT_ASSIGNED_CONTEXT((#294,#296,#297))
REPRESENTATION_CONTEXT('','3D')
);
#293=(
GEOMETRIC_REPRESENTATION_CONTEXT(3)
GLOBAL_UNCERTAINTY_ASSIGNED_CONTEXT((#291))
GLOBAL_UNIT_ASSIGNED_CONTEXT((#294,#296,#297))
REPRESENTATION_CONTEXT('','3D')
);
#294=(
LENGTH_UNIT()
NAMED_UNIT(*)
SI_UNIT(.MILLI.,.METRE.)
);
#295=(
LENGTH_UNIT()
NAMED_UNIT(*)
SI_UNIT($,.METRE.)
);
#296=(
NAMED_UNIT(*)
PLANE_ANGLE_UNIT()
SI_UNIT($,.RADIAN.)
);
#297=(
NAMED_UNIT(*)
SI_UNIT($,.STERADIAN.)
SOLID_ANGLE_UNIT()
);
#298=SHAPE_DEFINITION_REPRESENTATION(#299,#300);
#299=PRODUCT_DEFINITION_SHAPE('',$,#302);
#300=SHAPE_REPRESENTATION('',(#54),#292);
#301=PRODUCT_DEFINITION_CONTEXT('part definition',#306,'design');
#302=PRODUCT_DEFINITION('2026-07-01-10-40-57-854','Carpals-Right',#303,
#301);
#303=PRODUCT_DEFINITION_FORMATION('',$,#308);
#304=PRODUCT_RELATED_PRODUCT_CATEGORY('Carpals-Right','Carpals-Right',(#308));
#305=APPLICATION_PROTOCOL_DEFINITION('international standard',
'automotive_design',2009,#306);
#306=APPLICATION_CONTEXT(
'Core Data for Automotive Mechanical Design Process');
#307=PRODUCT_CONTEXT('part definition',#306,'mechanical');
#308=PRODUCT('2026-07-01-10-40-57-854','Carpals-Right',$,(#307));
#309=PRESENTATION_STYLE_ASSIGNMENT((#310));
#310=SURFACE_STYLE_USAGE(.BOTH.,#311);
#311=SURFACE_SIDE_STYLE('',(#312));
#312=SURFACE_STYLE_FILL_AREA(#313);
#313=FILL_AREA_STYLE('Steel - Satin',(#314));
#314=FILL_AREA_STYLE_COLOUR('Steel - Satin',#315);
#315=COLOUR_RGB('Steel - Satin',0.627450980392157,0.627450980392157,0.627450980392157);
ENDSEC;
END-ISO-10303-21;
