ISO-10303-21;
HEADER;
/* Generated by software containing ST-Developer
 * from STEP Tools, Inc. (www.steptools.com) 
 */

FILE_DESCRIPTION(
/* description */ (''),
/* implementation_level */ '2;1');

FILE_NAME(
/* name */ 
'WristMotorCableHolder_CableHolder_CableHolder_selection.step',
/* time_stamp */ '2026-08-17T11:04:12+02:00',
/* author */ (''),
/* organization */ (''),
/* preprocessor_version */ 'ST-DEVELOPER v20.1',
/* originating_system */ 'Autodesk Translation Framework v15.8.0.0',
/* authorisation */ '');

FILE_SCHEMA (('AUTOMOTIVE_DESIGN { 1 0 10303 214 3 1 1 }'));
ENDSEC;

DATA;
#10=MECHANICAL_DESIGN_GEOMETRIC_PRESENTATION_REPRESENTATION('',(#13),#916);
#11=SHAPE_REPRESENTATION_RELATIONSHIP('SRR','None',#923,#12);
#12=ADVANCED_BREP_SHAPE_REPRESENTATION('',(#14),#915);
#13=STYLED_ITEM('',(#932),#14);
#14=MANIFOLD_SOLID_BREP('Body1',#556);
#15=FACE_BOUND('',#87,.T.);
#16=FACE_BOUND('',#89,.T.);
#17=PLANE('',#570);
#18=PLANE('',#571);
#19=PLANE('',#572);
#20=PLANE('',#573);
#21=PLANE('',#574);
#22=PLANE('',#575);
#23=PLANE('',#576);
#24=PLANE('',#577);
#25=PLANE('',#578);
#26=PLANE('',#579);
#27=PLANE('',#580);
#28=PLANE('',#581);
#29=PLANE('',#582);
#30=PLANE('',#583);
#31=PLANE('',#584);
#32=PLANE('',#585);
#33=PLANE('',#586);
#34=PLANE('',#587);
#35=PLANE('',#588);
#36=PLANE('',#589);
#37=PLANE('',#590);
#38=PLANE('',#591);
#39=PLANE('',#592);
#40=PLANE('',#593);
#41=PLANE('',#594);
#42=PLANE('',#595);
#43=PLANE('',#596);
#44=FACE_OUTER_BOUND('',#73,.T.);
#45=FACE_OUTER_BOUND('',#74,.T.);
#46=FACE_OUTER_BOUND('',#75,.T.);
#47=FACE_OUTER_BOUND('',#76,.T.);
#48=FACE_OUTER_BOUND('',#77,.T.);
#49=FACE_OUTER_BOUND('',#78,.T.);
#50=FACE_OUTER_BOUND('',#79,.T.);
#51=FACE_OUTER_BOUND('',#80,.T.);
#52=FACE_OUTER_BOUND('',#81,.T.);
#53=FACE_OUTER_BOUND('',#82,.T.);
#54=FACE_OUTER_BOUND('',#83,.T.);
#55=FACE_OUTER_BOUND('',#84,.T.);
#56=FACE_OUTER_BOUND('',#85,.T.);
#57=FACE_OUTER_BOUND('',#86,.T.);
#58=FACE_OUTER_BOUND('',#88,.T.);
#59=FACE_OUTER_BOUND('',#90,.T.);
#60=FACE_OUTER_BOUND('',#91,.T.);
#61=FACE_OUTER_BOUND('',#92,.T.);
#62=FACE_OUTER_BOUND('',#93,.T.);
#63=FACE_OUTER_BOUND('',#94,.T.);
#64=FACE_OUTER_BOUND('',#95,.T.);
#65=FACE_OUTER_BOUND('',#96,.T.);
#66=FACE_OUTER_BOUND('',#97,.T.);
#67=FACE_OUTER_BOUND('',#98,.T.);
#68=FACE_OUTER_BOUND('',#99,.T.);
#69=FACE_OUTER_BOUND('',#100,.T.);
#70=FACE_OUTER_BOUND('',#101,.T.);
#71=FACE_OUTER_BOUND('',#102,.T.);
#72=FACE_OUTER_BOUND('',#103,.T.);
#73=EDGE_LOOP('',(#375,#376,#377,#378));
#74=EDGE_LOOP('',(#379,#380,#381,#382));
#75=EDGE_LOOP('',(#383,#384,#385,#386));
#76=EDGE_LOOP('',(#387,#388,#389,#390));
#77=EDGE_LOOP('',(#391,#392,#393,#394));
#78=EDGE_LOOP('',(#395,#396,#397,#398));
#79=EDGE_LOOP('',(#399,#400,#401,#402));
#80=EDGE_LOOP('',(#403,#404,#405,#406));
#81=EDGE_LOOP('',(#407,#408,#409,#410));
#82=EDGE_LOOP('',(#411,#412,#413,#414));
#83=EDGE_LOOP('',(#415,#416,#417,#418));
#84=EDGE_LOOP('',(#419,#420,#421,#422));
#85=EDGE_LOOP('',(#423,#424,#425,#426));
#86=EDGE_LOOP('',(#427,#428,#429,#430,#431,#432,#433,#434));
#87=EDGE_LOOP('',(#435,#436,#437,#438,#439));
#88=EDGE_LOOP('',(#440,#441,#442,#443,#444,#445,#446,#447,#448,#449,#450,
#451));
#89=EDGE_LOOP('',(#452,#453,#454,#455,#456,#457,#458,#459));
#90=EDGE_LOOP('',(#460,#461,#462,#463));
#91=EDGE_LOOP('',(#464,#465,#466,#467));
#92=EDGE_LOOP('',(#468,#469,#470,#471));
#93=EDGE_LOOP('',(#472,#473,#474,#475));
#94=EDGE_LOOP('',(#476,#477,#478,#479));
#95=EDGE_LOOP('',(#480,#481,#482,#483));
#96=EDGE_LOOP('',(#484,#485,#486,#487));
#97=EDGE_LOOP('',(#488,#489,#490,#491));
#98=EDGE_LOOP('',(#492,#493,#494,#495));
#99=EDGE_LOOP('',(#496,#497,#498,#499));
#100=EDGE_LOOP('',(#500,#501,#502,#503));
#101=EDGE_LOOP('',(#504,#505,#506,#507));
#102=EDGE_LOOP('',(#508,#509,#510,#511,#512));
#103=EDGE_LOOP('',(#513,#514,#515,#516,#517,#518,#519,#520,#521,#522,#523,
#524));
#104=LINE('',#743,#175);
#105=LINE('',#750,#176);
#106=LINE('',#768,#177);
#107=LINE('',#776,#178);
#108=LINE('',#778,#179);
#109=LINE('',#779,#180);
#110=LINE('',#782,#181);
#111=LINE('',#784,#182);
#112=LINE('',#785,#183);
#113=LINE('',#787,#184);
#114=LINE('',#788,#185);
#115=LINE('',#792,#186);
#116=LINE('',#794,#187);
#117=LINE('',#796,#188);
#118=LINE('',#797,#189);
#119=LINE('',#800,#190);
#120=LINE('',#802,#191);
#121=LINE('',#803,#192);
#122=LINE('',#806,#193);
#123=LINE('',#808,#194);
#124=LINE('',#809,#195);
#125=LINE('',#812,#196);
#126=LINE('',#814,#197);
#127=LINE('',#815,#198);
#128=LINE('',#818,#199);
#129=LINE('',#820,#200);
#130=LINE('',#821,#201);
#131=LINE('',#824,#202);
#132=LINE('',#826,#203);
#133=LINE('',#827,#204);
#134=LINE('',#830,#205);
#135=LINE('',#832,#206);
#136=LINE('',#833,#207);
#137=LINE('',#835,#208);
#138=LINE('',#836,#209);
#139=LINE('',#841,#210);
#140=LINE('',#843,#211);
#141=LINE('',#845,#212);
#142=LINE('',#847,#213);
#143=LINE('',#849,#214);
#144=LINE('',#851,#215);
#145=LINE('',#853,#216);
#146=LINE('',#855,#217);
#147=LINE('',#857,#218);
#148=LINE('',#859,#219);
#149=LINE('',#861,#220);
#150=LINE('',#862,#221);
#151=LINE('',#866,#222);
#152=LINE('',#867,#223);
#153=LINE('',#868,#224);
#154=LINE('',#871,#225);
#155=LINE('',#872,#226);
#156=LINE('',#875,#227);
#157=LINE('',#876,#228);
#158=LINE('',#879,#229);
#159=LINE('',#880,#230);
#160=LINE('',#883,#231);
#161=LINE('',#884,#232);
#162=LINE('',#888,#233);
#163=LINE('',#889,#234);
#164=LINE('',#890,#235);
#165=LINE('',#893,#236);
#166=LINE('',#894,#237);
#167=LINE('',#897,#238);
#168=LINE('',#898,#239);
#169=LINE('',#901,#240);
#170=LINE('',#902,#241);
#171=LINE('',#904,#242);
#172=LINE('',#907,#243);
#173=LINE('',#908,#244);
#174=LINE('',#910,#245);
#175=VECTOR('',#599,10.);
#176=VECTOR('',#600,10.);
#177=VECTOR('',#601,10.);
#178=VECTOR('',#604,10.);
#179=VECTOR('',#605,10.);
#180=VECTOR('',#606,10.);
#181=VECTOR('',#609,10.);
#182=VECTOR('',#610,10.);
#183=VECTOR('',#611,10.);
#184=VECTOR('',#614,10.);
#185=VECTOR('',#615,10.);
#186=VECTOR('',#618,10.);
#187=VECTOR('',#619,10.);
#188=VECTOR('',#620,10.);
#189=VECTOR('',#621,10.);
#190=VECTOR('',#624,10.);
#191=VECTOR('',#625,10.);
#192=VECTOR('',#626,10.);
#193=VECTOR('',#629,10.);
#194=VECTOR('',#630,10.);
#195=VECTOR('',#631,10.);
#196=VECTOR('',#634,10.);
#197=VECTOR('',#635,10.);
#198=VECTOR('',#636,10.);
#199=VECTOR('',#639,10.);
#200=VECTOR('',#640,10.);
#201=VECTOR('',#641,10.);
#202=VECTOR('',#644,10.);
#203=VECTOR('',#645,10.);
#204=VECTOR('',#646,10.);
#205=VECTOR('',#649,10.);
#206=VECTOR('',#650,10.);
#207=VECTOR('',#651,10.);
#208=VECTOR('',#654,10.);
#209=VECTOR('',#655,10.);
#210=VECTOR('',#660,10.);
#211=VECTOR('',#661,10.);
#212=VECTOR('',#662,10.);
#213=VECTOR('',#663,10.);
#214=VECTOR('',#664,10.);
#215=VECTOR('',#665,10.);
#216=VECTOR('',#666,10.);
#217=VECTOR('',#667,10.);
#218=VECTOR('',#668,10.);
#219=VECTOR('',#669,10.);
#220=VECTOR('',#670,10.);
#221=VECTOR('',#671,10.);
#222=VECTOR('',#674,10.);
#223=VECTOR('',#675,10.);
#224=VECTOR('',#676,10.);
#225=VECTOR('',#679,10.);
#226=VECTOR('',#680,10.);
#227=VECTOR('',#683,10.);
#228=VECTOR('',#684,10.);
#229=VECTOR('',#687,10.);
#230=VECTOR('',#688,10.);
#231=VECTOR('',#691,10.);
#232=VECTOR('',#692,10.);
#233=VECTOR('',#695,10.);
#234=VECTOR('',#696,10.);
#235=VECTOR('',#697,10.);
#236=VECTOR('',#700,10.);
#237=VECTOR('',#701,10.);
#238=VECTOR('',#704,10.);
#239=VECTOR('',#705,10.);
#240=VECTOR('',#708,10.);
#241=VECTOR('',#709,10.);
#242=VECTOR('',#712,10.);
#243=VECTOR('',#715,10.);
#244=VECTOR('',#716,10.);
#245=VECTOR('',#719,10.);
#246=B_SPLINE_CURVE_WITH_KNOTS('',3,(#737,#738,#739,#740,#741),
 .UNSPECIFIED.,.F.,.F.,(4,1,4),(0.,0.0689957098934116,0.139022181358367),
 .UNSPECIFIED.);
#247=B_SPLINE_CURVE_WITH_KNOTS('',3,(#745,#746,#747,#748,#749),
 .UNSPECIFIED.,.F.,.F.,(4,1,4),(0.,0.0689957098934116,0.139022181358367),
 .UNSPECIFIED.);
#248=B_SPLINE_CURVE_WITH_KNOTS('',3,(#762,#763,#764,#765,#766),
 .UNSPECIFIED.,.F.,.F.,(4,1,4),(0.,0.0855670071566952,0.153446599473364),
 .UNSPECIFIED.);
#249=B_SPLINE_CURVE_WITH_KNOTS('',3,(#769,#770,#771,#772,#773),
 .UNSPECIFIED.,.F.,.F.,(4,1,4),(0.,0.0855670071566952,0.153446599473364),
 .UNSPECIFIED.);
#250=VERTEX_POINT('',#735);
#251=VERTEX_POINT('',#736);
#252=VERTEX_POINT('',#742);
#253=VERTEX_POINT('',#744);
#254=VERTEX_POINT('',#761);
#255=VERTEX_POINT('',#767);
#256=VERTEX_POINT('',#775);
#257=VERTEX_POINT('',#777);
#258=VERTEX_POINT('',#781);
#259=VERTEX_POINT('',#783);
#260=VERTEX_POINT('',#790);
#261=VERTEX_POINT('',#791);
#262=VERTEX_POINT('',#793);
#263=VERTEX_POINT('',#795);
#264=VERTEX_POINT('',#799);
#265=VERTEX_POINT('',#801);
#266=VERTEX_POINT('',#805);
#267=VERTEX_POINT('',#807);
#268=VERTEX_POINT('',#811);
#269=VERTEX_POINT('',#813);
#270=VERTEX_POINT('',#817);
#271=VERTEX_POINT('',#819);
#272=VERTEX_POINT('',#823);
#273=VERTEX_POINT('',#825);
#274=VERTEX_POINT('',#829);
#275=VERTEX_POINT('',#831);
#276=VERTEX_POINT('',#839);
#277=VERTEX_POINT('',#840);
#278=VERTEX_POINT('',#842);
#279=VERTEX_POINT('',#844);
#280=VERTEX_POINT('',#846);
#281=VERTEX_POINT('',#848);
#282=VERTEX_POINT('',#850);
#283=VERTEX_POINT('',#852);
#284=VERTEX_POINT('',#854);
#285=VERTEX_POINT('',#856);
#286=VERTEX_POINT('',#858);
#287=VERTEX_POINT('',#860);
#288=VERTEX_POINT('',#864);
#289=VERTEX_POINT('',#865);
#290=VERTEX_POINT('',#870);
#291=VERTEX_POINT('',#874);
#292=VERTEX_POINT('',#878);
#293=VERTEX_POINT('',#882);
#294=VERTEX_POINT('',#886);
#295=VERTEX_POINT('',#887);
#296=VERTEX_POINT('',#892);
#297=VERTEX_POINT('',#896);
#298=VERTEX_POINT('',#900);
#299=VERTEX_POINT('',#906);
#300=EDGE_CURVE('',#250,#251,#246,.T.);
#301=EDGE_CURVE('',#250,#252,#104,.T.);
#302=EDGE_CURVE('',#252,#253,#247,.T.);
#303=EDGE_CURVE('',#251,#253,#105,.T.);
#304=EDGE_CURVE('',#254,#250,#248,.T.);
#305=EDGE_CURVE('',#254,#255,#106,.T.);
#306=EDGE_CURVE('',#255,#252,#249,.T.);
#307=EDGE_CURVE('',#256,#254,#107,.T.);
#308=EDGE_CURVE('',#256,#257,#108,.T.);
#309=EDGE_CURVE('',#257,#255,#109,.T.);
#310=EDGE_CURVE('',#258,#256,#110,.T.);
#311=EDGE_CURVE('',#258,#259,#111,.T.);
#312=EDGE_CURVE('',#259,#257,#112,.T.);
#313=EDGE_CURVE('',#251,#258,#113,.T.);
#314=EDGE_CURVE('',#253,#259,#114,.T.);
#315=EDGE_CURVE('',#260,#261,#115,.T.);
#316=EDGE_CURVE('',#260,#262,#116,.T.);
#317=EDGE_CURVE('',#262,#263,#117,.T.);
#318=EDGE_CURVE('',#261,#263,#118,.T.);
#319=EDGE_CURVE('',#264,#260,#119,.T.);
#320=EDGE_CURVE('',#264,#265,#120,.T.);
#321=EDGE_CURVE('',#265,#262,#121,.T.);
#322=EDGE_CURVE('',#266,#264,#122,.T.);
#323=EDGE_CURVE('',#266,#267,#123,.T.);
#324=EDGE_CURVE('',#267,#265,#124,.T.);
#325=EDGE_CURVE('',#268,#266,#125,.T.);
#326=EDGE_CURVE('',#268,#269,#126,.T.);
#327=EDGE_CURVE('',#269,#267,#127,.T.);
#328=EDGE_CURVE('',#270,#268,#128,.T.);
#329=EDGE_CURVE('',#270,#271,#129,.T.);
#330=EDGE_CURVE('',#271,#269,#130,.T.);
#331=EDGE_CURVE('',#272,#270,#131,.T.);
#332=EDGE_CURVE('',#272,#273,#132,.T.);
#333=EDGE_CURVE('',#273,#271,#133,.T.);
#334=EDGE_CURVE('',#274,#272,#134,.T.);
#335=EDGE_CURVE('',#274,#275,#135,.T.);
#336=EDGE_CURVE('',#275,#273,#136,.T.);
#337=EDGE_CURVE('',#261,#274,#137,.T.);
#338=EDGE_CURVE('',#263,#275,#138,.T.);
#339=EDGE_CURVE('',#276,#277,#139,.T.);
#340=EDGE_CURVE('',#277,#278,#140,.T.);
#341=EDGE_CURVE('',#279,#278,#141,.T.);
#342=EDGE_CURVE('',#280,#279,#142,.T.);
#343=EDGE_CURVE('',#281,#280,#143,.T.);
#344=EDGE_CURVE('',#282,#281,#144,.T.);
#345=EDGE_CURVE('',#283,#282,#145,.T.);
#346=EDGE_CURVE('',#284,#283,#146,.T.);
#347=EDGE_CURVE('',#284,#285,#147,.T.);
#348=EDGE_CURVE('',#285,#286,#148,.T.);
#349=EDGE_CURVE('',#286,#287,#149,.T.);
#350=EDGE_CURVE('',#287,#276,#150,.T.);
#351=EDGE_CURVE('',#288,#289,#151,.T.);
#352=EDGE_CURVE('',#289,#280,#152,.T.);
#353=EDGE_CURVE('',#288,#279,#153,.T.);
#354=EDGE_CURVE('',#289,#290,#154,.T.);
#355=EDGE_CURVE('',#290,#281,#155,.T.);
#356=EDGE_CURVE('',#290,#291,#156,.T.);
#357=EDGE_CURVE('',#291,#282,#157,.T.);
#358=EDGE_CURVE('',#291,#292,#158,.T.);
#359=EDGE_CURVE('',#292,#283,#159,.T.);
#360=EDGE_CURVE('',#293,#288,#160,.T.);
#361=EDGE_CURVE('',#293,#278,#161,.T.);
#362=EDGE_CURVE('',#294,#295,#162,.T.);
#363=EDGE_CURVE('',#294,#276,#163,.T.);
#364=EDGE_CURVE('',#295,#287,#164,.T.);
#365=EDGE_CURVE('',#295,#296,#165,.T.);
#366=EDGE_CURVE('',#296,#286,#166,.T.);
#367=EDGE_CURVE('',#296,#297,#167,.T.);
#368=EDGE_CURVE('',#297,#285,#168,.T.);
#369=EDGE_CURVE('',#297,#298,#169,.T.);
#370=EDGE_CURVE('',#298,#284,#170,.T.);
#371=EDGE_CURVE('',#292,#298,#171,.T.);
#372=EDGE_CURVE('',#293,#299,#172,.T.);
#373=EDGE_CURVE('',#299,#277,#173,.T.);
#374=EDGE_CURVE('',#299,#294,#174,.T.);
#375=ORIENTED_EDGE('',*,*,#300,.F.);
#376=ORIENTED_EDGE('',*,*,#301,.T.);
#377=ORIENTED_EDGE('',*,*,#302,.T.);
#378=ORIENTED_EDGE('',*,*,#303,.F.);
#379=ORIENTED_EDGE('',*,*,#304,.F.);
#380=ORIENTED_EDGE('',*,*,#305,.T.);
#381=ORIENTED_EDGE('',*,*,#306,.T.);
#382=ORIENTED_EDGE('',*,*,#301,.F.);
#383=ORIENTED_EDGE('',*,*,#307,.F.);
#384=ORIENTED_EDGE('',*,*,#308,.T.);
#385=ORIENTED_EDGE('',*,*,#309,.T.);
#386=ORIENTED_EDGE('',*,*,#305,.F.);
#387=ORIENTED_EDGE('',*,*,#310,.F.);
#388=ORIENTED_EDGE('',*,*,#311,.T.);
#389=ORIENTED_EDGE('',*,*,#312,.T.);
#390=ORIENTED_EDGE('',*,*,#308,.F.);
#391=ORIENTED_EDGE('',*,*,#313,.F.);
#392=ORIENTED_EDGE('',*,*,#303,.T.);
#393=ORIENTED_EDGE('',*,*,#314,.T.);
#394=ORIENTED_EDGE('',*,*,#311,.F.);
#395=ORIENTED_EDGE('',*,*,#315,.F.);
#396=ORIENTED_EDGE('',*,*,#316,.T.);
#397=ORIENTED_EDGE('',*,*,#317,.T.);
#398=ORIENTED_EDGE('',*,*,#318,.F.);
#399=ORIENTED_EDGE('',*,*,#319,.F.);
#400=ORIENTED_EDGE('',*,*,#320,.T.);
#401=ORIENTED_EDGE('',*,*,#321,.T.);
#402=ORIENTED_EDGE('',*,*,#316,.F.);
#403=ORIENTED_EDGE('',*,*,#322,.F.);
#404=ORIENTED_EDGE('',*,*,#323,.T.);
#405=ORIENTED_EDGE('',*,*,#324,.T.);
#406=ORIENTED_EDGE('',*,*,#320,.F.);
#407=ORIENTED_EDGE('',*,*,#325,.F.);
#408=ORIENTED_EDGE('',*,*,#326,.T.);
#409=ORIENTED_EDGE('',*,*,#327,.T.);
#410=ORIENTED_EDGE('',*,*,#323,.F.);
#411=ORIENTED_EDGE('',*,*,#328,.F.);
#412=ORIENTED_EDGE('',*,*,#329,.T.);
#413=ORIENTED_EDGE('',*,*,#330,.T.);
#414=ORIENTED_EDGE('',*,*,#326,.F.);
#415=ORIENTED_EDGE('',*,*,#331,.F.);
#416=ORIENTED_EDGE('',*,*,#332,.T.);
#417=ORIENTED_EDGE('',*,*,#333,.T.);
#418=ORIENTED_EDGE('',*,*,#329,.F.);
#419=ORIENTED_EDGE('',*,*,#334,.F.);
#420=ORIENTED_EDGE('',*,*,#335,.T.);
#421=ORIENTED_EDGE('',*,*,#336,.T.);
#422=ORIENTED_EDGE('',*,*,#332,.F.);
#423=ORIENTED_EDGE('',*,*,#337,.F.);
#424=ORIENTED_EDGE('',*,*,#318,.T.);
#425=ORIENTED_EDGE('',*,*,#338,.T.);
#426=ORIENTED_EDGE('',*,*,#335,.F.);
#427=ORIENTED_EDGE('',*,*,#338,.F.);
#428=ORIENTED_EDGE('',*,*,#317,.F.);
#429=ORIENTED_EDGE('',*,*,#321,.F.);
#430=ORIENTED_EDGE('',*,*,#324,.F.);
#431=ORIENTED_EDGE('',*,*,#327,.F.);
#432=ORIENTED_EDGE('',*,*,#330,.F.);
#433=ORIENTED_EDGE('',*,*,#333,.F.);
#434=ORIENTED_EDGE('',*,*,#336,.F.);
#435=ORIENTED_EDGE('',*,*,#314,.F.);
#436=ORIENTED_EDGE('',*,*,#302,.F.);
#437=ORIENTED_EDGE('',*,*,#306,.F.);
#438=ORIENTED_EDGE('',*,*,#309,.F.);
#439=ORIENTED_EDGE('',*,*,#312,.F.);
#440=ORIENTED_EDGE('',*,*,#339,.T.);
#441=ORIENTED_EDGE('',*,*,#340,.T.);
#442=ORIENTED_EDGE('',*,*,#341,.F.);
#443=ORIENTED_EDGE('',*,*,#342,.F.);
#444=ORIENTED_EDGE('',*,*,#343,.F.);
#445=ORIENTED_EDGE('',*,*,#344,.F.);
#446=ORIENTED_EDGE('',*,*,#345,.F.);
#447=ORIENTED_EDGE('',*,*,#346,.F.);
#448=ORIENTED_EDGE('',*,*,#347,.T.);
#449=ORIENTED_EDGE('',*,*,#348,.T.);
#450=ORIENTED_EDGE('',*,*,#349,.T.);
#451=ORIENTED_EDGE('',*,*,#350,.T.);
#452=ORIENTED_EDGE('',*,*,#315,.T.);
#453=ORIENTED_EDGE('',*,*,#337,.T.);
#454=ORIENTED_EDGE('',*,*,#334,.T.);
#455=ORIENTED_EDGE('',*,*,#331,.T.);
#456=ORIENTED_EDGE('',*,*,#328,.T.);
#457=ORIENTED_EDGE('',*,*,#325,.T.);
#458=ORIENTED_EDGE('',*,*,#322,.T.);
#459=ORIENTED_EDGE('',*,*,#319,.T.);
#460=ORIENTED_EDGE('',*,*,#351,.T.);
#461=ORIENTED_EDGE('',*,*,#352,.T.);
#462=ORIENTED_EDGE('',*,*,#342,.T.);
#463=ORIENTED_EDGE('',*,*,#353,.F.);
#464=ORIENTED_EDGE('',*,*,#354,.T.);
#465=ORIENTED_EDGE('',*,*,#355,.T.);
#466=ORIENTED_EDGE('',*,*,#343,.T.);
#467=ORIENTED_EDGE('',*,*,#352,.F.);
#468=ORIENTED_EDGE('',*,*,#356,.T.);
#469=ORIENTED_EDGE('',*,*,#357,.T.);
#470=ORIENTED_EDGE('',*,*,#344,.T.);
#471=ORIENTED_EDGE('',*,*,#355,.F.);
#472=ORIENTED_EDGE('',*,*,#358,.T.);
#473=ORIENTED_EDGE('',*,*,#359,.T.);
#474=ORIENTED_EDGE('',*,*,#345,.T.);
#475=ORIENTED_EDGE('',*,*,#357,.F.);
#476=ORIENTED_EDGE('',*,*,#360,.T.);
#477=ORIENTED_EDGE('',*,*,#353,.T.);
#478=ORIENTED_EDGE('',*,*,#341,.T.);
#479=ORIENTED_EDGE('',*,*,#361,.F.);
#480=ORIENTED_EDGE('',*,*,#362,.F.);
#481=ORIENTED_EDGE('',*,*,#363,.T.);
#482=ORIENTED_EDGE('',*,*,#350,.F.);
#483=ORIENTED_EDGE('',*,*,#364,.F.);
#484=ORIENTED_EDGE('',*,*,#365,.F.);
#485=ORIENTED_EDGE('',*,*,#364,.T.);
#486=ORIENTED_EDGE('',*,*,#349,.F.);
#487=ORIENTED_EDGE('',*,*,#366,.F.);
#488=ORIENTED_EDGE('',*,*,#367,.F.);
#489=ORIENTED_EDGE('',*,*,#366,.T.);
#490=ORIENTED_EDGE('',*,*,#348,.F.);
#491=ORIENTED_EDGE('',*,*,#368,.F.);
#492=ORIENTED_EDGE('',*,*,#369,.F.);
#493=ORIENTED_EDGE('',*,*,#368,.T.);
#494=ORIENTED_EDGE('',*,*,#347,.F.);
#495=ORIENTED_EDGE('',*,*,#370,.F.);
#496=ORIENTED_EDGE('',*,*,#371,.T.);
#497=ORIENTED_EDGE('',*,*,#370,.T.);
#498=ORIENTED_EDGE('',*,*,#346,.T.);
#499=ORIENTED_EDGE('',*,*,#359,.F.);
#500=ORIENTED_EDGE('',*,*,#372,.F.);
#501=ORIENTED_EDGE('',*,*,#361,.T.);
#502=ORIENTED_EDGE('',*,*,#340,.F.);
#503=ORIENTED_EDGE('',*,*,#373,.F.);
#504=ORIENTED_EDGE('',*,*,#374,.F.);
#505=ORIENTED_EDGE('',*,*,#373,.T.);
#506=ORIENTED_EDGE('',*,*,#339,.F.);
#507=ORIENTED_EDGE('',*,*,#363,.F.);
#508=ORIENTED_EDGE('',*,*,#300,.T.);
#509=ORIENTED_EDGE('',*,*,#313,.T.);
#510=ORIENTED_EDGE('',*,*,#310,.T.);
#511=ORIENTED_EDGE('',*,*,#307,.T.);
#512=ORIENTED_EDGE('',*,*,#304,.T.);
#513=ORIENTED_EDGE('',*,*,#374,.T.);
#514=ORIENTED_EDGE('',*,*,#362,.T.);
#515=ORIENTED_EDGE('',*,*,#365,.T.);
#516=ORIENTED_EDGE('',*,*,#367,.T.);
#517=ORIENTED_EDGE('',*,*,#369,.T.);
#518=ORIENTED_EDGE('',*,*,#371,.F.);
#519=ORIENTED_EDGE('',*,*,#358,.F.);
#520=ORIENTED_EDGE('',*,*,#356,.F.);
#521=ORIENTED_EDGE('',*,*,#354,.F.);
#522=ORIENTED_EDGE('',*,*,#351,.F.);
#523=ORIENTED_EDGE('',*,*,#360,.F.);
#524=ORIENTED_EDGE('',*,*,#372,.T.);
#525=B_SPLINE_SURFACE_WITH_KNOTS('',3,1,((#725,#726),(#727,#728),(#729,
#730),(#731,#732),(#733,#734)),.UNSPECIFIED.,.F.,.F.,.F.,(4,1,4),(2,2),
(0.,0.0689957098934116,0.139022181358367),(0.,0.05),.UNSPECIFIED.);
#526=B_SPLINE_SURFACE_WITH_KNOTS('',3,1,((#751,#752),(#753,#754),(#755,
#756),(#757,#758),(#759,#760)),.UNSPECIFIED.,.F.,.F.,.F.,(4,1,4),(2,2),
(0.,0.0855670071566952,0.153446599473364),(0.,0.05),.UNSPECIFIED.);
#527=ADVANCED_FACE('',(#44),#525,.F.);
#528=ADVANCED_FACE('',(#45),#526,.F.);
#529=ADVANCED_FACE('',(#46),#17,.F.);
#530=ADVANCED_FACE('',(#47),#18,.F.);
#531=ADVANCED_FACE('',(#48),#19,.F.);
#532=ADVANCED_FACE('',(#49),#20,.F.);
#533=ADVANCED_FACE('',(#50),#21,.F.);
#534=ADVANCED_FACE('',(#51),#22,.F.);
#535=ADVANCED_FACE('',(#52),#23,.F.);
#536=ADVANCED_FACE('',(#53),#24,.F.);
#537=ADVANCED_FACE('',(#54),#25,.F.);
#538=ADVANCED_FACE('',(#55),#26,.F.);
#539=ADVANCED_FACE('',(#56),#27,.F.);
#540=ADVANCED_FACE('',(#57,#15),#28,.T.);
#541=ADVANCED_FACE('',(#58,#16),#29,.T.);
#542=ADVANCED_FACE('',(#59),#30,.F.);
#543=ADVANCED_FACE('',(#60),#31,.F.);
#544=ADVANCED_FACE('',(#61),#32,.F.);
#545=ADVANCED_FACE('',(#62),#33,.F.);
#546=ADVANCED_FACE('',(#63),#34,.F.);
#547=ADVANCED_FACE('',(#64),#35,.T.);
#548=ADVANCED_FACE('',(#65),#36,.T.);
#549=ADVANCED_FACE('',(#66),#37,.T.);
#550=ADVANCED_FACE('',(#67),#38,.T.);
#551=ADVANCED_FACE('',(#68),#39,.T.);
#552=ADVANCED_FACE('',(#69),#40,.T.);
#553=ADVANCED_FACE('',(#70),#41,.T.);
#554=ADVANCED_FACE('',(#71),#42,.T.);
#555=ADVANCED_FACE('',(#72),#43,.F.);
#556=CLOSED_SHELL('',(#527,#528,#529,#530,#531,#532,#533,#534,#535,#536,
#537,#538,#539,#540,#541,#542,#543,#544,#545,#546,#547,#548,#549,#550,#551,
#552,#553,#554,#555));
#557=DERIVED_UNIT_ELEMENT(#559,1.);
#558=DERIVED_UNIT_ELEMENT(#918,-3.);
#559=(
MASS_UNIT()
NAMED_UNIT(*)
SI_UNIT(.KILO.,.GRAM.)
);
#560=DERIVED_UNIT((#557,#558));
#561=MEASURE_REPRESENTATION_ITEM('density measure',
POSITIVE_RATIO_MEASURE(7850.),#560);
#562=PROPERTY_DEFINITION_REPRESENTATION(#567,#564);
#563=PROPERTY_DEFINITION_REPRESENTATION(#568,#565);
#564=REPRESENTATION('material name',(#566),#915);
#565=REPRESENTATION('density',(#561),#915);
#566=DESCRIPTIVE_REPRESENTATION_ITEM('Steel','Steel');
#567=PROPERTY_DEFINITION('material property','material name',#925);
#568=PROPERTY_DEFINITION('material property','density of part',#925);
#569=AXIS2_PLACEMENT_3D('',#724,#597,#598);
#570=AXIS2_PLACEMENT_3D('',#774,#602,#603);
#571=AXIS2_PLACEMENT_3D('',#780,#607,#608);
#572=AXIS2_PLACEMENT_3D('',#786,#612,#613);
#573=AXIS2_PLACEMENT_3D('',#789,#616,#617);
#574=AXIS2_PLACEMENT_3D('',#798,#622,#623);
#575=AXIS2_PLACEMENT_3D('',#804,#627,#628);
#576=AXIS2_PLACEMENT_3D('',#810,#632,#633);
#577=AXIS2_PLACEMENT_3D('',#816,#637,#638);
#578=AXIS2_PLACEMENT_3D('',#822,#642,#643);
#579=AXIS2_PLACEMENT_3D('',#828,#647,#648);
#580=AXIS2_PLACEMENT_3D('',#834,#652,#653);
#581=AXIS2_PLACEMENT_3D('',#837,#656,#657);
#582=AXIS2_PLACEMENT_3D('',#838,#658,#659);
#583=AXIS2_PLACEMENT_3D('',#863,#672,#673);
#584=AXIS2_PLACEMENT_3D('',#869,#677,#678);
#585=AXIS2_PLACEMENT_3D('',#873,#681,#682);
#586=AXIS2_PLACEMENT_3D('',#877,#685,#686);
#587=AXIS2_PLACEMENT_3D('',#881,#689,#690);
#588=AXIS2_PLACEMENT_3D('',#885,#693,#694);
#589=AXIS2_PLACEMENT_3D('',#891,#698,#699);
#590=AXIS2_PLACEMENT_3D('',#895,#702,#703);
#591=AXIS2_PLACEMENT_3D('',#899,#706,#707);
#592=AXIS2_PLACEMENT_3D('',#903,#710,#711);
#593=AXIS2_PLACEMENT_3D('',#905,#713,#714);
#594=AXIS2_PLACEMENT_3D('',#909,#717,#718);
#595=AXIS2_PLACEMENT_3D('',#911,#720,#721);
#596=AXIS2_PLACEMENT_3D('',#912,#722,#723);
#597=DIRECTION('axis',(0.,0.,1.));
#598=DIRECTION('refdir',(1.,0.,0.));
#599=DIRECTION('',(0.,0.,-1.));
#600=DIRECTION('',(0.,0.,-1.));
#601=DIRECTION('',(0.,0.,-1.));
#602=DIRECTION('center_axis',(0.350016483812663,-0.936743540708672,0.));
#603=DIRECTION('ref_axis',(-0.936743540708672,-0.350016483812663,0.));
#604=DIRECTION('',(-0.936743540708672,-0.350016483812663,0.));
#605=DIRECTION('',(0.,0.,-1.));
#606=DIRECTION('',(-0.936743540708672,-0.350016483812663,0.));
#607=DIRECTION('center_axis',(-0.999996078589527,0.00280050094940674,0.));
#608=DIRECTION('ref_axis',(0.00280050094940674,0.999996078589527,0.));
#609=DIRECTION('',(0.00280050094940674,0.999996078589527,0.));
#610=DIRECTION('',(0.,0.,-1.));
#611=DIRECTION('',(0.00280050094940674,0.999996078589527,0.));
#612=DIRECTION('center_axis',(0.353267415568571,0.935522385139716,0.));
#613=DIRECTION('ref_axis',(0.935522385139716,-0.353267415568571,0.));
#614=DIRECTION('',(0.935522385139716,-0.353267415568571,0.));
#615=DIRECTION('',(0.935522385139716,-0.353267415568571,0.));
#616=DIRECTION('center_axis',(0.343524509609586,0.939143711738248,0.));
#617=DIRECTION('ref_axis',(0.939143711738248,-0.343524509609586,0.));
#618=DIRECTION('',(0.939143711738248,-0.343524509609586,0.));
#619=DIRECTION('',(0.,0.,-1.));
#620=DIRECTION('',(0.939143711738248,-0.343524509609586,0.));
#621=DIRECTION('',(0.,0.,-1.));
#622=DIRECTION('center_axis',(0.999996078589528,-0.0028005009494068,0.));
#623=DIRECTION('ref_axis',(-0.0028005009494068,-0.999996078589528,0.));
#624=DIRECTION('',(-0.0028005009494068,-0.999996078589528,0.));
#625=DIRECTION('',(0.,0.,-1.));
#626=DIRECTION('',(-0.0028005009494068,-0.999996078589528,0.));
#627=DIRECTION('center_axis',(0.356786969013892,-0.934185773142516,0.));
#628=DIRECTION('ref_axis',(-0.934185773142516,-0.356786969013892,0.));
#629=DIRECTION('',(-0.934185773142516,-0.356786969013892,0.));
#630=DIRECTION('',(0.,0.,-1.));
#631=DIRECTION('',(-0.934185773142516,-0.356786969013892,0.));
#632=DIRECTION('center_axis',(0.999996078589527,-0.00280050094940696,0.));
#633=DIRECTION('ref_axis',(-0.00280050094940696,-0.999996078589527,0.));
#634=DIRECTION('',(-0.00280050094940696,-0.999996078589527,0.));
#635=DIRECTION('',(0.,0.,-1.));
#636=DIRECTION('',(-0.00280050094940696,-0.999996078589527,0.));
#637=DIRECTION('center_axis',(-0.376186930988695,0.926543789010162,0.));
#638=DIRECTION('ref_axis',(0.926543789010162,0.376186930988694,0.));
#639=DIRECTION('',(0.926543789010162,0.376186930988694,0.));
#640=DIRECTION('',(0.,0.,-1.));
#641=DIRECTION('',(0.926543789010162,0.376186930988694,0.));
#642=DIRECTION('center_axis',(-0.999996078589528,0.00280050094940671,0.));
#643=DIRECTION('ref_axis',(0.00280050094940671,0.999996078589528,0.));
#644=DIRECTION('',(0.00280050094940671,0.999996078589528,0.));
#645=DIRECTION('',(0.,0.,-1.));
#646=DIRECTION('',(0.00280050094940671,0.999996078589528,0.));
#647=DIRECTION('center_axis',(-0.361122641751345,-0.932518330980432,0.));
#648=DIRECTION('ref_axis',(-0.932518330980432,0.361122641751345,0.));
#649=DIRECTION('',(-0.932518330980432,0.361122641751345,0.));
#650=DIRECTION('',(0.,0.,-1.));
#651=DIRECTION('',(-0.932518330980432,0.361122641751345,0.));
#652=DIRECTION('center_axis',(0.999996078589527,-0.00280050094940679,0.));
#653=DIRECTION('ref_axis',(-0.00280050094940679,-0.999996078589527,0.));
#654=DIRECTION('',(-0.00280050094940679,-0.999996078589527,0.));
#655=DIRECTION('',(-0.00280050094940679,-0.999996078589527,0.));
#656=DIRECTION('center_axis',(0.,0.,1.));
#657=DIRECTION('ref_axis',(-1.,0.,0.));
#658=DIRECTION('center_axis',(0.,0.,1.));
#659=DIRECTION('ref_axis',(1.,0.,0.));
#660=DIRECTION('',(1.,-2.46716227694479E-16,0.));
#661=DIRECTION('',(2.46716227694479E-16,-1.,0.));
#662=DIRECTION('',(1.,2.46716227694479E-16,0.));
#663=DIRECTION('',(0.,1.,0.));
#664=DIRECTION('',(-1.,0.,0.));
#665=DIRECTION('',(-9.25185853854297E-16,-1.,0.));
#666=DIRECTION('',(1.,-1.23358113847239E-15,0.));
#667=DIRECTION('',(-2.46716227694479E-16,-1.,0.));
#668=DIRECTION('',(1.,1.23358113847239E-15,0.));
#669=DIRECTION('',(-9.25185853854297E-16,1.,0.));
#670=DIRECTION('',(-1.,0.,0.));
#671=DIRECTION('',(0.,-1.,0.));
#672=DIRECTION('center_axis',(1.,0.,0.));
#673=DIRECTION('ref_axis',(0.,1.,0.));
#674=DIRECTION('',(0.,-1.,0.));
#675=DIRECTION('',(0.,0.,1.));
#676=DIRECTION('',(0.,0.,1.));
#677=DIRECTION('center_axis',(0.,1.,0.));
#678=DIRECTION('ref_axis',(-1.,0.,0.));
#679=DIRECTION('',(1.,0.,0.));
#680=DIRECTION('',(0.,0.,1.));
#681=DIRECTION('center_axis',(-1.,9.25185853854297E-16,0.));
#682=DIRECTION('ref_axis',(-9.25185853854297E-16,-1.,0.));
#683=DIRECTION('',(9.25185853854297E-16,1.,0.));
#684=DIRECTION('',(0.,0.,1.));
#685=DIRECTION('center_axis',(-1.23358113847239E-15,-1.,0.));
#686=DIRECTION('ref_axis',(1.,-1.23358113847239E-15,0.));
#687=DIRECTION('',(-1.,1.23358113847239E-15,0.));
#688=DIRECTION('',(0.,0.,1.));
#689=DIRECTION('center_axis',(2.46716227694479E-16,-1.,0.));
#690=DIRECTION('ref_axis',(1.,2.46716227694479E-16,0.));
#691=DIRECTION('',(-1.,-2.46716227694479E-16,0.));
#692=DIRECTION('',(0.,0.,1.));
#693=DIRECTION('center_axis',(-1.,0.,0.));
#694=DIRECTION('ref_axis',(0.,-1.,0.));
#695=DIRECTION('',(0.,1.,0.));
#696=DIRECTION('',(0.,0.,1.));
#697=DIRECTION('',(0.,0.,1.));
#698=DIRECTION('center_axis',(0.,1.,0.));
#699=DIRECTION('ref_axis',(-1.,0.,0.));
#700=DIRECTION('',(1.,0.,0.));
#701=DIRECTION('',(0.,0.,1.));
#702=DIRECTION('center_axis',(1.,9.25185853854297E-16,0.));
#703=DIRECTION('ref_axis',(-9.25185853854297E-16,1.,0.));
#704=DIRECTION('',(9.25185853854297E-16,-1.,0.));
#705=DIRECTION('',(0.,0.,1.));
#706=DIRECTION('center_axis',(1.23358113847239E-15,-1.,0.));
#707=DIRECTION('ref_axis',(1.,1.23358113847239E-15,0.));
#708=DIRECTION('',(-1.,-1.23358113847239E-15,0.));
#709=DIRECTION('',(0.,0.,1.));
#710=DIRECTION('center_axis',(1.,2.46716227694479E-16,0.));
#711=DIRECTION('ref_axis',(-2.46716227694479E-16,1.,0.));
#712=DIRECTION('',(2.46716227694479E-16,1.,0.));
#713=DIRECTION('center_axis',(-1.,-2.46716227694479E-16,0.));
#714=DIRECTION('ref_axis',(2.46716227694479E-16,-1.,0.));
#715=DIRECTION('',(-2.46716227694479E-16,1.,0.));
#716=DIRECTION('',(0.,0.,1.));
#717=DIRECTION('center_axis',(-2.46716227694479E-16,-1.,0.));
#718=DIRECTION('ref_axis',(1.,-2.46716227694479E-16,0.));
#719=DIRECTION('',(-1.,2.46716227694479E-16,0.));
#720=DIRECTION('center_axis',(0.,0.,1.));
#721=DIRECTION('ref_axis',(1.,0.,0.));
#722=DIRECTION('center_axis',(0.,0.,1.));
#723=DIRECTION('ref_axis',(1.,0.,0.));
#724=CARTESIAN_POINT('',(0.,0.,0.));
#725=CARTESIAN_POINT('Ctrl Pts',(-2.76496157028504,-0.0873772903388204,
1.));
#726=CARTESIAN_POINT('Ctrl Pts',(-2.76496157028504,-0.0873772903388204,
0.5));
#727=CARTESIAN_POINT('Ctrl Pts',(-2.54027068472068,-0.13744557019844,1.));
#728=CARTESIAN_POINT('Ctrl Pts',(-2.54027068472068,-0.13744557019844,0.5));
#729=CARTESIAN_POINT('Ctrl Pts',(-2.08753214357434,-0.238330125103355,1.));
#730=CARTESIAN_POINT('Ctrl Pts',(-2.08753214357434,-0.238330125103355,0.5));
#731=CARTESIAN_POINT('Ctrl Pts',(-1.64962743432755,-0.391289569343343,1.));
#732=CARTESIAN_POINT('Ctrl Pts',(-1.64962743432755,-0.391289569343343,0.5));
#733=CARTESIAN_POINT('Ctrl Pts',(-1.42905168643741,-0.468336340245002,1.));
#734=CARTESIAN_POINT('Ctrl Pts',(-1.42905168643741,-0.468336340245002,0.5));
#735=CARTESIAN_POINT('',(-2.76496157028504,-0.0873772903388204,1.));
#736=CARTESIAN_POINT('',(-1.42905168643741,-0.468336340245002,1.));
#737=CARTESIAN_POINT('Ctrl Pts',(-2.76496157028504,-0.0873772903388204,
1.));
#738=CARTESIAN_POINT('Ctrl Pts',(-2.54027068472068,-0.13744557019844,1.));
#739=CARTESIAN_POINT('Ctrl Pts',(-2.08753214357434,-0.238330125103355,1.));
#740=CARTESIAN_POINT('Ctrl Pts',(-1.64962743432755,-0.391289569343343,1.));
#741=CARTESIAN_POINT('Ctrl Pts',(-1.42905168643741,-0.468336340245002,1.));
#742=CARTESIAN_POINT('',(-2.76496157028504,-0.0873772903388204,0.5));
#743=CARTESIAN_POINT('',(-2.76496157028504,-0.0873772903388204,1.));
#744=CARTESIAN_POINT('',(-1.42905168643741,-0.468336340245002,0.5));
#745=CARTESIAN_POINT('Ctrl Pts',(-2.76496157028504,-0.0873772903388204,
0.5));
#746=CARTESIAN_POINT('Ctrl Pts',(-2.54027068472068,-0.13744557019844,0.5));
#747=CARTESIAN_POINT('Ctrl Pts',(-2.08753214357434,-0.238330125103355,0.5));
#748=CARTESIAN_POINT('Ctrl Pts',(-1.64962743432755,-0.391289569343343,0.5));
#749=CARTESIAN_POINT('Ctrl Pts',(-1.42905168643741,-0.468336340245002,0.5));
#750=CARTESIAN_POINT('',(-1.42905168643741,-0.468336340245002,1.));
#751=CARTESIAN_POINT('Ctrl Pts',(-1.31200736343937,0.405145182843482,1.));
#752=CARTESIAN_POINT('Ctrl Pts',(-1.31200736343937,0.405145182843482,0.5));
#753=CARTESIAN_POINT('Ctrl Pts',(-1.57945282670428,0.305788195633545,1.));
#754=CARTESIAN_POINT('Ctrl Pts',(-1.57945282670428,0.305788195633545,0.5));
#755=CARTESIAN_POINT('Ctrl Pts',(-2.05906054288191,0.127612140073204,1.));
#756=CARTESIAN_POINT('Ctrl Pts',(-2.05906054288191,0.127612140073204,0.5));
#757=CARTESIAN_POINT('Ctrl Pts',(-2.5484653952571,-0.0214411497910927,1.));
#758=CARTESIAN_POINT('Ctrl Pts',(-2.5484653952571,-0.0214411497910927,0.5));
#759=CARTESIAN_POINT('Ctrl Pts',(-2.76496157028504,-0.0873772903388204,
1.));
#760=CARTESIAN_POINT('Ctrl Pts',(-2.76496157028504,-0.0873772903388204,
0.5));
#761=CARTESIAN_POINT('',(-1.31200736343937,0.405145182843481,1.));
#762=CARTESIAN_POINT('Ctrl Pts',(-1.31200736343937,0.405145182843482,1.));
#763=CARTESIAN_POINT('Ctrl Pts',(-1.57945282670428,0.305788195633545,1.));
#764=CARTESIAN_POINT('Ctrl Pts',(-2.05906054288191,0.127612140073204,1.));
#765=CARTESIAN_POINT('Ctrl Pts',(-2.5484653952571,-0.0214411497910927,1.));
#766=CARTESIAN_POINT('Ctrl Pts',(-2.76496157028504,-0.0873772903388204,
1.));
#767=CARTESIAN_POINT('',(-1.31200736343937,0.40514518284348,0.5));
#768=CARTESIAN_POINT('',(-1.31200736343937,0.405145182843481,1.));
#769=CARTESIAN_POINT('Ctrl Pts',(-1.31200736343937,0.405145182843482,0.5));
#770=CARTESIAN_POINT('Ctrl Pts',(-1.57945282670428,0.305788195633545,0.5));
#771=CARTESIAN_POINT('Ctrl Pts',(-2.05906054288191,0.127612140073204,0.5));
#772=CARTESIAN_POINT('Ctrl Pts',(-2.5484653952571,-0.0214411497910927,0.5));
#773=CARTESIAN_POINT('Ctrl Pts',(-2.76496157028504,-0.0873772903388204,
0.5));
#774=CARTESIAN_POINT('Origin',(0.628639255063531,1.13027247351841,1.));
#775=CARTESIAN_POINT('',(0.628639255063531,1.13027247351841,1.));
#776=CARTESIAN_POINT('',(1.02820664162713,1.27957179143567,1.));
#777=CARTESIAN_POINT('',(0.628639255063531,1.13027247351841,0.5));
#778=CARTESIAN_POINT('',(0.628639255063531,1.13027247351841,1.));
#779=CARTESIAN_POINT('',(0.628639255063531,1.13027247351841,0.5));
#780=CARTESIAN_POINT('Origin',(0.621993319706612,-1.24284198548096,1.));
#781=CARTESIAN_POINT('',(0.621993319706612,-1.24284198548096,1.));
#782=CARTESIAN_POINT('',(0.631082450040705,2.00268260318504,1.));
#783=CARTESIAN_POINT('',(0.621993319706612,-1.24284198548096,0.5));
#784=CARTESIAN_POINT('',(0.621993319706612,-1.24284198548096,1.));
#785=CARTESIAN_POINT('',(0.621993319706612,-1.24284198548096,0.5));
#786=CARTESIAN_POINT('Origin',(-1.42905168643741,-0.468336340245002,1.));
#787=CARTESIAN_POINT('',(-1.74862241828213,-0.347661593896438,1.));
#788=CARTESIAN_POINT('',(-1.42905168643741,-0.468336340245002,0.5));
#789=CARTESIAN_POINT('Origin',(1.37567539390814,-1.51234791475492,1.));
#790=CARTESIAN_POINT('',(1.37567539390814,-1.51234791475492,1.));
#791=CARTESIAN_POINT('',(3.49356853433249,-2.28704106701292,1.));
#792=CARTESIAN_POINT('',(-0.321821768704977,-0.891429227804416,1.));
#793=CARTESIAN_POINT('',(1.37567539390814,-1.51234791475492,0.5));
#794=CARTESIAN_POINT('',(1.37567539390814,-1.51234791475492,1.));
#795=CARTESIAN_POINT('',(3.49356853433249,-2.28704106701292,0.5));
#796=CARTESIAN_POINT('',(1.37567539390814,-1.51234791475492,0.5));
#797=CARTESIAN_POINT('',(3.49356853433249,-2.28704106701292,1.));
#798=CARTESIAN_POINT('Origin',(1.38387249336598,1.4146524547262,1.));
#799=CARTESIAN_POINT('',(1.38387249336598,1.4146524547262,1.));
#800=CARTESIAN_POINT('',(1.38923749280572,3.33037342690358,1.));
#801=CARTESIAN_POINT('',(1.38387249336598,1.4146524547262,0.5));
#802=CARTESIAN_POINT('',(1.38387249336598,1.4146524547262,1.));
#803=CARTESIAN_POINT('',(1.38387249336598,1.4146524547262,0.5));
#804=CARTESIAN_POINT('Origin',(3.50620517521563,2.22521997412766,1.));
#805=CARTESIAN_POINT('',(3.50620517521563,2.22521997412766,1.));
#806=CARTESIAN_POINT('',(2.48035480757384,1.83342419447082,1.));
#807=CARTESIAN_POINT('',(3.50620517521563,2.22521997412766,0.5));
#808=CARTESIAN_POINT('',(3.50620517521563,2.22521997412766,1.));
#809=CARTESIAN_POINT('',(3.50620517521563,2.22521997412766,0.5));
#810=CARTESIAN_POINT('Origin',(3.509160407651,3.2804671959935,1.));
#811=CARTESIAN_POINT('',(3.509160407651,3.2804671959935,1.));
#812=CARTESIAN_POINT('',(3.51190447524875,4.26031219040735,1.));
#813=CARTESIAN_POINT('',(3.509160407651,3.2804671959935,0.5));
#814=CARTESIAN_POINT('',(3.509160407651,3.2804671959935,1.));
#815=CARTESIAN_POINT('',(3.509160407651,3.2804671959935,0.5));
#816=CARTESIAN_POINT('Origin',(-3.49883528424615,0.435144154614967,1.));
#817=CARTESIAN_POINT('',(-3.49883528424615,0.435144154614966,1.));
#818=CARTESIAN_POINT('',(-1.15787146687601,1.38560111569702,1.));
#819=CARTESIAN_POINT('',(-3.49883528424615,0.435144154614966,0.5));
#820=CARTESIAN_POINT('',(-3.49883528424615,0.435144154614966,1.));
#821=CARTESIAN_POINT('',(-3.49883528424615,0.435144154614967,0.5));
#822=CARTESIAN_POINT('Origin',(-3.50163005373209,-0.562805346917054,1.));
#823=CARTESIAN_POINT('',(-3.50163005373209,-0.562805346917054,1.));
#824=CARTESIAN_POINT('',(-3.49347697090174,2.34847767210808,1.));
#825=CARTESIAN_POINT('',(-3.50163005373209,-0.562805346917054,0.5));
#826=CARTESIAN_POINT('',(-3.50163005373209,-0.562805346917054,1.));
#827=CARTESIAN_POINT('',(-3.50163005373209,-0.562805346917054,0.5));
#828=CARTESIAN_POINT('Origin',(3.49081388058391,-3.27066613846148,1.));
#829=CARTESIAN_POINT('',(3.49081388058391,-3.27066613846148,1.));
#830=CARTESIAN_POINT('',(0.538342695052617,-2.12730610060271,1.));
#831=CARTESIAN_POINT('',(3.49081388058391,-3.27066613846148,0.5));
#832=CARTESIAN_POINT('',(3.49081388058391,-3.27066613846148,1.));
#833=CARTESIAN_POINT('',(3.49081388058391,-3.27066613846148,0.5));
#834=CARTESIAN_POINT('Origin',(3.49356853433249,-2.28704106701292,1.));
#835=CARTESIAN_POINT('',(3.50410853858949,1.47655805890415,1.));
#836=CARTESIAN_POINT('',(3.49356853433249,-2.28704106701292,0.5));
#837=CARTESIAN_POINT('Origin',(0.003765176959456,0.00490052876601033,0.5));
#838=CARTESIAN_POINT('Origin',(2.22044604925031E-15,5.25,1.));
#839=CARTESIAN_POINT('',(-7.5,4.5,1.));
#840=CARTESIAN_POINT('',(-5.25,4.5,1.));
#841=CARTESIAN_POINT('',(-5.25,4.5,1.));
#842=CARTESIAN_POINT('',(-5.25,-4.5,1.));
#843=CARTESIAN_POINT('',(-5.25,2.64785912108445E-16,1.));
#844=CARTESIAN_POINT('',(-7.5,-4.5,1.));
#845=CARTESIAN_POINT('',(-5.25,-4.5,1.));
#846=CARTESIAN_POINT('',(-7.5,-10.5,1.));
#847=CARTESIAN_POINT('',(-7.5,-4.5,1.));
#848=CARTESIAN_POINT('',(7.5,-10.5,1.));
#849=CARTESIAN_POINT('',(-7.5,-10.5,1.));
#850=CARTESIAN_POINT('',(7.50000000000001,-4.5,1.));
#851=CARTESIAN_POINT('',(7.5,-10.5,1.));
#852=CARTESIAN_POINT('',(5.25,-4.5,1.));
#853=CARTESIAN_POINT('',(7.50000000000001,-4.5,1.));
#854=CARTESIAN_POINT('',(5.25,4.5,1.));
#855=CARTESIAN_POINT('',(5.25,-4.5,1.));
#856=CARTESIAN_POINT('',(7.50000000000001,4.5,1.));
#857=CARTESIAN_POINT('',(7.50000000000001,4.5,1.));
#858=CARTESIAN_POINT('',(7.5,10.5,1.));
#859=CARTESIAN_POINT('',(7.5,10.5,1.));
#860=CARTESIAN_POINT('',(-7.5,10.5,1.));
#861=CARTESIAN_POINT('',(-7.5,10.5,1.));
#862=CARTESIAN_POINT('',(-7.5,4.5,1.));
#863=CARTESIAN_POINT('Origin',(-7.5,-10.5,0.));
#864=CARTESIAN_POINT('',(-7.5,-4.5,0.));
#865=CARTESIAN_POINT('',(-7.5,-10.5,0.));
#866=CARTESIAN_POINT('',(-7.5,-4.5,0.));
#867=CARTESIAN_POINT('',(-7.5,-10.5,0.));
#868=CARTESIAN_POINT('',(-7.5,-4.5,0.));
#869=CARTESIAN_POINT('Origin',(7.5,-10.5,0.));
#870=CARTESIAN_POINT('',(7.5,-10.5,0.));
#871=CARTESIAN_POINT('',(-7.5,-10.5,0.));
#872=CARTESIAN_POINT('',(7.5,-10.5,0.));
#873=CARTESIAN_POINT('Origin',(7.50000000000001,-4.5,0.));
#874=CARTESIAN_POINT('',(7.50000000000001,-4.5,0.));
#875=CARTESIAN_POINT('',(7.5,-10.5,0.));
#876=CARTESIAN_POINT('',(7.50000000000001,-4.5,0.));
#877=CARTESIAN_POINT('Origin',(5.25,-4.5,0.));
#878=CARTESIAN_POINT('',(5.25,-4.5,0.));
#879=CARTESIAN_POINT('',(7.50000000000001,-4.5,0.));
#880=CARTESIAN_POINT('',(5.25,-4.5,0.));
#881=CARTESIAN_POINT('Origin',(-7.5,-4.5,0.));
#882=CARTESIAN_POINT('',(-5.25,-4.5,0.));
#883=CARTESIAN_POINT('',(-5.25,-4.5,0.));
#884=CARTESIAN_POINT('',(-5.25,-4.5,0.));
#885=CARTESIAN_POINT('Origin',(-7.5,10.5,0.));
#886=CARTESIAN_POINT('',(-7.5,4.5,0.));
#887=CARTESIAN_POINT('',(-7.5,10.5,0.));
#888=CARTESIAN_POINT('',(-7.5,4.5,0.));
#889=CARTESIAN_POINT('',(-7.5,4.5,0.));
#890=CARTESIAN_POINT('',(-7.5,10.5,0.));
#891=CARTESIAN_POINT('Origin',(7.5,10.5,0.));
#892=CARTESIAN_POINT('',(7.5,10.5,0.));
#893=CARTESIAN_POINT('',(-7.5,10.5,0.));
#894=CARTESIAN_POINT('',(7.5,10.5,0.));
#895=CARTESIAN_POINT('Origin',(7.50000000000001,4.5,0.));
#896=CARTESIAN_POINT('',(7.50000000000001,4.5,0.));
#897=CARTESIAN_POINT('',(7.5,10.5,0.));
#898=CARTESIAN_POINT('',(7.50000000000001,4.5,0.));
#899=CARTESIAN_POINT('Origin',(5.25,4.5,0.));
#900=CARTESIAN_POINT('',(5.25,4.5,0.));
#901=CARTESIAN_POINT('',(7.50000000000001,4.5,0.));
#902=CARTESIAN_POINT('',(5.25,4.5,0.));
#903=CARTESIAN_POINT('Origin',(5.25,-5.55111512312578E-16,0.));
#904=CARTESIAN_POINT('',(5.25,-4.5,0.));
#905=CARTESIAN_POINT('Origin',(-5.25,4.5,0.));
#906=CARTESIAN_POINT('',(-5.25,4.5,0.));
#907=CARTESIAN_POINT('',(-5.25,2.64785912108445E-16,0.));
#908=CARTESIAN_POINT('',(-5.25,4.5,0.));
#909=CARTESIAN_POINT('Origin',(-7.5,4.5,0.));
#910=CARTESIAN_POINT('',(-5.25,4.5,0.));
#911=CARTESIAN_POINT('Origin',(2.22044604925031E-15,5.25,1.));
#912=CARTESIAN_POINT('Origin',(2.22044604925031E-15,5.25,0.));
#913=UNCERTAINTY_MEASURE_WITH_UNIT(LENGTH_MEASURE(0.01),#917,
'DISTANCE_ACCURACY_VALUE',
'Maximum model space distance between geometric entities at asserted c
onnectivities');
#914=UNCERTAINTY_MEASURE_WITH_UNIT(LENGTH_MEASURE(0.01),#917,
'DISTANCE_ACCURACY_VALUE',
'Maximum model space distance between geometric entities at asserted c
onnectivities');
#915=(
GEOMETRIC_REPRESENTATION_CONTEXT(3)
GLOBAL_UNCERTAINTY_ASSIGNED_CONTEXT((#913))
GLOBAL_UNIT_ASSIGNED_CONTEXT((#917,#919,#920))
REPRESENTATION_CONTEXT('','3D')
);
#916=(
GEOMETRIC_REPRESENTATION_CONTEXT(3)
GLOBAL_UNCERTAINTY_ASSIGNED_CONTEXT((#914))
GLOBAL_UNIT_ASSIGNED_CONTEXT((#917,#919,#920))
REPRESENTATION_CONTEXT('','3D')
);
#917=(
LENGTH_UNIT()
NAMED_UNIT(*)
SI_UNIT(.MILLI.,.METRE.)
);
#918=(
LENGTH_UNIT()
NAMED_UNIT(*)
SI_UNIT($,.METRE.)
);
#919=(
NAMED_UNIT(*)
PLANE_ANGLE_UNIT()
SI_UNIT($,.RADIAN.)
);
#920=(
NAMED_UNIT(*)
SI_UNIT($,.STERADIAN.)
SOLID_ANGLE_UNIT()
);
#921=SHAPE_DEFINITION_REPRESENTATION(#922,#923);
#922=PRODUCT_DEFINITION_SHAPE('',$,#925);
#923=SHAPE_REPRESENTATION('',(#569),#915);
#924=PRODUCT_DEFINITION_CONTEXT('part definition',#929,'design');
#925=PRODUCT_DEFINITION('2026-08-17-11-04-12-588','(Unsaved)',#926,#924);
#926=PRODUCT_DEFINITION_FORMATION('',$,#931);
#927=PRODUCT_RELATED_PRODUCT_CATEGORY('(Unsaved)','(Unsaved)',(#931));
#928=APPLICATION_PROTOCOL_DEFINITION('international standard',
'automotive_design',2009,#929);
#929=APPLICATION_CONTEXT(
'Core Data for Automotive Mechanical Design Process');
#930=PRODUCT_CONTEXT('part definition',#929,'mechanical');
#931=PRODUCT('2026-08-17-11-04-12-588','(Unsaved)',$,(#930));
#932=PRESENTATION_STYLE_ASSIGNMENT((#933));
#933=SURFACE_STYLE_USAGE(.BOTH.,#934);
#934=SURFACE_SIDE_STYLE('',(#935));
#935=SURFACE_STYLE_FILL_AREA(#936);
#936=FILL_AREA_STYLE('Steel - Satin',(#937));
#937=FILL_AREA_STYLE_COLOUR('Steel - Satin',#938);
#938=COLOUR_RGB('Steel - Satin',0.627450980392157,0.627450980392157,0.627450980392157);
ENDSEC;
END-ISO-10303-21;
