ISO-10303-21;
HEADER;
/* Generated by software containing ST-Developer
 * from STEP Tools, Inc. (www.steptools.com) 
 */

FILE_DESCRIPTION(
/* description */ (''),
/* implementation_level */ '2;1');

FILE_NAME(
/* name */ 'WristAdaper_Dynamixel.step',
/* time_stamp */ '2026-10-07T10:18:11+02:00',
/* author */ (''),
/* organization */ (''),
/* preprocessor_version */ 'ST-DEVELOPER v20.2',
/* originating_system */ 'Autodesk Translation Framework v15.15.0.0',
/* authorisation */ '');

FILE_SCHEMA (('AUTOMOTIVE_DESIGN { 1 0 10303 214 3 1 1 }'));
ENDSEC;

DATA;
#10=MECHANICAL_DESIGN_GEOMETRIC_PRESENTATION_REPRESENTATION('',(#13),#968);
#11=SHAPE_REPRESENTATION_RELATIONSHIP('SRR','None',#975,#12);
#12=ADVANCED_BREP_SHAPE_REPRESENTATION('',(#14),#967);
#13=STYLED_ITEM('',(#984),#14);
#14=MANIFOLD_SOLID_BREP('WristAdaper_Dynamixel_WristAdaper',#548);
#15=FACE_BOUND('',#97,.T.);
#16=FACE_BOUND('',#99,.T.);
#17=FACE_BOUND('',#101,.T.);
#18=FACE_BOUND('',#103,.T.);
#19=FACE_BOUND('',#107,.T.);
#20=FACE_BOUND('',#108,.T.);
#21=FACE_BOUND('',#109,.T.);
#22=FACE_BOUND('',#110,.T.);
#23=FACE_BOUND('',#111,.T.);
#24=FACE_BOUND('',#113,.T.);
#25=FACE_BOUND('',#114,.T.);
#26=FACE_BOUND('',#115,.T.);
#27=FACE_BOUND('',#116,.T.);
#28=FACE_BOUND('',#117,.T.);
#29=PLANE('',#583);
#30=PLANE('',#586);
#31=PLANE('',#589);
#32=PLANE('',#592);
#33=PLANE('',#593);
#34=PLANE('',#597);
#35=PLANE('',#600);
#36=PLANE('',#603);
#37=PLANE('',#606);
#38=PLANE('',#609);
#39=PLANE('',#610);
#40=PLANE('',#611);
#41=PLANE('',#617);
#42=PLANE('',#631);
#43=TOROIDAL_SURFACE('',#565,1.8,0.8);
#44=TOROIDAL_SURFACE('',#571,1.8,0.8);
#45=TOROIDAL_SURFACE('',#577,1.8,0.8);
#46=FACE_OUTER_BOUND('',#80,.T.);
#47=FACE_OUTER_BOUND('',#81,.T.);
#48=FACE_OUTER_BOUND('',#82,.T.);
#49=FACE_OUTER_BOUND('',#83,.T.);
#50=FACE_OUTER_BOUND('',#84,.T.);
#51=FACE_OUTER_BOUND('',#85,.T.);
#52=FACE_OUTER_BOUND('',#86,.T.);
#53=FACE_OUTER_BOUND('',#87,.T.);
#54=FACE_OUTER_BOUND('',#88,.T.);
#55=FACE_OUTER_BOUND('',#89,.T.);
#56=FACE_OUTER_BOUND('',#90,.T.);
#57=FACE_OUTER_BOUND('',#91,.T.);
#58=FACE_OUTER_BOUND('',#92,.T.);
#59=FACE_OUTER_BOUND('',#93,.T.);
#60=FACE_OUTER_BOUND('',#94,.T.);
#61=FACE_OUTER_BOUND('',#95,.T.);
#62=FACE_OUTER_BOUND('',#96,.T.);
#63=FACE_OUTER_BOUND('',#98,.T.);
#64=FACE_OUTER_BOUND('',#100,.T.);
#65=FACE_OUTER_BOUND('',#102,.T.);
#66=FACE_OUTER_BOUND('',#104,.T.);
#67=FACE_OUTER_BOUND('',#105,.T.);
#68=FACE_OUTER_BOUND('',#106,.T.);
#69=FACE_OUTER_BOUND('',#112,.T.);
#70=FACE_OUTER_BOUND('',#118,.T.);
#71=FACE_OUTER_BOUND('',#119,.T.);
#72=FACE_OUTER_BOUND('',#120,.T.);
#73=FACE_OUTER_BOUND('',#121,.T.);
#74=FACE_OUTER_BOUND('',#122,.T.);
#75=FACE_OUTER_BOUND('',#123,.T.);
#76=FACE_OUTER_BOUND('',#124,.T.);
#77=FACE_OUTER_BOUND('',#125,.T.);
#78=FACE_OUTER_BOUND('',#126,.T.);
#79=FACE_OUTER_BOUND('',#127,.T.);
#80=EDGE_LOOP('',(#353,#354,#355,#356));
#81=EDGE_LOOP('',(#357,#358,#359,#360));
#82=EDGE_LOOP('',(#361,#362,#363,#364));
#83=EDGE_LOOP('',(#365,#366,#367,#368));
#84=EDGE_LOOP('',(#369,#370,#371,#372));
#85=EDGE_LOOP('',(#373,#374,#375,#376));
#86=EDGE_LOOP('',(#377,#378,#379,#380));
#87=EDGE_LOOP('',(#381,#382,#383,#384));
#88=EDGE_LOOP('',(#385,#386,#387,#388));
#89=EDGE_LOOP('',(#389,#390,#391,#392));
#90=EDGE_LOOP('',(#393,#394,#395,#396));
#91=EDGE_LOOP('',(#397,#398,#399,#400));
#92=EDGE_LOOP('',(#401,#402,#403,#404));
#93=EDGE_LOOP('',(#405,#406,#407,#408));
#94=EDGE_LOOP('',(#409));
#95=EDGE_LOOP('',(#410,#411,#412,#413));
#96=EDGE_LOOP('',(#414));
#97=EDGE_LOOP('',(#415));
#98=EDGE_LOOP('',(#416));
#99=EDGE_LOOP('',(#417));
#100=EDGE_LOOP('',(#418));
#101=EDGE_LOOP('',(#419));
#102=EDGE_LOOP('',(#420));
#103=EDGE_LOOP('',(#421));
#104=EDGE_LOOP('',(#422,#423,#424,#425,#426,#427,#428,#429));
#105=EDGE_LOOP('',(#430,#431,#432,#433,#434,#435));
#106=EDGE_LOOP('',(#436,#437));
#107=EDGE_LOOP('',(#438,#439,#440,#441,#442,#443,#444,#445));
#108=EDGE_LOOP('',(#446));
#109=EDGE_LOOP('',(#447));
#110=EDGE_LOOP('',(#448));
#111=EDGE_LOOP('',(#449));
#112=EDGE_LOOP('',(#450,#451));
#113=EDGE_LOOP('',(#452));
#114=EDGE_LOOP('',(#453));
#115=EDGE_LOOP('',(#454));
#116=EDGE_LOOP('',(#455));
#117=EDGE_LOOP('',(#456));
#118=EDGE_LOOP('',(#457,#458,#459,#460));
#119=EDGE_LOOP('',(#461,#462,#463,#464));
#120=EDGE_LOOP('',(#465,#466,#467,#468));
#121=EDGE_LOOP('',(#469,#470,#471,#472));
#122=EDGE_LOOP('',(#473,#474,#475,#476));
#123=EDGE_LOOP('',(#477,#478,#479,#480));
#124=EDGE_LOOP('',(#481,#482,#483,#484));
#125=EDGE_LOOP('',(#485,#486,#487,#488));
#126=EDGE_LOOP('',(#489,#490,#491,#492));
#127=EDGE_LOOP('',(#493,#494,#495,#496));
#128=ELLIPSE('',#564,1.13137084989848,0.8);
#129=ELLIPSE('',#582,1.13137084989848,0.8);
#130=LINE('',#818,#165);
#131=LINE('',#821,#166);
#132=LINE('',#832,#167);
#133=LINE('',#833,#168);
#134=LINE('',#844,#169);
#135=LINE('',#845,#170);
#136=LINE('',#856,#171);
#137=LINE('',#857,#172);
#138=LINE('',#860,#173);
#139=LINE('',#862,#174);
#140=LINE('',#863,#175);
#141=LINE('',#866,#176);
#142=LINE('',#870,#177);
#143=LINE('',#871,#178);
#144=LINE('',#874,#179);
#145=LINE('',#878,#180);
#146=LINE('',#879,#181);
#147=LINE('',#882,#182);
#148=LINE('',#886,#183);
#149=LINE('',#887,#184);
#150=LINE('',#893,#185);
#151=LINE('',#916,#186);
#152=LINE('',#918,#187);
#153=LINE('',#923,#188);
#154=LINE('',#936,#189);
#155=LINE('',#946,#190);
#156=LINE('',#948,#191);
#157=LINE('',#950,#192);
#158=LINE('',#952,#193);
#159=LINE('',#954,#194);
#160=LINE('',#956,#195);
#161=LINE('',#958,#196);
#162=LINE('',#960,#197);
#163=LINE('',#962,#198);
#164=LINE('',#963,#199);
#165=VECTOR('',#639,10.);
#166=VECTOR('',#642,10.);
#167=VECTOR('',#655,10.);
#168=VECTOR('',#656,10.);
#169=VECTOR('',#669,10.);
#170=VECTOR('',#670,10.);
#171=VECTOR('',#683,10.);
#172=VECTOR('',#684,10.);
#173=VECTOR('',#687,10.);
#174=VECTOR('',#688,10.);
#175=VECTOR('',#689,10.);
#176=VECTOR('',#692,10.);
#177=VECTOR('',#697,10.);
#178=VECTOR('',#698,10.);
#179=VECTOR('',#701,10.);
#180=VECTOR('',#706,10.);
#181=VECTOR('',#707,10.);
#182=VECTOR('',#710,10.);
#183=VECTOR('',#715,10.);
#184=VECTOR('',#716,10.);
#185=VECTOR('',#723,4.5);
#186=VECTOR('',#752,10.);
#187=VECTOR('',#755,10.);
#188=VECTOR('',#760,10.);
#189=VECTOR('',#773,10.);
#190=VECTOR('',#784,2.);
#191=VECTOR('',#787,2.);
#192=VECTOR('',#790,2.);
#193=VECTOR('',#793,2.);
#194=VECTOR('',#796,1.2);
#195=VECTOR('',#799,1.2);
#196=VECTOR('',#802,1.2);
#197=VECTOR('',#805,1.2);
#198=VECTOR('',#808,10.);
#199=VECTOR('',#809,10.);
#200=CIRCLE('',#563,0.8);
#201=CIRCLE('',#566,0.800000000000001);
#202=CIRCLE('',#567,1.8);
#203=CIRCLE('',#568,1.);
#204=CIRCLE('',#570,0.8);
#205=CIRCLE('',#572,0.8);
#206=CIRCLE('',#573,1.8);
#207=CIRCLE('',#574,1.);
#208=CIRCLE('',#576,0.8);
#209=CIRCLE('',#578,0.8);
#210=CIRCLE('',#579,1.8);
#211=CIRCLE('',#580,1.);
#212=CIRCLE('',#585,1.);
#213=CIRCLE('',#588,1.);
#214=CIRCLE('',#591,1.);
#215=CIRCLE('',#594,4.5);
#216=CIRCLE('',#596,4.5);
#217=CIRCLE('',#598,2.);
#218=CIRCLE('',#599,1.2);
#219=CIRCLE('',#601,2.);
#220=CIRCLE('',#602,1.2);
#221=CIRCLE('',#604,2.);
#222=CIRCLE('',#605,1.2);
#223=CIRCLE('',#607,2.);
#224=CIRCLE('',#608,1.2);
#225=CIRCLE('',#612,10.25);
#226=CIRCLE('',#613,2.);
#227=CIRCLE('',#614,2.);
#228=CIRCLE('',#615,2.);
#229=CIRCLE('',#616,2.);
#230=CIRCLE('',#618,10.25);
#231=CIRCLE('',#619,1.2);
#232=CIRCLE('',#620,1.2);
#233=CIRCLE('',#621,1.2);
#234=CIRCLE('',#622,1.2);
#235=VERTEX_POINT('',#814);
#236=VERTEX_POINT('',#815);
#237=VERTEX_POINT('',#817);
#238=VERTEX_POINT('',#819);
#239=VERTEX_POINT('',#823);
#240=VERTEX_POINT('',#824);
#241=VERTEX_POINT('',#829);
#242=VERTEX_POINT('',#830);
#243=VERTEX_POINT('',#835);
#244=VERTEX_POINT('',#836);
#245=VERTEX_POINT('',#841);
#246=VERTEX_POINT('',#842);
#247=VERTEX_POINT('',#847);
#248=VERTEX_POINT('',#848);
#249=VERTEX_POINT('',#853);
#250=VERTEX_POINT('',#854);
#251=VERTEX_POINT('',#859);
#252=VERTEX_POINT('',#861);
#253=VERTEX_POINT('',#865);
#254=VERTEX_POINT('',#869);
#255=VERTEX_POINT('',#873);
#256=VERTEX_POINT('',#877);
#257=VERTEX_POINT('',#881);
#258=VERTEX_POINT('',#885);
#259=VERTEX_POINT('',#889);
#260=VERTEX_POINT('',#892);
#261=VERTEX_POINT('',#896);
#262=VERTEX_POINT('',#898);
#263=VERTEX_POINT('',#901);
#264=VERTEX_POINT('',#903);
#265=VERTEX_POINT('',#906);
#266=VERTEX_POINT('',#908);
#267=VERTEX_POINT('',#911);
#268=VERTEX_POINT('',#913);
#269=VERTEX_POINT('',#920);
#270=VERTEX_POINT('',#921);
#271=VERTEX_POINT('',#924);
#272=VERTEX_POINT('',#926);
#273=VERTEX_POINT('',#928);
#274=VERTEX_POINT('',#930);
#275=VERTEX_POINT('',#933);
#276=VERTEX_POINT('',#934);
#277=VERTEX_POINT('',#937);
#278=VERTEX_POINT('',#939);
#279=VERTEX_POINT('',#941);
#280=VERTEX_POINT('',#943);
#281=EDGE_CURVE('',#235,#236,#200,.T.);
#282=EDGE_CURVE('',#236,#237,#130,.T.);
#283=EDGE_CURVE('',#237,#238,#128,.T.);
#284=EDGE_CURVE('',#238,#235,#131,.T.);
#285=EDGE_CURVE('',#239,#240,#201,.T.);
#286=EDGE_CURVE('',#240,#236,#202,.T.);
#287=EDGE_CURVE('',#235,#239,#203,.T.);
#288=EDGE_CURVE('',#241,#242,#204,.T.);
#289=EDGE_CURVE('',#242,#240,#132,.T.);
#290=EDGE_CURVE('',#239,#241,#133,.T.);
#291=EDGE_CURVE('',#243,#244,#205,.T.);
#292=EDGE_CURVE('',#244,#242,#206,.T.);
#293=EDGE_CURVE('',#241,#243,#207,.T.);
#294=EDGE_CURVE('',#245,#246,#208,.T.);
#295=EDGE_CURVE('',#246,#244,#134,.T.);
#296=EDGE_CURVE('',#243,#245,#135,.T.);
#297=EDGE_CURVE('',#247,#248,#209,.T.);
#298=EDGE_CURVE('',#248,#246,#210,.T.);
#299=EDGE_CURVE('',#245,#247,#211,.T.);
#300=EDGE_CURVE('',#249,#250,#129,.T.);
#301=EDGE_CURVE('',#250,#248,#136,.T.);
#302=EDGE_CURVE('',#247,#249,#137,.T.);
#303=EDGE_CURVE('',#251,#247,#138,.T.);
#304=EDGE_CURVE('',#252,#251,#139,.T.);
#305=EDGE_CURVE('',#252,#249,#140,.T.);
#306=EDGE_CURVE('',#245,#253,#141,.T.);
#307=EDGE_CURVE('',#253,#251,#212,.T.);
#308=EDGE_CURVE('',#254,#243,#142,.T.);
#309=EDGE_CURVE('',#253,#254,#143,.T.);
#310=EDGE_CURVE('',#241,#255,#144,.T.);
#311=EDGE_CURVE('',#255,#254,#213,.T.);
#312=EDGE_CURVE('',#256,#239,#145,.T.);
#313=EDGE_CURVE('',#255,#256,#146,.T.);
#314=EDGE_CURVE('',#235,#257,#147,.T.);
#315=EDGE_CURVE('',#257,#256,#214,.T.);
#316=EDGE_CURVE('',#238,#258,#148,.T.);
#317=EDGE_CURVE('',#257,#258,#149,.T.);
#318=EDGE_CURVE('',#259,#259,#215,.T.);
#319=EDGE_CURVE('',#259,#260,#150,.T.);
#320=EDGE_CURVE('',#260,#260,#216,.T.);
#321=EDGE_CURVE('',#261,#261,#217,.T.);
#322=EDGE_CURVE('',#262,#262,#218,.T.);
#323=EDGE_CURVE('',#263,#263,#219,.T.);
#324=EDGE_CURVE('',#264,#264,#220,.T.);
#325=EDGE_CURVE('',#265,#265,#221,.T.);
#326=EDGE_CURVE('',#266,#266,#222,.T.);
#327=EDGE_CURVE('',#267,#267,#223,.T.);
#328=EDGE_CURVE('',#268,#268,#224,.T.);
#329=EDGE_CURVE('',#258,#252,#151,.T.);
#330=EDGE_CURVE('',#250,#237,#152,.T.);
#331=EDGE_CURVE('',#269,#270,#225,.T.);
#332=EDGE_CURVE('',#270,#269,#153,.T.);
#333=EDGE_CURVE('',#271,#271,#226,.T.);
#334=EDGE_CURVE('',#272,#272,#227,.T.);
#335=EDGE_CURVE('',#273,#273,#228,.T.);
#336=EDGE_CURVE('',#274,#274,#229,.T.);
#337=EDGE_CURVE('',#275,#276,#230,.T.);
#338=EDGE_CURVE('',#276,#275,#154,.T.);
#339=EDGE_CURVE('',#277,#277,#231,.T.);
#340=EDGE_CURVE('',#278,#278,#232,.T.);
#341=EDGE_CURVE('',#279,#279,#233,.T.);
#342=EDGE_CURVE('',#280,#280,#234,.T.);
#343=EDGE_CURVE('',#265,#274,#155,.T.);
#344=EDGE_CURVE('',#267,#273,#156,.T.);
#345=EDGE_CURVE('',#263,#272,#157,.T.);
#346=EDGE_CURVE('',#261,#271,#158,.T.);
#347=EDGE_CURVE('',#277,#264,#159,.T.);
#348=EDGE_CURVE('',#278,#266,#160,.T.);
#349=EDGE_CURVE('',#279,#262,#161,.T.);
#350=EDGE_CURVE('',#280,#268,#162,.T.);
#351=EDGE_CURVE('',#275,#270,#163,.T.);
#352=EDGE_CURVE('',#269,#276,#164,.T.);
#353=ORIENTED_EDGE('',*,*,#281,.T.);
#354=ORIENTED_EDGE('',*,*,#282,.T.);
#355=ORIENTED_EDGE('',*,*,#283,.T.);
#356=ORIENTED_EDGE('',*,*,#284,.T.);
#357=ORIENTED_EDGE('',*,*,#285,.T.);
#358=ORIENTED_EDGE('',*,*,#286,.T.);
#359=ORIENTED_EDGE('',*,*,#281,.F.);
#360=ORIENTED_EDGE('',*,*,#287,.T.);
#361=ORIENTED_EDGE('',*,*,#288,.T.);
#362=ORIENTED_EDGE('',*,*,#289,.T.);
#363=ORIENTED_EDGE('',*,*,#285,.F.);
#364=ORIENTED_EDGE('',*,*,#290,.T.);
#365=ORIENTED_EDGE('',*,*,#291,.T.);
#366=ORIENTED_EDGE('',*,*,#292,.T.);
#367=ORIENTED_EDGE('',*,*,#288,.F.);
#368=ORIENTED_EDGE('',*,*,#293,.T.);
#369=ORIENTED_EDGE('',*,*,#294,.T.);
#370=ORIENTED_EDGE('',*,*,#295,.T.);
#371=ORIENTED_EDGE('',*,*,#291,.F.);
#372=ORIENTED_EDGE('',*,*,#296,.T.);
#373=ORIENTED_EDGE('',*,*,#297,.T.);
#374=ORIENTED_EDGE('',*,*,#298,.T.);
#375=ORIENTED_EDGE('',*,*,#294,.F.);
#376=ORIENTED_EDGE('',*,*,#299,.T.);
#377=ORIENTED_EDGE('',*,*,#300,.T.);
#378=ORIENTED_EDGE('',*,*,#301,.T.);
#379=ORIENTED_EDGE('',*,*,#297,.F.);
#380=ORIENTED_EDGE('',*,*,#302,.T.);
#381=ORIENTED_EDGE('',*,*,#302,.F.);
#382=ORIENTED_EDGE('',*,*,#303,.F.);
#383=ORIENTED_EDGE('',*,*,#304,.F.);
#384=ORIENTED_EDGE('',*,*,#305,.T.);
#385=ORIENTED_EDGE('',*,*,#299,.F.);
#386=ORIENTED_EDGE('',*,*,#306,.T.);
#387=ORIENTED_EDGE('',*,*,#307,.T.);
#388=ORIENTED_EDGE('',*,*,#303,.T.);
#389=ORIENTED_EDGE('',*,*,#296,.F.);
#390=ORIENTED_EDGE('',*,*,#308,.F.);
#391=ORIENTED_EDGE('',*,*,#309,.F.);
#392=ORIENTED_EDGE('',*,*,#306,.F.);
#393=ORIENTED_EDGE('',*,*,#293,.F.);
#394=ORIENTED_EDGE('',*,*,#310,.T.);
#395=ORIENTED_EDGE('',*,*,#311,.T.);
#396=ORIENTED_EDGE('',*,*,#308,.T.);
#397=ORIENTED_EDGE('',*,*,#290,.F.);
#398=ORIENTED_EDGE('',*,*,#312,.F.);
#399=ORIENTED_EDGE('',*,*,#313,.F.);
#400=ORIENTED_EDGE('',*,*,#310,.F.);
#401=ORIENTED_EDGE('',*,*,#287,.F.);
#402=ORIENTED_EDGE('',*,*,#314,.T.);
#403=ORIENTED_EDGE('',*,*,#315,.T.);
#404=ORIENTED_EDGE('',*,*,#312,.T.);
#405=ORIENTED_EDGE('',*,*,#284,.F.);
#406=ORIENTED_EDGE('',*,*,#316,.T.);
#407=ORIENTED_EDGE('',*,*,#317,.F.);
#408=ORIENTED_EDGE('',*,*,#314,.F.);
#409=ORIENTED_EDGE('',*,*,#318,.T.);
#410=ORIENTED_EDGE('',*,*,#318,.F.);
#411=ORIENTED_EDGE('',*,*,#319,.T.);
#412=ORIENTED_EDGE('',*,*,#320,.F.);
#413=ORIENTED_EDGE('',*,*,#319,.F.);
#414=ORIENTED_EDGE('',*,*,#321,.F.);
#415=ORIENTED_EDGE('',*,*,#322,.F.);
#416=ORIENTED_EDGE('',*,*,#323,.F.);
#417=ORIENTED_EDGE('',*,*,#324,.F.);
#418=ORIENTED_EDGE('',*,*,#325,.F.);
#419=ORIENTED_EDGE('',*,*,#326,.F.);
#420=ORIENTED_EDGE('',*,*,#327,.F.);
#421=ORIENTED_EDGE('',*,*,#328,.F.);
#422=ORIENTED_EDGE('',*,*,#315,.F.);
#423=ORIENTED_EDGE('',*,*,#317,.T.);
#424=ORIENTED_EDGE('',*,*,#329,.T.);
#425=ORIENTED_EDGE('',*,*,#304,.T.);
#426=ORIENTED_EDGE('',*,*,#307,.F.);
#427=ORIENTED_EDGE('',*,*,#309,.T.);
#428=ORIENTED_EDGE('',*,*,#311,.F.);
#429=ORIENTED_EDGE('',*,*,#313,.T.);
#430=ORIENTED_EDGE('',*,*,#330,.F.);
#431=ORIENTED_EDGE('',*,*,#300,.F.);
#432=ORIENTED_EDGE('',*,*,#305,.F.);
#433=ORIENTED_EDGE('',*,*,#329,.F.);
#434=ORIENTED_EDGE('',*,*,#316,.F.);
#435=ORIENTED_EDGE('',*,*,#283,.F.);
#436=ORIENTED_EDGE('',*,*,#331,.T.);
#437=ORIENTED_EDGE('',*,*,#332,.T.);
#438=ORIENTED_EDGE('',*,*,#330,.T.);
#439=ORIENTED_EDGE('',*,*,#282,.F.);
#440=ORIENTED_EDGE('',*,*,#286,.F.);
#441=ORIENTED_EDGE('',*,*,#289,.F.);
#442=ORIENTED_EDGE('',*,*,#292,.F.);
#443=ORIENTED_EDGE('',*,*,#295,.F.);
#444=ORIENTED_EDGE('',*,*,#298,.F.);
#445=ORIENTED_EDGE('',*,*,#301,.F.);
#446=ORIENTED_EDGE('',*,*,#333,.T.);
#447=ORIENTED_EDGE('',*,*,#334,.T.);
#448=ORIENTED_EDGE('',*,*,#335,.T.);
#449=ORIENTED_EDGE('',*,*,#336,.T.);
#450=ORIENTED_EDGE('',*,*,#337,.T.);
#451=ORIENTED_EDGE('',*,*,#338,.T.);
#452=ORIENTED_EDGE('',*,*,#320,.T.);
#453=ORIENTED_EDGE('',*,*,#339,.T.);
#454=ORIENTED_EDGE('',*,*,#340,.T.);
#455=ORIENTED_EDGE('',*,*,#341,.T.);
#456=ORIENTED_EDGE('',*,*,#342,.T.);
#457=ORIENTED_EDGE('',*,*,#325,.T.);
#458=ORIENTED_EDGE('',*,*,#343,.T.);
#459=ORIENTED_EDGE('',*,*,#336,.F.);
#460=ORIENTED_EDGE('',*,*,#343,.F.);
#461=ORIENTED_EDGE('',*,*,#327,.T.);
#462=ORIENTED_EDGE('',*,*,#344,.T.);
#463=ORIENTED_EDGE('',*,*,#335,.F.);
#464=ORIENTED_EDGE('',*,*,#344,.F.);
#465=ORIENTED_EDGE('',*,*,#323,.T.);
#466=ORIENTED_EDGE('',*,*,#345,.T.);
#467=ORIENTED_EDGE('',*,*,#334,.F.);
#468=ORIENTED_EDGE('',*,*,#345,.F.);
#469=ORIENTED_EDGE('',*,*,#321,.T.);
#470=ORIENTED_EDGE('',*,*,#346,.T.);
#471=ORIENTED_EDGE('',*,*,#333,.F.);
#472=ORIENTED_EDGE('',*,*,#346,.F.);
#473=ORIENTED_EDGE('',*,*,#339,.F.);
#474=ORIENTED_EDGE('',*,*,#347,.T.);
#475=ORIENTED_EDGE('',*,*,#324,.T.);
#476=ORIENTED_EDGE('',*,*,#347,.F.);
#477=ORIENTED_EDGE('',*,*,#340,.F.);
#478=ORIENTED_EDGE('',*,*,#348,.T.);
#479=ORIENTED_EDGE('',*,*,#326,.T.);
#480=ORIENTED_EDGE('',*,*,#348,.F.);
#481=ORIENTED_EDGE('',*,*,#341,.F.);
#482=ORIENTED_EDGE('',*,*,#349,.T.);
#483=ORIENTED_EDGE('',*,*,#322,.T.);
#484=ORIENTED_EDGE('',*,*,#349,.F.);
#485=ORIENTED_EDGE('',*,*,#342,.F.);
#486=ORIENTED_EDGE('',*,*,#350,.T.);
#487=ORIENTED_EDGE('',*,*,#328,.T.);
#488=ORIENTED_EDGE('',*,*,#350,.F.);
#489=ORIENTED_EDGE('',*,*,#351,.F.);
#490=ORIENTED_EDGE('',*,*,#338,.F.);
#491=ORIENTED_EDGE('',*,*,#352,.F.);
#492=ORIENTED_EDGE('',*,*,#332,.F.);
#493=ORIENTED_EDGE('',*,*,#352,.T.);
#494=ORIENTED_EDGE('',*,*,#337,.F.);
#495=ORIENTED_EDGE('',*,*,#351,.T.);
#496=ORIENTED_EDGE('',*,*,#331,.F.);
#497=CYLINDRICAL_SURFACE('',#562,0.8);
#498=CYLINDRICAL_SURFACE('',#569,0.8);
#499=CYLINDRICAL_SURFACE('',#575,0.8);
#500=CYLINDRICAL_SURFACE('',#581,0.8);
#501=CYLINDRICAL_SURFACE('',#584,1.);
#502=CYLINDRICAL_SURFACE('',#587,1.);
#503=CYLINDRICAL_SURFACE('',#590,1.);
#504=CYLINDRICAL_SURFACE('',#595,4.5);
#505=CYLINDRICAL_SURFACE('',#623,2.);
#506=CYLINDRICAL_SURFACE('',#624,2.);
#507=CYLINDRICAL_SURFACE('',#625,2.);
#508=CYLINDRICAL_SURFACE('',#626,2.);
#509=CYLINDRICAL_SURFACE('',#627,1.2);
#510=CYLINDRICAL_SURFACE('',#628,1.2);
#511=CYLINDRICAL_SURFACE('',#629,1.2);
#512=CYLINDRICAL_SURFACE('',#630,1.2);
#513=CYLINDRICAL_SURFACE('',#632,10.25);
#514=ADVANCED_FACE('',(#46),#497,.F.);
#515=ADVANCED_FACE('',(#47),#43,.F.);
#516=ADVANCED_FACE('',(#48),#498,.F.);
#517=ADVANCED_FACE('',(#49),#44,.F.);
#518=ADVANCED_FACE('',(#50),#499,.F.);
#519=ADVANCED_FACE('',(#51),#45,.F.);
#520=ADVANCED_FACE('',(#52),#500,.F.);
#521=ADVANCED_FACE('',(#53),#29,.T.);
#522=ADVANCED_FACE('',(#54),#501,.T.);
#523=ADVANCED_FACE('',(#55),#30,.T.);
#524=ADVANCED_FACE('',(#56),#502,.T.);
#525=ADVANCED_FACE('',(#57),#31,.T.);
#526=ADVANCED_FACE('',(#58),#503,.T.);
#527=ADVANCED_FACE('',(#59),#32,.T.);
#528=ADVANCED_FACE('',(#60),#33,.F.);
#529=ADVANCED_FACE('',(#61),#504,.F.);
#530=ADVANCED_FACE('',(#62,#15),#34,.T.);
#531=ADVANCED_FACE('',(#63,#16),#35,.T.);
#532=ADVANCED_FACE('',(#64,#17),#36,.T.);
#533=ADVANCED_FACE('',(#65,#18),#37,.T.);
#534=ADVANCED_FACE('',(#66),#38,.T.);
#535=ADVANCED_FACE('',(#67),#39,.T.);
#536=ADVANCED_FACE('',(#68,#19,#20,#21,#22,#23),#40,.T.);
#537=ADVANCED_FACE('',(#69,#24,#25,#26,#27,#28),#41,.F.);
#538=ADVANCED_FACE('',(#70),#505,.F.);
#539=ADVANCED_FACE('',(#71),#506,.F.);
#540=ADVANCED_FACE('',(#72),#507,.F.);
#541=ADVANCED_FACE('',(#73),#508,.F.);
#542=ADVANCED_FACE('',(#74),#509,.F.);
#543=ADVANCED_FACE('',(#75),#510,.F.);
#544=ADVANCED_FACE('',(#76),#511,.F.);
#545=ADVANCED_FACE('',(#77),#512,.F.);
#546=ADVANCED_FACE('',(#78),#42,.T.);
#547=ADVANCED_FACE('',(#79),#513,.T.);
#548=CLOSED_SHELL('',(#514,#515,#516,#517,#518,#519,#520,#521,#522,#523,
#524,#525,#526,#527,#528,#529,#530,#531,#532,#533,#534,#535,#536,#537,#538,
#539,#540,#541,#542,#543,#544,#545,#546,#547));
#549=DERIVED_UNIT_ELEMENT(#551,1.);
#550=DERIVED_UNIT_ELEMENT(#970,-3.);
#551=(
MASS_UNIT()
NAMED_UNIT(*)
SI_UNIT(.KILO.,.GRAM.)
);
#552=DERIVED_UNIT((#549,#550));
#553=MEASURE_REPRESENTATION_ITEM('density measure',
POSITIVE_RATIO_MEASURE(7850.),#552);
#554=PROPERTY_DEFINITION_REPRESENTATION(#559,#556);
#555=PROPERTY_DEFINITION_REPRESENTATION(#560,#557);
#556=REPRESENTATION('material name',(#558),#967);
#557=REPRESENTATION('density',(#553),#967);
#558=DESCRIPTIVE_REPRESENTATION_ITEM('Steel','Steel');
#559=PROPERTY_DEFINITION('material property','material name',#977);
#560=PROPERTY_DEFINITION('material property','density of part',#977);
#561=AXIS2_PLACEMENT_3D('',#812,#633,#634);
#562=AXIS2_PLACEMENT_3D('',#813,#635,#636);
#563=AXIS2_PLACEMENT_3D('',#816,#637,#638);
#564=AXIS2_PLACEMENT_3D('',#820,#640,#641);
#565=AXIS2_PLACEMENT_3D('',#822,#643,#644);
#566=AXIS2_PLACEMENT_3D('',#825,#645,#646);
#567=AXIS2_PLACEMENT_3D('',#826,#647,#648);
#568=AXIS2_PLACEMENT_3D('',#827,#649,#650);
#569=AXIS2_PLACEMENT_3D('',#828,#651,#652);
#570=AXIS2_PLACEMENT_3D('',#831,#653,#654);
#571=AXIS2_PLACEMENT_3D('',#834,#657,#658);
#572=AXIS2_PLACEMENT_3D('',#837,#659,#660);
#573=AXIS2_PLACEMENT_3D('',#838,#661,#662);
#574=AXIS2_PLACEMENT_3D('',#839,#663,#664);
#575=AXIS2_PLACEMENT_3D('',#840,#665,#666);
#576=AXIS2_PLACEMENT_3D('',#843,#667,#668);
#577=AXIS2_PLACEMENT_3D('',#846,#671,#672);
#578=AXIS2_PLACEMENT_3D('',#849,#673,#674);
#579=AXIS2_PLACEMENT_3D('',#850,#675,#676);
#580=AXIS2_PLACEMENT_3D('',#851,#677,#678);
#581=AXIS2_PLACEMENT_3D('',#852,#679,#680);
#582=AXIS2_PLACEMENT_3D('',#855,#681,#682);
#583=AXIS2_PLACEMENT_3D('',#858,#685,#686);
#584=AXIS2_PLACEMENT_3D('',#864,#690,#691);
#585=AXIS2_PLACEMENT_3D('',#867,#693,#694);
#586=AXIS2_PLACEMENT_3D('',#868,#695,#696);
#587=AXIS2_PLACEMENT_3D('',#872,#699,#700);
#588=AXIS2_PLACEMENT_3D('',#875,#702,#703);
#589=AXIS2_PLACEMENT_3D('',#876,#704,#705);
#590=AXIS2_PLACEMENT_3D('',#880,#708,#709);
#591=AXIS2_PLACEMENT_3D('',#883,#711,#712);
#592=AXIS2_PLACEMENT_3D('',#884,#713,#714);
#593=AXIS2_PLACEMENT_3D('',#888,#717,#718);
#594=AXIS2_PLACEMENT_3D('',#890,#719,#720);
#595=AXIS2_PLACEMENT_3D('',#891,#721,#722);
#596=AXIS2_PLACEMENT_3D('',#894,#724,#725);
#597=AXIS2_PLACEMENT_3D('',#895,#726,#727);
#598=AXIS2_PLACEMENT_3D('',#897,#728,#729);
#599=AXIS2_PLACEMENT_3D('',#899,#730,#731);
#600=AXIS2_PLACEMENT_3D('',#900,#732,#733);
#601=AXIS2_PLACEMENT_3D('',#902,#734,#735);
#602=AXIS2_PLACEMENT_3D('',#904,#736,#737);
#603=AXIS2_PLACEMENT_3D('',#905,#738,#739);
#604=AXIS2_PLACEMENT_3D('',#907,#740,#741);
#605=AXIS2_PLACEMENT_3D('',#909,#742,#743);
#606=AXIS2_PLACEMENT_3D('',#910,#744,#745);
#607=AXIS2_PLACEMENT_3D('',#912,#746,#747);
#608=AXIS2_PLACEMENT_3D('',#914,#748,#749);
#609=AXIS2_PLACEMENT_3D('',#915,#750,#751);
#610=AXIS2_PLACEMENT_3D('',#917,#753,#754);
#611=AXIS2_PLACEMENT_3D('',#919,#756,#757);
#612=AXIS2_PLACEMENT_3D('',#922,#758,#759);
#613=AXIS2_PLACEMENT_3D('',#925,#761,#762);
#614=AXIS2_PLACEMENT_3D('',#927,#763,#764);
#615=AXIS2_PLACEMENT_3D('',#929,#765,#766);
#616=AXIS2_PLACEMENT_3D('',#931,#767,#768);
#617=AXIS2_PLACEMENT_3D('',#932,#769,#770);
#618=AXIS2_PLACEMENT_3D('',#935,#771,#772);
#619=AXIS2_PLACEMENT_3D('',#938,#774,#775);
#620=AXIS2_PLACEMENT_3D('',#940,#776,#777);
#621=AXIS2_PLACEMENT_3D('',#942,#778,#779);
#622=AXIS2_PLACEMENT_3D('',#944,#780,#781);
#623=AXIS2_PLACEMENT_3D('',#945,#782,#783);
#624=AXIS2_PLACEMENT_3D('',#947,#785,#786);
#625=AXIS2_PLACEMENT_3D('',#949,#788,#789);
#626=AXIS2_PLACEMENT_3D('',#951,#791,#792);
#627=AXIS2_PLACEMENT_3D('',#953,#794,#795);
#628=AXIS2_PLACEMENT_3D('',#955,#797,#798);
#629=AXIS2_PLACEMENT_3D('',#957,#800,#801);
#630=AXIS2_PLACEMENT_3D('',#959,#803,#804);
#631=AXIS2_PLACEMENT_3D('',#961,#806,#807);
#632=AXIS2_PLACEMENT_3D('',#964,#810,#811);
#633=DIRECTION('axis',(0.,0.,1.));
#634=DIRECTION('refdir',(1.,0.,0.));
#635=DIRECTION('center_axis',(-1.,0.,-2.61228946970625E-16));
#636=DIRECTION('ref_axis',(0.,-0.707106781186548,-0.707106781186547));
#637=DIRECTION('center_axis',(-1.,0.,0.));
#638=DIRECTION('ref_axis',(0.,0.,-1.));
#639=DIRECTION('',(1.,0.,2.61228946970625E-16));
#640=DIRECTION('center_axis',(0.707106781186548,0.,0.707106781186547));
#641=DIRECTION('ref_axis',(0.707106781186547,0.,-0.707106781186548));
#642=DIRECTION('',(-1.,0.,-2.61228946970625E-16));
#643=DIRECTION('center_axis',(0.,1.,0.));
#644=DIRECTION('ref_axis',(0.,0.,1.));
#645=DIRECTION('center_axis',(0.,0.,-1.));
#646=DIRECTION('ref_axis',(1.,0.,0.));
#647=DIRECTION('center_axis',(0.,1.,0.));
#648=DIRECTION('ref_axis',(-0.707106781186547,0.,0.707106781186548));
#649=DIRECTION('center_axis',(0.,-1.,0.));
#650=DIRECTION('ref_axis',(-0.707106781186547,0.,0.707106781186548));
#651=DIRECTION('center_axis',(-1.95921710227969E-16,0.,-1.));
#652=DIRECTION('ref_axis',(0.707106781186548,-0.707106781186547,-4.90653893338679E-16));
#653=DIRECTION('center_axis',(-6.93889390390723E-16,0.,-1.));
#654=DIRECTION('ref_axis',(1.,0.,-6.93889390390723E-16));
#655=DIRECTION('',(1.95921710227969E-16,0.,1.));
#656=DIRECTION('',(-1.95921710227969E-16,0.,-1.));
#657=DIRECTION('center_axis',(0.,1.,0.));
#658=DIRECTION('ref_axis',(0.,0.,1.));
#659=DIRECTION('center_axis',(1.,0.,0.));
#660=DIRECTION('ref_axis',(0.,0.,1.));
#661=DIRECTION('center_axis',(0.,1.,0.));
#662=DIRECTION('ref_axis',(-0.707106781186547,0.,-0.707106781186548));
#663=DIRECTION('center_axis',(0.,-1.,0.));
#664=DIRECTION('ref_axis',(-0.707106781186547,0.,-0.707106781186548));
#665=DIRECTION('center_axis',(1.,0.,-6.53072367426563E-17));
#666=DIRECTION('ref_axis',(0.,-0.707106781186548,0.707106781186547));
#667=DIRECTION('center_axis',(1.,0.,0.));
#668=DIRECTION('ref_axis',(0.,0.,1.));
#669=DIRECTION('',(-1.,0.,6.53072367426563E-17));
#670=DIRECTION('',(1.,0.,-6.53072367426563E-17));
#671=DIRECTION('center_axis',(0.,1.,0.));
#672=DIRECTION('ref_axis',(0.,0.,1.));
#673=DIRECTION('center_axis',(0.,0.,1.));
#674=DIRECTION('ref_axis',(-1.,0.,0.));
#675=DIRECTION('center_axis',(0.,1.,0.));
#676=DIRECTION('ref_axis',(0.707106781186547,0.,-0.707106781186547));
#677=DIRECTION('center_axis',(0.,-1.,0.));
#678=DIRECTION('ref_axis',(0.707106781186548,0.,-0.707106781186548));
#679=DIRECTION('center_axis',(1.95921710227969E-16,0.,1.));
#680=DIRECTION('ref_axis',(-0.707106781186547,-0.707106781186548,0.));
#681=DIRECTION('center_axis',(0.707106781186548,0.,0.707106781186547));
#682=DIRECTION('ref_axis',(-0.707106781186547,0.,0.707106781186548));
#683=DIRECTION('',(-1.95921710227969E-16,0.,-1.));
#684=DIRECTION('',(1.95921710227969E-16,0.,1.));
#685=DIRECTION('center_axis',(1.,0.,-1.95921710227969E-16));
#686=DIRECTION('ref_axis',(-1.95921710227969E-16,0.,-1.));
#687=DIRECTION('',(0.,-1.,0.));
#688=DIRECTION('',(-1.95921710227969E-16,0.,-1.));
#689=DIRECTION('',(0.,-1.,0.));
#690=DIRECTION('center_axis',(0.,1.,0.));
#691=DIRECTION('ref_axis',(0.707106781186548,0.,-0.707106781186548));
#692=DIRECTION('',(0.,1.,0.));
#693=DIRECTION('center_axis',(0.,-1.,0.));
#694=DIRECTION('ref_axis',(0.707106781186548,0.,-0.707106781186548));
#695=DIRECTION('center_axis',(-6.53072367426563E-17,0.,-1.));
#696=DIRECTION('ref_axis',(-1.,0.,6.53072367426563E-17));
#697=DIRECTION('',(0.,-1.,0.));
#698=DIRECTION('',(-1.,0.,6.53072367426563E-17));
#699=DIRECTION('center_axis',(0.,1.,0.));
#700=DIRECTION('ref_axis',(-0.707106781186548,0.,-0.707106781186548));
#701=DIRECTION('',(0.,1.,0.));
#702=DIRECTION('center_axis',(0.,-1.,0.));
#703=DIRECTION('ref_axis',(-0.707106781186548,0.,-0.707106781186548));
#704=DIRECTION('center_axis',(-1.,0.,1.95921710227969E-16));
#705=DIRECTION('ref_axis',(1.95921710227969E-16,0.,1.));
#706=DIRECTION('',(0.,-1.,0.));
#707=DIRECTION('',(1.95921710227969E-16,0.,1.));
#708=DIRECTION('center_axis',(0.,1.,0.));
#709=DIRECTION('ref_axis',(-0.707106781186547,0.,0.707106781186548));
#710=DIRECTION('',(0.,1.,0.));
#711=DIRECTION('center_axis',(0.,-1.,0.));
#712=DIRECTION('ref_axis',(-0.707106781186547,0.,0.707106781186548));
#713=DIRECTION('center_axis',(-2.61228946970625E-16,0.,1.));
#714=DIRECTION('ref_axis',(1.,0.,2.61228946970625E-16));
#715=DIRECTION('',(0.,1.,0.));
#716=DIRECTION('',(1.,0.,2.61228946970625E-16));
#717=DIRECTION('center_axis',(0.,1.,0.));
#718=DIRECTION('ref_axis',(1.,0.,0.));
#719=DIRECTION('center_axis',(0.,-1.,0.));
#720=DIRECTION('ref_axis',(1.,0.,0.));
#721=DIRECTION('center_axis',(0.,-1.,0.));
#722=DIRECTION('ref_axis',(1.,0.,0.));
#723=DIRECTION('',(0.,-1.,0.));
#724=DIRECTION('center_axis',(0.,1.,0.));
#725=DIRECTION('ref_axis',(1.,0.,0.));
#726=DIRECTION('center_axis',(0.,1.,0.));
#727=DIRECTION('ref_axis',(1.83697019872103E-16,0.,-1.));
#728=DIRECTION('center_axis',(0.,-1.,0.));
#729=DIRECTION('ref_axis',(1.83697019872103E-16,0.,-1.));
#730=DIRECTION('center_axis',(0.,1.,0.));
#731=DIRECTION('ref_axis',(1.,0.,0.));
#732=DIRECTION('center_axis',(0.,1.,0.));
#733=DIRECTION('ref_axis',(1.,0.,1.22464679914735E-16));
#734=DIRECTION('center_axis',(0.,-1.,0.));
#735=DIRECTION('ref_axis',(1.,0.,1.22464679914735E-16));
#736=DIRECTION('center_axis',(0.,1.,0.));
#737=DIRECTION('ref_axis',(1.,0.,0.));
#738=DIRECTION('center_axis',(0.,1.,0.));
#739=DIRECTION('ref_axis',(-6.12323399573677E-17,0.,1.));
#740=DIRECTION('center_axis',(0.,-1.,0.));
#741=DIRECTION('ref_axis',(-6.12323399573677E-17,0.,1.));
#742=DIRECTION('center_axis',(0.,1.,0.));
#743=DIRECTION('ref_axis',(1.,0.,0.));
#744=DIRECTION('center_axis',(0.,1.,0.));
#745=DIRECTION('ref_axis',(-1.,0.,0.));
#746=DIRECTION('center_axis',(0.,-1.,0.));
#747=DIRECTION('ref_axis',(-1.,0.,0.));
#748=DIRECTION('center_axis',(0.,1.,0.));
#749=DIRECTION('ref_axis',(1.,0.,0.));
#750=DIRECTION('center_axis',(0.,1.,0.));
#751=DIRECTION('ref_axis',(0.,0.,1.));
#752=DIRECTION('',(0.707106781186547,0.,-0.707106781186548));
#753=DIRECTION('center_axis',(0.707106781186548,0.,0.707106781186547));
#754=DIRECTION('ref_axis',(0.707106781186547,0.,-0.707106781186548));
#755=DIRECTION('',(-0.707106781186547,0.,0.707106781186548));
#756=DIRECTION('center_axis',(0.,1.,0.));
#757=DIRECTION('ref_axis',(1.,0.,0.));
#758=DIRECTION('center_axis',(0.,1.,0.));
#759=DIRECTION('ref_axis',(1.,0.,0.));
#760=DIRECTION('',(0.707106781186547,0.,-0.707106781186548));
#761=DIRECTION('center_axis',(0.,-1.,0.));
#762=DIRECTION('ref_axis',(1.,0.,0.));
#763=DIRECTION('center_axis',(0.,-1.,0.));
#764=DIRECTION('ref_axis',(1.,0.,0.));
#765=DIRECTION('center_axis',(0.,-1.,0.));
#766=DIRECTION('ref_axis',(1.,0.,0.));
#767=DIRECTION('center_axis',(0.,-1.,0.));
#768=DIRECTION('ref_axis',(1.,0.,0.));
#769=DIRECTION('center_axis',(0.,1.,0.));
#770=DIRECTION('ref_axis',(1.,0.,0.));
#771=DIRECTION('center_axis',(0.,-1.,0.));
#772=DIRECTION('ref_axis',(1.,0.,0.));
#773=DIRECTION('',(-0.707106781186547,0.,0.707106781186548));
#774=DIRECTION('center_axis',(0.,1.,0.));
#775=DIRECTION('ref_axis',(1.,0.,0.));
#776=DIRECTION('center_axis',(0.,1.,0.));
#777=DIRECTION('ref_axis',(1.,0.,0.));
#778=DIRECTION('center_axis',(0.,1.,0.));
#779=DIRECTION('ref_axis',(1.,0.,0.));
#780=DIRECTION('center_axis',(0.,1.,0.));
#781=DIRECTION('ref_axis',(1.,0.,0.));
#782=DIRECTION('center_axis',(0.,1.,0.));
#783=DIRECTION('ref_axis',(1.,0.,0.));
#784=DIRECTION('',(0.,1.,0.));
#785=DIRECTION('center_axis',(0.,1.,0.));
#786=DIRECTION('ref_axis',(1.,0.,0.));
#787=DIRECTION('',(0.,1.,0.));
#788=DIRECTION('center_axis',(0.,1.,0.));
#789=DIRECTION('ref_axis',(1.,0.,0.));
#790=DIRECTION('',(0.,1.,0.));
#791=DIRECTION('center_axis',(0.,1.,0.));
#792=DIRECTION('ref_axis',(1.,0.,0.));
#793=DIRECTION('',(0.,1.,0.));
#794=DIRECTION('center_axis',(0.,-1.,0.));
#795=DIRECTION('ref_axis',(1.,0.,0.));
#796=DIRECTION('',(0.,1.,0.));
#797=DIRECTION('center_axis',(0.,-1.,0.));
#798=DIRECTION('ref_axis',(1.,0.,0.));
#799=DIRECTION('',(0.,1.,0.));
#800=DIRECTION('center_axis',(0.,-1.,0.));
#801=DIRECTION('ref_axis',(1.,0.,0.));
#802=DIRECTION('',(0.,1.,0.));
#803=DIRECTION('center_axis',(0.,-1.,0.));
#804=DIRECTION('ref_axis',(1.,0.,0.));
#805=DIRECTION('',(0.,1.,0.));
#806=DIRECTION('center_axis',(0.707106781186548,0.,0.707106781186547));
#807=DIRECTION('ref_axis',(-0.707106781186547,0.,0.707106781186548));
#808=DIRECTION('',(0.,1.,0.));
#809=DIRECTION('',(0.,-1.,0.));
#810=DIRECTION('center_axis',(0.,-1.,0.));
#811=DIRECTION('ref_axis',(-0.707106781186547,0.,-0.707106781186548));
#812=CARTESIAN_POINT('',(0.,0.,0.));
#813=CARTESIAN_POINT('Origin',(-2.125,2.8,5.05));
#814=CARTESIAN_POINT('',(-3.25,2.8,4.25));
#815=CARTESIAN_POINT('',(-3.25,2.,5.05));
#816=CARTESIAN_POINT('Origin',(-3.25,2.8,5.05));
#817=CARTESIAN_POINT('',(2.09235498012183,2.,5.05));
#818=CARTESIAN_POINT('',(-2.125,2.,5.05));
#819=CARTESIAN_POINT('',(2.89235498012183,2.8,4.25));
#820=CARTESIAN_POINT('Origin',(2.09235498012183,2.8,5.05));
#821=CARTESIAN_POINT('',(-2.125,2.8,4.25));
#822=CARTESIAN_POINT('Origin',(-3.25,2.8,3.25));
#823=CARTESIAN_POINT('',(-4.25,2.8,3.25));
#824=CARTESIAN_POINT('',(-5.05,2.,3.25));
#825=CARTESIAN_POINT('Origin',(-5.05,2.8,3.25));
#826=CARTESIAN_POINT('Origin',(-3.25,2.,3.25));
#827=CARTESIAN_POINT('Origin',(-3.25,2.8,3.25));
#828=CARTESIAN_POINT('Origin',(-5.05,2.8,-2.125));
#829=CARTESIAN_POINT('',(-4.25,2.8,-3.25));
#830=CARTESIAN_POINT('',(-5.05,2.,-3.25));
#831=CARTESIAN_POINT('Origin',(-5.05,2.8,-3.25));
#832=CARTESIAN_POINT('',(-5.05,2.,-2.125));
#833=CARTESIAN_POINT('',(-4.25,2.8,-2.125));
#834=CARTESIAN_POINT('Origin',(-3.25,2.8,-3.25));
#835=CARTESIAN_POINT('',(-3.25,2.8,-4.25));
#836=CARTESIAN_POINT('',(-3.25,2.,-5.05));
#837=CARTESIAN_POINT('Origin',(-3.25,2.8,-5.05));
#838=CARTESIAN_POINT('Origin',(-3.25,2.,-3.25));
#839=CARTESIAN_POINT('Origin',(-3.25,2.8,-3.25));
#840=CARTESIAN_POINT('Origin',(2.125,2.8,-5.05));
#841=CARTESIAN_POINT('',(3.25,2.8,-4.25));
#842=CARTESIAN_POINT('',(3.25,2.,-5.05));
#843=CARTESIAN_POINT('Origin',(3.25,2.8,-5.05));
#844=CARTESIAN_POINT('',(2.125,2.,-5.05));
#845=CARTESIAN_POINT('',(2.125,2.8,-4.25));
#846=CARTESIAN_POINT('Origin',(3.25,2.8,-3.25));
#847=CARTESIAN_POINT('',(4.25,2.8,-3.25));
#848=CARTESIAN_POINT('',(5.05,2.,-3.25));
#849=CARTESIAN_POINT('Origin',(5.05,2.8,-3.25));
#850=CARTESIAN_POINT('Origin',(3.25,2.,-3.25));
#851=CARTESIAN_POINT('Origin',(3.25,2.8,-3.25));
#852=CARTESIAN_POINT('Origin',(5.05,2.8,1.44617749006091));
#853=CARTESIAN_POINT('',(4.25,2.8,2.89235498012183));
#854=CARTESIAN_POINT('',(5.05,2.,2.09235498012183));
#855=CARTESIAN_POINT('Origin',(5.05,2.8,2.09235498012183));
#856=CARTESIAN_POINT('',(5.05,2.,1.44617749006091));
#857=CARTESIAN_POINT('',(4.25,2.8,1.44617749006091));
#858=CARTESIAN_POINT('Origin',(4.25,0.,2.89235498012183));
#859=CARTESIAN_POINT('',(4.25,5.5,-3.25));
#860=CARTESIAN_POINT('',(4.25,0.,-3.25));
#861=CARTESIAN_POINT('',(4.25,5.5,2.89235498012183));
#862=CARTESIAN_POINT('',(4.25,5.5,-4.25));
#863=CARTESIAN_POINT('',(4.25,0.,2.89235498012183));
#864=CARTESIAN_POINT('Origin',(3.25,0.,-3.25));
#865=CARTESIAN_POINT('',(3.25,5.5,-4.25));
#866=CARTESIAN_POINT('',(3.25,0.,-4.25));
#867=CARTESIAN_POINT('Origin',(3.25,5.5,-3.25));
#868=CARTESIAN_POINT('Origin',(4.25,0.,-4.25));
#869=CARTESIAN_POINT('',(-3.25,5.5,-4.25));
#870=CARTESIAN_POINT('',(-3.25,0.,-4.25));
#871=CARTESIAN_POINT('',(-4.25,5.5,-4.25));
#872=CARTESIAN_POINT('Origin',(-3.25,0.,-3.25));
#873=CARTESIAN_POINT('',(-4.25,5.5,-3.25));
#874=CARTESIAN_POINT('',(-4.25,0.,-3.25));
#875=CARTESIAN_POINT('Origin',(-3.25,5.5,-3.25));
#876=CARTESIAN_POINT('Origin',(-4.25,0.,-4.25));
#877=CARTESIAN_POINT('',(-4.25,5.5,3.25));
#878=CARTESIAN_POINT('',(-4.25,0.,3.25));
#879=CARTESIAN_POINT('',(-4.25,5.5,4.25));
#880=CARTESIAN_POINT('Origin',(-3.25,0.,3.25));
#881=CARTESIAN_POINT('',(-3.25,5.5,4.25));
#882=CARTESIAN_POINT('',(-3.25,0.,4.25));
#883=CARTESIAN_POINT('Origin',(-3.25,5.5,3.25));
#884=CARTESIAN_POINT('Origin',(-4.25,0.,4.25));
#885=CARTESIAN_POINT('',(2.89235498012183,5.5,4.25));
#886=CARTESIAN_POINT('',(2.89235498012183,0.,4.25));
#887=CARTESIAN_POINT('',(4.25,5.5,4.25));
#888=CARTESIAN_POINT('Origin',(0.,-2.,0.));
#889=CARTESIAN_POINT('',(-4.5,-2.,5.51091059616309E-16));
#890=CARTESIAN_POINT('Origin',(0.,-2.,0.));
#891=CARTESIAN_POINT('Origin',(0.,0.,0.));
#892=CARTESIAN_POINT('',(-4.5,-5.,5.51091059616309E-16));
#893=CARTESIAN_POINT('',(-4.5,0.,-5.51091059616309E-16));
#894=CARTESIAN_POINT('Origin',(0.,-5.,0.));
#895=CARTESIAN_POINT('Origin',(-8.,-1.,-2.30224342744569E-15));
#896=CARTESIAN_POINT('',(-10.,-1.,-1.83697019872103E-16));
#897=CARTESIAN_POINT('Origin',(-8.,-1.,-2.32682891837997E-15));
#898=CARTESIAN_POINT('',(-9.2,-1.,-2.81668763803891E-16));
#899=CARTESIAN_POINT('Origin',(-8.,-1.,-4.28626379701574E-16));
#900=CARTESIAN_POINT('Origin',(1.81238470778675E-15,-1.,-8.));
#901=CARTESIAN_POINT('',(-2.,-1.,-8.));
#902=CARTESIAN_POINT('Origin',(1.83697019872103E-15,-1.,-8.));
#903=CARTESIAN_POINT('',(-1.2,-1.,-8.));
#904=CARTESIAN_POINT('Origin',(0.,-1.,-8.));
#905=CARTESIAN_POINT('Origin',(8.,-1.,1.32252598812781E-15));
#906=CARTESIAN_POINT('',(6.,-1.,1.85475274553595E-15));
#907=CARTESIAN_POINT('Origin',(8.,-1.,1.34711147906209E-15));
#908=CARTESIAN_POINT('',(6.8,-1.,1.75678100160416E-15));
#909=CARTESIAN_POINT('Origin',(8.,-1.,1.60982338570648E-15));
#910=CARTESIAN_POINT('Origin',(-8.32667268468867E-16,-1.,8.));
#911=CARTESIAN_POINT('',(-2.,-1.,8.));
#912=CARTESIAN_POINT('Origin',(-8.57252759403147E-16,-1.,8.));
#913=CARTESIAN_POINT('',(-1.2,-1.,8.));
#914=CARTESIAN_POINT('Origin',(-8.57252759403147E-16,-1.,8.));
#915=CARTESIAN_POINT('Origin',(0.,5.5,0.));
#916=CARTESIAN_POINT('',(4.25,5.5,2.89235498012183));
#917=CARTESIAN_POINT('Origin',(2.89235498012183,0.,4.25));
#918=CARTESIAN_POINT('',(3.91058874503046,2.,3.23176623509137));
#919=CARTESIAN_POINT('Origin',(0.,2.,0.));
#920=CARTESIAN_POINT('',(9.66323672517476,2.,3.41823872677637));
#921=CARTESIAN_POINT('',(3.41823872677637,2.,9.66323672517476));
#922=CARTESIAN_POINT('Origin',(0.,2.,0.));
#923=CARTESIAN_POINT('',(9.66323672517476,2.,3.41823872677637));
#924=CARTESIAN_POINT('',(-10.,2.,-6.73555739531044E-16));
#925=CARTESIAN_POINT('Origin',(-8.,2.,-4.28626379701574E-16));
#926=CARTESIAN_POINT('',(-2.,2.,-8.));
#927=CARTESIAN_POINT('Origin',(0.,2.,-8.));
#928=CARTESIAN_POINT('',(-2.,2.,8.));
#929=CARTESIAN_POINT('Origin',(-8.57252759403147E-16,2.,8.));
#930=CARTESIAN_POINT('',(6.,2.,1.36489402587701E-15));
#931=CARTESIAN_POINT('Origin',(8.,2.,1.60982338570648E-15));
#932=CARTESIAN_POINT('Origin',(0.,-5.,0.));
#933=CARTESIAN_POINT('',(3.41823872677637,-5.,9.66323672517476));
#934=CARTESIAN_POINT('',(9.66323672517476,-5.,3.41823872677637));
#935=CARTESIAN_POINT('Origin',(0.,-5.,0.));
#936=CARTESIAN_POINT('',(9.66323672517476,-5.,3.41823872677637));
#937=CARTESIAN_POINT('',(-1.2,-5.,-8.));
#938=CARTESIAN_POINT('Origin',(0.,-5.,-8.));
#939=CARTESIAN_POINT('',(6.8,-5.,2.22044604925031E-15));
#940=CARTESIAN_POINT('Origin',(8.,-5.,1.60982338570648E-15));
#941=CARTESIAN_POINT('',(-9.2,-5.,0.));
#942=CARTESIAN_POINT('Origin',(-8.,-5.,-4.28626379701574E-16));
#943=CARTESIAN_POINT('',(-1.2,-5.,8.));
#944=CARTESIAN_POINT('Origin',(-8.57252759403147E-16,-5.,8.));
#945=CARTESIAN_POINT('Origin',(8.,0.,1.60982338570648E-15));
#946=CARTESIAN_POINT('',(6.,0.,1.85475274553595E-15));
#947=CARTESIAN_POINT('Origin',(-8.57252759403147E-16,0.,8.));
#948=CARTESIAN_POINT('',(-2.,0.,8.));
#949=CARTESIAN_POINT('Origin',(0.,0.,-8.));
#950=CARTESIAN_POINT('',(-2.,0.,-8.));
#951=CARTESIAN_POINT('Origin',(-8.,0.,-4.28626379701574E-16));
#952=CARTESIAN_POINT('',(-10.,0.,-1.83697019872103E-16));
#953=CARTESIAN_POINT('Origin',(0.,0.,-8.));
#954=CARTESIAN_POINT('',(-1.2,0.,-8.));
#955=CARTESIAN_POINT('Origin',(8.,0.,1.60982338570648E-15));
#956=CARTESIAN_POINT('',(6.8,0.,1.46286576980879E-15));
#957=CARTESIAN_POINT('Origin',(-8.,0.,-4.28626379701574E-16));
#958=CARTESIAN_POINT('',(-9.2,0.,-5.75583995599256E-16));
#959=CARTESIAN_POINT('Origin',(-8.57252759403147E-16,0.,8.));
#960=CARTESIAN_POINT('',(-1.2,0.,8.));
#961=CARTESIAN_POINT('Origin',(9.66323672517476,0.,3.41823872677637));
#962=CARTESIAN_POINT('',(3.41823872677637,0.,9.66323672517476));
#963=CARTESIAN_POINT('',(9.66323672517476,0.,3.41823872677637));
#964=CARTESIAN_POINT('Origin',(0.,0.,0.));
#965=UNCERTAINTY_MEASURE_WITH_UNIT(LENGTH_MEASURE(0.01),#969,
'DISTANCE_ACCURACY_VALUE',
'Maximum model space distance between geometric entities at asserted c
onnectivities');
#966=UNCERTAINTY_MEASURE_WITH_UNIT(LENGTH_MEASURE(0.01),#969,
'DISTANCE_ACCURACY_VALUE',
'Maximum model space distance between geometric entities at asserted c
onnectivities');
#967=(
GEOMETRIC_REPRESENTATION_CONTEXT(3)
GLOBAL_UNCERTAINTY_ASSIGNED_CONTEXT((#965))
GLOBAL_UNIT_ASSIGNED_CONTEXT((#969,#971,#972))
REPRESENTATION_CONTEXT('','3D')
);
#968=(
GEOMETRIC_REPRESENTATION_CONTEXT(3)
GLOBAL_UNCERTAINTY_ASSIGNED_CONTEXT((#966))
GLOBAL_UNIT_ASSIGNED_CONTEXT((#969,#971,#972))
REPRESENTATION_CONTEXT('','3D')
);
#969=(
LENGTH_UNIT()
NAMED_UNIT(*)
SI_UNIT(.MILLI.,.METRE.)
);
#970=(
LENGTH_UNIT()
NAMED_UNIT(*)
SI_UNIT($,.METRE.)
);
#971=(
NAMED_UNIT(*)
PLANE_ANGLE_UNIT()
SI_UNIT($,.RADIAN.)
);
#972=(
NAMED_UNIT(*)
SI_UNIT($,.STERADIAN.)
SOLID_ANGLE_UNIT()
);
#973=SHAPE_DEFINITION_REPRESENTATION(#974,#975);
#974=PRODUCT_DEFINITION_SHAPE('',$,#977);
#975=SHAPE_REPRESENTATION('',(#561),#967);
#976=PRODUCT_DEFINITION_CONTEXT('part definition',#981,'design');
#977=PRODUCT_DEFINITION('2026-10-07-10-18-11-014','(Unsaved)',#978,#976);
#978=PRODUCT_DEFINITION_FORMATION('',$,#983);
#979=PRODUCT_RELATED_PRODUCT_CATEGORY('(Unsaved)','(Unsaved)',(#983));
#980=APPLICATION_PROTOCOL_DEFINITION('international standard',
'automotive_design',2009,#981);
#981=APPLICATION_CONTEXT(
'Core Data for Automotive Mechanical Design Process');
#982=PRODUCT_CONTEXT('part definition',#981,'mechanical');
#983=PRODUCT('2026-10-07-10-18-11-014','(Unsaved)',$,(#982));
#984=PRESENTATION_STYLE_ASSIGNMENT((#985));
#985=SURFACE_STYLE_USAGE(.BOTH.,#986);
#986=SURFACE_SIDE_STYLE('',(#987));
#987=SURFACE_STYLE_FILL_AREA(#988);
#988=FILL_AREA_STYLE('Steel - Satin',(#989));
#989=FILL_AREA_STYLE_COLOUR('Steel - Satin',#990);
#990=COLOUR_RGB('Steel - Satin',0.627450980392157,0.627450980392157,0.627450980392157);
ENDSEC;
END-ISO-10303-21;
