ISO-10303-21;
HEADER;
/* Generated by software containing ST-Developer
 * from STEP Tools, Inc. (www.steptools.com) 
 */

FILE_DESCRIPTION(
/* description */ (''),
/* implementation_level */ '2;1');

FILE_NAME(
/* name */ 'WristAdaper_Feetech.step',
/* time_stamp */ '2026-10-07T10:18:11+02:00',
/* author */ (''),
/* organization */ (''),
/* preprocessor_version */ 'ST-DEVELOPER v20.2',
/* originating_system */ 'Autodesk Translation Framework v15.15.0.0',
/* authorisation */ '');

FILE_SCHEMA (('AUTOMOTIVE_DESIGN { 1 0 10303 214 3 1 1 }'));
ENDSEC;

DATA;
#10=MECHANICAL_DESIGN_GEOMETRIC_PRESENTATION_REPRESENTATION('',(#13),#1583);
#11=SHAPE_REPRESENTATION_RELATIONSHIP('SRR','None',#1590,#12);
#12=ADVANCED_BREP_SHAPE_REPRESENTATION('',(#14),#1582);
#13=STYLED_ITEM('',(#1599),#14);
#14=MANIFOLD_SOLID_BREP('WristAdaper_Feetech_WristAdaper',#851);
#15=FACE_BOUND('',#135,.T.);
#16=FACE_BOUND('',#137,.T.);
#17=FACE_BOUND('',#139,.T.);
#18=FACE_BOUND('',#141,.T.);
#19=FACE_BOUND('',#154,.T.);
#20=FACE_BOUND('',#155,.T.);
#21=FACE_BOUND('',#156,.T.);
#22=FACE_BOUND('',#157,.T.);
#23=(
BOUNDED_SURFACE()
B_SPLINE_SURFACE(2,2,((#1473,#1474,#1475,#1476,#1477),(#1478,#1479,#1480,
#1481,#1482),(#1483,#1484,#1485,#1486,#1487)),.UNSPECIFIED.,.F.,.F.,.F.)
B_SPLINE_SURFACE_WITH_KNOTS((3,3),(3,2,3),(-3.14159265358979,-1.5707963267949),
(-3.14159265358979,-1.96349540849362,-0.785398163397447),.UNSPECIFIED.)
GEOMETRIC_REPRESENTATION_ITEM()
RATIONAL_B_SPLINE_SURFACE(((1.,0.831469612302545,1.,0.831469612302545,1.),
(0.707106781186548,0.58793780120968,0.707106781186548,0.58793780120968,
0.707106781186548),(1.,0.831469612302545,1.,0.831469612302545,1.)))
REPRESENTATION_ITEM('')
SURFACE()
);
#24=PLANE('',#886);
#25=PLANE('',#889);
#26=PLANE('',#897);
#27=PLANE('',#900);
#28=PLANE('',#908);
#29=PLANE('',#911);
#30=PLANE('',#916);
#31=PLANE('',#920);
#32=PLANE('',#924);
#33=PLANE('',#925);
#34=PLANE('',#926);
#35=PLANE('',#927);
#36=PLANE('',#931);
#37=PLANE('',#934);
#38=PLANE('',#937);
#39=PLANE('',#940);
#40=PLANE('',#943);
#41=PLANE('',#952);
#42=PLANE('',#962);
#43=PLANE('',#965);
#44=TOROIDAL_SURFACE('',#881,1.8,0.8);
#45=TOROIDAL_SURFACE('',#892,1.8,0.8);
#46=TOROIDAL_SURFACE('',#903,1.8,0.8);
#47=ELLIPSE('',#878,1.13137084989848,0.8);
#48=B_SPLINE_CURVE_WITH_KNOTS('',3,(#1252,#1253,#1254,#1255,#1256,#1257,
#1258,#1259,#1260,#1261,#1262,#1263),.UNSPECIFIED.,.F.,.F.,(4,2,2,2,2,4),
(0.279953817436826,0.295792594026948,0.31163137061707,0.343308923797313,
0.38648188586566,0.429654847934007),.UNSPECIFIED.);
#49=B_SPLINE_CURVE_WITH_KNOTS('',3,(#1271,#1272,#1273,#1274,#1275,#1276,
#1277,#1278,#1279,#1280,#1281,#1282),.UNSPECIFIED.,.F.,.F.,(4,2,2,2,2,4),
(0.130252786939646,0.173425749007993,0.216598711076339,0.248276264256583,
0.264115040846705,0.279953817436826),.UNSPECIFIED.);
#50=B_SPLINE_CURVE_WITH_KNOTS('',3,(#1295,#1296,#1297,#1298,#1299,#1300,
#1301,#1302,#1303,#1304,#1305,#1306),.UNSPECIFIED.,.F.,.F.,(4,2,2,2,2,4),
(0.279953817436826,0.295792594026948,0.31163137061707,0.343308923797314,
0.38648188586566,0.429654847934007),.UNSPECIFIED.);
#51=B_SPLINE_CURVE_WITH_KNOTS('',3,(#1315,#1316,#1317,#1318,#1319,#1320,
#1321,#1322,#1323,#1324,#1325,#1326),.UNSPECIFIED.,.F.,.F.,(4,2,2,2,2,4),
(0.165266843558979,0.173425749007993,0.216598711076339,0.248276264256583,
0.264115040846705,0.279953817436826),.UNSPECIFIED.);
#52=B_SPLINE_CURVE_WITH_KNOTS('',3,(#1335,#1336,#1337,#1338,#1339,#1340,
#1341,#1342,#1343,#1344,#1345,#1346),.UNSPECIFIED.,.F.,.F.,(4,2,2,2,2,4),
(0.130252786939646,0.173425749007993,0.216598711076339,0.248276264256583,
0.264115040846704,0.279953817436826),.UNSPECIFIED.);
#53=B_SPLINE_CURVE_WITH_KNOTS('',3,(#1376,#1377,#1378,#1379,#1380,#1381,
#1382,#1383,#1384,#1385,#1386,#1387),.UNSPECIFIED.,.F.,.F.,(4,2,2,2,2,4),
(0.130252786939646,0.169733603605749,0.209214420271852,0.244814266894929,
0.262614190206467,0.280414113518005),.UNSPECIFIED.);
#54=B_SPLINE_CURVE_WITH_KNOTS('',3,(#1398,#1399,#1400,#1401,#1402,#1403,
#1404,#1405,#1406,#1407,#1408,#1409),.UNSPECIFIED.,.F.,.F.,(4,2,2,2,2,4),
(0.279948828744617,0.295787605334739,0.31162638192486,0.343303935105104,
0.38647689717345,0.429649859241797),.UNSPECIFIED.);
#55=B_SPLINE_CURVE_WITH_KNOTS('',3,(#1441,#1442,#1443,#1444,#1445,#1446,
#1447,#1448,#1449,#1450,#1451,#1452),.UNSPECIFIED.,.F.,.F.,(4,2,2,2,2,4),
(0.279953817436826,0.297753740748365,0.315553664059903,0.35115351068298,
0.390634327349083,0.430115144015186),.UNSPECIFIED.);
#56=FACE_OUTER_BOUND('',#103,.T.);
#57=FACE_OUTER_BOUND('',#104,.T.);
#58=FACE_OUTER_BOUND('',#105,.T.);
#59=FACE_OUTER_BOUND('',#106,.T.);
#60=FACE_OUTER_BOUND('',#107,.T.);
#61=FACE_OUTER_BOUND('',#108,.T.);
#62=FACE_OUTER_BOUND('',#109,.T.);
#63=FACE_OUTER_BOUND('',#110,.T.);
#64=FACE_OUTER_BOUND('',#111,.T.);
#65=FACE_OUTER_BOUND('',#112,.T.);
#66=FACE_OUTER_BOUND('',#113,.T.);
#67=FACE_OUTER_BOUND('',#114,.T.);
#68=FACE_OUTER_BOUND('',#115,.T.);
#69=FACE_OUTER_BOUND('',#116,.T.);
#70=FACE_OUTER_BOUND('',#117,.T.);
#71=FACE_OUTER_BOUND('',#118,.T.);
#72=FACE_OUTER_BOUND('',#119,.T.);
#73=FACE_OUTER_BOUND('',#120,.T.);
#74=FACE_OUTER_BOUND('',#121,.T.);
#75=FACE_OUTER_BOUND('',#122,.T.);
#76=FACE_OUTER_BOUND('',#123,.T.);
#77=FACE_OUTER_BOUND('',#124,.T.);
#78=FACE_OUTER_BOUND('',#125,.T.);
#79=FACE_OUTER_BOUND('',#126,.T.);
#80=FACE_OUTER_BOUND('',#127,.T.);
#81=FACE_OUTER_BOUND('',#128,.T.);
#82=FACE_OUTER_BOUND('',#129,.T.);
#83=FACE_OUTER_BOUND('',#130,.T.);
#84=FACE_OUTER_BOUND('',#131,.T.);
#85=FACE_OUTER_BOUND('',#132,.T.);
#86=FACE_OUTER_BOUND('',#133,.T.);
#87=FACE_OUTER_BOUND('',#134,.T.);
#88=FACE_OUTER_BOUND('',#136,.T.);
#89=FACE_OUTER_BOUND('',#138,.T.);
#90=FACE_OUTER_BOUND('',#140,.T.);
#91=FACE_OUTER_BOUND('',#142,.T.);
#92=FACE_OUTER_BOUND('',#143,.T.);
#93=FACE_OUTER_BOUND('',#144,.T.);
#94=FACE_OUTER_BOUND('',#145,.T.);
#95=FACE_OUTER_BOUND('',#146,.T.);
#96=FACE_OUTER_BOUND('',#147,.T.);
#97=FACE_OUTER_BOUND('',#148,.T.);
#98=FACE_OUTER_BOUND('',#149,.T.);
#99=FACE_OUTER_BOUND('',#150,.T.);
#100=FACE_OUTER_BOUND('',#151,.T.);
#101=FACE_OUTER_BOUND('',#152,.T.);
#102=FACE_OUTER_BOUND('',#153,.T.);
#103=EDGE_LOOP('',(#533,#534,#535,#536));
#104=EDGE_LOOP('',(#537,#538,#539,#540,#541,#542,#543,#544,#545,#546));
#105=EDGE_LOOP('',(#547,#548,#549,#550,#551,#552,#553));
#106=EDGE_LOOP('',(#554,#555,#556));
#107=EDGE_LOOP('',(#557,#558,#559,#560));
#108=EDGE_LOOP('',(#561,#562,#563,#564));
#109=EDGE_LOOP('',(#565,#566,#567,#568));
#110=EDGE_LOOP('',(#569,#570,#571,#572));
#111=EDGE_LOOP('',(#573,#574,#575,#576));
#112=EDGE_LOOP('',(#577,#578,#579,#580));
#113=EDGE_LOOP('',(#581,#582,#583,#584));
#114=EDGE_LOOP('',(#585,#586,#587,#588));
#115=EDGE_LOOP('',(#589,#590,#591,#592));
#116=EDGE_LOOP('',(#593,#594,#595,#596));
#117=EDGE_LOOP('',(#597,#598,#599,#600));
#118=EDGE_LOOP('',(#601,#602,#603,#604));
#119=EDGE_LOOP('',(#605,#606,#607,#608));
#120=EDGE_LOOP('',(#609,#610,#611,#612));
#121=EDGE_LOOP('',(#613,#614,#615,#616));
#122=EDGE_LOOP('',(#617,#618,#619,#620));
#123=EDGE_LOOP('',(#621,#622,#623,#624));
#124=EDGE_LOOP('',(#625,#626,#627,#628));
#125=EDGE_LOOP('',(#629,#630,#631,#632));
#126=EDGE_LOOP('',(#633,#634,#635));
#127=EDGE_LOOP('',(#636,#637,#638,#639,#640,#641,#642,#643));
#128=EDGE_LOOP('',(#644,#645,#646,#647,#648,#649,#650,#651,#652,#653,#654,
#655,#656,#657,#658,#659,#660));
#129=EDGE_LOOP('',(#661,#662,#663,#664));
#130=EDGE_LOOP('',(#665,#666,#667,#668));
#131=EDGE_LOOP('',(#669,#670,#671,#672,#673,#674,#675));
#132=EDGE_LOOP('',(#676,#677,#678,#679,#680,#681,#682));
#133=EDGE_LOOP('',(#683,#684,#685,#686,#687,#688));
#134=EDGE_LOOP('',(#689,#690));
#135=EDGE_LOOP('',(#691));
#136=EDGE_LOOP('',(#692,#693));
#137=EDGE_LOOP('',(#694));
#138=EDGE_LOOP('',(#695));
#139=EDGE_LOOP('',(#696));
#140=EDGE_LOOP('',(#697,#698));
#141=EDGE_LOOP('',(#699));
#142=EDGE_LOOP('',(#700,#701,#702,#703,#704,#705,#706,#707));
#143=EDGE_LOOP('',(#708,#709,#710,#711));
#144=EDGE_LOOP('',(#712,#713,#714,#715,#716,#717,#718,#719,#720,#721));
#145=EDGE_LOOP('',(#722,#723,#724,#725,#726,#727,#728,#729,#730,#731));
#146=EDGE_LOOP('',(#732,#733,#734,#735,#736,#737,#738));
#147=EDGE_LOOP('',(#739,#740,#741,#742));
#148=EDGE_LOOP('',(#743,#744,#745,#746));
#149=EDGE_LOOP('',(#747,#748,#749,#750));
#150=EDGE_LOOP('',(#751,#752,#753,#754));
#151=EDGE_LOOP('',(#755,#756,#757,#758));
#152=EDGE_LOOP('',(#759,#760,#761,#762,#763,#764,#765,#766,#767,#768,#769,
#770,#771,#772,#773,#774));
#153=EDGE_LOOP('',(#775,#776));
#154=EDGE_LOOP('',(#777));
#155=EDGE_LOOP('',(#778));
#156=EDGE_LOOP('',(#779));
#157=EDGE_LOOP('',(#780));
#158=CIRCLE('',#866,3.25);
#159=CIRCLE('',#867,3.25);
#160=CIRCLE('',#869,3.25);
#161=CIRCLE('',#870,3.25);
#162=CIRCLE('',#871,3.25);
#163=CIRCLE('',#872,3.25);
#164=CIRCLE('',#874,3.25);
#165=CIRCLE('',#875,3.25);
#166=CIRCLE('',#876,3.25);
#167=CIRCLE('',#880,0.8);
#168=CIRCLE('',#882,0.8);
#169=CIRCLE('',#883,1.8);
#170=CIRCLE('',#884,1.);
#171=CIRCLE('',#888,1.);
#172=CIRCLE('',#891,0.8);
#173=CIRCLE('',#893,0.8);
#174=CIRCLE('',#894,1.8);
#175=CIRCLE('',#895,1.);
#176=CIRCLE('',#899,1.);
#177=CIRCLE('',#902,0.8);
#178=CIRCLE('',#904,0.800000000000001);
#179=CIRCLE('',#905,1.8);
#180=CIRCLE('',#906,1.);
#181=CIRCLE('',#910,1.);
#182=CIRCLE('',#913,0.8);
#183=CIRCLE('',#914,0.8);
#184=CIRCLE('',#915,0.8);
#185=CIRCLE('',#917,10.25);
#186=CIRCLE('',#918,10.25);
#187=CIRCLE('',#919,3.25);
#188=CIRCLE('',#921,3.25);
#189=CIRCLE('',#922,3.25);
#190=CIRCLE('',#923,3.25);
#191=CIRCLE('',#928,3.25);
#192=CIRCLE('',#929,10.25);
#193=CIRCLE('',#930,3.25);
#194=CIRCLE('',#932,10.25);
#195=CIRCLE('',#933,3.25);
#196=CIRCLE('',#935,3.25);
#197=CIRCLE('',#936,1.6);
#198=CIRCLE('',#938,3.25);
#199=CIRCLE('',#939,1.6);
#200=CIRCLE('',#941,3.25);
#201=CIRCLE('',#942,1.6);
#202=CIRCLE('',#944,3.25);
#203=CIRCLE('',#945,1.6);
#204=CIRCLE('',#948,3.25);
#205=CIRCLE('',#951,3.25);
#206=CIRCLE('',#953,10.25);
#207=CIRCLE('',#955,1.6);
#208=CIRCLE('',#957,1.6);
#209=CIRCLE('',#959,1.6);
#210=CIRCLE('',#961,1.6);
#211=CIRCLE('',#964,10.25);
#212=LINE('',#1235,#273);
#213=LINE('',#1239,#274);
#214=LINE('',#1244,#275);
#215=LINE('',#1248,#276);
#216=LINE('',#1265,#277);
#217=LINE('',#1269,#278);
#218=LINE('',#1287,#279);
#219=LINE('',#1291,#280);
#220=LINE('',#1308,#281);
#221=LINE('',#1327,#282);
#222=LINE('',#1333,#283);
#223=LINE('',#1347,#284);
#224=LINE('',#1355,#285);
#225=LINE('',#1356,#286);
#226=LINE('',#1359,#287);
#227=LINE('',#1360,#288);
#228=LINE('',#1363,#289);
#229=LINE('',#1367,#290);
#230=LINE('',#1368,#291);
#231=LINE('',#1374,#292);
#232=LINE('',#1388,#293);
#233=LINE('',#1410,#294);
#234=LINE('',#1411,#295);
#235=LINE('',#1414,#296);
#236=LINE('',#1416,#297);
#237=LINE('',#1417,#298);
#238=LINE('',#1420,#299);
#239=LINE('',#1424,#300);
#240=LINE('',#1425,#301);
#241=LINE('',#1430,#302);
#242=LINE('',#1431,#303);
#243=LINE('',#1453,#304);
#244=LINE('',#1454,#305);
#245=LINE('',#1457,#306);
#246=LINE('',#1459,#307);
#247=LINE('',#1460,#308);
#248=LINE('',#1463,#309);
#249=LINE('',#1466,#310);
#250=LINE('',#1471,#311);
#251=LINE('',#1472,#312);
#252=LINE('',#1493,#313);
#253=LINE('',#1497,#314);
#254=LINE('',#1503,#315);
#255=LINE('',#1505,#316);
#256=LINE('',#1507,#317);
#257=LINE('',#1511,#318);
#258=LINE('',#1512,#319);
#259=LINE('',#1514,#320);
#260=LINE('',#1516,#321);
#261=LINE('',#1543,#322);
#262=LINE('',#1546,#323);
#263=LINE('',#1548,#324);
#264=LINE('',#1550,#325);
#265=LINE('',#1551,#326);
#266=LINE('',#1558,#327);
#267=LINE('',#1562,#328);
#268=LINE('',#1566,#329);
#269=LINE('',#1570,#330);
#270=LINE('',#1573,#331);
#271=LINE('',#1575,#332);
#272=LINE('',#1576,#333);
#273=VECTOR('',#970,3.25);
#274=VECTOR('',#973,10.);
#275=VECTOR('',#978,3.25);
#276=VECTOR('',#981,10.);
#277=VECTOR('',#984,10.);
#278=VECTOR('',#987,10.);
#279=VECTOR('',#992,3.25);
#280=VECTOR('',#995,10.);
#281=VECTOR('',#998,10.);
#282=VECTOR('',#1005,10.);
#283=VECTOR('',#1010,10.);
#284=VECTOR('',#1011,10.);
#285=VECTOR('',#1022,10.);
#286=VECTOR('',#1023,10.);
#287=VECTOR('',#1026,10.);
#288=VECTOR('',#1027,10.);
#289=VECTOR('',#1030,10.);
#290=VECTOR('',#1035,10.);
#291=VECTOR('',#1036,10.);
#292=VECTOR('',#1041,10.);
#293=VECTOR('',#1042,10.);
#294=VECTOR('',#1053,10.);
#295=VECTOR('',#1054,10.);
#296=VECTOR('',#1057,10.);
#297=VECTOR('',#1058,10.);
#298=VECTOR('',#1059,10.);
#299=VECTOR('',#1062,10.);
#300=VECTOR('',#1067,10.);
#301=VECTOR('',#1068,10.);
#302=VECTOR('',#1073,10.);
#303=VECTOR('',#1074,10.);
#304=VECTOR('',#1085,10.);
#305=VECTOR('',#1086,10.);
#306=VECTOR('',#1089,10.);
#307=VECTOR('',#1090,10.);
#308=VECTOR('',#1091,10.);
#309=VECTOR('',#1094,10.);
#310=VECTOR('',#1099,10.);
#311=VECTOR('',#1104,10.);
#312=VECTOR('',#1105,10.);
#313=VECTOR('',#1112,10.);
#314=VECTOR('',#1115,10.);
#315=VECTOR('',#1124,10.);
#316=VECTOR('',#1125,10.);
#317=VECTOR('',#1126,10.);
#318=VECTOR('',#1133,10.);
#319=VECTOR('',#1134,10.);
#320=VECTOR('',#1137,10.);
#321=VECTOR('',#1140,10.);
#322=VECTOR('',#1181,10.);
#323=VECTOR('',#1186,10.);
#324=VECTOR('',#1189,10.);
#325=VECTOR('',#1192,10.);
#326=VECTOR('',#1193,10.);
#327=VECTOR('',#1204,1.6);
#328=VECTOR('',#1209,1.6);
#329=VECTOR('',#1214,1.6);
#330=VECTOR('',#1219,1.6);
#331=VECTOR('',#1222,10.);
#332=VECTOR('',#1223,10.);
#333=VECTOR('',#1224,10.);
#334=VERTEX_POINT('',#1233);
#335=VERTEX_POINT('',#1234);
#336=VERTEX_POINT('',#1236);
#337=VERTEX_POINT('',#1238);
#338=VERTEX_POINT('',#1242);
#339=VERTEX_POINT('',#1243);
#340=VERTEX_POINT('',#1245);
#341=VERTEX_POINT('',#1247);
#342=VERTEX_POINT('',#1249);
#343=VERTEX_POINT('',#1251);
#344=VERTEX_POINT('',#1264);
#345=VERTEX_POINT('',#1266);
#346=VERTEX_POINT('',#1268);
#347=VERTEX_POINT('',#1270);
#348=VERTEX_POINT('',#1285);
#349=VERTEX_POINT('',#1286);
#350=VERTEX_POINT('',#1288);
#351=VERTEX_POINT('',#1290);
#352=VERTEX_POINT('',#1292);
#353=VERTEX_POINT('',#1294);
#354=VERTEX_POINT('',#1307);
#355=VERTEX_POINT('',#1311);
#356=VERTEX_POINT('',#1312);
#357=VERTEX_POINT('',#1314);
#358=VERTEX_POINT('',#1329);
#359=VERTEX_POINT('',#1330);
#360=VERTEX_POINT('',#1332);
#361=VERTEX_POINT('',#1334);
#362=VERTEX_POINT('',#1349);
#363=VERTEX_POINT('',#1350);
#364=VERTEX_POINT('',#1358);
#365=VERTEX_POINT('',#1362);
#366=VERTEX_POINT('',#1366);
#367=VERTEX_POINT('',#1370);
#368=VERTEX_POINT('',#1371);
#369=VERTEX_POINT('',#1373);
#370=VERTEX_POINT('',#1375);
#371=VERTEX_POINT('',#1390);
#372=VERTEX_POINT('',#1391);
#373=VERTEX_POINT('',#1396);
#374=VERTEX_POINT('',#1397);
#375=VERTEX_POINT('',#1413);
#376=VERTEX_POINT('',#1415);
#377=VERTEX_POINT('',#1419);
#378=VERTEX_POINT('',#1423);
#379=VERTEX_POINT('',#1427);
#380=VERTEX_POINT('',#1428);
#381=VERTEX_POINT('',#1433);
#382=VERTEX_POINT('',#1434);
#383=VERTEX_POINT('',#1439);
#384=VERTEX_POINT('',#1440);
#385=VERTEX_POINT('',#1456);
#386=VERTEX_POINT('',#1458);
#387=VERTEX_POINT('',#1462);
#388=VERTEX_POINT('',#1468);
#389=VERTEX_POINT('',#1469);
#390=VERTEX_POINT('',#1488);
#391=VERTEX_POINT('',#1492);
#392=VERTEX_POINT('',#1494);
#393=VERTEX_POINT('',#1496);
#394=VERTEX_POINT('',#1502);
#395=VERTEX_POINT('',#1504);
#396=VERTEX_POINT('',#1506);
#397=VERTEX_POINT('',#1519);
#398=VERTEX_POINT('',#1527);
#399=VERTEX_POINT('',#1531);
#400=VERTEX_POINT('',#1534);
#401=VERTEX_POINT('',#1536);
#402=VERTEX_POINT('',#1540);
#403=VERTEX_POINT('',#1556);
#404=VERTEX_POINT('',#1560);
#405=VERTEX_POINT('',#1564);
#406=VERTEX_POINT('',#1568);
#407=VERTEX_POINT('',#1572);
#408=VERTEX_POINT('',#1574);
#409=EDGE_CURVE('',#334,#335,#212,.T.);
#410=EDGE_CURVE('',#334,#336,#158,.T.);
#411=EDGE_CURVE('',#336,#337,#213,.T.);
#412=EDGE_CURVE('',#335,#337,#159,.T.);
#413=EDGE_CURVE('',#338,#339,#214,.T.);
#414=EDGE_CURVE('',#338,#340,#160,.T.);
#415=EDGE_CURVE('',#340,#341,#215,.T.);
#416=EDGE_CURVE('',#342,#341,#161,.T.);
#417=EDGE_CURVE('',#343,#342,#48,.T.);
#418=EDGE_CURVE('',#344,#343,#216,.T.);
#419=EDGE_CURVE('',#345,#344,#162,.T.);
#420=EDGE_CURVE('',#346,#345,#217,.T.);
#421=EDGE_CURVE('',#347,#346,#49,.T.);
#422=EDGE_CURVE('',#339,#347,#163,.T.);
#423=EDGE_CURVE('',#348,#349,#218,.T.);
#424=EDGE_CURVE('',#348,#350,#164,.T.);
#425=EDGE_CURVE('',#350,#351,#219,.T.);
#426=EDGE_CURVE('',#352,#351,#165,.T.);
#427=EDGE_CURVE('',#353,#352,#50,.T.);
#428=EDGE_CURVE('',#354,#353,#220,.T.);
#429=EDGE_CURVE('',#349,#354,#166,.T.);
#430=EDGE_CURVE('',#355,#356,#47,.F.);
#431=EDGE_CURVE('',#355,#357,#51,.T.);
#432=EDGE_CURVE('',#357,#356,#221,.T.);
#433=EDGE_CURVE('',#358,#359,#167,.T.);
#434=EDGE_CURVE('',#359,#360,#222,.T.);
#435=EDGE_CURVE('',#360,#361,#52,.T.);
#436=EDGE_CURVE('',#361,#358,#223,.T.);
#437=EDGE_CURVE('',#362,#363,#168,.T.);
#438=EDGE_CURVE('',#363,#359,#169,.T.);
#439=EDGE_CURVE('',#358,#362,#170,.T.);
#440=EDGE_CURVE('',#352,#363,#224,.T.);
#441=EDGE_CURVE('',#362,#353,#225,.T.);
#442=EDGE_CURVE('',#364,#362,#226,.T.);
#443=EDGE_CURVE('',#354,#364,#227,.T.);
#444=EDGE_CURVE('',#358,#365,#228,.T.);
#445=EDGE_CURVE('',#365,#364,#171,.T.);
#446=EDGE_CURVE('',#361,#366,#229,.T.);
#447=EDGE_CURVE('',#365,#366,#230,.T.);
#448=EDGE_CURVE('',#367,#368,#172,.T.);
#449=EDGE_CURVE('',#368,#369,#231,.T.);
#450=EDGE_CURVE('',#369,#370,#53,.T.);
#451=EDGE_CURVE('',#370,#367,#232,.T.);
#452=EDGE_CURVE('',#371,#372,#173,.T.);
#453=EDGE_CURVE('',#372,#368,#174,.T.);
#454=EDGE_CURVE('',#367,#371,#175,.T.);
#455=EDGE_CURVE('',#373,#374,#54,.T.);
#456=EDGE_CURVE('',#374,#372,#233,.T.);
#457=EDGE_CURVE('',#371,#373,#234,.T.);
#458=EDGE_CURVE('',#375,#371,#235,.T.);
#459=EDGE_CURVE('',#376,#375,#236,.T.);
#460=EDGE_CURVE('',#376,#373,#237,.T.);
#461=EDGE_CURVE('',#367,#377,#238,.T.);
#462=EDGE_CURVE('',#377,#375,#176,.T.);
#463=EDGE_CURVE('',#370,#378,#239,.T.);
#464=EDGE_CURVE('',#377,#378,#240,.T.);
#465=EDGE_CURVE('',#379,#380,#177,.T.);
#466=EDGE_CURVE('',#380,#347,#241,.T.);
#467=EDGE_CURVE('',#346,#379,#242,.T.);
#468=EDGE_CURVE('',#381,#382,#178,.T.);
#469=EDGE_CURVE('',#382,#380,#179,.T.);
#470=EDGE_CURVE('',#379,#381,#180,.T.);
#471=EDGE_CURVE('',#383,#384,#55,.T.);
#472=EDGE_CURVE('',#384,#382,#243,.T.);
#473=EDGE_CURVE('',#381,#383,#244,.T.);
#474=EDGE_CURVE('',#385,#381,#245,.T.);
#475=EDGE_CURVE('',#386,#385,#246,.T.);
#476=EDGE_CURVE('',#386,#383,#247,.T.);
#477=EDGE_CURVE('',#379,#387,#248,.T.);
#478=EDGE_CURVE('',#387,#385,#181,.T.);
#479=EDGE_CURVE('',#387,#345,#249,.T.);
#480=EDGE_CURVE('',#388,#389,#182,.T.);
#481=EDGE_CURVE('',#389,#343,#250,.T.);
#482=EDGE_CURVE('',#342,#388,#251,.T.);
#483=EDGE_CURVE('',#389,#390,#183,.T.);
#484=EDGE_CURVE('',#388,#390,#184,.T.);
#485=EDGE_CURVE('',#391,#390,#252,.T.);
#486=EDGE_CURVE('',#341,#392,#185,.T.);
#487=EDGE_CURVE('',#392,#393,#253,.T.);
#488=EDGE_CURVE('',#393,#351,#186,.T.);
#489=EDGE_CURVE('',#351,#391,#187,.T.);
#490=EDGE_CURVE('',#378,#386,#188,.T.);
#491=EDGE_CURVE('',#344,#394,#254,.T.);
#492=EDGE_CURVE('',#394,#395,#255,.T.);
#493=EDGE_CURVE('',#395,#396,#256,.T.);
#494=EDGE_CURVE('',#396,#349,#189,.T.);
#495=EDGE_CURVE('',#366,#376,#190,.T.);
#496=EDGE_CURVE('',#357,#396,#257,.T.);
#497=EDGE_CURVE('',#395,#356,#258,.T.);
#498=EDGE_CURVE('',#389,#394,#259,.T.);
#499=EDGE_CURVE('',#391,#355,#260,.F.);
#500=EDGE_CURVE('',#374,#335,#191,.T.);
#501=EDGE_CURVE('',#337,#397,#192,.T.);
#502=EDGE_CURVE('',#397,#369,#193,.T.);
#503=EDGE_CURVE('',#351,#337,#194,.T.);
#504=EDGE_CURVE('',#337,#360,#195,.T.);
#505=EDGE_CURVE('',#350,#348,#196,.T.);
#506=EDGE_CURVE('',#398,#398,#197,.T.);
#507=EDGE_CURVE('',#336,#334,#198,.T.);
#508=EDGE_CURVE('',#399,#399,#199,.T.);
#509=EDGE_CURVE('',#400,#400,#200,.T.);
#510=EDGE_CURVE('',#401,#401,#201,.T.);
#511=EDGE_CURVE('',#340,#338,#202,.T.);
#512=EDGE_CURVE('',#402,#402,#203,.T.);
#513=EDGE_CURVE('',#350,#351,#261,.T.);
#514=EDGE_CURVE('',#341,#339,#204,.T.);
#515=EDGE_CURVE('',#340,#341,#262,.T.);
#516=EDGE_CURVE('',#336,#337,#263,.T.);
#517=EDGE_CURVE('',#400,#397,#264,.T.);
#518=EDGE_CURVE('',#400,#397,#265,.T.);
#519=EDGE_CURVE('',#384,#397,#205,.T.);
#520=EDGE_CURVE('',#397,#341,#206,.T.);
#521=EDGE_CURVE('',#403,#403,#207,.T.);
#522=EDGE_CURVE('',#403,#402,#266,.T.);
#523=EDGE_CURVE('',#404,#404,#208,.T.);
#524=EDGE_CURVE('',#404,#401,#267,.T.);
#525=EDGE_CURVE('',#405,#405,#209,.T.);
#526=EDGE_CURVE('',#405,#398,#268,.T.);
#527=EDGE_CURVE('',#406,#406,#210,.T.);
#528=EDGE_CURVE('',#406,#399,#269,.T.);
#529=EDGE_CURVE('',#407,#392,#270,.T.);
#530=EDGE_CURVE('',#408,#407,#271,.T.);
#531=EDGE_CURVE('',#393,#408,#272,.T.);
#532=EDGE_CURVE('',#407,#408,#211,.T.);
#533=ORIENTED_EDGE('',*,*,#409,.F.);
#534=ORIENTED_EDGE('',*,*,#410,.T.);
#535=ORIENTED_EDGE('',*,*,#411,.T.);
#536=ORIENTED_EDGE('',*,*,#412,.F.);
#537=ORIENTED_EDGE('',*,*,#413,.F.);
#538=ORIENTED_EDGE('',*,*,#414,.T.);
#539=ORIENTED_EDGE('',*,*,#415,.T.);
#540=ORIENTED_EDGE('',*,*,#416,.F.);
#541=ORIENTED_EDGE('',*,*,#417,.F.);
#542=ORIENTED_EDGE('',*,*,#418,.F.);
#543=ORIENTED_EDGE('',*,*,#419,.F.);
#544=ORIENTED_EDGE('',*,*,#420,.F.);
#545=ORIENTED_EDGE('',*,*,#421,.F.);
#546=ORIENTED_EDGE('',*,*,#422,.F.);
#547=ORIENTED_EDGE('',*,*,#423,.F.);
#548=ORIENTED_EDGE('',*,*,#424,.T.);
#549=ORIENTED_EDGE('',*,*,#425,.T.);
#550=ORIENTED_EDGE('',*,*,#426,.F.);
#551=ORIENTED_EDGE('',*,*,#427,.F.);
#552=ORIENTED_EDGE('',*,*,#428,.F.);
#553=ORIENTED_EDGE('',*,*,#429,.F.);
#554=ORIENTED_EDGE('',*,*,#430,.F.);
#555=ORIENTED_EDGE('',*,*,#431,.T.);
#556=ORIENTED_EDGE('',*,*,#432,.T.);
#557=ORIENTED_EDGE('',*,*,#433,.T.);
#558=ORIENTED_EDGE('',*,*,#434,.T.);
#559=ORIENTED_EDGE('',*,*,#435,.T.);
#560=ORIENTED_EDGE('',*,*,#436,.T.);
#561=ORIENTED_EDGE('',*,*,#437,.T.);
#562=ORIENTED_EDGE('',*,*,#438,.T.);
#563=ORIENTED_EDGE('',*,*,#433,.F.);
#564=ORIENTED_EDGE('',*,*,#439,.T.);
#565=ORIENTED_EDGE('',*,*,#427,.T.);
#566=ORIENTED_EDGE('',*,*,#440,.T.);
#567=ORIENTED_EDGE('',*,*,#437,.F.);
#568=ORIENTED_EDGE('',*,*,#441,.T.);
#569=ORIENTED_EDGE('',*,*,#441,.F.);
#570=ORIENTED_EDGE('',*,*,#442,.F.);
#571=ORIENTED_EDGE('',*,*,#443,.F.);
#572=ORIENTED_EDGE('',*,*,#428,.T.);
#573=ORIENTED_EDGE('',*,*,#439,.F.);
#574=ORIENTED_EDGE('',*,*,#444,.T.);
#575=ORIENTED_EDGE('',*,*,#445,.T.);
#576=ORIENTED_EDGE('',*,*,#442,.T.);
#577=ORIENTED_EDGE('',*,*,#436,.F.);
#578=ORIENTED_EDGE('',*,*,#446,.T.);
#579=ORIENTED_EDGE('',*,*,#447,.F.);
#580=ORIENTED_EDGE('',*,*,#444,.F.);
#581=ORIENTED_EDGE('',*,*,#448,.T.);
#582=ORIENTED_EDGE('',*,*,#449,.T.);
#583=ORIENTED_EDGE('',*,*,#450,.T.);
#584=ORIENTED_EDGE('',*,*,#451,.T.);
#585=ORIENTED_EDGE('',*,*,#452,.T.);
#586=ORIENTED_EDGE('',*,*,#453,.T.);
#587=ORIENTED_EDGE('',*,*,#448,.F.);
#588=ORIENTED_EDGE('',*,*,#454,.T.);
#589=ORIENTED_EDGE('',*,*,#455,.T.);
#590=ORIENTED_EDGE('',*,*,#456,.T.);
#591=ORIENTED_EDGE('',*,*,#452,.F.);
#592=ORIENTED_EDGE('',*,*,#457,.T.);
#593=ORIENTED_EDGE('',*,*,#457,.F.);
#594=ORIENTED_EDGE('',*,*,#458,.F.);
#595=ORIENTED_EDGE('',*,*,#459,.F.);
#596=ORIENTED_EDGE('',*,*,#460,.T.);
#597=ORIENTED_EDGE('',*,*,#454,.F.);
#598=ORIENTED_EDGE('',*,*,#461,.T.);
#599=ORIENTED_EDGE('',*,*,#462,.T.);
#600=ORIENTED_EDGE('',*,*,#458,.T.);
#601=ORIENTED_EDGE('',*,*,#451,.F.);
#602=ORIENTED_EDGE('',*,*,#463,.T.);
#603=ORIENTED_EDGE('',*,*,#464,.F.);
#604=ORIENTED_EDGE('',*,*,#461,.F.);
#605=ORIENTED_EDGE('',*,*,#465,.T.);
#606=ORIENTED_EDGE('',*,*,#466,.T.);
#607=ORIENTED_EDGE('',*,*,#421,.T.);
#608=ORIENTED_EDGE('',*,*,#467,.T.);
#609=ORIENTED_EDGE('',*,*,#468,.T.);
#610=ORIENTED_EDGE('',*,*,#469,.T.);
#611=ORIENTED_EDGE('',*,*,#465,.F.);
#612=ORIENTED_EDGE('',*,*,#470,.T.);
#613=ORIENTED_EDGE('',*,*,#471,.T.);
#614=ORIENTED_EDGE('',*,*,#472,.T.);
#615=ORIENTED_EDGE('',*,*,#468,.F.);
#616=ORIENTED_EDGE('',*,*,#473,.T.);
#617=ORIENTED_EDGE('',*,*,#473,.F.);
#618=ORIENTED_EDGE('',*,*,#474,.F.);
#619=ORIENTED_EDGE('',*,*,#475,.F.);
#620=ORIENTED_EDGE('',*,*,#476,.T.);
#621=ORIENTED_EDGE('',*,*,#470,.F.);
#622=ORIENTED_EDGE('',*,*,#477,.T.);
#623=ORIENTED_EDGE('',*,*,#478,.T.);
#624=ORIENTED_EDGE('',*,*,#474,.T.);
#625=ORIENTED_EDGE('',*,*,#467,.F.);
#626=ORIENTED_EDGE('',*,*,#420,.T.);
#627=ORIENTED_EDGE('',*,*,#479,.F.);
#628=ORIENTED_EDGE('',*,*,#477,.F.);
#629=ORIENTED_EDGE('',*,*,#480,.T.);
#630=ORIENTED_EDGE('',*,*,#481,.T.);
#631=ORIENTED_EDGE('',*,*,#417,.T.);
#632=ORIENTED_EDGE('',*,*,#482,.T.);
#633=ORIENTED_EDGE('',*,*,#483,.F.);
#634=ORIENTED_EDGE('',*,*,#480,.F.);
#635=ORIENTED_EDGE('',*,*,#484,.T.);
#636=ORIENTED_EDGE('',*,*,#485,.T.);
#637=ORIENTED_EDGE('',*,*,#484,.F.);
#638=ORIENTED_EDGE('',*,*,#482,.F.);
#639=ORIENTED_EDGE('',*,*,#416,.T.);
#640=ORIENTED_EDGE('',*,*,#486,.T.);
#641=ORIENTED_EDGE('',*,*,#487,.T.);
#642=ORIENTED_EDGE('',*,*,#488,.T.);
#643=ORIENTED_EDGE('',*,*,#489,.T.);
#644=ORIENTED_EDGE('',*,*,#490,.T.);
#645=ORIENTED_EDGE('',*,*,#475,.T.);
#646=ORIENTED_EDGE('',*,*,#478,.F.);
#647=ORIENTED_EDGE('',*,*,#479,.T.);
#648=ORIENTED_EDGE('',*,*,#419,.T.);
#649=ORIENTED_EDGE('',*,*,#491,.T.);
#650=ORIENTED_EDGE('',*,*,#492,.T.);
#651=ORIENTED_EDGE('',*,*,#493,.T.);
#652=ORIENTED_EDGE('',*,*,#494,.T.);
#653=ORIENTED_EDGE('',*,*,#429,.T.);
#654=ORIENTED_EDGE('',*,*,#443,.T.);
#655=ORIENTED_EDGE('',*,*,#445,.F.);
#656=ORIENTED_EDGE('',*,*,#447,.T.);
#657=ORIENTED_EDGE('',*,*,#495,.T.);
#658=ORIENTED_EDGE('',*,*,#459,.T.);
#659=ORIENTED_EDGE('',*,*,#462,.F.);
#660=ORIENTED_EDGE('',*,*,#464,.T.);
#661=ORIENTED_EDGE('',*,*,#432,.F.);
#662=ORIENTED_EDGE('',*,*,#496,.T.);
#663=ORIENTED_EDGE('',*,*,#493,.F.);
#664=ORIENTED_EDGE('',*,*,#497,.T.);
#665=ORIENTED_EDGE('',*,*,#481,.F.);
#666=ORIENTED_EDGE('',*,*,#498,.T.);
#667=ORIENTED_EDGE('',*,*,#491,.F.);
#668=ORIENTED_EDGE('',*,*,#418,.T.);
#669=ORIENTED_EDGE('',*,*,#483,.T.);
#670=ORIENTED_EDGE('',*,*,#485,.F.);
#671=ORIENTED_EDGE('',*,*,#499,.T.);
#672=ORIENTED_EDGE('',*,*,#430,.T.);
#673=ORIENTED_EDGE('',*,*,#497,.F.);
#674=ORIENTED_EDGE('',*,*,#492,.F.);
#675=ORIENTED_EDGE('',*,*,#498,.F.);
#676=ORIENTED_EDGE('',*,*,#456,.F.);
#677=ORIENTED_EDGE('',*,*,#500,.T.);
#678=ORIENTED_EDGE('',*,*,#412,.T.);
#679=ORIENTED_EDGE('',*,*,#501,.T.);
#680=ORIENTED_EDGE('',*,*,#502,.T.);
#681=ORIENTED_EDGE('',*,*,#449,.F.);
#682=ORIENTED_EDGE('',*,*,#453,.F.);
#683=ORIENTED_EDGE('',*,*,#440,.F.);
#684=ORIENTED_EDGE('',*,*,#426,.T.);
#685=ORIENTED_EDGE('',*,*,#503,.T.);
#686=ORIENTED_EDGE('',*,*,#504,.T.);
#687=ORIENTED_EDGE('',*,*,#434,.F.);
#688=ORIENTED_EDGE('',*,*,#438,.F.);
#689=ORIENTED_EDGE('',*,*,#505,.F.);
#690=ORIENTED_EDGE('',*,*,#424,.F.);
#691=ORIENTED_EDGE('',*,*,#506,.F.);
#692=ORIENTED_EDGE('',*,*,#507,.F.);
#693=ORIENTED_EDGE('',*,*,#410,.F.);
#694=ORIENTED_EDGE('',*,*,#508,.F.);
#695=ORIENTED_EDGE('',*,*,#509,.F.);
#696=ORIENTED_EDGE('',*,*,#510,.F.);
#697=ORIENTED_EDGE('',*,*,#511,.F.);
#698=ORIENTED_EDGE('',*,*,#414,.F.);
#699=ORIENTED_EDGE('',*,*,#512,.F.);
#700=ORIENTED_EDGE('',*,*,#423,.T.);
#701=ORIENTED_EDGE('',*,*,#494,.F.);
#702=ORIENTED_EDGE('',*,*,#496,.F.);
#703=ORIENTED_EDGE('',*,*,#431,.F.);
#704=ORIENTED_EDGE('',*,*,#499,.F.);
#705=ORIENTED_EDGE('',*,*,#489,.F.);
#706=ORIENTED_EDGE('',*,*,#513,.F.);
#707=ORIENTED_EDGE('',*,*,#505,.T.);
#708=ORIENTED_EDGE('',*,*,#413,.T.);
#709=ORIENTED_EDGE('',*,*,#514,.F.);
#710=ORIENTED_EDGE('',*,*,#515,.F.);
#711=ORIENTED_EDGE('',*,*,#511,.T.);
#712=ORIENTED_EDGE('',*,*,#409,.T.);
#713=ORIENTED_EDGE('',*,*,#500,.F.);
#714=ORIENTED_EDGE('',*,*,#455,.F.);
#715=ORIENTED_EDGE('',*,*,#460,.F.);
#716=ORIENTED_EDGE('',*,*,#495,.F.);
#717=ORIENTED_EDGE('',*,*,#446,.F.);
#718=ORIENTED_EDGE('',*,*,#435,.F.);
#719=ORIENTED_EDGE('',*,*,#504,.F.);
#720=ORIENTED_EDGE('',*,*,#516,.F.);
#721=ORIENTED_EDGE('',*,*,#507,.T.);
#722=ORIENTED_EDGE('',*,*,#517,.F.);
#723=ORIENTED_EDGE('',*,*,#509,.T.);
#724=ORIENTED_EDGE('',*,*,#518,.T.);
#725=ORIENTED_EDGE('',*,*,#519,.F.);
#726=ORIENTED_EDGE('',*,*,#471,.F.);
#727=ORIENTED_EDGE('',*,*,#476,.F.);
#728=ORIENTED_EDGE('',*,*,#490,.F.);
#729=ORIENTED_EDGE('',*,*,#463,.F.);
#730=ORIENTED_EDGE('',*,*,#450,.F.);
#731=ORIENTED_EDGE('',*,*,#502,.F.);
#732=ORIENTED_EDGE('',*,*,#472,.F.);
#733=ORIENTED_EDGE('',*,*,#519,.T.);
#734=ORIENTED_EDGE('',*,*,#520,.T.);
#735=ORIENTED_EDGE('',*,*,#514,.T.);
#736=ORIENTED_EDGE('',*,*,#422,.T.);
#737=ORIENTED_EDGE('',*,*,#466,.F.);
#738=ORIENTED_EDGE('',*,*,#469,.F.);
#739=ORIENTED_EDGE('',*,*,#521,.F.);
#740=ORIENTED_EDGE('',*,*,#522,.T.);
#741=ORIENTED_EDGE('',*,*,#512,.T.);
#742=ORIENTED_EDGE('',*,*,#522,.F.);
#743=ORIENTED_EDGE('',*,*,#523,.F.);
#744=ORIENTED_EDGE('',*,*,#524,.T.);
#745=ORIENTED_EDGE('',*,*,#510,.T.);
#746=ORIENTED_EDGE('',*,*,#524,.F.);
#747=ORIENTED_EDGE('',*,*,#525,.F.);
#748=ORIENTED_EDGE('',*,*,#526,.T.);
#749=ORIENTED_EDGE('',*,*,#506,.T.);
#750=ORIENTED_EDGE('',*,*,#526,.F.);
#751=ORIENTED_EDGE('',*,*,#527,.F.);
#752=ORIENTED_EDGE('',*,*,#528,.T.);
#753=ORIENTED_EDGE('',*,*,#508,.T.);
#754=ORIENTED_EDGE('',*,*,#528,.F.);
#755=ORIENTED_EDGE('',*,*,#529,.F.);
#756=ORIENTED_EDGE('',*,*,#530,.F.);
#757=ORIENTED_EDGE('',*,*,#531,.F.);
#758=ORIENTED_EDGE('',*,*,#487,.F.);
#759=ORIENTED_EDGE('',*,*,#531,.T.);
#760=ORIENTED_EDGE('',*,*,#532,.F.);
#761=ORIENTED_EDGE('',*,*,#529,.T.);
#762=ORIENTED_EDGE('',*,*,#486,.F.);
#763=ORIENTED_EDGE('',*,*,#415,.F.);
#764=ORIENTED_EDGE('',*,*,#515,.T.);
#765=ORIENTED_EDGE('',*,*,#520,.F.);
#766=ORIENTED_EDGE('',*,*,#518,.F.);
#767=ORIENTED_EDGE('',*,*,#517,.T.);
#768=ORIENTED_EDGE('',*,*,#501,.F.);
#769=ORIENTED_EDGE('',*,*,#411,.F.);
#770=ORIENTED_EDGE('',*,*,#516,.T.);
#771=ORIENTED_EDGE('',*,*,#503,.F.);
#772=ORIENTED_EDGE('',*,*,#425,.F.);
#773=ORIENTED_EDGE('',*,*,#513,.T.);
#774=ORIENTED_EDGE('',*,*,#488,.F.);
#775=ORIENTED_EDGE('',*,*,#532,.T.);
#776=ORIENTED_EDGE('',*,*,#530,.T.);
#777=ORIENTED_EDGE('',*,*,#527,.T.);
#778=ORIENTED_EDGE('',*,*,#525,.T.);
#779=ORIENTED_EDGE('',*,*,#523,.T.);
#780=ORIENTED_EDGE('',*,*,#521,.T.);
#781=CYLINDRICAL_SURFACE('',#865,3.25);
#782=CYLINDRICAL_SURFACE('',#868,3.25);
#783=CYLINDRICAL_SURFACE('',#873,3.25);
#784=CYLINDRICAL_SURFACE('',#877,0.8);
#785=CYLINDRICAL_SURFACE('',#879,0.8);
#786=CYLINDRICAL_SURFACE('',#885,0.8);
#787=CYLINDRICAL_SURFACE('',#887,1.);
#788=CYLINDRICAL_SURFACE('',#890,0.8);
#789=CYLINDRICAL_SURFACE('',#896,0.8);
#790=CYLINDRICAL_SURFACE('',#898,1.);
#791=CYLINDRICAL_SURFACE('',#901,0.8);
#792=CYLINDRICAL_SURFACE('',#907,0.8);
#793=CYLINDRICAL_SURFACE('',#909,1.);
#794=CYLINDRICAL_SURFACE('',#912,0.8);
#795=CYLINDRICAL_SURFACE('',#946,3.25);
#796=CYLINDRICAL_SURFACE('',#947,3.25);
#797=CYLINDRICAL_SURFACE('',#949,3.25);
#798=CYLINDRICAL_SURFACE('',#950,3.25);
#799=CYLINDRICAL_SURFACE('',#954,1.6);
#800=CYLINDRICAL_SURFACE('',#956,1.6);
#801=CYLINDRICAL_SURFACE('',#958,1.6);
#802=CYLINDRICAL_SURFACE('',#960,1.6);
#803=CYLINDRICAL_SURFACE('',#963,10.25);
#804=ADVANCED_FACE('',(#56),#781,.F.);
#805=ADVANCED_FACE('',(#57),#782,.F.);
#806=ADVANCED_FACE('',(#58),#783,.F.);
#807=ADVANCED_FACE('',(#59),#784,.F.);
#808=ADVANCED_FACE('',(#60),#785,.F.);
#809=ADVANCED_FACE('',(#61),#44,.F.);
#810=ADVANCED_FACE('',(#62),#786,.F.);
#811=ADVANCED_FACE('',(#63),#24,.T.);
#812=ADVANCED_FACE('',(#64),#787,.T.);
#813=ADVANCED_FACE('',(#65),#25,.T.);
#814=ADVANCED_FACE('',(#66),#788,.F.);
#815=ADVANCED_FACE('',(#67),#45,.F.);
#816=ADVANCED_FACE('',(#68),#789,.F.);
#817=ADVANCED_FACE('',(#69),#26,.T.);
#818=ADVANCED_FACE('',(#70),#790,.T.);
#819=ADVANCED_FACE('',(#71),#27,.T.);
#820=ADVANCED_FACE('',(#72),#791,.F.);
#821=ADVANCED_FACE('',(#73),#46,.F.);
#822=ADVANCED_FACE('',(#74),#792,.F.);
#823=ADVANCED_FACE('',(#75),#28,.T.);
#824=ADVANCED_FACE('',(#76),#793,.T.);
#825=ADVANCED_FACE('',(#77),#29,.T.);
#826=ADVANCED_FACE('',(#78),#794,.F.);
#827=ADVANCED_FACE('',(#79),#23,.T.);
#828=ADVANCED_FACE('',(#80),#30,.T.);
#829=ADVANCED_FACE('',(#81),#31,.T.);
#830=ADVANCED_FACE('',(#82),#32,.T.);
#831=ADVANCED_FACE('',(#83),#33,.T.);
#832=ADVANCED_FACE('',(#84),#34,.T.);
#833=ADVANCED_FACE('',(#85),#35,.T.);
#834=ADVANCED_FACE('',(#86),#36,.T.);
#835=ADVANCED_FACE('',(#87,#15),#37,.T.);
#836=ADVANCED_FACE('',(#88,#16),#38,.T.);
#837=ADVANCED_FACE('',(#89,#17),#39,.T.);
#838=ADVANCED_FACE('',(#90,#18),#40,.T.);
#839=ADVANCED_FACE('',(#91),#795,.F.);
#840=ADVANCED_FACE('',(#92),#796,.F.);
#841=ADVANCED_FACE('',(#93),#797,.F.);
#842=ADVANCED_FACE('',(#94),#798,.F.);
#843=ADVANCED_FACE('',(#95),#41,.T.);
#844=ADVANCED_FACE('',(#96),#799,.F.);
#845=ADVANCED_FACE('',(#97),#800,.F.);
#846=ADVANCED_FACE('',(#98),#801,.F.);
#847=ADVANCED_FACE('',(#99),#802,.F.);
#848=ADVANCED_FACE('',(#100),#42,.T.);
#849=ADVANCED_FACE('',(#101),#803,.T.);
#850=ADVANCED_FACE('',(#102,#19,#20,#21,#22),#43,.F.);
#851=CLOSED_SHELL('',(#804,#805,#806,#807,#808,#809,#810,#811,#812,#813,
#814,#815,#816,#817,#818,#819,#820,#821,#822,#823,#824,#825,#826,#827,#828,
#829,#830,#831,#832,#833,#834,#835,#836,#837,#838,#839,#840,#841,#842,#843,
#844,#845,#846,#847,#848,#849,#850));
#852=DERIVED_UNIT_ELEMENT(#854,1.);
#853=DERIVED_UNIT_ELEMENT(#1585,-3.);
#854=(
MASS_UNIT()
NAMED_UNIT(*)
SI_UNIT(.KILO.,.GRAM.)
);
#855=DERIVED_UNIT((#852,#853));
#856=MEASURE_REPRESENTATION_ITEM('density measure',
POSITIVE_RATIO_MEASURE(7850.),#855);
#857=PROPERTY_DEFINITION_REPRESENTATION(#862,#859);
#858=PROPERTY_DEFINITION_REPRESENTATION(#863,#860);
#859=REPRESENTATION('material name',(#861),#1582);
#860=REPRESENTATION('density',(#856),#1582);
#861=DESCRIPTIVE_REPRESENTATION_ITEM('Steel','Steel');
#862=PROPERTY_DEFINITION('material property','material name',#1592);
#863=PROPERTY_DEFINITION('material property','density of part',#1592);
#864=AXIS2_PLACEMENT_3D('',#1231,#966,#967);
#865=AXIS2_PLACEMENT_3D('',#1232,#968,#969);
#866=AXIS2_PLACEMENT_3D('',#1237,#971,#972);
#867=AXIS2_PLACEMENT_3D('',#1240,#974,#975);
#868=AXIS2_PLACEMENT_3D('',#1241,#976,#977);
#869=AXIS2_PLACEMENT_3D('',#1246,#979,#980);
#870=AXIS2_PLACEMENT_3D('',#1250,#982,#983);
#871=AXIS2_PLACEMENT_3D('',#1267,#985,#986);
#872=AXIS2_PLACEMENT_3D('',#1283,#988,#989);
#873=AXIS2_PLACEMENT_3D('',#1284,#990,#991);
#874=AXIS2_PLACEMENT_3D('',#1289,#993,#994);
#875=AXIS2_PLACEMENT_3D('',#1293,#996,#997);
#876=AXIS2_PLACEMENT_3D('',#1309,#999,#1000);
#877=AXIS2_PLACEMENT_3D('',#1310,#1001,#1002);
#878=AXIS2_PLACEMENT_3D('',#1313,#1003,#1004);
#879=AXIS2_PLACEMENT_3D('',#1328,#1006,#1007);
#880=AXIS2_PLACEMENT_3D('',#1331,#1008,#1009);
#881=AXIS2_PLACEMENT_3D('',#1348,#1012,#1013);
#882=AXIS2_PLACEMENT_3D('',#1351,#1014,#1015);
#883=AXIS2_PLACEMENT_3D('',#1352,#1016,#1017);
#884=AXIS2_PLACEMENT_3D('',#1353,#1018,#1019);
#885=AXIS2_PLACEMENT_3D('',#1354,#1020,#1021);
#886=AXIS2_PLACEMENT_3D('',#1357,#1024,#1025);
#887=AXIS2_PLACEMENT_3D('',#1361,#1028,#1029);
#888=AXIS2_PLACEMENT_3D('',#1364,#1031,#1032);
#889=AXIS2_PLACEMENT_3D('',#1365,#1033,#1034);
#890=AXIS2_PLACEMENT_3D('',#1369,#1037,#1038);
#891=AXIS2_PLACEMENT_3D('',#1372,#1039,#1040);
#892=AXIS2_PLACEMENT_3D('',#1389,#1043,#1044);
#893=AXIS2_PLACEMENT_3D('',#1392,#1045,#1046);
#894=AXIS2_PLACEMENT_3D('',#1393,#1047,#1048);
#895=AXIS2_PLACEMENT_3D('',#1394,#1049,#1050);
#896=AXIS2_PLACEMENT_3D('',#1395,#1051,#1052);
#897=AXIS2_PLACEMENT_3D('',#1412,#1055,#1056);
#898=AXIS2_PLACEMENT_3D('',#1418,#1060,#1061);
#899=AXIS2_PLACEMENT_3D('',#1421,#1063,#1064);
#900=AXIS2_PLACEMENT_3D('',#1422,#1065,#1066);
#901=AXIS2_PLACEMENT_3D('',#1426,#1069,#1070);
#902=AXIS2_PLACEMENT_3D('',#1429,#1071,#1072);
#903=AXIS2_PLACEMENT_3D('',#1432,#1075,#1076);
#904=AXIS2_PLACEMENT_3D('',#1435,#1077,#1078);
#905=AXIS2_PLACEMENT_3D('',#1436,#1079,#1080);
#906=AXIS2_PLACEMENT_3D('',#1437,#1081,#1082);
#907=AXIS2_PLACEMENT_3D('',#1438,#1083,#1084);
#908=AXIS2_PLACEMENT_3D('',#1455,#1087,#1088);
#909=AXIS2_PLACEMENT_3D('',#1461,#1092,#1093);
#910=AXIS2_PLACEMENT_3D('',#1464,#1095,#1096);
#911=AXIS2_PLACEMENT_3D('',#1465,#1097,#1098);
#912=AXIS2_PLACEMENT_3D('',#1467,#1100,#1101);
#913=AXIS2_PLACEMENT_3D('',#1470,#1102,#1103);
#914=AXIS2_PLACEMENT_3D('',#1489,#1106,#1107);
#915=AXIS2_PLACEMENT_3D('',#1490,#1108,#1109);
#916=AXIS2_PLACEMENT_3D('',#1491,#1110,#1111);
#917=AXIS2_PLACEMENT_3D('',#1495,#1113,#1114);
#918=AXIS2_PLACEMENT_3D('',#1498,#1116,#1117);
#919=AXIS2_PLACEMENT_3D('',#1499,#1118,#1119);
#920=AXIS2_PLACEMENT_3D('',#1500,#1120,#1121);
#921=AXIS2_PLACEMENT_3D('',#1501,#1122,#1123);
#922=AXIS2_PLACEMENT_3D('',#1508,#1127,#1128);
#923=AXIS2_PLACEMENT_3D('',#1509,#1129,#1130);
#924=AXIS2_PLACEMENT_3D('',#1510,#1131,#1132);
#925=AXIS2_PLACEMENT_3D('',#1513,#1135,#1136);
#926=AXIS2_PLACEMENT_3D('',#1515,#1138,#1139);
#927=AXIS2_PLACEMENT_3D('',#1517,#1141,#1142);
#928=AXIS2_PLACEMENT_3D('',#1518,#1143,#1144);
#929=AXIS2_PLACEMENT_3D('',#1520,#1145,#1146);
#930=AXIS2_PLACEMENT_3D('',#1521,#1147,#1148);
#931=AXIS2_PLACEMENT_3D('',#1522,#1149,#1150);
#932=AXIS2_PLACEMENT_3D('',#1523,#1151,#1152);
#933=AXIS2_PLACEMENT_3D('',#1524,#1153,#1154);
#934=AXIS2_PLACEMENT_3D('',#1525,#1155,#1156);
#935=AXIS2_PLACEMENT_3D('',#1526,#1157,#1158);
#936=AXIS2_PLACEMENT_3D('',#1528,#1159,#1160);
#937=AXIS2_PLACEMENT_3D('',#1529,#1161,#1162);
#938=AXIS2_PLACEMENT_3D('',#1530,#1163,#1164);
#939=AXIS2_PLACEMENT_3D('',#1532,#1165,#1166);
#940=AXIS2_PLACEMENT_3D('',#1533,#1167,#1168);
#941=AXIS2_PLACEMENT_3D('',#1535,#1169,#1170);
#942=AXIS2_PLACEMENT_3D('',#1537,#1171,#1172);
#943=AXIS2_PLACEMENT_3D('',#1538,#1173,#1174);
#944=AXIS2_PLACEMENT_3D('',#1539,#1175,#1176);
#945=AXIS2_PLACEMENT_3D('',#1541,#1177,#1178);
#946=AXIS2_PLACEMENT_3D('',#1542,#1179,#1180);
#947=AXIS2_PLACEMENT_3D('',#1544,#1182,#1183);
#948=AXIS2_PLACEMENT_3D('',#1545,#1184,#1185);
#949=AXIS2_PLACEMENT_3D('',#1547,#1187,#1188);
#950=AXIS2_PLACEMENT_3D('',#1549,#1190,#1191);
#951=AXIS2_PLACEMENT_3D('',#1552,#1194,#1195);
#952=AXIS2_PLACEMENT_3D('',#1553,#1196,#1197);
#953=AXIS2_PLACEMENT_3D('',#1554,#1198,#1199);
#954=AXIS2_PLACEMENT_3D('',#1555,#1200,#1201);
#955=AXIS2_PLACEMENT_3D('',#1557,#1202,#1203);
#956=AXIS2_PLACEMENT_3D('',#1559,#1205,#1206);
#957=AXIS2_PLACEMENT_3D('',#1561,#1207,#1208);
#958=AXIS2_PLACEMENT_3D('',#1563,#1210,#1211);
#959=AXIS2_PLACEMENT_3D('',#1565,#1212,#1213);
#960=AXIS2_PLACEMENT_3D('',#1567,#1215,#1216);
#961=AXIS2_PLACEMENT_3D('',#1569,#1217,#1218);
#962=AXIS2_PLACEMENT_3D('',#1571,#1220,#1221);
#963=AXIS2_PLACEMENT_3D('',#1577,#1225,#1226);
#964=AXIS2_PLACEMENT_3D('',#1578,#1227,#1228);
#965=AXIS2_PLACEMENT_3D('',#1579,#1229,#1230);
#966=DIRECTION('axis',(0.,0.,1.));
#967=DIRECTION('refdir',(1.,0.,0.));
#968=DIRECTION('center_axis',(0.,1.,0.));
#969=DIRECTION('ref_axis',(1.,0.,0.));
#970=DIRECTION('',(0.,1.,0.));
#971=DIRECTION('center_axis',(0.,-1.,0.));
#972=DIRECTION('ref_axis',(1.,0.,0.));
#973=DIRECTION('',(0.,1.,0.));
#974=DIRECTION('center_axis',(0.,-1.,0.));
#975=DIRECTION('ref_axis',(1.,0.,0.));
#976=DIRECTION('center_axis',(0.,1.,0.));
#977=DIRECTION('ref_axis',(1.,0.,0.));
#978=DIRECTION('',(0.,1.,0.));
#979=DIRECTION('center_axis',(0.,-1.,0.));
#980=DIRECTION('ref_axis',(1.,0.,0.));
#981=DIRECTION('',(0.,1.,0.));
#982=DIRECTION('center_axis',(0.,-1.,0.));
#983=DIRECTION('ref_axis',(1.,0.,0.));
#984=DIRECTION('',(0.,-1.,0.));
#985=DIRECTION('center_axis',(0.,-1.,0.));
#986=DIRECTION('ref_axis',(-1.,0.,0.));
#987=DIRECTION('',(0.,1.,0.));
#988=DIRECTION('center_axis',(0.,-1.,0.));
#989=DIRECTION('ref_axis',(1.,0.,0.));
#990=DIRECTION('center_axis',(0.,1.,0.));
#991=DIRECTION('ref_axis',(1.,0.,0.));
#992=DIRECTION('',(0.,1.,0.));
#993=DIRECTION('center_axis',(0.,-1.,0.));
#994=DIRECTION('ref_axis',(1.,0.,0.));
#995=DIRECTION('',(0.,1.,0.));
#996=DIRECTION('center_axis',(0.,-1.,0.));
#997=DIRECTION('ref_axis',(1.,0.,0.));
#998=DIRECTION('',(0.,-1.,0.));
#999=DIRECTION('center_axis',(0.,-1.,0.));
#1000=DIRECTION('ref_axis',(-6.12323399573677E-17,0.,1.));
#1001=DIRECTION('center_axis',(1.95921710227969E-16,0.,1.));
#1002=DIRECTION('ref_axis',(-0.707106781186547,-0.707106781186548,0.));
#1003=DIRECTION('center_axis',(0.707106781186548,0.,0.707106781186547));
#1004=DIRECTION('ref_axis',(-0.707106781186547,0.,0.707106781186548));
#1005=DIRECTION('',(1.95921710227969E-16,0.,1.));
#1006=DIRECTION('center_axis',(1.,0.,-6.53072367426563E-17));
#1007=DIRECTION('ref_axis',(0.,-0.707106781186548,0.707106781186547));
#1008=DIRECTION('center_axis',(1.,0.,0.));
#1009=DIRECTION('ref_axis',(0.,0.,1.));
#1010=DIRECTION('',(-1.,0.,6.53072367426563E-17));
#1011=DIRECTION('',(1.,0.,-6.53072367426563E-17));
#1012=DIRECTION('center_axis',(0.,1.,0.));
#1013=DIRECTION('ref_axis',(0.,0.,1.));
#1014=DIRECTION('center_axis',(0.,0.,1.));
#1015=DIRECTION('ref_axis',(-1.,0.,0.));
#1016=DIRECTION('center_axis',(0.,1.,0.));
#1017=DIRECTION('ref_axis',(0.707106781186547,0.,-0.707106781186547));
#1018=DIRECTION('center_axis',(0.,-1.,0.));
#1019=DIRECTION('ref_axis',(0.707106781186548,0.,-0.707106781186548));
#1020=DIRECTION('center_axis',(1.95921710227969E-16,0.,1.));
#1021=DIRECTION('ref_axis',(-0.707106781186547,-0.707106781186548,0.));
#1022=DIRECTION('',(-1.95921710227969E-16,0.,-1.));
#1023=DIRECTION('',(1.95921710227969E-16,0.,1.));
#1024=DIRECTION('center_axis',(1.,0.,-1.95921710227969E-16));
#1025=DIRECTION('ref_axis',(-1.95921710227969E-16,0.,-1.));
#1026=DIRECTION('',(0.,-1.,0.));
#1027=DIRECTION('',(-1.95921710227969E-16,0.,-1.));
#1028=DIRECTION('center_axis',(0.,1.,0.));
#1029=DIRECTION('ref_axis',(0.707106781186548,0.,-0.707106781186548));
#1030=DIRECTION('',(0.,1.,0.));
#1031=DIRECTION('center_axis',(0.,-1.,0.));
#1032=DIRECTION('ref_axis',(0.707106781186548,0.,-0.707106781186548));
#1033=DIRECTION('center_axis',(-6.53072367426563E-17,0.,-1.));
#1034=DIRECTION('ref_axis',(-1.,0.,6.53072367426563E-17));
#1035=DIRECTION('',(0.,1.,0.));
#1036=DIRECTION('',(-1.,0.,6.53072367426563E-17));
#1037=DIRECTION('center_axis',(-1.95921710227969E-16,0.,-1.));
#1038=DIRECTION('ref_axis',(0.707106781186548,-0.707106781186547,-4.90653893338679E-16));
#1039=DIRECTION('center_axis',(-6.93889390390723E-16,0.,-1.));
#1040=DIRECTION('ref_axis',(1.,0.,-6.93889390390723E-16));
#1041=DIRECTION('',(1.95921710227969E-16,0.,1.));
#1042=DIRECTION('',(-1.95921710227969E-16,0.,-1.));
#1043=DIRECTION('center_axis',(0.,1.,0.));
#1044=DIRECTION('ref_axis',(0.,0.,1.));
#1045=DIRECTION('center_axis',(1.,0.,0.));
#1046=DIRECTION('ref_axis',(0.,0.,1.));
#1047=DIRECTION('center_axis',(0.,1.,0.));
#1048=DIRECTION('ref_axis',(-0.707106781186547,0.,-0.707106781186548));
#1049=DIRECTION('center_axis',(0.,-1.,0.));
#1050=DIRECTION('ref_axis',(-0.707106781186547,0.,-0.707106781186548));
#1051=DIRECTION('center_axis',(1.,0.,-6.53072367426563E-17));
#1052=DIRECTION('ref_axis',(0.,-0.707106781186548,0.707106781186547));
#1053=DIRECTION('',(-1.,0.,6.53072367426563E-17));
#1054=DIRECTION('',(1.,0.,-6.53072367426563E-17));
#1055=DIRECTION('center_axis',(-6.53072367426563E-17,0.,-1.));
#1056=DIRECTION('ref_axis',(-1.,0.,6.53072367426563E-17));
#1057=DIRECTION('',(0.,-1.,0.));
#1058=DIRECTION('',(-1.,0.,6.53072367426563E-17));
#1059=DIRECTION('',(0.,-1.,0.));
#1060=DIRECTION('center_axis',(0.,1.,0.));
#1061=DIRECTION('ref_axis',(-0.707106781186548,0.,-0.707106781186548));
#1062=DIRECTION('',(0.,1.,0.));
#1063=DIRECTION('center_axis',(0.,-1.,0.));
#1064=DIRECTION('ref_axis',(-0.707106781186548,0.,-0.707106781186548));
#1065=DIRECTION('center_axis',(-1.,0.,1.95921710227969E-16));
#1066=DIRECTION('ref_axis',(1.95921710227969E-16,0.,1.));
#1067=DIRECTION('',(0.,1.,0.));
#1068=DIRECTION('',(1.95921710227969E-16,0.,1.));
#1069=DIRECTION('center_axis',(-1.,0.,-2.61228946970625E-16));
#1070=DIRECTION('ref_axis',(0.,-0.707106781186548,-0.707106781186547));
#1071=DIRECTION('center_axis',(-1.,0.,0.));
#1072=DIRECTION('ref_axis',(0.,0.,-1.));
#1073=DIRECTION('',(1.,0.,2.61228946970625E-16));
#1074=DIRECTION('',(-1.,0.,-2.61228946970625E-16));
#1075=DIRECTION('center_axis',(0.,1.,0.));
#1076=DIRECTION('ref_axis',(0.,0.,1.));
#1077=DIRECTION('center_axis',(0.,0.,-1.));
#1078=DIRECTION('ref_axis',(1.,0.,0.));
#1079=DIRECTION('center_axis',(0.,1.,0.));
#1080=DIRECTION('ref_axis',(-0.707106781186547,0.,0.707106781186548));
#1081=DIRECTION('center_axis',(0.,-1.,0.));
#1082=DIRECTION('ref_axis',(-0.707106781186547,0.,0.707106781186548));
#1083=DIRECTION('center_axis',(-1.95921710227969E-16,0.,-1.));
#1084=DIRECTION('ref_axis',(0.707106781186548,-0.707106781186547,-4.90653893338679E-16));
#1085=DIRECTION('',(1.95921710227969E-16,0.,1.));
#1086=DIRECTION('',(-1.95921710227969E-16,0.,-1.));
#1087=DIRECTION('center_axis',(-1.,0.,1.95921710227969E-16));
#1088=DIRECTION('ref_axis',(1.95921710227969E-16,0.,1.));
#1089=DIRECTION('',(0.,-1.,0.));
#1090=DIRECTION('',(1.95921710227969E-16,0.,1.));
#1091=DIRECTION('',(0.,-1.,0.));
#1092=DIRECTION('center_axis',(0.,1.,0.));
#1093=DIRECTION('ref_axis',(-0.707106781186547,0.,0.707106781186548));
#1094=DIRECTION('',(0.,1.,0.));
#1095=DIRECTION('center_axis',(0.,-1.,0.));
#1096=DIRECTION('ref_axis',(-0.707106781186547,0.,0.707106781186548));
#1097=DIRECTION('center_axis',(-2.61228946970625E-16,0.,1.));
#1098=DIRECTION('ref_axis',(1.,0.,2.61228946970625E-16));
#1099=DIRECTION('',(1.,0.,2.61228946970625E-16));
#1100=DIRECTION('center_axis',(-1.,0.,-2.61228946970625E-16));
#1101=DIRECTION('ref_axis',(0.,-0.707106781186548,-0.707106781186547));
#1102=DIRECTION('center_axis',(1.,0.,6.93889390390724E-16));
#1103=DIRECTION('ref_axis',(0.,-1.,0.));
#1104=DIRECTION('',(-1.,0.,-2.61228946970625E-16));
#1105=DIRECTION('',(1.,0.,2.61228946970625E-16));
#1106=DIRECTION('center_axis',(0.707106781186548,0.,0.707106781186547));
#1107=DIRECTION('ref_axis',(0.707106781186547,0.,-0.707106781186548));
#1108=DIRECTION('center_axis',(0.,1.,0.));
#1109=DIRECTION('ref_axis',(6.93889390390723E-16,0.,-1.));
#1110=DIRECTION('center_axis',(0.,1.,0.));
#1111=DIRECTION('ref_axis',(1.,0.,0.));
#1112=DIRECTION('',(-0.707106781186547,0.,0.707106781186548));
#1113=DIRECTION('center_axis',(0.,1.,0.));
#1114=DIRECTION('ref_axis',(1.,0.,0.));
#1115=DIRECTION('',(0.707106781186547,0.,-0.707106781186548));
#1116=DIRECTION('center_axis',(0.,1.,0.));
#1117=DIRECTION('ref_axis',(1.,0.,0.));
#1118=DIRECTION('center_axis',(0.,-1.,0.));
#1119=DIRECTION('ref_axis',(1.,0.,0.));
#1120=DIRECTION('center_axis',(0.,1.,0.));
#1121=DIRECTION('ref_axis',(0.,0.,1.));
#1122=DIRECTION('center_axis',(0.,-1.,0.));
#1123=DIRECTION('ref_axis',(1.83697019872103E-16,0.,-1.));
#1124=DIRECTION('',(1.,0.,2.61228946970625E-16));
#1125=DIRECTION('',(0.707106781186547,0.,-0.707106781186548));
#1126=DIRECTION('',(-1.95921710227969E-16,0.,-1.));
#1127=DIRECTION('center_axis',(0.,-1.,0.));
#1128=DIRECTION('ref_axis',(-6.12323399573677E-17,0.,1.));
#1129=DIRECTION('center_axis',(0.,-1.,0.));
#1130=DIRECTION('ref_axis',(1.,0.,1.22464679914735E-16));
#1131=DIRECTION('center_axis',(1.,0.,-1.95921710227969E-16));
#1132=DIRECTION('ref_axis',(-1.95921710227969E-16,0.,-1.));
#1133=DIRECTION('',(0.,1.,0.));
#1134=DIRECTION('',(0.,-1.,0.));
#1135=DIRECTION('center_axis',(-2.61228946970625E-16,0.,1.));
#1136=DIRECTION('ref_axis',(1.,0.,2.61228946970625E-16));
#1137=DIRECTION('',(0.,1.,0.));
#1138=DIRECTION('center_axis',(0.707106781186548,0.,0.707106781186547));
#1139=DIRECTION('ref_axis',(0.707106781186547,0.,-0.707106781186548));
#1140=DIRECTION('',(0.,-1.,0.));
#1141=DIRECTION('center_axis',(0.,1.,0.));
#1142=DIRECTION('ref_axis',(1.,0.,0.));
#1143=DIRECTION('center_axis',(0.,-1.,0.));
#1144=DIRECTION('ref_axis',(1.,0.,0.));
#1145=DIRECTION('center_axis',(0.,1.,0.));
#1146=DIRECTION('ref_axis',(1.,0.,0.));
#1147=DIRECTION('center_axis',(0.,-1.,0.));
#1148=DIRECTION('ref_axis',(1.,0.,0.));
#1149=DIRECTION('center_axis',(0.,1.,0.));
#1150=DIRECTION('ref_axis',(1.,0.,0.));
#1151=DIRECTION('center_axis',(0.,1.,0.));
#1152=DIRECTION('ref_axis',(1.,0.,0.));
#1153=DIRECTION('center_axis',(0.,-1.,0.));
#1154=DIRECTION('ref_axis',(1.,0.,0.));
#1155=DIRECTION('center_axis',(0.,1.,0.));
#1156=DIRECTION('ref_axis',(1.,0.,0.));
#1157=DIRECTION('center_axis',(0.,-1.,0.));
#1158=DIRECTION('ref_axis',(1.,0.,0.));
#1159=DIRECTION('center_axis',(0.,1.,0.));
#1160=DIRECTION('ref_axis',(1.,0.,0.));
#1161=DIRECTION('center_axis',(0.,1.,0.));
#1162=DIRECTION('ref_axis',(1.,0.,0.));
#1163=DIRECTION('center_axis',(0.,-1.,0.));
#1164=DIRECTION('ref_axis',(1.,0.,0.));
#1165=DIRECTION('center_axis',(0.,1.,0.));
#1166=DIRECTION('ref_axis',(1.,0.,0.));
#1167=DIRECTION('center_axis',(0.,1.,0.));
#1168=DIRECTION('ref_axis',(1.,0.,0.));
#1169=DIRECTION('center_axis',(0.,-1.,0.));
#1170=DIRECTION('ref_axis',(1.,0.,0.));
#1171=DIRECTION('center_axis',(0.,1.,0.));
#1172=DIRECTION('ref_axis',(1.,0.,0.));
#1173=DIRECTION('center_axis',(0.,1.,0.));
#1174=DIRECTION('ref_axis',(1.,0.,0.));
#1175=DIRECTION('center_axis',(0.,-1.,0.));
#1176=DIRECTION('ref_axis',(1.,0.,0.));
#1177=DIRECTION('center_axis',(0.,1.,0.));
#1178=DIRECTION('ref_axis',(1.,0.,0.));
#1179=DIRECTION('center_axis',(0.,1.,0.));
#1180=DIRECTION('ref_axis',(1.,0.,0.));
#1181=DIRECTION('',(0.,1.,0.));
#1182=DIRECTION('center_axis',(0.,1.,0.));
#1183=DIRECTION('ref_axis',(1.,0.,0.));
#1184=DIRECTION('center_axis',(0.,-1.,0.));
#1185=DIRECTION('ref_axis',(1.,0.,0.));
#1186=DIRECTION('',(0.,1.,0.));
#1187=DIRECTION('center_axis',(0.,1.,0.));
#1188=DIRECTION('ref_axis',(1.,0.,0.));
#1189=DIRECTION('',(0.,1.,0.));
#1190=DIRECTION('center_axis',(0.,1.,0.));
#1191=DIRECTION('ref_axis',(1.,0.,0.));
#1192=DIRECTION('',(0.,1.,0.));
#1193=DIRECTION('',(0.,1.,0.));
#1194=DIRECTION('center_axis',(0.,-1.,0.));
#1195=DIRECTION('ref_axis',(1.,0.,0.));
#1196=DIRECTION('center_axis',(0.,1.,0.));
#1197=DIRECTION('ref_axis',(1.,0.,0.));
#1198=DIRECTION('center_axis',(0.,1.,0.));
#1199=DIRECTION('ref_axis',(1.,0.,0.));
#1200=DIRECTION('center_axis',(0.,-1.,0.));
#1201=DIRECTION('ref_axis',(1.,0.,0.));
#1202=DIRECTION('center_axis',(0.,1.,0.));
#1203=DIRECTION('ref_axis',(1.,0.,0.));
#1204=DIRECTION('',(0.,1.,0.));
#1205=DIRECTION('center_axis',(0.,-1.,0.));
#1206=DIRECTION('ref_axis',(1.,0.,0.));
#1207=DIRECTION('center_axis',(0.,1.,0.));
#1208=DIRECTION('ref_axis',(1.,0.,0.));
#1209=DIRECTION('',(0.,1.,0.));
#1210=DIRECTION('center_axis',(0.,-1.,0.));
#1211=DIRECTION('ref_axis',(1.,0.,0.));
#1212=DIRECTION('center_axis',(0.,1.,0.));
#1213=DIRECTION('ref_axis',(1.,0.,0.));
#1214=DIRECTION('',(0.,1.,0.));
#1215=DIRECTION('center_axis',(0.,-1.,0.));
#1216=DIRECTION('ref_axis',(1.,0.,0.));
#1217=DIRECTION('center_axis',(0.,1.,0.));
#1218=DIRECTION('ref_axis',(1.,0.,0.));
#1219=DIRECTION('',(0.,1.,0.));
#1220=DIRECTION('center_axis',(0.707106781186548,0.,0.707106781186547));
#1221=DIRECTION('ref_axis',(-0.707106781186547,0.,0.707106781186548));
#1222=DIRECTION('',(0.,1.,0.));
#1223=DIRECTION('',(-0.707106781186547,0.,0.707106781186548));
#1224=DIRECTION('',(0.,-1.,0.));
#1225=DIRECTION('center_axis',(0.,-1.,0.));
#1226=DIRECTION('ref_axis',(-0.707106781186547,0.,-0.707106781186548));
#1227=DIRECTION('center_axis',(0.,-1.,0.));
#1228=DIRECTION('ref_axis',(1.,0.,0.));
#1229=DIRECTION('center_axis',(0.,1.,0.));
#1230=DIRECTION('ref_axis',(1.,0.,0.));
#1231=CARTESIAN_POINT('',(0.,0.,0.));
#1232=CARTESIAN_POINT('Origin',(0.,0.,-7.));
#1233=CARTESIAN_POINT('',(-3.25,-1.,-7.));
#1234=CARTESIAN_POINT('',(-3.25,2.,-7.));
#1235=CARTESIAN_POINT('',(-3.25,0.,-7.));
#1236=CARTESIAN_POINT('',(0.,-1.,-10.25));
#1237=CARTESIAN_POINT('Origin',(0.,-1.,-7.));
#1238=CARTESIAN_POINT('',(0.,2.,-10.25));
#1239=CARTESIAN_POINT('',(0.,0.,-10.25));
#1240=CARTESIAN_POINT('Origin',(0.,2.,-7.));
#1241=CARTESIAN_POINT('Origin',(-9.79717439317883E-16,0.,7.));
#1242=CARTESIAN_POINT('',(-3.25,-1.,7.));
#1243=CARTESIAN_POINT('',(-3.25,2.,7.));
#1244=CARTESIAN_POINT('',(-3.25,0.,7.));
#1245=CARTESIAN_POINT('',(-1.43458625042976E-15,-1.,10.25));
#1246=CARTESIAN_POINT('Origin',(-9.79717439317883E-16,-1.,7.));
#1247=CARTESIAN_POINT('',(-1.43458625042976E-15,2.,10.25));
#1248=CARTESIAN_POINT('',(-1.43458625042976E-15,0.,10.25));
#1249=CARTESIAN_POINT('',(2.6,2.,5.05));
#1250=CARTESIAN_POINT('Origin',(-9.79717439317883E-16,2.,7.));
#1251=CARTESIAN_POINT('',(1.73205080756888,2.8,4.25));
#1252=CARTESIAN_POINT('Ctrl Pts',(1.73205080756888,2.8,4.25));
#1253=CARTESIAN_POINT('Ctrl Pts',(1.73205080756888,2.74720407803293,4.25));
#1254=CARTESIAN_POINT('Ctrl Pts',(1.74046580364241,2.69540452006476,4.25525733423375));
#1255=CARTESIAN_POINT('Ctrl Pts',(1.77086040115121,2.59606762803214,4.27477114410728));
#1256=CARTESIAN_POINT('Ctrl Pts',(1.79281697745198,2.54852533592588,4.28903823563264));
#1257=CARTESIAN_POINT('Ctrl Pts',(1.87168337746944,2.41479704832144,4.34230797267162));
#1258=CARTESIAN_POINT('Ctrl Pts',(1.94156140962681,2.33741755432843,4.39227524455798));
#1259=CARTESIAN_POINT('Ctrl Pts',(2.10121406263172,2.19251778474656,4.51783875118599));
#1260=CARTESIAN_POINT('Ctrl Pts',(2.20691829837017,2.12226391912356,4.60970662148953));
#1261=CARTESIAN_POINT('Ctrl Pts',(2.41315593513998,2.02578508998406,4.81810417891955));
#1262=CARTESIAN_POINT('Ctrl Pts',(2.51365407586331,2.,4.93487210115108));
#1263=CARTESIAN_POINT('Ctrl Pts',(2.6,2.,5.05));
#1264=CARTESIAN_POINT('',(1.73205080756888,5.5,4.25));
#1265=CARTESIAN_POINT('',(1.73205080756888,0.,4.25));
#1266=CARTESIAN_POINT('',(-1.73205080756888,5.5,4.25));
#1267=CARTESIAN_POINT('Origin',(-9.79717439317883E-16,5.5,7.));
#1268=CARTESIAN_POINT('',(-1.73205080756888,2.8,4.25));
#1269=CARTESIAN_POINT('',(-1.73205080756888,0.,4.25));
#1270=CARTESIAN_POINT('',(-2.6,2.,5.05));
#1271=CARTESIAN_POINT('Ctrl Pts',(-2.6,2.,5.05));
#1272=CARTESIAN_POINT('Ctrl Pts',(-2.51365407586331,2.,4.93487210115107));
#1273=CARTESIAN_POINT('Ctrl Pts',(-2.41315593513998,2.02578508998406,4.81810417891955));
#1274=CARTESIAN_POINT('Ctrl Pts',(-2.20691829837017,2.12226391912356,4.60970662148953));
#1275=CARTESIAN_POINT('Ctrl Pts',(-2.10121406263172,2.19251778474656,4.51783875118598));
#1276=CARTESIAN_POINT('Ctrl Pts',(-1.94156140962682,2.33741755432843,4.39227524455798));
#1277=CARTESIAN_POINT('Ctrl Pts',(-1.87168337746944,2.41479704832144,4.34230797267162));
#1278=CARTESIAN_POINT('Ctrl Pts',(-1.79281697745198,2.54852533592588,4.28903823563264));
#1279=CARTESIAN_POINT('Ctrl Pts',(-1.77086040115121,2.59606762803214,4.27477114410727));
#1280=CARTESIAN_POINT('Ctrl Pts',(-1.74046580364241,2.69540452006476,4.25525733423375));
#1281=CARTESIAN_POINT('Ctrl Pts',(-1.73205080756888,2.74720407803293,4.25));
#1282=CARTESIAN_POINT('Ctrl Pts',(-1.73205080756888,2.8,4.25));
#1283=CARTESIAN_POINT('Origin',(-9.79717439317883E-16,2.,7.));
#1284=CARTESIAN_POINT('Origin',(7.,0.,1.19348975147204E-15));
#1285=CARTESIAN_POINT('',(3.75,-1.,1.59149996119493E-15));
#1286=CARTESIAN_POINT('',(3.75,5.5,1.59149996119493E-15));
#1287=CARTESIAN_POINT('',(3.75,0.,1.59149996119493E-15));
#1288=CARTESIAN_POINT('',(10.25,-1.,1.74760999322692E-15));
#1289=CARTESIAN_POINT('Origin',(7.,-1.,1.19348975147204E-15));
#1290=CARTESIAN_POINT('',(10.25,2.,1.74760999322692E-15));
#1291=CARTESIAN_POINT('',(10.25,0.,1.74760999322692E-15));
#1292=CARTESIAN_POINT('',(5.05,2.,-2.6));
#1293=CARTESIAN_POINT('Origin',(7.,2.,1.19348975147204E-15));
#1294=CARTESIAN_POINT('',(4.25,2.8,-1.73205080756888));
#1295=CARTESIAN_POINT('Ctrl Pts',(4.25,2.8,-1.73205080756888));
#1296=CARTESIAN_POINT('Ctrl Pts',(4.25,2.74720407803293,-1.73205080756888));
#1297=CARTESIAN_POINT('Ctrl Pts',(4.25525733423375,2.69540452006476,-1.74046580364241));
#1298=CARTESIAN_POINT('Ctrl Pts',(4.27477114410728,2.59606762803214,-1.77086040115121));
#1299=CARTESIAN_POINT('Ctrl Pts',(4.28903823563264,2.54852533592588,-1.79281697745198));
#1300=CARTESIAN_POINT('Ctrl Pts',(4.34230797267162,2.41479704832144,-1.87168337746944));
#1301=CARTESIAN_POINT('Ctrl Pts',(4.39227524455798,2.33741755432843,-1.94156140962682));
#1302=CARTESIAN_POINT('Ctrl Pts',(4.51783875118599,2.19251778474656,-2.10121406263172));
#1303=CARTESIAN_POINT('Ctrl Pts',(4.60970662148953,2.12226391912356,-2.20691829837017));
#1304=CARTESIAN_POINT('Ctrl Pts',(4.81810417891955,2.02578508998406,-2.41315593513998));
#1305=CARTESIAN_POINT('Ctrl Pts',(4.93487210115108,2.,-2.51365407586331));
#1306=CARTESIAN_POINT('Ctrl Pts',(5.05,2.,-2.6));
#1307=CARTESIAN_POINT('',(4.25,5.5,-1.73205080756888));
#1308=CARTESIAN_POINT('',(4.25,0.,-1.73205080756888));
#1309=CARTESIAN_POINT('Origin',(7.,5.5,1.40834381901946E-15));
#1310=CARTESIAN_POINT('Origin',(5.05,2.8,1.44617749006091));
#1311=CARTESIAN_POINT('',(4.77418298312497,2.04905061874729,2.3681719970029));
#1312=CARTESIAN_POINT('',(4.25,2.8,2.89235498012183));
#1313=CARTESIAN_POINT('Origin',(5.05,2.8,2.09235498012183));
#1314=CARTESIAN_POINT('',(4.25,2.8,1.73205080756888));
#1315=CARTESIAN_POINT('Ctrl Pts',(4.77418298312512,2.04905061874835,2.36817199700322));
#1316=CARTESIAN_POINT('Ctrl Pts',(4.75371435387406,2.0565685638995,2.34893377302423));
#1317=CARTESIAN_POINT('Ctrl Pts',(4.73359707626079,2.06490813163116,2.32952469993004));
#1318=CARTESIAN_POINT('Ctrl Pts',(4.60970662148953,2.12226391912356,2.20691829837017));
#1319=CARTESIAN_POINT('Ctrl Pts',(4.51783875118599,2.19251778474656,2.10121406263173));
#1320=CARTESIAN_POINT('Ctrl Pts',(4.39227524455798,2.33741755432843,1.94156140962682));
#1321=CARTESIAN_POINT('Ctrl Pts',(4.34230797267162,2.41479704832144,1.87168337746944));
#1322=CARTESIAN_POINT('Ctrl Pts',(4.28903823563264,2.54852533592588,1.79281697745198));
#1323=CARTESIAN_POINT('Ctrl Pts',(4.27477114410728,2.59606762803214,1.77086040115121));
#1324=CARTESIAN_POINT('Ctrl Pts',(4.25525733423376,2.69540452006476,1.74046580364241));
#1325=CARTESIAN_POINT('Ctrl Pts',(4.25,2.74720407803293,1.73205080756888));
#1326=CARTESIAN_POINT('Ctrl Pts',(4.25,2.8,1.73205080756888));
#1327=CARTESIAN_POINT('',(4.25,2.8,1.44617749006091));
#1328=CARTESIAN_POINT('Origin',(2.125,2.8,-5.05));
#1329=CARTESIAN_POINT('',(3.25,2.8,-4.25));
#1330=CARTESIAN_POINT('',(3.25,2.,-5.05));
#1331=CARTESIAN_POINT('Origin',(3.25,2.8,-5.05));
#1332=CARTESIAN_POINT('',(2.6,2.,-5.05));
#1333=CARTESIAN_POINT('',(2.125,2.,-5.05));
#1334=CARTESIAN_POINT('',(1.73205080756888,2.8,-4.25));
#1335=CARTESIAN_POINT('Ctrl Pts',(2.6,2.,-5.05));
#1336=CARTESIAN_POINT('Ctrl Pts',(2.51365407586331,2.,-4.93487210115108));
#1337=CARTESIAN_POINT('Ctrl Pts',(2.41315593513998,2.02578508998406,-4.81810417891955));
#1338=CARTESIAN_POINT('Ctrl Pts',(2.20691829837017,2.12226391912356,-4.60970662148953));
#1339=CARTESIAN_POINT('Ctrl Pts',(2.10121406263172,2.19251778474656,-4.51783875118599));
#1340=CARTESIAN_POINT('Ctrl Pts',(1.94156140962682,2.33741755432843,-4.39227524455798));
#1341=CARTESIAN_POINT('Ctrl Pts',(1.87168337746944,2.41479704832144,-4.34230797267162));
#1342=CARTESIAN_POINT('Ctrl Pts',(1.79281697745198,2.54852533592588,-4.28903823563264));
#1343=CARTESIAN_POINT('Ctrl Pts',(1.77086040115121,2.59606762803214,-4.27477114410728));
#1344=CARTESIAN_POINT('Ctrl Pts',(1.74046580364241,2.69540452006476,-4.25525733423376));
#1345=CARTESIAN_POINT('Ctrl Pts',(1.73205080756888,2.74720407803293,-4.25));
#1346=CARTESIAN_POINT('Ctrl Pts',(1.73205080756888,2.8,-4.25));
#1347=CARTESIAN_POINT('',(2.125,2.8,-4.25));
#1348=CARTESIAN_POINT('Origin',(3.25,2.8,-3.25));
#1349=CARTESIAN_POINT('',(4.25,2.8,-3.25));
#1350=CARTESIAN_POINT('',(5.05,2.,-3.25));
#1351=CARTESIAN_POINT('Origin',(5.05,2.8,-3.25));
#1352=CARTESIAN_POINT('Origin',(3.25,2.,-3.25));
#1353=CARTESIAN_POINT('Origin',(3.25,2.8,-3.25));
#1354=CARTESIAN_POINT('Origin',(5.05,2.8,1.44617749006091));
#1355=CARTESIAN_POINT('',(5.05,2.,1.44617749006091));
#1356=CARTESIAN_POINT('',(4.25,2.8,1.44617749006091));
#1357=CARTESIAN_POINT('Origin',(4.25,0.,2.89235498012183));
#1358=CARTESIAN_POINT('',(4.25,5.5,-3.25));
#1359=CARTESIAN_POINT('',(4.25,0.,-3.25));
#1360=CARTESIAN_POINT('',(4.25,5.5,-4.25));
#1361=CARTESIAN_POINT('Origin',(3.25,0.,-3.25));
#1362=CARTESIAN_POINT('',(3.25,5.5,-4.25));
#1363=CARTESIAN_POINT('',(3.25,0.,-4.25));
#1364=CARTESIAN_POINT('Origin',(3.25,5.5,-3.25));
#1365=CARTESIAN_POINT('Origin',(4.25,0.,-4.25));
#1366=CARTESIAN_POINT('',(1.73205080756888,5.5,-4.25));
#1367=CARTESIAN_POINT('',(1.73205080756888,0.,-4.25));
#1368=CARTESIAN_POINT('',(-4.25,5.5,-4.25));
#1369=CARTESIAN_POINT('Origin',(-5.05,2.8,-2.125));
#1370=CARTESIAN_POINT('',(-4.25,2.8,-3.25));
#1371=CARTESIAN_POINT('',(-5.05,2.,-3.25));
#1372=CARTESIAN_POINT('Origin',(-5.05,2.8,-3.25));
#1373=CARTESIAN_POINT('',(-5.05,2.,-2.6));
#1374=CARTESIAN_POINT('',(-5.05,2.,-2.125));
#1375=CARTESIAN_POINT('',(-4.25,2.8,-1.73205080756888));
#1376=CARTESIAN_POINT('Ctrl Pts',(-5.05,2.,-2.6));
#1377=CARTESIAN_POINT('Ctrl Pts',(-4.94471782222373,2.,-2.5210383666678));
#1378=CARTESIAN_POINT('Ctrl Pts',(-4.83690486535599,2.02168529992616,-2.42938661785481));
#1379=CARTESIAN_POINT('Ctrl Pts',(-4.64198872333844,2.10378873359,-2.24068798729356));
#1380=CARTESIAN_POINT('Ctrl Pts',(-4.55471162512415,2.16391752497737,-2.14369500991485));
#1381=CARTESIAN_POINT('Ctrl Pts',(-4.42083756527853,2.29779158482299,-1.98001855066862));
#1382=CARTESIAN_POINT('Ctrl Pts',(-4.36133506866616,2.37960370414589,-1.89883165404475));
#1383=CARTESIAN_POINT('Ctrl Pts',(-4.29749832076282,2.52341804896361,-1.80566591555019));
#1384=CARTESIAN_POINT('Ctrl Pts',(-4.28032158660524,2.57485795306974,-1.77941745396254));
#1385=CARTESIAN_POINT('Ctrl Pts',(-4.25658297484041,2.68348044050907,-1.74259734499349));
#1386=CARTESIAN_POINT('Ctrl Pts',(-4.25,2.74066692229487,-1.73205080756888));
#1387=CARTESIAN_POINT('Ctrl Pts',(-4.25,2.8,-1.73205080756888));
#1388=CARTESIAN_POINT('',(-4.25,2.8,-2.125));
#1389=CARTESIAN_POINT('Origin',(-3.25,2.8,-3.25));
#1390=CARTESIAN_POINT('',(-3.25,2.8,-4.25));
#1391=CARTESIAN_POINT('',(-3.25,2.,-5.05));
#1392=CARTESIAN_POINT('Origin',(-3.25,2.8,-5.05));
#1393=CARTESIAN_POINT('Origin',(-3.25,2.,-3.25));
#1394=CARTESIAN_POINT('Origin',(-3.25,2.8,-3.25));
#1395=CARTESIAN_POINT('Origin',(2.125,2.8,-5.05));
#1396=CARTESIAN_POINT('',(-1.73205080756888,2.8,-4.25));
#1397=CARTESIAN_POINT('',(-2.6,2.,-5.05));
#1398=CARTESIAN_POINT('Ctrl Pts',(-1.73205080756888,2.8,-4.25));
#1399=CARTESIAN_POINT('Ctrl Pts',(-1.73205080756888,2.74720407803293,-4.25));
#1400=CARTESIAN_POINT('Ctrl Pts',(-1.74046580364241,2.69540452006476,-4.25525733423376));
#1401=CARTESIAN_POINT('Ctrl Pts',(-1.77086040115121,2.59606762803214,-4.27477114410728));
#1402=CARTESIAN_POINT('Ctrl Pts',(-1.79281697745198,2.54852533592588,-4.28903823563264));
#1403=CARTESIAN_POINT('Ctrl Pts',(-1.87168337746944,2.41479704832144,-4.34230797267162));
#1404=CARTESIAN_POINT('Ctrl Pts',(-1.94156140962682,2.33741755432843,-4.39227524455798));
#1405=CARTESIAN_POINT('Ctrl Pts',(-2.10121406263172,2.19251778474656,-4.51783875118599));
#1406=CARTESIAN_POINT('Ctrl Pts',(-2.20691829837017,2.12226391912356,-4.60970662148953));
#1407=CARTESIAN_POINT('Ctrl Pts',(-2.41315593513998,2.02578508998406,-4.81810417891955));
#1408=CARTESIAN_POINT('Ctrl Pts',(-2.51365407586331,2.,-4.93487210115108));
#1409=CARTESIAN_POINT('Ctrl Pts',(-2.6,2.,-5.05));
#1410=CARTESIAN_POINT('',(2.125,2.,-5.05));
#1411=CARTESIAN_POINT('',(2.125,2.8,-4.25));
#1412=CARTESIAN_POINT('Origin',(4.25,0.,-4.25));
#1413=CARTESIAN_POINT('',(-3.25,5.5,-4.25));
#1414=CARTESIAN_POINT('',(-3.25,0.,-4.25));
#1415=CARTESIAN_POINT('',(-1.73205080756888,5.5,-4.25));
#1416=CARTESIAN_POINT('',(-4.25,5.5,-4.25));
#1417=CARTESIAN_POINT('',(-1.73205080756888,0.,-4.25));
#1418=CARTESIAN_POINT('Origin',(-3.25,0.,-3.25));
#1419=CARTESIAN_POINT('',(-4.25,5.5,-3.25));
#1420=CARTESIAN_POINT('',(-4.25,0.,-3.25));
#1421=CARTESIAN_POINT('Origin',(-3.25,5.5,-3.25));
#1422=CARTESIAN_POINT('Origin',(-4.25,0.,-4.25));
#1423=CARTESIAN_POINT('',(-4.25,5.5,-1.73205080756888));
#1424=CARTESIAN_POINT('',(-4.25,0.,-1.73205080756888));
#1425=CARTESIAN_POINT('',(-4.25,5.5,4.25));
#1426=CARTESIAN_POINT('Origin',(-2.125,2.8,5.05));
#1427=CARTESIAN_POINT('',(-3.25,2.8,4.25));
#1428=CARTESIAN_POINT('',(-3.25,2.,5.05));
#1429=CARTESIAN_POINT('Origin',(-3.25,2.8,5.05));
#1430=CARTESIAN_POINT('',(-2.125,2.,5.05));
#1431=CARTESIAN_POINT('',(-2.125,2.8,4.25));
#1432=CARTESIAN_POINT('Origin',(-3.25,2.8,3.25));
#1433=CARTESIAN_POINT('',(-4.25,2.8,3.25));
#1434=CARTESIAN_POINT('',(-5.05,2.,3.25));
#1435=CARTESIAN_POINT('Origin',(-5.05,2.8,3.25));
#1436=CARTESIAN_POINT('Origin',(-3.25,2.,3.25));
#1437=CARTESIAN_POINT('Origin',(-3.25,2.8,3.25));
#1438=CARTESIAN_POINT('Origin',(-5.05,2.8,-2.125));
#1439=CARTESIAN_POINT('',(-4.25,2.8,1.73205080756888));
#1440=CARTESIAN_POINT('',(-5.05,2.,2.6));
#1441=CARTESIAN_POINT('Ctrl Pts',(-4.25,2.8,1.73205080756888));
#1442=CARTESIAN_POINT('Ctrl Pts',(-4.25,2.74066692229487,1.73205080756888));
#1443=CARTESIAN_POINT('Ctrl Pts',(-4.25658297484041,2.68348044050908,1.74259734499349));
#1444=CARTESIAN_POINT('Ctrl Pts',(-4.28032158660524,2.57485795306974,1.77941745396253));
#1445=CARTESIAN_POINT('Ctrl Pts',(-4.29749832076282,2.52341804896361,1.80566591555018));
#1446=CARTESIAN_POINT('Ctrl Pts',(-4.36133506866615,2.37960370414589,1.89883165404474));
#1447=CARTESIAN_POINT('Ctrl Pts',(-4.42083756527853,2.29779158482299,1.98001855066862));
#1448=CARTESIAN_POINT('Ctrl Pts',(-4.55471162512415,2.16391752497737,2.14369500991485));
#1449=CARTESIAN_POINT('Ctrl Pts',(-4.64198872333844,2.10378873359,2.24068798729356));
#1450=CARTESIAN_POINT('Ctrl Pts',(-4.83690486535599,2.02168529992616,2.42938661785481));
#1451=CARTESIAN_POINT('Ctrl Pts',(-4.94471782222373,2.,2.52103836666779));
#1452=CARTESIAN_POINT('Ctrl Pts',(-5.05,2.,2.6));
#1453=CARTESIAN_POINT('',(-5.05,2.,-2.125));
#1454=CARTESIAN_POINT('',(-4.25,2.8,-2.125));
#1455=CARTESIAN_POINT('Origin',(-4.25,0.,-4.25));
#1456=CARTESIAN_POINT('',(-4.25,5.5,3.25));
#1457=CARTESIAN_POINT('',(-4.25,0.,3.25));
#1458=CARTESIAN_POINT('',(-4.25,5.5,1.73205080756888));
#1459=CARTESIAN_POINT('',(-4.25,5.5,4.25));
#1460=CARTESIAN_POINT('',(-4.25,0.,1.73205080756888));
#1461=CARTESIAN_POINT('Origin',(-3.25,0.,3.25));
#1462=CARTESIAN_POINT('',(-3.25,5.5,4.25));
#1463=CARTESIAN_POINT('',(-3.25,0.,4.25));
#1464=CARTESIAN_POINT('Origin',(-3.25,5.5,3.25));
#1465=CARTESIAN_POINT('Origin',(-4.25,0.,4.25));
#1466=CARTESIAN_POINT('',(4.25,5.5,4.25));
#1467=CARTESIAN_POINT('Origin',(-2.125,2.8,5.05));
#1468=CARTESIAN_POINT('',(2.89235498012183,2.,5.05));
#1469=CARTESIAN_POINT('',(2.89235498012183,2.8,4.25));
#1470=CARTESIAN_POINT('Origin',(2.89235498012183,2.8,5.05));
#1471=CARTESIAN_POINT('',(-2.125,2.8,4.25));
#1472=CARTESIAN_POINT('',(-2.125,2.,5.05));
#1473=CARTESIAN_POINT('Ctrl Pts',(2.89235498012183,2.8,4.25));
#1474=CARTESIAN_POINT('Ctrl Pts',(2.89235498012183,2.8,4.25));
#1475=CARTESIAN_POINT('Ctrl Pts',(2.89235498012183,2.8,4.25));
#1476=CARTESIAN_POINT('Ctrl Pts',(2.89235498012183,2.8,4.25));
#1477=CARTESIAN_POINT('Ctrl Pts',(2.89235498012183,2.8,4.25));
#1478=CARTESIAN_POINT('Ctrl Pts',(2.89235498012183,2.,4.25));
#1479=CARTESIAN_POINT('Ctrl Pts',(2.89235498012183,2.,4.25));
#1480=CARTESIAN_POINT('Ctrl Pts',(2.89235498012183,2.,4.25));
#1481=CARTESIAN_POINT('Ctrl Pts',(2.89235498012183,2.,4.25));
#1482=CARTESIAN_POINT('Ctrl Pts',(2.89235498012183,2.,4.25));
#1483=CARTESIAN_POINT('Ctrl Pts',(2.89235498012183,2.,5.05));
#1484=CARTESIAN_POINT('Ctrl Pts',(3.42689789045727,2.,5.05));
#1485=CARTESIAN_POINT('Ctrl Pts',(3.63145860613086,2.,4.55614674589207));
#1486=CARTESIAN_POINT('Ctrl Pts',(3.83601932180445,2.,4.06229349178414));
#1487=CARTESIAN_POINT('Ctrl Pts',(3.45804040507107,2.,3.68431457505076));
#1488=CARTESIAN_POINT('',(3.45804040507107,2.,3.68431457505076));
#1489=CARTESIAN_POINT('Origin',(3.45804040507107,2.8,3.68431457505076));
#1490=CARTESIAN_POINT('Origin',(2.89235498012183,2.,4.25));
#1491=CARTESIAN_POINT('Origin',(0.,2.,0.));
#1492=CARTESIAN_POINT('',(4.77418298312177,2.,2.36817199700007));
#1493=CARTESIAN_POINT('',(3.23176623509137,2.,3.91058874503046));
#1494=CARTESIAN_POINT('',(3.41823872677637,2.,9.66323672517476));
#1495=CARTESIAN_POINT('Origin',(0.,2.,0.));
#1496=CARTESIAN_POINT('',(9.66323672517476,2.,3.41823872677637));
#1497=CARTESIAN_POINT('',(9.66323672517476,2.,3.41823872677637));
#1498=CARTESIAN_POINT('Origin',(0.,2.,0.));
#1499=CARTESIAN_POINT('Origin',(7.,2.,1.19348975147204E-15));
#1500=CARTESIAN_POINT('Origin',(0.,5.5,0.));
#1501=CARTESIAN_POINT('Origin',(-7.,5.5,-2.2655965784226E-15));
#1502=CARTESIAN_POINT('',(2.89235498012183,5.5,4.25));
#1503=CARTESIAN_POINT('',(4.25,5.5,4.25));
#1504=CARTESIAN_POINT('',(4.25,5.5,2.89235498012183));
#1505=CARTESIAN_POINT('',(4.25,5.5,2.89235498012183));
#1506=CARTESIAN_POINT('',(4.25,5.5,1.73205080756888));
#1507=CARTESIAN_POINT('',(4.25,5.5,-4.25));
#1508=CARTESIAN_POINT('Origin',(7.,5.5,1.40834381901946E-15));
#1509=CARTESIAN_POINT('Origin',(1.83697019872103E-15,5.5,-7.));
#1510=CARTESIAN_POINT('Origin',(4.25,0.,2.89235498012183));
#1511=CARTESIAN_POINT('',(4.25,0.,1.73205080756888));
#1512=CARTESIAN_POINT('',(4.25,0.,2.89235498012183));
#1513=CARTESIAN_POINT('Origin',(-4.25,0.,4.25));
#1514=CARTESIAN_POINT('',(2.89235498012183,0.,4.25));
#1515=CARTESIAN_POINT('Origin',(2.89235498012183,0.,4.25));
#1516=CARTESIAN_POINT('',(4.77418298312177,0.,2.36817199700007));
#1517=CARTESIAN_POINT('Origin',(0.,2.,0.));
#1518=CARTESIAN_POINT('Origin',(0.,2.,-7.));
#1519=CARTESIAN_POINT('',(-10.25,2.,-7.17293125214878E-16));
#1520=CARTESIAN_POINT('Origin',(0.,2.,0.));
#1521=CARTESIAN_POINT('Origin',(-7.,2.,-4.89858719658941E-16));
#1522=CARTESIAN_POINT('Origin',(0.,2.,0.));
#1523=CARTESIAN_POINT('Origin',(0.,2.,0.));
#1524=CARTESIAN_POINT('Origin',(0.,2.,-7.));
#1525=CARTESIAN_POINT('Origin',(7.,-1.,1.11022302462516E-15));
#1526=CARTESIAN_POINT('Origin',(7.,-1.,1.19348975147204E-15));
#1527=CARTESIAN_POINT('',(5.4,-1.,1.38777878078145E-15));
#1528=CARTESIAN_POINT('Origin',(7.,-1.,1.19348975147204E-15));
#1529=CARTESIAN_POINT('Origin',(0.,-1.,-7.));
#1530=CARTESIAN_POINT('Origin',(0.,-1.,-7.));
#1531=CARTESIAN_POINT('',(-1.6,-1.,-7.));
#1532=CARTESIAN_POINT('Origin',(0.,-1.,-7.));
#1533=CARTESIAN_POINT('Origin',(-7.,-1.,-5.55111512312578E-16));
#1534=CARTESIAN_POINT('',(-10.25,-1.,-7.17293125214878E-16));
#1535=CARTESIAN_POINT('Origin',(-7.,-1.,-4.89858719658941E-16));
#1536=CARTESIAN_POINT('',(-8.6,-1.,-2.77555756156289E-16));
#1537=CARTESIAN_POINT('Origin',(-7.,-1.,-4.89858719658941E-16));
#1538=CARTESIAN_POINT('Origin',(-1.11022302462516E-15,-1.,7.));
#1539=CARTESIAN_POINT('Origin',(-9.79717439317883E-16,-1.,7.));
#1540=CARTESIAN_POINT('',(-1.6,-1.,7.));
#1541=CARTESIAN_POINT('Origin',(-9.79717439317883E-16,-1.,7.));
#1542=CARTESIAN_POINT('Origin',(7.,0.,1.19348975147204E-15));
#1543=CARTESIAN_POINT('',(10.25,0.,1.74760999322692E-15));
#1544=CARTESIAN_POINT('Origin',(-9.79717439317883E-16,0.,7.));
#1545=CARTESIAN_POINT('Origin',(-9.79717439317883E-16,2.,7.));
#1546=CARTESIAN_POINT('',(-1.43458625042976E-15,0.,10.25));
#1547=CARTESIAN_POINT('Origin',(0.,0.,-7.));
#1548=CARTESIAN_POINT('',(0.,0.,-10.25));
#1549=CARTESIAN_POINT('Origin',(-7.,0.,-4.89858719658941E-16));
#1550=CARTESIAN_POINT('',(-10.25,0.,-7.17293125214878E-16));
#1551=CARTESIAN_POINT('',(-10.25,0.,-7.17293125214878E-16));
#1552=CARTESIAN_POINT('Origin',(-7.,2.,-4.89858719658941E-16));
#1553=CARTESIAN_POINT('Origin',(0.,2.,0.));
#1554=CARTESIAN_POINT('Origin',(0.,2.,0.));
#1555=CARTESIAN_POINT('Origin',(-9.79717439317883E-16,0.,7.));
#1556=CARTESIAN_POINT('',(-1.6,-5.,7.));
#1557=CARTESIAN_POINT('Origin',(-9.79717439317883E-16,-5.,7.));
#1558=CARTESIAN_POINT('',(-1.6,0.,7.));
#1559=CARTESIAN_POINT('Origin',(-7.,0.,-4.89858719658941E-16));
#1560=CARTESIAN_POINT('',(-8.6,-5.,0.));
#1561=CARTESIAN_POINT('Origin',(-7.,-5.,-4.89858719658941E-16));
#1562=CARTESIAN_POINT('',(-8.6,0.,-6.85802207522518E-16));
#1563=CARTESIAN_POINT('Origin',(7.,0.,1.19348975147204E-15));
#1564=CARTESIAN_POINT('',(5.4,-5.,1.11022302462516E-15));
#1565=CARTESIAN_POINT('Origin',(7.,-5.,1.19348975147204E-15));
#1566=CARTESIAN_POINT('',(5.4,0.,9.97546263608467E-16));
#1567=CARTESIAN_POINT('Origin',(0.,0.,-7.));
#1568=CARTESIAN_POINT('',(-1.6,-5.,-7.));
#1569=CARTESIAN_POINT('Origin',(0.,-5.,-7.));
#1570=CARTESIAN_POINT('',(-1.6,0.,-7.));
#1571=CARTESIAN_POINT('Origin',(9.66323672517476,0.,3.41823872677637));
#1572=CARTESIAN_POINT('',(3.41823872677637,-5.,9.66323672517477));
#1573=CARTESIAN_POINT('',(3.41823872677637,0.,9.66323672517476));
#1574=CARTESIAN_POINT('',(9.66323672517477,-5.,3.41823872677636));
#1575=CARTESIAN_POINT('',(9.66323672517476,-5.,3.41823872677637));
#1576=CARTESIAN_POINT('',(9.66323672517476,0.,3.41823872677637));
#1577=CARTESIAN_POINT('Origin',(0.,0.,0.));
#1578=CARTESIAN_POINT('Origin',(0.,-5.,0.));
#1579=CARTESIAN_POINT('Origin',(0.,-5.,0.));
#1580=UNCERTAINTY_MEASURE_WITH_UNIT(LENGTH_MEASURE(0.01),#1584,
'DISTANCE_ACCURACY_VALUE',
'Maximum model space distance between geometric entities at asserted c
onnectivities');
#1581=UNCERTAINTY_MEASURE_WITH_UNIT(LENGTH_MEASURE(0.01),#1584,
'DISTANCE_ACCURACY_VALUE',
'Maximum model space distance between geometric entities at asserted c
onnectivities');
#1582=(
GEOMETRIC_REPRESENTATION_CONTEXT(3)
GLOBAL_UNCERTAINTY_ASSIGNED_CONTEXT((#1580))
GLOBAL_UNIT_ASSIGNED_CONTEXT((#1584,#1586,#1587))
REPRESENTATION_CONTEXT('','3D')
);
#1583=(
GEOMETRIC_REPRESENTATION_CONTEXT(3)
GLOBAL_UNCERTAINTY_ASSIGNED_CONTEXT((#1581))
GLOBAL_UNIT_ASSIGNED_CONTEXT((#1584,#1586,#1587))
REPRESENTATION_CONTEXT('','3D')
);
#1584=(
LENGTH_UNIT()
NAMED_UNIT(*)
SI_UNIT(.MILLI.,.METRE.)
);
#1585=(
LENGTH_UNIT()
NAMED_UNIT(*)
SI_UNIT($,.METRE.)
);
#1586=(
NAMED_UNIT(*)
PLANE_ANGLE_UNIT()
SI_UNIT($,.RADIAN.)
);
#1587=(
NAMED_UNIT(*)
SI_UNIT($,.STERADIAN.)
SOLID_ANGLE_UNIT()
);
#1588=SHAPE_DEFINITION_REPRESENTATION(#1589,#1590);
#1589=PRODUCT_DEFINITION_SHAPE('',$,#1592);
#1590=SHAPE_REPRESENTATION('',(#864),#1582);
#1591=PRODUCT_DEFINITION_CONTEXT('part definition',#1596,'design');
#1592=PRODUCT_DEFINITION('2026-10-07-10-18-11-868','(Unsaved)',#1593,#1591);
#1593=PRODUCT_DEFINITION_FORMATION('',$,#1598);
#1594=PRODUCT_RELATED_PRODUCT_CATEGORY('(Unsaved)','(Unsaved)',(#1598));
#1595=APPLICATION_PROTOCOL_DEFINITION('international standard',
'automotive_design',2009,#1596);
#1596=APPLICATION_CONTEXT(
'Core Data for Automotive Mechanical Design Process');
#1597=PRODUCT_CONTEXT('part definition',#1596,'mechanical');
#1598=PRODUCT('2026-10-07-10-18-11-868','(Unsaved)',$,(#1597));
#1599=PRESENTATION_STYLE_ASSIGNMENT((#1600));
#1600=SURFACE_STYLE_USAGE(.BOTH.,#1601);
#1601=SURFACE_SIDE_STYLE('',(#1602));
#1602=SURFACE_STYLE_FILL_AREA(#1603);
#1603=FILL_AREA_STYLE('Steel - Satin',(#1604));
#1604=FILL_AREA_STYLE_COLOUR('Steel - Satin',#1605);
#1605=COLOUR_RGB('Steel - Satin',0.627450980392157,0.627450980392157,0.627450980392157);
ENDSEC;
END-ISO-10303-21;
